<?xml version="1.0" encoding="UTF-8" standalone="no"?>
<svg
   xmlns:dc="http://purl.org/dc/elements/1.1/"
   xmlns:cc="http://creativecommons.org/ns#"
   xmlns:rdf="http://www.w3.org/1999/02/22-rdf-syntax-ns#"
   xmlns:svg="http://www.w3.org/2000/svg"
   xmlns="http://www.w3.org/2000/svg"
   xmlns:xlink="http://www.w3.org/1999/xlink"
   version="1.1"
   id="svg3799"
   height="68.26667"
   width="68.26667">
  <defs
     id="defs3801">
    <linearGradient
       id="linearGradient9347">
      <stop
         id="stop9349"
         offset="0"
         style="stop-color:#0079ff;stop-opacity:1;" />
      <stop
         id="stop9351"
         offset="1"
         style="stop-color:#0079ff;stop-opacity:0" />
    </linearGradient>
    <marker
       style="overflow:visible"
       id="Arrow2Mstart"
       refX="0"
       refY="0"
       orient="auto">
      <path
         d="M 5.5798962,2.5815905 -1.4126653,0.01024849 5.5798966,-2.561093 c -1.117119,1.518119 -1.1106821,3.5951692 -4e-7,5.1426835 z"
         style="fill-rule:evenodd;stroke-width:0.40000001;stroke-linejoin:round"
         id="path4317" />
    </marker>
    <marker
       style="overflow:visible"
       id="Arrow1Mend"
       refX="0"
       refY="0"
       orient="auto">
      <path
         style="fill-rule:evenodd;stroke:#000000;stroke-width:0.42666668pt"
         d="M -4.2666667,0 -6.4,2.1333333 1.0666667,0 -6.4,-2.1333333 Z"
         id="path4302" />
    </marker>
    <marker
       style="overflow:visible"
       id="Arrow2Mend"
       refX="0"
       refY="0"
       orient="auto">
      <path
         d="M -5.5798962,-2.5815905 1.4126653,-0.01024849 -5.5798966,2.561093 c 1.117119,-1.518119 1.1106821,-3.5951692 4e-7,-5.1426835 z"
         style="fill-rule:evenodd;stroke-width:0.40000001;stroke-linejoin:round"
         id="path4320" />
    </marker>
    <marker
       style="overflow:visible"
       id="Arrow1Mstart"
       refX="0"
       refY="0"
       orient="auto">
      <path
         style="fill-rule:evenodd;stroke:#000000;stroke-width:0.42666668pt"
         d="M 4.2666667,0 6.4,-2.1333333 -1.0666667,0 6.4,2.1333333 Z"
         id="path4299" />
    </marker>
    <marker
       style="overflow:visible"
       id="Arrow1Lend"
       refX="0"
       refY="0"
       orient="auto">
      <path
         style="fill-rule:evenodd;stroke:#000000;stroke-width:0.85333335pt"
         d="M -10.666667,0 -14.933333,4.2666667 0,0 -14.933333,-4.2666667 Z"
         id="path4296" />
    </marker>
    <marker
       style="overflow:visible"
       id="Arrow2Lend"
       refX="0"
       refY="0"
       orient="auto">
      <path
         d="M -11.403143,-4.732916 1.416553,-0.01878889 -11.403144,4.6953372 c 2.0480517,-2.7832182 2.0362508,-6.5911436 10e-7,-9.4282532 z"
         style="fill-rule:evenodd;stroke-width:0.73333335;stroke-linejoin:round"
         id="path4314" />
    </marker>
    <marker
       style="overflow:visible"
       id="EmptyTriangleOutL"
       refX="0"
       refY="0"
       orient="auto">
      <path
         style="fill:#ffffff;fill-rule:evenodd;stroke:#000000;stroke-width:0.85333335pt"
         d="M -0.19626667,0 -7.5776,4.2666667 v -8.5333334 z"
         id="path4487" />
    </marker>
    <marker
       style="overflow:visible"
       id="DotS"
       refX="0"
       refY="0"
       orient="auto">
      <path
         style="fill-rule:evenodd;stroke:#000000;stroke-width:0.21333334pt"
         d="m 1.0453333,0 c 0,0.5888 -0.47786663,1.0666667 -1.06666663,1.0666667 C -0.61013333,1.0666667 -1.088,0.5888 -1.088,0 c 0,-0.5888 0.47786667,-1.0666667 1.06666667,-1.0666667 0.5888,0 1.06666663,0.4778667 1.06666663,1.0666667 z"
         id="path4394" />
    </marker>
    <marker
       style="overflow:visible"
       id="DotL"
       refX="0"
       refY="0"
       orient="auto">
      <path
         style="fill-rule:evenodd;stroke:#000000;stroke-width:0.85333335pt"
         d="m 4.1813333,0 c 0,2.3552 -1.9114666,4.2666667 -4.26666663,4.2666667 C -2.4405333,4.2666667 -4.352,2.3552 -4.352,0 c 0,-2.3552 1.9114667,-4.2666667 4.26666667,-4.2666667 C 2.2698667,-4.2666667 4.1813333,-2.3552 4.1813333,0 Z"
         id="path4388" />
    </marker>
    <marker
       style="overflow:visible"
       id="Tail"
       refX="0"
       refY="0"
       orient="auto">
      <g
         transform="scale(-1.2)"
         id="g4363">
        <path
           style="fill:none;fill-rule:evenodd;stroke:#000000;stroke-width:0.85333335;stroke-linecap:round"
           d="M -4.0585252,-4.2224242 0.57975567,0"
           id="path4365" />
        <path
           style="fill:none;fill-rule:evenodd;stroke:#000000;stroke-width:0.85333335;stroke-linecap:round"
           d="M -1.3724621,-4.2224242 3.265819,0"
           id="path4367" />
        <path
           style="fill:none;fill-rule:evenodd;stroke:#000000;stroke-width:0.85333335;stroke-linecap:round"
           d="M 1.3923821,-4.2224242 6.030663,0"
           id="path4369" />
        <path
           style="fill:none;fill-rule:evenodd;stroke:#000000;stroke-width:0.85333335;stroke-linecap:round"
           d="M -4.0585252,4.4560894 0.57975567,0.23439174"
           id="path4371" />
        <path
           style="fill:none;fill-rule:evenodd;stroke:#000000;stroke-width:0.85333335;stroke-linecap:round"
           d="M -1.3724621,4.4560894 3.265819,0.23439174"
           id="path4373" />
        <path
           style="fill:none;fill-rule:evenodd;stroke:#000000;stroke-width:0.85333335;stroke-linecap:round"
           d="M 1.3923821,4.4560894 6.030663,0.23439174"
           id="path4375" />
      </g>
    </marker>
    <marker
       style="overflow:visible"
       id="Arrow1Sstart"
       refX="0"
       refY="0"
       orient="auto">
      <path
         style="fill-rule:evenodd;stroke:#000000;stroke-width:0.21333334pt"
         d="M 1.28,0 2.3466667,-1.0666667 -1.3866667,0 2.3466667,1.0666667 Z"
         id="path4339" />
    </marker>
    <marker
       style="overflow:visible"
       id="Arrow1Lstart"
       refX="0"
       refY="0"
       orient="auto">
      <path
         style="fill-rule:evenodd;stroke:#000000;stroke-width:0.85333335pt"
         d="M 10.666667,0 14.933333,-4.2666667 0,0 14.933333,4.2666667 Z"
         id="path4327" />
    </marker>
    <marker
       style="overflow:visible"
       id="Arrow1Mstart-9"
       refX="0"
       refY="0"
       orient="auto">
      <path
         style="fill-rule:evenodd;stroke:#000000;stroke-width:0.42666668pt"
         d="M 4.2666667,0 6.4,-2.1333333 -1.0666667,0 6.4,2.1333333 Z"
         id="path4299-1" />
    </marker>
    <marker
       style="overflow:visible"
       id="Arrow2Mend-7"
       refX="0"
       refY="0"
       orient="auto">
      <path
         d="M -5.5798962,-2.5815905 1.4126653,-0.01024849 -5.5798966,2.561093 c 1.117119,-1.518119 1.1106821,-3.5951692 4e-7,-5.1426835 z"
         style="fill-rule:evenodd;stroke-width:0.40000001;stroke-linejoin:round"
         id="path4320-8" />
    </marker>
    <linearGradient
       gradientUnits="userSpaceOnUse"
       y2="47.081963"
       x2="1.8271284"
       y1="40.800289"
       x1="-21.345743"
       id="linearGradient9353"
       xlink:href="#linearGradient9347" />
  </defs>
  <metadata
     id="metadata3804">
    <rdf:RDF>
      <cc:Work
         rdf:about="">
        <dc:format>image/svg+xml</dc:format>
        <dc:type
           rdf:resource="http://purl.org/dc/dcmitype/StillImage" />
        <dc:title></dc:title>
      </cc:Work>
    </rdf:RDF>
  </metadata>
  <g
     id="layer1">
    <path
       id="path9394"
       d="M 65.30633,64.780518 C 59.706332,60.425124 32.577945,52.47605 16.28964,40.306988 4.6707689,31.626481 1.4253921,17.762401 2.4421613,15.338617 8.8907348,7.1394143 18.004021,5.2315739 31.311955,13.055259 51.214895,24.756122 65.30633,64.780518 65.30633,64.780518"
       style="fill:none;fill-opacity:0.54901961;stroke:#0079ff;stroke-width:5.66929134;stroke-linecap:butt;stroke-linejoin:miter;stroke-opacity:1" />
    <path
       id="path6626"
       d="m 52.909091,38.26667 c 7.454545,12.363637 2.727273,25.818182 2.727273,25.818182 0,0 -6.181819,-6.363636 -16.181819,-10.909091"
       style="fill:none;fill-rule:evenodd;stroke:#000000;stroke-width:5.6692915;stroke-linecap:butt;stroke-linejoin:miter;stroke-opacity:1" />
  </g>
</svg>
