<?xml version="1.0" encoding="iso-8859-1"?>
<!-- Generator: Adobe Illustrator 19.0.0, SVG Export Plug-In . SVG Version: 6.00 Build 0)  -->
<svg version="1.1" id="Capa_1" xmlns="http://www.w3.org/2000/svg" xmlns:xlink="http://www.w3.org/1999/xlink" x="0px" y="0px"
	 viewBox="0 0 55 55" style="enable-background:new 0 0 55 55;" xml:space="preserve">
<g>
	<path d="M49,8.5v-8H0v47h7v7h48v-46H49z M2,45.5v-43h45v6H7v37H2z M53,52.5H9v-5v-37h40h4V52.5z"/>
	<path d="M42,30.5H32v-10c0-0.553-0.447-1-1-1s-1,0.447-1,1v10H20c-0.553,0-1,0.447-1,1s0.447,1,1,1h10v10c0,0.553,0.447,1,1,1
		s1-0.447,1-1v-10h10c0.553,0,1-0.447,1-1S42.553,30.5,42,30.5z"/>
</g>
<g>
</g>
<g>
</g>
<g>
</g>
<g>
</g>
<g>
</g>
<g>
</g>
<g>
</g>
<g>
</g>
<g>
</g>
<g>
</g>
<g>
</g>
<g>
</g>
<g>
</g>
<g>
</g>
<g>
</g>
</svg>
