<?xml version="1.0" encoding="iso-8859-1"?>
<!-- Generator: Adobe Illustrator 19.0.0, SVG Export Plug-In . SVG Version: 6.00 Build 0)  -->
<svg version="1.1" id="Capa_1" xmlns="http://www.w3.org/2000/svg" xmlns:xlink="http://www.w3.org/1999/xlink" x="0px" y="0px"
	 viewBox="0 0 58 58" style="enable-background:new 0 0 58 58;" xml:space="preserve">
<g>
	<path d="M58,13h-4V9h-4V5H8v4H4v4H0v32h4v4h4v4h42v-4h4v-4h4V13z M2,43V15h2v28H2z M6,47v-2V13v-2h2v36H6z M48,51H10v-2V9V7h38v2
		v40V51z M52,47h-2V11h2v2v32V47z M56,43h-2V15h2V43z"/>
	<circle cx="17" cy="14" r="1"/>
	<circle cx="14" cy="11" r="1"/>
	<circle cx="20" cy="11" r="1"/>
	<circle cx="14" cy="17" r="1"/>
	<circle cx="20" cy="17" r="1"/>
	<circle cx="23" cy="14" r="1"/>
	<circle cx="29" cy="14" r="1"/>
	<circle cx="26" cy="11" r="1"/>
	<circle cx="32" cy="11" r="1"/>
	<circle cx="26" cy="17" r="1"/>
	<circle cx="32" cy="17" r="1"/>
	<circle cx="35" cy="14" r="1"/>
	<circle cx="41" cy="14" r="1"/>
	<circle cx="38" cy="11" r="1"/>
	<circle cx="44" cy="11" r="1"/>
	<circle cx="38" cy="17" r="1"/>
	<circle cx="44" cy="17" r="1"/>
	<circle cx="17" cy="20" r="1"/>
	<circle cx="17" cy="26" r="1"/>
	<circle cx="14" cy="23" r="1"/>
	<circle cx="20" cy="23" r="1"/>
	<circle cx="14" cy="29" r="1"/>
	<circle cx="20" cy="29" r="1"/>
	<circle cx="23" cy="20" r="1"/>
	<circle cx="29" cy="20" r="1"/>
	<circle cx="23" cy="26" r="1"/>
	<circle cx="29" cy="26" r="1"/>
	<circle cx="26" cy="23" r="1"/>
	<circle cx="32" cy="23" r="1"/>
	<circle cx="26" cy="29" r="1"/>
	<circle cx="32" cy="29" r="1"/>
	<circle cx="35" cy="20" r="1"/>
	<circle cx="41" cy="20" r="1"/>
	<circle cx="35" cy="26" r="1"/>
	<circle cx="41" cy="26" r="1"/>
	<circle cx="38" cy="23" r="1"/>
	<circle cx="44" cy="23" r="1"/>
	<circle cx="38" cy="29" r="1"/>
	<circle cx="44" cy="29" r="1"/>
	<circle cx="17" cy="32" r="1"/>
	<circle cx="17" cy="38" r="1"/>
	<circle cx="14" cy="35" r="1"/>
	<circle cx="20" cy="35" r="1"/>
	<circle cx="14" cy="41" r="1"/>
	<circle cx="20" cy="41" r="1"/>
	<circle cx="23" cy="32" r="1"/>
	<circle cx="29" cy="32" r="1"/>
	<circle cx="23" cy="38" r="1"/>
	<circle cx="29" cy="38" r="1"/>
	<circle cx="26" cy="35" r="1"/>
	<circle cx="32" cy="35" r="1"/>
	<circle cx="26" cy="41" r="1"/>
	<circle cx="32" cy="41" r="1"/>
	<circle cx="35" cy="32" r="1"/>
	<circle cx="41" cy="32" r="1"/>
	<circle cx="35" cy="38" r="1"/>
	<circle cx="41" cy="38" r="1"/>
	<circle cx="38" cy="35" r="1"/>
	<circle cx="44" cy="35" r="1"/>
	<circle cx="38" cy="41" r="1"/>
	<circle cx="44" cy="41" r="1"/>
	<circle cx="17" cy="44" r="1"/>
	<circle cx="14" cy="47" r="1"/>
	<circle cx="20" cy="47" r="1"/>
	<circle cx="23" cy="44" r="1"/>
	<circle cx="29" cy="44" r="1"/>
	<circle cx="26" cy="47" r="1"/>
	<circle cx="32" cy="47" r="1"/>
	<circle cx="35" cy="44" r="1"/>
	<circle cx="41" cy="44" r="1"/>
	<circle cx="38" cy="47" r="1"/>
	<circle cx="44" cy="47" r="1"/>
</g>
<g>
</g>
<g>
</g>
<g>
</g>
<g>
</g>
<g>
</g>
<g>
</g>
<g>
</g>
<g>
</g>
<g>
</g>
<g>
</g>
<g>
</g>
<g>
</g>
<g>
</g>
<g>
</g>
<g>
</g>
</svg>
