<?xml version="1.0" encoding="iso-8859-1"?>
<!-- Generator: Adobe Illustrator 19.0.0, SVG Export Plug-In . SVG Version: 6.00 Build 0)  -->
<svg version="1.1" id="Capa_1" xmlns="http://www.w3.org/2000/svg" xmlns:xlink="http://www.w3.org/1999/xlink" x="0px" y="0px"
	 viewBox="0 0 60 60" style="enable-background:new 0 0 60 60;" xml:space="preserve">
<g>
	<path d="M60,8.311c0-0.199-0.052-0.382-0.131-0.551c-0.027-0.209-0.112-0.412-0.254-0.579L53.46,0H6.54L0.384,7.182
		C0.242,7.348,0.157,7.55,0.131,7.76C0.052,7.929,0,8.112,0,8.311V19h3v41h54V19h3V8.311z M7.46,2h45.08l4.286,5H3.174L7.46,2z
		 M55,58H5V19h50V58z M58,17h-1H3H2V9h56V17z"/>
	<path d="M42,23H18v10h24V23z M40,31H20v-6h20V31z"/>
	<path d="M45,38H15v14h30V38z M43,50H17V40h26V50z"/>
	<path d="M22,48h5c0.552,0,1-0.447,1-1s-0.448-1-1-1h-5c-0.552,0-1,0.447-1,1S21.448,48,22,48z"/>
	<path d="M27,44h11c0.552,0,1-0.447,1-1s-0.448-1-1-1H27c-0.552,0-1,0.447-1,1S26.448,44,27,44z"/>
	<path d="M22,44c0.26,0,0.52-0.11,0.71-0.29C22.89,43.52,23,43.26,23,43c0-0.261-0.11-0.521-0.29-0.71c-0.38-0.37-1.04-0.37-1.42,0
		C21.11,42.479,21,42.739,21,43c0,0.27,0.11,0.52,0.29,0.71C21.48,43.89,21.73,44,22,44z"/>
	<path d="M31.29,46.29C31.11,46.479,31,46.739,31,47c0,0.26,0.11,0.52,0.29,0.71C31.48,47.89,31.74,48,32,48
		c0.26,0,0.52-0.11,0.71-0.29C32.89,47.52,33,47.26,33,47c0-0.261-0.11-0.521-0.29-0.71C32.34,45.92,31.66,45.92,31.29,46.29z"/>
	<path d="M38,46h-1c-0.552,0-1,0.447-1,1s0.448,1,1,1h1c0.552,0,1-0.447,1-1S38.552,46,38,46z"/>
</g>
<g>
</g>
<g>
</g>
<g>
</g>
<g>
</g>
<g>
</g>
<g>
</g>
<g>
</g>
<g>
</g>
<g>
</g>
<g>
</g>
<g>
</g>
<g>
</g>
<g>
</g>
<g>
</g>
<g>
</g>
</svg>
