<?xml version="1.0" encoding="iso-8859-1"?>
<!-- Generator: Adobe Illustrator 19.0.0, SVG Export Plug-In . SVG Version: 6.00 Build 0)  -->
<svg version="1.1" id="Capa_1" xmlns="http://www.w3.org/2000/svg" xmlns:xlink="http://www.w3.org/1999/xlink" x="0px" y="0px"
	 viewBox="0 0 60 60" style="enable-background:new 0 0 60 60;" xml:space="preserve">
<g>
	<path d="M60,4.412C60,3.082,58.918,2,57.588,2H2.412C1.082,2,0,3.082,0,4.412V16h3v30v7.59C3,56.021,4.979,58,7.41,58H15h30h7.59
		c2.432,0,4.41-1.979,4.41-4.41V46V16h3V4.412z M7.41,56C6.081,56,5,54.919,5,53.59v-5.534c4.165,0.462,7.482,3.779,7.944,7.944
		H7.41z M55,53.59c0,1.329-1.081,2.41-2.41,2.41h-5.534c0.462-4.165,3.779-7.482,7.944-7.944V53.59z M55,46.051
		c-5.268,0.478-9.472,4.681-9.949,9.949H14.949c-0.478-5.268-4.681-9.472-9.949-9.949V16h50V46.051z M58,14h-1H3H2V4.412
		C2,4.185,2.185,4,2.412,4h55.176C57.815,4,58,4.185,58,4.412V14z"/>
	<circle cx="9" cy="9" r="1"/>
	<circle cx="6" cy="6" r="1"/>
	<circle cx="12" cy="6" r="1"/>
	<circle cx="6" cy="12" r="1"/>
	<circle cx="12" cy="12" r="1"/>
	<circle cx="15" cy="9" r="1"/>
	<circle cx="21" cy="9" r="1"/>
	<circle cx="18" cy="6" r="1"/>
	<circle cx="24" cy="6" r="1"/>
	<circle cx="18" cy="12" r="1"/>
	<circle cx="24" cy="12" r="1"/>
	<circle cx="27" cy="9" r="1"/>
	<circle cx="33" cy="9" r="1"/>
	<circle cx="30" cy="6" r="1"/>
	<circle cx="36" cy="6" r="1"/>
	<circle cx="30" cy="12" r="1"/>
	<circle cx="36" cy="12" r="1"/>
	<circle cx="39" cy="9" r="1"/>
	<circle cx="45" cy="9" r="1"/>
	<circle cx="42" cy="6" r="1"/>
	<circle cx="48" cy="6" r="1"/>
	<circle cx="42" cy="12" r="1"/>
	<circle cx="48" cy="12" r="1"/>
	<circle cx="51" cy="9" r="1"/>
	<circle cx="54" cy="6" r="1"/>
	<circle cx="54" cy="12" r="1"/>
	<path d="M24.505,31h10.99C37.428,31,39,29.428,39,27.495V26c0-0.553-0.447-1-1-1s-1,0.447-1,1v1.495C37,28.325,36.325,29,35.495,29
		h-10.99C23.675,29,23,28.325,23,27.495V26c0-0.553-0.447-1-1-1s-1,0.447-1,1v1.495C21,29.428,22.572,31,24.505,31z"/>
</g>
<g>
</g>
<g>
</g>
<g>
</g>
<g>
</g>
<g>
</g>
<g>
</g>
<g>
</g>
<g>
</g>
<g>
</g>
<g>
</g>
<g>
</g>
<g>
</g>
<g>
</g>
<g>
</g>
<g>
</g>
</svg>
