<?xml version="1.0" encoding="iso-8859-1"?>
<!-- Generator: Adobe Illustrator 19.0.0, SVG Export Plug-In . SVG Version: 6.00 Build 0)  -->
<svg version="1.1" id="Capa_1" xmlns="http://www.w3.org/2000/svg" xmlns:xlink="http://www.w3.org/1999/xlink" x="0px" y="0px"
	 viewBox="0 0 51.619 51.619" style="enable-background:new 0 0 51.619 51.619;" xml:space="preserve">
<path d="M50.14,19.206c-0.391-0.391-1.023-0.391-1.414,0L21.432,46.5c-2.012,2.012-4.697,3.119-7.563,3.119
	c-2.867,0-5.553-1.107-7.564-3.119s-3.119-4.697-3.119-7.564c0-2.866,1.107-5.552,3.119-7.563L33.598,4.078
	c2.897-2.896,7.445-2.719,10.579,0.413c3.133,3.133,3.311,7.682,0.414,10.579L18.951,40.711c-1.433,1.433-3.767,1.434-5.203,0
	c-1.434-1.435-1.434-3.769,0-5.203l17.369-17.369c0.391-0.391,0.391-1.023,0-1.414s-1.023-0.391-1.414,0L12.334,34.093
	c-2.214,2.214-2.214,5.816,0,8.031c2.216,2.216,5.819,2.212,8.031,0l25.641-25.641c3.703-3.704,3.525-9.468-0.414-13.407
	c-3.938-3.938-9.703-4.117-13.407-0.413L4.89,29.958c-2.39,2.389-3.705,5.577-3.705,8.978c0,3.401,1.315,6.59,3.705,8.979
	c2.389,2.39,5.577,3.705,8.979,3.705c3.4,0,6.589-1.315,8.978-3.705L50.14,20.62C50.531,20.229,50.531,19.596,50.14,19.206z"/>
<g>
</g>
<g>
</g>
<g>
</g>
<g>
</g>
<g>
</g>
<g>
</g>
<g>
</g>
<g>
</g>
<g>
</g>
<g>
</g>
<g>
</g>
<g>
</g>
<g>
</g>
<g>
</g>
<g>
</g>
</svg>
