<?xml version="1.0" encoding="iso-8859-1"?>
<!-- Generator: Adobe Illustrator 19.0.0, SVG Export Plug-In . SVG Version: 6.00 Build 0)  -->
<svg version="1.1" id="Capa_1" xmlns="http://www.w3.org/2000/svg" xmlns:xlink="http://www.w3.org/1999/xlink" x="0px" y="0px"
	 viewBox="0 0 60 60" style="enable-background:new 0 0 60 60;" xml:space="preserve">
<g>
	<path d="M42.536,4H36V0H24v4h-6.536C15.554,4,14,5.554,14,7.464v49.072C14,58.446,15.554,60,17.464,60h25.071
		C44.446,60,46,58.446,46,56.536V7.464C46,5.554,44.446,4,42.536,4z M26,2h8v2h-8V2z M44,12v6v6v6v6v6v6v6v2.536
		C44,57.344,43.343,58,42.536,58H40h-6h-6h-6h-4.536c-0.303,0-0.585-0.093-0.819-0.251C16.858,57.565,17,57.303,17,57
		c0-0.552-0.448-1-1-1v-4c0.552,0,1-0.448,1-1s-0.448-1-1-1v-4c0.552,0,1-0.448,1-1s-0.448-1-1-1v-4c0.552,0,1-0.448,1-1
		s-0.448-1-1-1v-4c0.552,0,1-0.448,1-1s-0.448-1-1-1v-4c0.552,0,1-0.448,1-1s-0.448-1-1-1v-4c0.552,0,1-0.448,1-1s-0.448-1-1-1v-4
		c0.552,0,1-0.448,1-1s-0.448-1-1-1v-4c0.552,0,1-0.448,1-1s-0.448-1-1-1V7.464C16,6.656,16.657,6,17.464,6H18c0,0.552,0.448,1,1,1
		s1-0.448,1-1h4c0,0.552,0.448,1,1,1s1-0.448,1-1h4c0,0.552,0.448,1,1,1s1-0.448,1-1h4c0,0.552,0.448,1,1,1s1-0.448,1-1h4
		c0,0.552,0.448,1,1,1c0.303,0,0.566-0.142,0.749-0.355C43.907,6.879,44,7.161,44,7.464V12z"/>
	<circle cx="19" cy="12" r="1"/>
	<circle cx="22" cy="9" r="1"/>
	<circle cx="22" cy="15" r="1"/>
	<circle cx="25" cy="12" r="1"/>
	<circle cx="31" cy="12" r="1"/>
	<circle cx="28" cy="9" r="1"/>
	<circle cx="34" cy="9" r="1"/>
	<circle cx="28" cy="15" r="1"/>
	<circle cx="34" cy="15" r="1"/>
	<circle cx="37" cy="12" r="1"/>
	<circle cx="43" cy="12" r="1"/>
	<circle cx="40" cy="9" r="1"/>
	<circle cx="40" cy="15" r="1"/>
	<circle cx="19" cy="18" r="1"/>
	<circle cx="19" cy="24" r="1"/>
	<circle cx="22" cy="21" r="1"/>
	<circle cx="22" cy="27" r="1"/>
	<circle cx="25" cy="18" r="1"/>
	<circle cx="31" cy="18" r="1"/>
	<circle cx="25" cy="24" r="1"/>
	<circle cx="31" cy="24" r="1"/>
	<circle cx="28" cy="21" r="1"/>
	<circle cx="34" cy="21" r="1"/>
	<circle cx="28" cy="27" r="1"/>
	<circle cx="34" cy="27" r="1"/>
	<circle cx="37" cy="18" r="1"/>
	<circle cx="43" cy="18" r="1"/>
	<circle cx="37" cy="24" r="1"/>
	<circle cx="43" cy="24" r="1"/>
	<circle cx="40" cy="21" r="1"/>
	<circle cx="40" cy="27" r="1"/>
	<circle cx="19" cy="30" r="1"/>
	<circle cx="19" cy="36" r="1"/>
	<circle cx="22" cy="33" r="1"/>
	<circle cx="22" cy="39" r="1"/>
	<circle cx="25" cy="30" r="1"/>
	<circle cx="31" cy="30" r="1"/>
	<circle cx="25" cy="36" r="1"/>
	<circle cx="31" cy="36" r="1"/>
	<circle cx="28" cy="33" r="1"/>
	<circle cx="34" cy="33" r="1"/>
	<circle cx="28" cy="39" r="1"/>
	<circle cx="34" cy="39" r="1"/>
	<circle cx="37" cy="30" r="1"/>
	<circle cx="43" cy="30" r="1"/>
	<circle cx="37" cy="36" r="1"/>
	<circle cx="43" cy="36" r="1"/>
	<circle cx="40" cy="33" r="1"/>
	<circle cx="40" cy="39" r="1"/>
	<circle cx="19" cy="42" r="1"/>
	<circle cx="19" cy="48" r="1"/>
	<circle cx="22" cy="45" r="1"/>
	<circle cx="22" cy="51" r="1"/>
	<circle cx="25" cy="42" r="1"/>
	<circle cx="31" cy="42" r="1"/>
	<circle cx="25" cy="48" r="1"/>
	<circle cx="31" cy="48" r="1"/>
	<circle cx="28" cy="45" r="1"/>
	<circle cx="34" cy="45" r="1"/>
	<circle cx="28" cy="51" r="1"/>
	<circle cx="34" cy="51" r="1"/>
	<circle cx="37" cy="42" r="1"/>
	<circle cx="43" cy="42" r="1"/>
	<circle cx="37" cy="48" r="1"/>
	<circle cx="43" cy="48" r="1"/>
	<circle cx="40" cy="45" r="1"/>
	<circle cx="40" cy="51" r="1"/>
	<circle cx="19" cy="54" r="1"/>
	<circle cx="22" cy="57" r="1"/>
	<circle cx="25" cy="54" r="1"/>
	<circle cx="31" cy="54" r="1"/>
	<circle cx="28" cy="57" r="1"/>
	<circle cx="34" cy="57" r="1"/>
	<circle cx="37" cy="54" r="1"/>
	<circle cx="43" cy="54" r="1"/>
	<circle cx="40" cy="57" r="1"/>
</g>
<g>
</g>
<g>
</g>
<g>
</g>
<g>
</g>
<g>
</g>
<g>
</g>
<g>
</g>
<g>
</g>
<g>
</g>
<g>
</g>
<g>
</g>
<g>
</g>
<g>
</g>
<g>
</g>
<g>
</g>
</svg>
