<?xml version="1.0" encoding="iso-8859-1"?>
<!-- Generator: Adobe Illustrator 19.0.0, SVG Export Plug-In . SVG Version: 6.00 Build 0)  -->
<svg version="1.1" id="Capa_1" xmlns="http://www.w3.org/2000/svg" xmlns:xlink="http://www.w3.org/1999/xlink" x="0px" y="0px"
	 viewBox="0 0 60 60" style="enable-background:new 0 0 60 60;" xml:space="preserve">
<g>
	<path d="M35.536,4H29V0H17v4h-6.536C8.554,4,7,5.554,7,7.464v49.071C7,58.445,8.554,60,10.464,60h25.072
		C37.446,60,39,58.445,39,56.535V38.196L37.154,35L39,31.804V7.464C39,5.554,37.446,4,35.536,4z M19,2h8v2h-8V2z M37,31.269
		L35.423,34h-2.009L31,31.586V29c0-0.553-0.447-1-1-1s-1,0.447-1,1v2h-2c-0.553,0-1,0.447-1,1s0.447,1,1,1h2.586l2.155,2.155
		L29.434,39H28c-0.553,0-1,0.447-1,1s0.447,1,1,1h1v1c0,0.553,0.447,1,1,1s1-0.447,1-1v-1.723L33.566,36h1.857L37,38.731V41v6v6
		v3.535C37,57.343,36.344,58,35.536,58H10.464c-0.65,0-1.195-0.428-1.386-1.016C9.592,56.943,10,56.525,10,56c0-0.552-0.448-1-1-1
		v-4c0.552,0,1-0.448,1-1s-0.448-1-1-1v-4c0.552,0,1-0.448,1-1s-0.448-1-1-1v-4c0.552,0,1-0.448,1-1s-0.448-1-1-1v-4
		c0.552,0,1-0.448,1-1s-0.448-1-1-1v-4c0.552,0,1-0.448,1-1s-0.448-1-1-1v-4c0.552,0,1-0.448,1-1s-0.448-1-1-1V7.464
		C9,6.656,9.656,6,10.464,6H17h12h6.536C36.344,6,37,6.656,37,7.464V31.269z"/>
	<circle cx="12" cy="23" r="1"/>
	<circle cx="15" cy="20" r="1"/>
	<circle cx="15" cy="26" r="1"/>
	<circle cx="18" cy="23" r="1"/>
	<circle cx="21" cy="26" r="1"/>
	<circle cx="12" cy="29" r="1"/>
	<circle cx="12" cy="35" r="1"/>
	<circle cx="15" cy="32" r="1"/>
	<circle cx="15" cy="38" r="1"/>
	<circle cx="18" cy="29" r="1"/>
	<circle cx="18" cy="35" r="1"/>
	<circle cx="24" cy="35" r="1"/>
	<circle cx="21" cy="32" r="1"/>
	<circle cx="42" cy="37" r="1"/>
	<circle cx="44" cy="44" r="1"/>
	<circle cx="44" cy="40" r="1"/>
	<circle cx="46" cy="47" r="1"/>
	<circle cx="47" cy="50" r="1"/>
	<circle cx="50" cy="54" r="1"/>
	<circle cx="48" cy="44" r="1"/>
	<circle cx="48" cy="40" r="1"/>
	<circle cx="50" cy="48" r="1"/>
	<circle cx="47" cy="54" r="1"/>
	<circle cx="52" cy="51" r="1"/>
	<circle cx="51" cy="58" r="1"/>
	<circle cx="21" cy="38" r="1"/>
	<circle cx="12" cy="41" r="1"/>
	<circle cx="12" cy="47" r="1"/>
	<circle cx="15" cy="44" r="1"/>
	<circle cx="15" cy="50" r="1"/>
	<circle cx="18" cy="41" r="1"/>
	<circle cx="24" cy="41" r="1"/>
	<circle cx="18" cy="47" r="1"/>
	<circle cx="24" cy="47" r="1"/>
	<circle cx="21" cy="44" r="1"/>
	<circle cx="27" cy="44" r="1"/>
	<circle cx="21" cy="50" r="1"/>
	<circle cx="27" cy="50" r="1"/>
	<circle cx="36" cy="41" r="1"/>
	<circle cx="30" cy="47" r="1"/>
	<circle cx="36" cy="47" r="1"/>
	<circle cx="33" cy="44" r="1"/>
	<circle cx="33" cy="50" r="1"/>
	<circle cx="12" cy="53" r="1"/>
	<circle cx="15" cy="56" r="1"/>
	<circle cx="18" cy="53" r="1"/>
	<circle cx="24" cy="53" r="1"/>
	<circle cx="21" cy="56" r="1"/>
	<circle cx="27" cy="56" r="1"/>
	<circle cx="30" cy="53" r="1"/>
	<circle cx="36" cy="53" r="1"/>
	<circle cx="33" cy="56" r="1"/>
</g>
<g>
</g>
<g>
</g>
<g>
</g>
<g>
</g>
<g>
</g>
<g>
</g>
<g>
</g>
<g>
</g>
<g>
</g>
<g>
</g>
<g>
</g>
<g>
</g>
<g>
</g>
<g>
</g>
<g>
</g>
</svg>
