<?xml version="1.0" encoding="iso-8859-1"?>
<!-- Generator: Adobe Illustrator 19.0.0, SVG Export Plug-In . SVG Version: 6.00 Build 0)  -->
<svg version="1.1" id="Capa_1" xmlns="http://www.w3.org/2000/svg" xmlns:xlink="http://www.w3.org/1999/xlink" x="0px" y="0px"
	 viewBox="0 0 54 54" style="enable-background:new 0 0 54 54;" xml:space="preserve">
<path d="M52.513,33.545L46.616,9.366c-0.919-3.765-4.141-6.511-7.835-6.677c-2.32-0.104-4.515,0.718-6.187,2.316
	C30.921,6.605,30,8.76,30,11.073v4.247h-6v-4.247c0-2.313-0.921-4.468-2.594-6.067c-1.672-1.599-3.874-2.424-6.187-2.316
	c-3.695,0.166-6.917,2.912-7.835,6.677L1.486,33.547C0.541,35.261,0,37.228,0,39.32c0,6.617,5.383,12,12,12
	c6.418,0,11.661-5.069,11.97-11.412c0.008-0.05,0.03-0.095,0.03-0.147v-0.44v-9h6v9v0.44c0,0.049,0.022,0.092,0.029,0.139
	c0.305,6.347,5.55,11.42,11.971,11.42c6.617,0,12-5.383,12-12C54,37.227,53.459,35.26,52.513,33.545z M12,49.32
	c-5.514,0-10-4.486-10-10c0-1.821,0.497-3.525,1.352-4.998c0.184-0.317,0.385-0.62,0.6-0.912c0.053-0.072,0.105-0.144,0.16-0.214
	c0.503-0.646,1.077-1.225,1.71-1.724c0.057-0.045,0.116-0.086,0.173-0.13c0.28-0.211,0.571-0.408,0.871-0.588
	c0.054-0.033,0.107-0.067,0.162-0.099c0.707-0.407,1.464-0.726,2.254-0.951c0.08-0.023,0.161-0.042,0.242-0.062
	c0.314-0.081,0.633-0.145,0.955-0.195c0.1-0.016,0.199-0.034,0.3-0.046c0.403-0.05,0.81-0.082,1.221-0.082c5.514,0,10,4.486,10,10
	c0,0.08-0.01,0.156-0.012,0.235l-0.01,0.165c0,0.002,0.001,0.004,0.001,0.006C21.764,45.051,17.377,49.32,12,49.32z M21.177,31.604
	c-0.078-0.093-0.163-0.178-0.244-0.268c-0.216-0.242-0.439-0.476-0.674-0.699c-0.11-0.105-0.223-0.206-0.337-0.306
	c-0.23-0.203-0.468-0.396-0.713-0.581c-0.114-0.086-0.226-0.175-0.343-0.257c-0.321-0.225-0.653-0.435-0.996-0.628
	c-0.045-0.025-0.087-0.056-0.132-0.08c-0.39-0.213-0.794-0.4-1.208-0.57c-0.122-0.05-0.248-0.09-0.372-0.136
	c-0.302-0.112-0.608-0.214-0.921-0.302c-0.151-0.042-0.302-0.081-0.456-0.117c-0.312-0.074-0.628-0.134-0.949-0.183
	c-0.142-0.022-0.283-0.049-0.427-0.065c-0.462-0.054-0.929-0.09-1.405-0.09c-0.38,0-0.758,0.021-1.132,0.057
	c-0.154,0.014-0.304,0.04-0.456,0.06c-0.213,0.029-0.425,0.057-0.635,0.097c-0.189,0.035-0.374,0.08-0.559,0.124
	c-0.165,0.04-0.329,0.08-0.492,0.127c-0.202,0.057-0.402,0.12-0.6,0.188c-0.139,0.048-0.276,0.099-0.413,0.151
	c-0.206,0.079-0.41,0.161-0.611,0.251c-0.123,0.055-0.243,0.116-0.364,0.176c-0.203,0.1-0.407,0.199-0.604,0.31
	c-0.111,0.062-0.217,0.132-0.325,0.198c-0.199,0.12-0.399,0.238-0.59,0.369c-0.05,0.034-0.096,0.074-0.146,0.109
	c-0.229,0.163-0.458,0.327-0.675,0.505L9.327,9.841c0.709-2.908,3.169-5.026,5.982-5.153c1.773-0.094,3.441,0.547,4.715,1.765
	C21.298,7.67,22,9.311,22,11.073v5.247v13v3.373c-0.008-0.011-0.017-0.021-0.025-0.033C21.729,32.292,21.461,31.941,21.177,31.604z
	 M24,28.32v-11h6v11H24z M32,32.693V29.32v-13v-5.247c0-1.762,0.702-3.403,1.976-4.621c1.202-1.148,2.759-1.771,4.415-1.771
	c0.1,0,0.199,0.002,0.3,0.007c2.813,0.127,5.273,2.245,5.982,5.153L49.6,30.042c-0.449-0.369-0.933-0.696-1.433-0.997
	c-0.1-0.06-0.197-0.124-0.298-0.181c-0.201-0.114-0.409-0.215-0.617-0.317c-0.117-0.057-0.232-0.116-0.351-0.169
	c-0.203-0.091-0.409-0.174-0.618-0.254c-0.135-0.052-0.27-0.102-0.406-0.149c-0.199-0.068-0.4-0.132-0.604-0.19
	c-0.162-0.046-0.325-0.087-0.489-0.126c-0.186-0.044-0.372-0.089-0.561-0.124c-0.209-0.04-0.421-0.068-0.634-0.097
	c-0.152-0.02-0.303-0.046-0.457-0.06C42.758,27.342,42.38,27.32,42,27.32c-0.476,0-0.944,0.035-1.405,0.09
	c-0.144,0.017-0.284,0.043-0.427,0.065c-0.321,0.049-0.637,0.109-0.949,0.183c-0.153,0.037-0.305,0.075-0.456,0.117
	c-0.313,0.088-0.619,0.19-0.921,0.302c-0.124,0.046-0.25,0.086-0.372,0.136c-0.414,0.17-0.819,0.357-1.208,0.57
	c-0.045,0.025-0.087,0.055-0.132,0.08c-0.343,0.193-0.675,0.403-0.996,0.628c-0.117,0.082-0.229,0.17-0.343,0.257
	c-0.245,0.185-0.483,0.378-0.713,0.581c-0.114,0.101-0.227,0.202-0.337,0.306c-0.235,0.223-0.458,0.457-0.674,0.699
	c-0.081,0.09-0.166,0.176-0.244,0.268c-0.284,0.337-0.552,0.688-0.798,1.056C32.017,32.672,32.008,32.682,32,32.693z M42,49.32
	c-5.377,0-9.764-4.269-9.979-9.594c0-0.002,0.001-0.004,0.001-0.006l-0.01-0.165C32.01,39.476,32,39.4,32,39.32
	c0-5.514,4.486-10,10-10c0.411,0,0.818,0.032,1.221,0.083c0.101,0.012,0.2,0.03,0.3,0.046c0.323,0.05,0.642,0.114,0.956,0.195
	c0.08,0.021,0.161,0.039,0.24,0.062c0.79,0.225,1.548,0.544,2.256,0.952c0.053,0.031,0.104,0.064,0.157,0.095
	c0.303,0.182,0.596,0.38,0.879,0.594c0.055,0.042,0.112,0.081,0.166,0.124c0.636,0.5,1.212,1.081,1.716,1.73
	c0.052,0.067,0.103,0.136,0.154,0.205c0.218,0.295,0.422,0.603,0.608,0.925C51.504,35.801,52,37.502,52,39.32
	C52,44.834,47.514,49.32,42,49.32z"/>
<g>
</g>
<g>
</g>
<g>
</g>
<g>
</g>
<g>
</g>
<g>
</g>
<g>
</g>
<g>
</g>
<g>
</g>
<g>
</g>
<g>
</g>
<g>
</g>
<g>
</g>
<g>
</g>
<g>
</g>
</svg>
