<?xml version="1.0" encoding="iso-8859-1"?>
<!-- Generator: Adobe Illustrator 19.0.0, SVG Export Plug-In . SVG Version: 6.00 Build 0)  -->
<svg version="1.1" id="Capa_1" xmlns="http://www.w3.org/2000/svg" xmlns:xlink="http://www.w3.org/1999/xlink" x="0px" y="0px"
	 viewBox="0 0 59 59" style="enable-background:new 0 0 59 59;" xml:space="preserve">
<g>
	<path d="M14,7c0-3.859-3.141-7-7-7S0,3.141,0,7v45h0.003C0.003,52.02,0,52.04,0,52.06C0,55.887,3.113,59,6.94,59H59V7H14z M2,7
		c0-2.421,1.731-4.444,4.02-4.901C6.072,2.603,6.483,3,7,3s0.928-0.397,0.98-0.901C10.269,2.556,12,4.579,12,7v40.105
		C10.729,45.807,8.957,45,7,45c-0.243,0-0.482,0.013-0.719,0.037c-0.106,0.011-0.21,0.032-0.315,0.048
		c-0.128,0.019-0.257,0.034-0.383,0.06c-0.138,0.028-0.271,0.068-0.405,0.104C5.09,45.273,5,45.291,4.913,45.318
		c-0.167,0.053-0.329,0.116-0.491,0.181c-0.049,0.02-0.101,0.035-0.15,0.056c-0.199,0.084-0.392,0.18-0.582,0.282
		c-0.008,0.004-0.017,0.008-0.025,0.012C3.049,46.184,2.487,46.608,2,47.105V7z M57,57H6.94C4.216,57,2,54.784,2,52
		c0-2.757,2.243-5,5-5s5,2.243,5,5h2V9h43V57z"/>
	<path d="M46.017,21.001c0.176,0.123,0.377,0.183,0.576,0.183c0.314,0,0.623-0.147,0.818-0.423c0.318-0.451,0.211-1.075-0.24-1.395
		l-1.634-1.153c-0.453-0.317-1.075-0.21-1.395,0.24c-0.318,0.451-0.211,1.075,0.24,1.395L46.017,21.001z"/>
	<path d="M50.92,24.461c0.175,0.123,0.376,0.183,0.575,0.183c0.314,0,0.623-0.147,0.818-0.424c0.318-0.451,0.21-1.075-0.241-1.394
		l-1.635-1.153c-0.451-0.317-1.074-0.21-1.394,0.241c-0.318,0.451-0.21,1.075,0.241,1.394L50.92,24.461z"/>
	<path d="M37,41c0,0.553,0.447,1,1,1h2c0.553,0,1-0.447,1-1s-0.447-1-1-1h-2C37.447,40,37,40.447,37,41z"/>
	<path d="M51,27.383v2c0,0.553,0.447,1,1,1s1-0.447,1-1v-2c0-0.553-0.447-1-1-1S51,26.83,51,27.383z"/>
	<path d="M41.115,17.541c0.176,0.123,0.377,0.183,0.576,0.183c0.314,0,0.623-0.147,0.818-0.423c0.318-0.451,0.211-1.075-0.24-1.395
		l-1.634-1.153c-0.453-0.317-1.075-0.21-1.395,0.24c-0.318,0.451-0.211,1.075,0.24,1.395L41.115,17.541z"/>
	<path d="M43,41c0,0.553,0.447,1,1,1h2c0.553,0,1-0.447,1-1s-0.447-1-1-1h-2C43.447,40,43,40.447,43,41z"/>
	<path d="M29,41c0-0.553-0.447-1-1-1h-2c-0.553,0-1,0.447-1,1s0.447,1,1,1h2C28.553,42,29,41.553,29,41z"/>
	<path d="M52,36.383c0.553,0,1-0.447,1-1v-2c0-0.553-0.447-1-1-1s-1,0.447-1,1v2C51,35.936,51.447,36.383,52,36.383z"/>
	<path d="M36.213,14.081c0.176,0.123,0.377,0.183,0.576,0.183c0.314,0,0.623-0.147,0.818-0.423c0.318-0.451,0.211-1.075-0.24-1.395
		l-1.634-1.153c-0.453-0.316-1.075-0.209-1.395,0.24c-0.318,0.451-0.211,1.075,0.24,1.395L36.213,14.081z"/>
	<path d="M51,40h-1c-0.553,0-1,0.447-1,1s0.447,1,1,1h3v-2.617c0-0.553-0.447-1-1-1s-1,0.447-1,1V40z"/>
	<path d="M20,42h2c0.553,0,1-0.447,1-1s-0.447-1-1-1h-2c-0.553,0-1,0.447-1,1S19.447,42,20,42z"/>
	<path d="M18,28c0.553,0,1-0.447,1-1v-2c0-0.553-0.447-1-1-1s-1,0.447-1,1v2C17,27.553,17.447,28,18,28z"/>
	<path d="M20.452,23.27c0.199,0,0.4-0.06,0.576-0.183l1.634-1.153c0.451-0.319,0.559-0.943,0.24-1.395
		c-0.318-0.45-0.941-0.558-1.395-0.24l-1.634,1.153c-0.451,0.319-0.559,0.943-0.24,1.395C19.829,23.122,20.138,23.27,20.452,23.27z"
		/>
	<path d="M25.354,19.81c0.199,0,0.4-0.06,0.576-0.183l1.634-1.153c0.451-0.319,0.559-0.943,0.24-1.395
		c-0.319-0.449-0.941-0.557-1.395-0.24l-1.634,1.153c-0.451,0.319-0.559,0.943-0.24,1.395C24.73,19.662,25.039,19.81,25.354,19.81z"
		/>
	<path d="M18,34c0.553,0,1-0.447,1-1v-2c0-0.553-0.447-1-1-1s-1,0.447-1,1v2C17,33.553,17.447,34,18,34z"/>
	<path d="M30.256,16.35c0.199,0,0.4-0.06,0.576-0.183l1.634-1.153c0.451-0.319,0.559-0.943,0.24-1.395
		c-0.319-0.449-0.94-0.559-1.395-0.24l-1.634,1.153c-0.451,0.319-0.559,0.943-0.24,1.395C29.633,16.202,29.941,16.35,30.256,16.35z"
		/>
	<path d="M31,41c0,0.553,0.447,1,1,1h2c0.553,0,1-0.447,1-1s-0.447-1-1-1h-2C31.447,40,31,40.447,31,41z"/>
	<path d="M18,40c0.553,0,1-0.447,1-1v-2c0-0.553-0.447-1-1-1s-1,0.447-1,1v2C17,39.553,17.447,40,18,40z"/>
	<path d="M41,54h13v-8H41V54z M43,48h9v4h-9V48z"/>
	<path d="M22,30v2c0,0.553,0.447,1,1,1s1-0.447,1-1v-2c0-0.553-0.447-1-1-1S22,29.447,22,30z"/>
	<path d="M31,27c-0.553,0-1,0.447-1,1v2c0,0.553,0.447,1,1,1s1-0.447,1-1v-2C32,27.447,31.553,27,31,27z"/>
	<path d="M25,29h2c0.553,0,1-0.447,1-1s-0.447-1-1-1h-2c-0.553,0-1,0.447-1,1S24.447,29,25,29z"/>
	<path d="M26,36c0-0.553-0.447-1-1-1h-2c-0.553,0-1,0.447-1,1s0.447,1,1,1h2C25.553,37,26,36.553,26,36z"/>
	<path d="M29,37h2c0.553,0,1-0.447,1-1v-2c0-0.553-0.447-1-1-1s-1,0.447-1,1v1h-1c-0.553,0-1,0.447-1,1S28.447,37,29,37z"/>
	<path d="M40,28c0,0.553,0.447,1,1,1h2c0.553,0,1-0.447,1-1s-0.447-1-1-1h-2C40.447,27,40,27.447,40,28z"/>
	<path d="M46,28v2c0,0.553,0.447,1,1,1s1-0.447,1-1v-2c0-0.553-0.447-1-1-1S46,27.447,46,28z"/>
	<path d="M47,37c0.553,0,1-0.447,1-1v-2c0-0.553-0.447-1-1-1s-1,0.447-1,1v1h-1c-0.553,0-1,0.447-1,1s0.447,1,1,1H47z"/>
	<path d="M39,33c0.553,0,1-0.447,1-1v-2c0-0.553-0.447-1-1-1s-1,0.447-1,1v2C38,32.553,38.447,33,39,33z"/>
	<path d="M39,37h2c0.553,0,1-0.447,1-1s-0.447-1-1-1h-2c-0.553,0-1,0.447-1,1S38.447,37,39,37z"/>
	<path d="M38,46h-5c-0.553,0-1,0.447-1,1s0.447,1,1,1h5c0.553,0,1-0.447,1-1S38.553,46,38,46z"/>
	<path d="M38,49h-7c-0.553,0-1,0.447-1,1s0.447,1,1,1h7c0.553,0,1-0.447,1-1S38.553,49,38,49z"/>
	<path d="M38,52H28c-0.553,0-1,0.447-1,1s0.447,1,1,1h10c0.553,0,1-0.447,1-1S38.553,52,38,52z"/>
	<circle cx="4" cy="5" r="1"/>
	<circle cx="10" cy="5" r="1"/>
	<circle cx="7" cy="8" r="1"/>
	<circle cx="4" cy="11" r="1"/>
	<circle cx="10" cy="11" r="1"/>
	<circle cx="4" cy="17" r="1"/>
	<circle cx="10" cy="17" r="1"/>
	<circle cx="7" cy="14" r="1"/>
	<circle cx="7" cy="20" r="1"/>
	<circle cx="4" cy="23" r="1"/>
	<circle cx="10" cy="23" r="1"/>
	<circle cx="4" cy="29" r="1"/>
	<circle cx="10" cy="29" r="1"/>
	<circle cx="7" cy="26" r="1"/>
	<circle cx="7" cy="32" r="1"/>
	<circle cx="4" cy="35" r="1"/>
	<circle cx="10" cy="35" r="1"/>
	<circle cx="4" cy="41" r="1"/>
	<circle cx="10" cy="41" r="1"/>
	<circle cx="7" cy="38" r="1"/>
	<circle cx="7" cy="44" r="1"/>
</g>
<g>
</g>
<g>
</g>
<g>
</g>
<g>
</g>
<g>
</g>
<g>
</g>
<g>
</g>
<g>
</g>
<g>
</g>
<g>
</g>
<g>
</g>
<g>
</g>
<g>
</g>
<g>
</g>
<g>
</g>
</svg>
