<?xml version="1.0" encoding="iso-8859-1"?>
<!-- Generator: Adobe Illustrator 19.0.0, SVG Export Plug-In . SVG Version: 6.00 Build 0)  -->
<svg version="1.1" id="Capa_1" xmlns="http://www.w3.org/2000/svg" xmlns:xlink="http://www.w3.org/1999/xlink" x="0px" y="0px"
	 viewBox="0 0 57 57" style="enable-background:new 0 0 57 57;" xml:space="preserve">
<g>
	<path d="M27.5,8.586l0.035,17.176l-8.292-7.491l-1.341,1.484l9.155,8.271l-9.223,8.241l1.333,1.492l8.37-7.479L27.5,48.63
		l10.357-11.652l-8.244-8.688l8.259-9.332L27.5,8.586z M35.127,19.042l-5.603,6.331L29.5,13.414L35.127,19.042z M29.5,43.37
		l0.024-12.269l5.618,5.921L29.5,43.37z"/>
	<path d="M28.5,0c-9.925,0-18,8.075-18,18v21c0,9.925,8.075,18,18,18s18-8.075,18-18V18C46.5,8.075,38.425,0,28.5,0z M44.5,39
		c0,8.822-7.178,16-16,16s-16-7.178-16-16V18c0-8.822,7.178-16,16-16s16,7.178,16,16V39z"/>
</g>
<g>
</g>
<g>
</g>
<g>
</g>
<g>
</g>
<g>
</g>
<g>
</g>
<g>
</g>
<g>
</g>
<g>
</g>
<g>
</g>
<g>
</g>
<g>
</g>
<g>
</g>
<g>
</g>
<g>
</g>
</svg>
