<?xml version="1.0" encoding="iso-8859-1"?>
<!-- Generator: Adobe Illustrator 19.0.0, SVG Export Plug-In . SVG Version: 6.00 Build 0)  -->
<svg version="1.1" id="Capa_1" xmlns="http://www.w3.org/2000/svg" xmlns:xlink="http://www.w3.org/1999/xlink" x="0px" y="0px"
	 viewBox="0 0 60 60" style="enable-background:new 0 0 60 60;" xml:space="preserve">
<path d="M56.99,13.5H55v-3H45v3h-4V7.706C41,5.938,39.562,4.5,37.794,4.5H22.206C20.438,4.5,19,5.938,19,7.706V13.5h-4v-3H5v3H3.01
	C1.351,13.5,0,14.851,0,16.51v35.98c0,1.659,1.351,3.01,3.01,3.01h53.98c1.659,0,3.01-1.351,3.01-3.01V16.51
	C60,14.851,58.649,13.5,56.99,13.5z M47,12.5h6v1h-6V12.5z M21,7.706C21,7.041,21.541,6.5,22.206,6.5h15.588
	C38.459,6.5,39,7.041,39,7.706V13.5H21V7.706z M19,15.5h22h4h5v38H10v-38h5H19z M7,12.5h6v1H7V12.5z M2,52.49V16.51
	c0-0.557,0.453-1.01,1.01-1.01H5h3v38H3.01C2.453,53.5,2,53.047,2,52.49z M58,52.49c0,0.557-0.453,1.01-1.01,1.01H52v-38h3h1.99
	c0.557,0,1.01,0.453,1.01,1.01V52.49z"/>
<g>
</g>
<g>
</g>
<g>
</g>
<g>
</g>
<g>
</g>
<g>
</g>
<g>
</g>
<g>
</g>
<g>
</g>
<g>
</g>
<g>
</g>
<g>
</g>
<g>
</g>
<g>
</g>
<g>
</g>
</svg>
