<?xml version="1.0" encoding="iso-8859-1"?>
<!-- Generator: Adobe Illustrator 19.0.0, SVG Export Plug-In . SVG Version: 6.00 Build 0)  -->
<svg version="1.1" id="Capa_1" xmlns="http://www.w3.org/2000/svg" xmlns:xlink="http://www.w3.org/1999/xlink" x="0px" y="0px"
	 viewBox="0 0 60 60" style="enable-background:new 0 0 60 60;" xml:space="preserve">
<g>
	<path d="M50.586,0H9.414C7.807,0,6.5,1.308,6.5,2.914v54.172C6.5,58.692,7.807,60,9.414,60h41.172c1.607,0,2.914-1.308,2.914-2.914
		V2.914C53.5,1.308,52.193,0,50.586,0z M51.5,57.086C51.5,57.59,51.09,58,50.586,58H9.414C8.91,58,8.5,57.59,8.5,57.086V2.914
		C8.5,2.41,8.91,2,9.414,2h41.172C51.09,2,51.5,2.41,51.5,2.914V57.086z"/>
	<path d="M11.5,55h11V44h-11V55z M13.5,46h7v7h-7V46z"/>
	<path d="M24.5,55h11V44h-11V55z M26.5,46h7v7h-7V46z"/>
	<path d="M37.5,55h11V31h-11V55z M39.5,33h7v20h-7V33z"/>
	<path d="M11.5,42h11V31h-11V42z M13.5,33h7v7h-7V33z"/>
	<path d="M24.5,42h11V31h-11V42z M26.5,33h7v7h-7V33z"/>
	<path d="M11.5,29h11V18h-11V29z M13.5,20h7v7h-7V20z"/>
	<path d="M24.5,29h11V18h-11V29z M26.5,20h7v7h-7V20z"/>
	<path d="M37.5,29h11V18h-11V29z M39.5,20h7v7h-7V20z"/>
	<path d="M11.5,15h37V5h-37V15z M13.5,7h33v6h-33V7z"/>
</g>
<g>
</g>
<g>
</g>
<g>
</g>
<g>
</g>
<g>
</g>
<g>
</g>
<g>
</g>
<g>
</g>
<g>
</g>
<g>
</g>
<g>
</g>
<g>
</g>
<g>
</g>
<g>
</g>
<g>
</g>
</svg>
