<?xml version="1.0" encoding="iso-8859-1"?>
<!-- Generator: Adobe Illustrator 19.0.0, SVG Export Plug-In . SVG Version: 6.00 Build 0)  -->
<svg version="1.1" id="Capa_1" xmlns="http://www.w3.org/2000/svg" xmlns:xlink="http://www.w3.org/1999/xlink" x="0px" y="0px"
	 viewBox="0 0 60 60" style="enable-background:new 0 0 60 60;" xml:space="preserve">
<g>
	<path d="M50.25,11c-1.563-0.838-11.282-6.07-16.623-9.421C32.715,0.612,31.431,0,30,0s-2.715,0.612-3.627,1.579
		C21.031,4.929,11.313,10.162,9.75,11H0v49h60V11H50.25z M32.223,3.004c0.004,0.005,0.005,0.011,0.01,0.016
		c0.243,0.273,0.511,0.686,0.657,1.216c0.012,0.045,0.032,0.087,0.042,0.134C32.974,4.564,33,4.774,33,5c0,1.654-1.346,3-3,3
		s-3-1.346-3-3c0-0.226,0.026-0.436,0.069-0.63c0.01-0.046,0.029-0.087,0.041-0.132c0.146-0.532,0.414-0.944,0.657-1.218
		c0.004-0.005,0.005-0.011,0.01-0.016C28.327,2.393,29.115,2,30,2S31.673,2.393,32.223,3.004z M25.006,4.754
		C25.002,4.836,25,4.918,25,5c0,2.757,2.243,5,5,5s5-2.243,5-5c0-0.082-0.002-0.164-0.006-0.246C38.587,6.89,43.029,9.351,46.051,11
		H13.949C16.971,9.351,21.413,6.89,25.006,4.754z M10,13h40h8v5H2v-5H10z M2,58V20h56v38H2z"/>
	<circle cx="23" cy="28" r="1"/>
	<circle cx="30" cy="28" r="1"/>
	<circle cx="37" cy="28" r="1"/>
	<circle cx="44" cy="28" r="1"/>
	<circle cx="51" cy="28" r="1"/>
	<circle cx="9" cy="36" r="1"/>
	<circle cx="16" cy="36" r="1"/>
	<circle cx="23" cy="36" r="1"/>
	<circle cx="30" cy="36" r="1"/>
	<circle cx="37" cy="36" r="1"/>
	<circle cx="44" cy="36" r="1"/>
	<circle cx="51" cy="36" r="1"/>
	<circle cx="9" cy="43" r="1"/>
	<circle cx="16" cy="43" r="1"/>
	<circle cx="23" cy="43" r="1"/>
	<circle cx="30" cy="43" r="1"/>
	<circle cx="37" cy="43" r="1"/>
	<circle cx="44" cy="43" r="1"/>
	<circle cx="51" cy="43" r="1"/>
	<circle cx="9" cy="51" r="1"/>
	<circle cx="16" cy="51" r="1"/>
	<circle cx="23" cy="51" r="1"/>
	<circle cx="30" cy="51" r="1"/>
	<circle cx="37" cy="51" r="1"/>
</g>
<g>
</g>
<g>
</g>
<g>
</g>
<g>
</g>
<g>
</g>
<g>
</g>
<g>
</g>
<g>
</g>
<g>
</g>
<g>
</g>
<g>
</g>
<g>
</g>
<g>
</g>
<g>
</g>
<g>
</g>
</svg>
