<?xml version="1.0" encoding="iso-8859-1"?>
<!-- Generator: Adobe Illustrator 19.0.0, SVG Export Plug-In . SVG Version: 6.00 Build 0)  -->
<svg version="1.1" id="Capa_1" xmlns="http://www.w3.org/2000/svg" xmlns:xlink="http://www.w3.org/1999/xlink" x="0px" y="0px"
	 viewBox="0 0 58 58" style="enable-background:new 0 0 58 58;" xml:space="preserve">
<g>
	<path d="M42.899,4.5c-0.465-2.279-2.484-4-4.899-4c-0.552,0-1,0.447-1,1s0.448,1,1,1c1.654,0,3,1.346,3,3s-1.346,3-3,3
		c-0.552,0-1,0.447-1,1s0.448,1,1,1c2.414,0,4.434-1.721,4.899-4H56v7H44h-2H30h-2H16h-2H2v-7h14h3c0.552,0,1-0.447,1-1
		s-0.448-1-1-1h-1.816c0.414-1.162,1.514-2,2.816-2c1.654,0,3,1.346,3,3s-1.346,3-3,3c-0.552,0-1,0.447-1,1s0.448,1,1,1
		c2.757,0,5-2.243,5-5s-2.243-5-5-5c-2.414,0-4.434,1.721-4.899,4H0v9v3v11v2v12v2v14h14h2h12h2h12h2h14v-14v-2v-12v-2v-11v-3v-9
		H42.899z M30,15.5h12v12H30V15.5z M42,41.5H30v-12h12V41.5z M16,29.5h12v12H16V29.5z M16,15.5h12v12H16V15.5z M2,16.5v-1h12v12H2
		V16.5z M2,29.5h12v12H2V29.5z M2,55.5v-12h12v12H2z M16,55.5v-12h12v12H16z M30,55.5v-12h12v12H30z M56,55.5H44v-12h12V55.5z
		 M56,41.5H44v-12h12V41.5z M44,27.5v-12h12v1v11H44z"/>
	<path d="M26,2.5c1.654,0,3,1.346,3,3s-1.346,3-3,3c-0.552,0-1,0.447-1,1s0.448,1,1,1c2.757,0,5-2.243,5-5s-2.243-5-5-5
		c-0.552,0-1,0.447-1,1S25.448,2.5,26,2.5z"/>
	<path d="M32,2.5c1.654,0,3,1.346,3,3s-1.346,3-3,3c-0.552,0-1,0.447-1,1s0.448,1,1,1c2.757,0,5-2.243,5-5s-2.243-5-5-5
		c-0.552,0-1,0.447-1,1S31.448,2.5,32,2.5z"/>
	<path d="M31.293,40.207C31.488,40.402,31.744,40.5,32,40.5s0.512-0.098,0.707-0.293L36,36.914l3.293,3.293
		C39.488,40.402,39.744,40.5,40,40.5s0.512-0.098,0.707-0.293c0.391-0.391,0.391-1.023,0-1.414L37.414,35.5l3.293-3.293
		c0.391-0.391,0.391-1.023,0-1.414s-1.023-0.391-1.414,0L36,34.086l-3.293-3.293c-0.391-0.391-1.023-0.391-1.414,0
		s-0.391,1.023,0,1.414l3.293,3.293l-3.293,3.293C30.902,39.184,30.902,39.816,31.293,40.207z"/>
</g>
<g>
</g>
<g>
</g>
<g>
</g>
<g>
</g>
<g>
</g>
<g>
</g>
<g>
</g>
<g>
</g>
<g>
</g>
<g>
</g>
<g>
</g>
<g>
</g>
<g>
</g>
<g>
</g>
<g>
</g>
</svg>
