<?xml version="1.0" encoding="iso-8859-1"?>
<!-- Generator: Adobe Illustrator 19.0.0, SVG Export Plug-In . SVG Version: 6.00 Build 0)  -->
<svg version="1.1" id="Capa_1" xmlns="http://www.w3.org/2000/svg" xmlns:xlink="http://www.w3.org/1999/xlink" x="0px" y="0px"
	 viewBox="0 0 58 58" style="enable-background:new 0 0 58 58;" xml:space="preserve">
<g>
	<path d="M42.899,4.5c-0.465-2.279-2.484-4-4.899-4c-0.552,0-1,0.447-1,1s0.448,1,1,1c1.654,0,3,1.346,3,3s-1.346,3-3,3
		c-0.552,0-1,0.447-1,1s0.448,1,1,1c2.414,0,4.434-1.721,4.899-4H56v9H2v-9h14h3c0.552,0,1-0.447,1-1s-0.448-1-1-1h-1.816
		c0.414-1.162,1.514-2,2.816-2c1.654,0,3,1.346,3,3s-1.346,3-3,3c-0.552,0-1,0.447-1,1s0.448,1,1,1c2.757,0,5-2.243,5-5
		s-2.243-5-5-5c-2.414,0-4.434,1.721-4.899,4H0v13v40h58v-40v-13H42.899z M56,55.5H2v-38h54V55.5z"/>
	<path d="M26,2.5c1.654,0,3,1.346,3,3s-1.346,3-3,3c-0.552,0-1,0.447-1,1s0.448,1,1,1c2.757,0,5-2.243,5-5s-2.243-5-5-5
		c-0.552,0-1,0.447-1,1S25.448,2.5,26,2.5z"/>
	<path d="M32,2.5c1.654,0,3,1.346,3,3s-1.346,3-3,3c-0.552,0-1,0.447-1,1s0.448,1,1,1c2.757,0,5-2.243,5-5s-2.243-5-5-5
		c-0.552,0-1,0.447-1,1S31.448,2.5,32,2.5z"/>
	<path d="M9,25.5h22c0.552,0,1-0.447,1-1s-0.448-1-1-1H9c-0.552,0-1,0.447-1,1S8.448,25.5,9,25.5z"/>
	<path d="M49,39.5H34c-0.552,0-1,0.447-1,1s0.448,1,1,1h15c0.552,0,1-0.447,1-1S49.552,39.5,49,39.5z"/>
	<path d="M9,33.5h10c0.552,0,1-0.447,1-1s-0.448-1-1-1H9c-0.552,0-1,0.447-1,1S8.448,33.5,9,33.5z"/>
	<path d="M49,47.5H39c-0.552,0-1,0.447-1,1s0.448,1,1,1h10c0.552,0,1-0.447,1-1S49.552,47.5,49,47.5z"/>
	<path d="M28,32.5c0,0.553,0.448,1,1,1h15c0.552,0,1-0.447,1-1s-0.448-1-1-1H29C28.448,31.5,28,31.947,28,32.5z"/>
	<path d="M24.71,33.21C24.89,33.02,25,32.76,25,32.5c0-0.261-0.11-0.521-0.29-0.71c-0.37-0.37-1.05-0.37-1.42,0
		C23.11,31.979,23,32.239,23,32.5c0,0.26,0.11,0.52,0.29,0.71c0.19,0.189,0.45,0.29,0.71,0.29C24.26,33.5,24.52,33.399,24.71,33.21z
		"/>
	<path d="M13,40.5c0,0.553,0.448,1,1,1h15c0.552,0,1-0.447,1-1s-0.448-1-1-1H14C13.448,39.5,13,39.947,13,40.5z"/>
	<path d="M9,41.5c0.26,0,0.52-0.11,0.71-0.29C9.89,41.02,10,40.76,10,40.5c0-0.261-0.11-0.521-0.29-0.7
		c-0.37-0.38-1.05-0.38-1.42-0.01C8.11,39.979,8,40.239,8,40.5c0,0.26,0.11,0.52,0.29,0.71C8.48,41.39,8.73,41.5,9,41.5z"/>
	<path d="M49,33.5c0.26,0,0.52-0.101,0.71-0.29C49.9,33.02,50,32.76,50,32.5c0-0.261-0.1-0.521-0.29-0.71
		c-0.38-0.37-1.05-0.37-1.42,0C48.11,31.979,48,32.239,48,32.5c0,0.26,0.11,0.52,0.29,0.71C48.48,33.399,48.74,33.5,49,33.5z"/>
	<path d="M34,47.5H9c-0.552,0-1,0.447-1,1s0.448,1,1,1h25c0.552,0,1-0.447,1-1S34.552,47.5,34,47.5z"/>
</g>
<g>
</g>
<g>
</g>
<g>
</g>
<g>
</g>
<g>
</g>
<g>
</g>
<g>
</g>
<g>
</g>
<g>
</g>
<g>
</g>
<g>
</g>
<g>
</g>
<g>
</g>
<g>
</g>
<g>
</g>
</svg>
