<?xml version="1.0" encoding="iso-8859-1"?>
<!-- Generator: Adobe Illustrator 19.0.0, SVG Export Plug-In . SVG Version: 6.00 Build 0)  -->
<svg version="1.1" id="Capa_1" xmlns="http://www.w3.org/2000/svg" xmlns:xlink="http://www.w3.org/1999/xlink" x="0px" y="0px"
	 viewBox="0 0 58 58" style="enable-background:new 0 0 58 58;" xml:space="preserve">
<g>
	<path d="M26,2.5c1.654,0,3,1.346,3,3s-1.346,3-3,3c-0.553,0-1,0.447-1,1s0.447,1,1,1c2.757,0,5-2.243,5-5s-2.243-5-5-5
		c-0.553,0-1,0.447-1,1S25.447,2.5,26,2.5z"/>
	<path d="M32,2.5c1.654,0,3,1.346,3,3s-1.346,3-3,3c-0.553,0-1,0.447-1,1s0.447,1,1,1c2.757,0,5-2.243,5-5s-2.243-5-5-5
		c-0.553,0-1,0.447-1,1S31.447,2.5,32,2.5z"/>
	<path d="M42.899,4.5c-0.465-2.279-2.484-4-4.899-4c-0.553,0-1,0.447-1,1s0.447,1,1,1c1.654,0,3,1.346,3,3s-1.346,3-3,3
		c-0.553,0-1,0.447-1,1s0.447,1,1,1c2.414,0,4.434-1.721,4.899-4H56v1c-0.552,0-1,0.448-1,1s0.448,1,1,1v4c-0.552,0-1,0.448-1,1
		s0.448,1,1,1v1H2v-1c0.552,0,1-0.448,1-1s-0.448-1-1-1v-4c0.552,0,1-0.448,1-1s-0.448-1-1-1v-1h14h3c0.553,0,1-0.447,1-1
		s-0.447-1-1-1h-1.816c0.414-1.162,1.514-2,2.816-2c1.654,0,3,1.346,3,3s-1.346,3-3,3c-0.553,0-1,0.447-1,1s0.447,1,1,1
		c2.757,0,5-2.243,5-5s-2.243-5-5-5c-2.414,0-4.434,1.721-4.899,4H0v14v39h58v-39v-14H42.899z M56,55.5H2v-37h54V55.5z"/>
	<path d="M12.293,31.207C12.488,31.402,12.744,31.5,13,31.5s0.512-0.098,0.707-0.293L18,26.914V49.5h-3c-0.553,0-1,0.447-1,1
		s0.447,1,1,1h8c0.553,0,1-0.447,1-1s-0.447-1-1-1h-3v-25c0-0.13-0.026-0.26-0.077-0.382c-0.101-0.245-0.296-0.44-0.541-0.541
		c-0.244-0.101-0.519-0.101-0.764,0c-0.123,0.051-0.234,0.125-0.326,0.217l-5.999,5.999C11.902,30.184,11.902,30.816,12.293,31.207z
		"/>
	<path d="M30,43.5c0,4.411,3.589,8,8,8s8-3.589,8-8c0-3.07-1.74-5.738-4.284-7.079C43.685,35.181,45,32.994,45,30.5
		c0-3.859-3.141-7-7-7s-7,3.141-7,7c0,2.494,1.315,4.681,3.284,5.921C31.74,37.762,30,40.43,30,43.5z M33,30.5c0-2.757,2.243-5,5-5
		s5,2.243,5,5s-2.243,5-5,5S33,33.257,33,30.5z M38,37.5c3.309,0,6,2.691,6,6s-2.691,6-6,6s-6-2.691-6-6S34.691,37.5,38,37.5z"/>
	<circle cx="8" cy="8.5" r="1"/>
	<circle cx="8" cy="14.5" r="1"/>
	<circle cx="5" cy="11.5" r="1"/>
	<circle cx="11" cy="11.5" r="1"/>
	<circle cx="14" cy="8.5" r="1"/>
	<circle cx="14" cy="14.5" r="1"/>
	<circle cx="20" cy="14.5" r="1"/>
	<circle cx="17" cy="11.5" r="1"/>
	<circle cx="23" cy="11.5" r="1"/>
	<circle cx="26" cy="14.5" r="1"/>
	<circle cx="32" cy="14.5" r="1"/>
	<circle cx="29" cy="11.5" r="1"/>
	<circle cx="35" cy="11.5" r="1"/>
	<circle cx="44" cy="8.5" r="1"/>
	<circle cx="38" cy="14.5" r="1"/>
	<circle cx="44" cy="14.5" r="1"/>
	<circle cx="41" cy="11.5" r="1"/>
	<circle cx="47" cy="11.5" r="1"/>
	<circle cx="50" cy="8.5" r="1"/>
	<circle cx="50" cy="14.5" r="1"/>
	<circle cx="53" cy="11.5" r="1"/>
</g>
<g>
</g>
<g>
</g>
<g>
</g>
<g>
</g>
<g>
</g>
<g>
</g>
<g>
</g>
<g>
</g>
<g>
</g>
<g>
</g>
<g>
</g>
<g>
</g>
<g>
</g>
<g>
</g>
<g>
</g>
</svg>
