<?xml version="1.0" encoding="iso-8859-1"?>
<!-- Generator: Adobe Illustrator 19.0.0, SVG Export Plug-In . SVG Version: 6.00 Build 0)  -->
<svg version="1.1" id="Capa_1" xmlns="http://www.w3.org/2000/svg" xmlns:xlink="http://www.w3.org/1999/xlink" x="0px" y="0px"
	 viewBox="0 0 59 59" style="enable-background:new 0 0 59 59;" xml:space="preserve">
<g>
	<path d="M52,21c-0.553,0-1,0.447-1,1v32H2V5h49v1c0,0.553,0.447,1,1,1s1-0.447,1-1V3H0v53h53V22C53,21.447,52.553,21,52,21z"/>
	<path d="M58.707,7.293c-0.391-0.391-1.023-0.391-1.414,0L27,37.586l-13.07-13.07c-0.391-0.391-1.023-0.391-1.414,0
		s-0.391,1.023,0,1.414l13.777,13.777C26.488,39.902,26.744,40,27,40s0.512-0.098,0.707-0.293l31-31
		C59.098,8.316,59.098,7.684,58.707,7.293z"/>
</g>
<g>
</g>
<g>
</g>
<g>
</g>
<g>
</g>
<g>
</g>
<g>
</g>
<g>
</g>
<g>
</g>
<g>
</g>
<g>
</g>
<g>
</g>
<g>
</g>
<g>
</g>
<g>
</g>
<g>
</g>
</svg>
