<?xml version="1.0" encoding="iso-8859-1"?>
<!-- Generator: Adobe Illustrator 19.0.0, SVG Export Plug-In . SVG Version: 6.00 Build 0)  -->
<svg version="1.1" id="Capa_1" xmlns="http://www.w3.org/2000/svg" xmlns:xlink="http://www.w3.org/1999/xlink" x="0px" y="0px"
	 viewBox="0 0 60 60" style="enable-background:new 0 0 60 60;" xml:space="preserve">
<g>
	<path d="M19,31h7.142c0.447,1.72,2,3,3.858,3c2.206,0,4-1.794,4-4c0-1.859-1.28-3.411-3-3.858V16c0-0.553-0.448-1-1-1s-1,0.447-1,1
		v10.142c-1.399,0.364-2.494,1.459-2.858,2.858H19c-0.552,0-1,0.447-1,1S18.448,31,19,31z M30,28c1.103,0,2,0.897,2,2s-0.897,2-2,2
		s-2-0.897-2-2S28.897,28,30,28z"/>
	<path d="M30,10c0.552,0,1-0.447,1-1V8c0-0.553-0.448-1-1-1s-1,0.447-1,1v1C29,9.553,29.448,10,30,10z"/>
	<path d="M30,50c-0.552,0-1,0.447-1,1v1c0,0.553,0.448,1,1,1s1-0.447,1-1v-1C31,50.447,30.552,50,30,50z"/>
	<path d="M51,29c-0.552,0-1,0.447-1,1s0.448,1,1,1h1c0.552,0,1-0.447,1-1s-0.448-1-1-1H51z"/>
	<path d="M8,31h1c0.552,0,1-0.447,1-1s-0.448-1-1-1H8c-0.552,0-1,0.447-1,1S7.448,31,8,31z"/>
	<path d="M50.293,10.707c0.256,0,0.512-0.098,0.707-0.293l0.707-0.707c0.391-0.391,0.391-1.023,0-1.414s-1.023-0.391-1.414,0
		L49.586,9c-0.391,0.391-0.391,1.023,0,1.414C49.781,10.609,50.037,10.707,50.293,10.707z"/>
	<path d="M9.146,49.439l-0.707,0.707c-0.391,0.391-0.391,1.023,0,1.414c0.195,0.195,0.451,0.293,0.707,0.293
		s0.512-0.098,0.707-0.293l0.707-0.707c0.391-0.391,0.391-1.023,0-1.414S9.537,49.049,9.146,49.439z"/>
	<path d="M50.146,51.561c0.195,0.195,0.451,0.293,0.707,0.293s0.512-0.098,0.707-0.293c0.391-0.391,0.391-1.023,0-1.414
		l-0.707-0.707c-0.391-0.391-1.023-0.391-1.414,0s-0.391,1.023,0,1.414L50.146,51.561z"/>
	<path d="M8.793,10.207C8.988,10.402,9.244,10.5,9.5,10.5s0.512-0.098,0.707-0.293c0.391-0.391,0.391-1.023,0-1.414L9.5,8.086
		c-0.391-0.391-1.023-0.391-1.414,0s-0.391,1.023,0,1.414L8.793,10.207z"/>
	<path d="M0,0v60h60V0H0z M58,58H2V2h56V58z"/>
</g>
<g>
</g>
<g>
</g>
<g>
</g>
<g>
</g>
<g>
</g>
<g>
</g>
<g>
</g>
<g>
</g>
<g>
</g>
<g>
</g>
<g>
</g>
<g>
</g>
<g>
</g>
<g>
</g>
<g>
</g>
</svg>
