<?xml version="1.0" encoding="iso-8859-1"?>
<!-- Generator: Adobe Illustrator 19.0.0, SVG Export Plug-In . SVG Version: 6.00 Build 0)  -->
<svg version="1.1" id="Capa_1" xmlns="http://www.w3.org/2000/svg" xmlns:xlink="http://www.w3.org/1999/xlink" x="0px" y="0px"
	 viewBox="0 0 55 55" style="enable-background:new 0 0 55 55;" xml:space="preserve">
<g>
	<path d="M49,8.5v-8H0v47h7v7h48v-46H49z M2,45.5v-43h45v6H7v37H2z M53,52.5H9v-5v-37h40h4V52.5z"/>
	<path d="M39.485,23.015c-0.391-0.391-1.023-0.391-1.414,0L31,30.086l-7.071-7.071c-0.391-0.391-1.023-0.391-1.414,0
		s-0.391,1.023,0,1.414l7.071,7.071l-7.071,7.071c-0.391,0.391-0.391,1.023,0,1.414c0.195,0.195,0.451,0.293,0.707,0.293
		s0.512-0.098,0.707-0.293L31,32.914l7.071,7.071c0.195,0.195,0.451,0.293,0.707,0.293s0.512-0.098,0.707-0.293
		c0.391-0.391,0.391-1.023,0-1.414L32.414,31.5l7.071-7.071C39.876,24.038,39.876,23.405,39.485,23.015z"/>
</g>
<g>
</g>
<g>
</g>
<g>
</g>
<g>
</g>
<g>
</g>
<g>
</g>
<g>
</g>
<g>
</g>
<g>
</g>
<g>
</g>
<g>
</g>
<g>
</g>
<g>
</g>
<g>
</g>
<g>
</g>
</svg>
