<?xml version="1.0" encoding="iso-8859-1"?>
<!-- Generator: Adobe Illustrator 19.0.0, SVG Export Plug-In . SVG Version: 6.00 Build 0)  -->
<svg version="1.1" id="Capa_1" xmlns="http://www.w3.org/2000/svg" xmlns:xlink="http://www.w3.org/1999/xlink" x="0px" y="0px"
	 viewBox="0 0 60 60" style="enable-background:new 0 0 60 60;" xml:space="preserve">
<g>
	<path d="M50.975,17.694C50.448,8.694,43.029,1.5,34.084,1.5c-5.43,0-10.688,2.663-13.946,7.008
		c-0.075-0.039-0.155-0.066-0.231-0.103C19.711,8.31,19.513,8.22,19.31,8.139c-0.118-0.047-0.238-0.089-0.358-0.131
		c-0.197-0.069-0.397-0.13-0.6-0.185c-0.12-0.032-0.239-0.065-0.36-0.093c-0.22-0.05-0.444-0.088-0.67-0.121
		c-0.105-0.016-0.209-0.036-0.315-0.048C16.676,7.523,16.341,7.5,16,7.5c-4.962,0-9,4.037-9,9c0,0.129,0.008,0.255,0.016,0.381
		C2.857,19.148,0,23.899,0,28.654C0,35.737,5.762,41.5,12.845,41.5H18c0.552,0,1-0.447,1-1s-0.448-1-1-1h-5.155
		C6.865,39.5,2,34.635,2,28.654c0-4.154,2.705-8.466,6.432-10.253L9,18.13V17.5c0-0.123,0.008-0.249,0.015-0.375l0.009-0.173
		L9.012,16.75C9.006,16.667,9,16.584,9,16.5c0-3.859,3.14-7,7-7c0.309,0,0.614,0.027,0.917,0.067
		c0.078,0.01,0.156,0.023,0.234,0.036c0.267,0.044,0.53,0.102,0.789,0.176c0.035,0.01,0.071,0.017,0.106,0.027
		c0.285,0.087,0.563,0.198,0.835,0.321c0.07,0.032,0.139,0.066,0.208,0.1c0.241,0.119,0.477,0.25,0.705,0.398
		C21.72,11.874,23,14.039,23,16.5c0,0.553,0.448,1,1,1s1-0.447,1-1c0-2.754-1.246-5.219-3.2-6.871
		C24.666,5.879,29.388,3.5,34.084,3.5c7.744,0,14.177,6.135,14.848,13.887c-1.022-0.072-2.553-0.109-4.083,0.125
		c-0.546,0.083-0.921,0.593-0.838,1.139c0.075,0.495,0.501,0.85,0.987,0.85c0.05,0,0.101-0.004,0.152-0.012
		c2.224-0.336,4.543-0.021,4.684-0.002C54.49,20.372,58,24.661,58,29.472C58,35.001,53.501,39.5,47.972,39.5H44
		c-0.552,0-1,0.447-1,1s0.448,1,1,1h3.972C54.604,41.5,60,36.104,60,29.472C60,23.983,56.173,19.06,50.975,17.694z"/>
	<path d="M39.448,47.534C41.039,45.626,42,43.174,42,40.5c0-6.065-4.935-11-11-11s-11,4.935-11,11s4.935,11,11,11
		c2.673,0,5.125-0.96,7.034-2.552l9.259,9.259C47.488,58.402,47.744,58.5,48,58.5s0.512-0.098,0.707-0.293
		c0.391-0.391,0.391-1.023,0-1.414L39.448,47.534z M31,49.5c-4.962,0-9-4.037-9-9s4.038-9,9-9s9,4.037,9,9S35.962,49.5,31,49.5z"/>
</g>
<g>
</g>
<g>
</g>
<g>
</g>
<g>
</g>
<g>
</g>
<g>
</g>
<g>
</g>
<g>
</g>
<g>
</g>
<g>
</g>
<g>
</g>
<g>
</g>
<g>
</g>
<g>
</g>
<g>
</g>
</svg>
