<?xml version="1.0" encoding="iso-8859-1"?>
<!-- Generator: Adobe Illustrator 19.0.0, SVG Export Plug-In . SVG Version: 6.00 Build 0)  -->
<svg version="1.1" id="Capa_1" xmlns="http://www.w3.org/2000/svg" xmlns:xlink="http://www.w3.org/1999/xlink" x="0px" y="0px"
	 viewBox="0 0 57.967 57.967" style="enable-background:new 0 0 57.967 57.967;" xml:space="preserve">
<g>
	<path d="M49.489,8.475c-9.057-9.057-22.66-10.851-33.528-5.399L15.95,3.055l-0.878,0.48c-0.052,0.029-0.101,0.062-0.153,0.091
		c-0.514,0.285-1.021,0.585-1.52,0.903c-0.05,0.032-0.102,0.062-0.152,0.095c-0.542,0.35-1.074,0.719-1.596,1.109
		c-0.064,0.048-0.126,0.098-0.189,0.146c-0.431,0.327-0.854,0.669-1.27,1.024C10.076,7.002,9.96,7.101,9.845,7.201
		C9.38,7.61,8.922,8.031,8.478,8.475S7.613,9.377,7.204,9.842c-0.101,0.115-0.199,0.231-0.298,0.347
		c-0.355,0.416-0.696,0.839-1.024,1.27c-0.048,0.064-0.099,0.125-0.147,0.189c-0.39,0.522-0.759,1.054-1.109,1.595
		c-0.033,0.051-0.064,0.103-0.096,0.154c-0.318,0.499-0.618,1.005-0.902,1.518c-0.029,0.052-0.062,0.101-0.091,0.153l-0.48,0.878
		l0.021,0.011C-2.374,26.826-0.579,40.43,8.478,49.486c5.653,5.653,13.08,8.48,20.506,8.48c4.47,0,8.938-1.032,13.022-3.081
		l0.011,0.021l0.878-0.48c0.051-0.028,0.099-0.061,0.15-0.089c0.515-0.285,1.024-0.586,1.524-0.906c0.05-0.032,0.1-0.062,0.15-0.094
		c0.542-0.35,1.074-0.719,1.596-1.109c0.065-0.048,0.127-0.099,0.191-0.148c0.431-0.327,0.853-0.669,1.269-1.023
		c0.116-0.099,0.232-0.197,0.347-0.298c0.465-0.409,0.923-0.829,1.367-1.273s0.864-0.902,1.273-1.367
		c0.101-0.115,0.199-0.231,0.298-0.347c0.355-0.416,0.696-0.839,1.024-1.27c0.048-0.064,0.099-0.125,0.147-0.189
		c0.39-0.522,0.759-1.055,1.109-1.596c0.032-0.05,0.063-0.102,0.095-0.152c0.318-0.499,0.618-1.006,0.903-1.52
		c0.029-0.052,0.062-0.101,0.091-0.153l0.48-0.878l-0.021-0.011C60.34,31.135,58.546,17.531,49.489,8.475z M28.983,1.993
		c6.914,0,13.828,2.632,19.092,7.896c8.415,8.415,10.096,21.046,5.057,31.154l-13.188-7.209c1.943-4.402,1.125-9.738-2.476-13.339
		c-3.602-3.602-8.937-4.42-13.339-2.477L16.921,4.831C20.707,2.944,24.844,1.993,28.983,1.993z M51.171,44.355
		c-0.244,0.352-0.496,0.696-0.756,1.036c-0.08,0.105-0.16,0.209-0.242,0.313c-0.248,0.314-0.505,0.622-0.767,0.925
		c-0.087,0.101-0.171,0.203-0.26,0.303c-0.347,0.389-0.702,0.771-1.071,1.14s-0.751,0.725-1.14,1.071
		c-0.1,0.089-0.202,0.173-0.303,0.26c-0.303,0.262-0.61,0.519-0.925,0.767c-0.104,0.082-0.208,0.162-0.313,0.242
		c-0.34,0.26-0.685,0.512-1.036,0.756c-0.075,0.052-0.149,0.105-0.224,0.156c-0.435,0.295-0.878,0.58-1.331,0.85l-7.205-13.181
		c0.661-0.437,1.289-0.946,1.871-1.528c0.582-0.582,1.091-1.209,1.528-1.871L52.178,42.8c-0.27,0.452-0.555,0.895-0.849,1.33
		C51.277,44.205,51.224,44.28,51.171,44.355z M35.067,36.905c-0.065,0.05-0.132,0.097-0.198,0.145
		c-0.342,0.248-0.697,0.482-1.074,0.689c-0.014,0.008-0.027,0.016-0.041,0.024l-0.18,0.098c-3.764,1.943-8.513,1.341-11.663-1.81
		c-3.151-3.151-3.753-7.896-1.812-11.659l0.104-0.19c0.005-0.01,0.012-0.019,0.017-0.029c0.208-0.379,0.443-0.736,0.693-1.08
		c0.048-0.065,0.095-0.132,0.144-0.196c0.266-0.348,0.547-0.681,0.854-0.988c0.306-0.306,0.64-0.588,0.987-0.853
		c0.065-0.05,0.132-0.097,0.198-0.146c0.342-0.248,0.697-0.481,1.073-0.688c0.014-0.008,0.027-0.017,0.041-0.024l0.179-0.098
		c1.436-0.741,3.014-1.114,4.592-1.114c2.561,0,5.122,0.975,7.071,2.924c3.151,3.151,3.753,7.896,1.812,11.659l-0.104,0.19
		c-0.005,0.01-0.012,0.019-0.017,0.029c-0.208,0.379-0.443,0.736-0.693,1.08c-0.048,0.065-0.095,0.132-0.144,0.196
		c-0.266,0.348-0.547,0.681-0.854,0.988C35.748,36.358,35.415,36.64,35.067,36.905z M6.639,13.831
		c0.051-0.075,0.104-0.149,0.156-0.224c0.244-0.352,0.496-0.697,0.756-1.036c0.08-0.105,0.16-0.209,0.242-0.313
		c0.248-0.314,0.505-0.622,0.767-0.925c0.087-0.101,0.171-0.203,0.26-0.303c0.347-0.389,0.702-0.771,1.071-1.14
		s0.751-0.725,1.14-1.071c0.1-0.089,0.202-0.173,0.303-0.26c0.303-0.262,0.61-0.519,0.925-0.767
		c0.104-0.082,0.208-0.162,0.313-0.242c0.339-0.26,0.684-0.512,1.036-0.756c0.075-0.052,0.15-0.106,0.225-0.157
		c0.435-0.295,0.878-0.58,1.33-0.849l7.205,13.181c-0.661,0.437-1.289,0.946-1.871,1.528s-1.091,1.209-1.528,1.871L5.789,15.161
		C6.059,14.709,6.344,14.266,6.639,13.831z M9.892,48.072C1.476,39.657-0.204,27.026,4.834,16.918l13.188,7.209
		c-1.943,4.402-1.125,9.738,2.476,13.339c2.34,2.34,5.412,3.509,8.485,3.509c1.658,0,3.311-0.352,4.854-1.033l7.209,13.188
		C30.938,58.168,18.307,56.488,9.892,48.072z"/>
	<path d="M26.155,26.152c-0.756,0.755-1.172,1.76-1.172,2.828s0.416,2.073,1.172,2.828c0.755,0.756,1.76,1.172,2.828,1.172
		s2.073-0.416,2.828-1.172c0.756-0.755,1.172-1.76,1.172-2.828s-0.416-2.073-1.172-2.828C30.302,24.641,27.665,24.641,26.155,26.152
		z M30.397,30.395c-0.756,0.756-2.072,0.756-2.828,0c-0.378-0.378-0.586-0.88-0.586-1.414s0.208-1.036,0.586-1.414
		s0.88-0.586,1.414-0.586s1.036,0.208,1.414,0.586s0.586,0.88,0.586,1.414S30.775,30.017,30.397,30.395z"/>
</g>
<g>
</g>
<g>
</g>
<g>
</g>
<g>
</g>
<g>
</g>
<g>
</g>
<g>
</g>
<g>
</g>
<g>
</g>
<g>
</g>
<g>
</g>
<g>
</g>
<g>
</g>
<g>
</g>
<g>
</g>
</svg>
