<?xml version="1.0" encoding="iso-8859-1"?>
<!-- Generator: Adobe Illustrator 19.0.0, SVG Export Plug-In . SVG Version: 6.00 Build 0)  -->
<svg version="1.1" id="Capa_1" xmlns="http://www.w3.org/2000/svg" xmlns:xlink="http://www.w3.org/1999/xlink" x="0px" y="0px"
	 viewBox="0 0 60 60" style="enable-background:new 0 0 60 60;" xml:space="preserve">
<g>
	<path d="M30,0C13.458,0,0,13.458,0,30s13.458,30,30,30s30-13.458,30-30S46.542,0,30,0z M30,58C14.561,58,2,45.439,2,30
		S14.561,2,30,2s28,12.561,28,28S45.439,58,30,58z"/>
	<path d="M23.165,8.459c0.537-0.13,0.868-0.67,0.739-1.206c-0.129-0.537-0.67-0.866-1.206-0.739
		c-3.935,0.946-7.522,2.955-10.376,5.809S7.46,18.764,6.514,22.698c-0.129,0.536,0.202,1.076,0.739,1.206
		c0.078,0.019,0.157,0.027,0.234,0.027c0.451,0,0.861-0.308,0.972-0.767c0.859-3.575,2.685-6.836,5.277-9.429
		S19.59,9.318,23.165,8.459z"/>
	<path d="M52.747,36.096c-0.538-0.129-1.077,0.201-1.206,0.739c-0.859,3.575-2.685,6.836-5.277,9.429s-5.854,4.418-9.43,5.277
		c-0.537,0.13-0.868,0.67-0.739,1.206c0.11,0.459,0.521,0.767,0.972,0.767c0.077,0,0.156-0.009,0.234-0.027
		c3.936-0.946,7.523-2.955,10.377-5.809s4.862-6.441,5.809-10.376C53.615,36.766,53.284,36.226,52.747,36.096z"/>
	<path d="M24.452,13.286c0.538-0.125,0.873-0.663,0.747-1.2c-0.125-0.538-0.665-0.878-1.2-0.747c-3.09,0.72-5.904,2.282-8.141,4.52
		c-2.237,2.236-3.8,5.051-4.52,8.141c-0.126,0.537,0.209,1.075,0.747,1.2c0.076,0.019,0.152,0.026,0.228,0.026
		c0.454,0,0.865-0.312,0.973-0.773c0.635-2.725,2.014-5.207,3.986-7.18S21.728,13.921,24.452,13.286z"/>
	<path d="M48.661,36.001c0.126-0.537-0.209-1.075-0.747-1.2c-0.538-0.133-1.075,0.209-1.2,0.747
		c-0.635,2.725-2.014,5.207-3.986,7.18s-4.455,3.352-7.18,3.986c-0.538,0.125-0.873,0.663-0.747,1.2
		c0.107,0.462,0.519,0.773,0.973,0.773c0.075,0,0.151-0.008,0.228-0.026c3.09-0.72,5.904-2.282,8.141-4.52
		C46.379,41.905,47.941,39.091,48.661,36.001z"/>
	<path d="M26.495,16.925c-0.119-0.541-0.653-0.879-1.19-0.763c-4.557,0.997-8.146,4.586-9.143,9.143
		c-0.118,0.539,0.224,1.072,0.763,1.19c0.072,0.016,0.144,0.023,0.215,0.023c0.46,0,0.873-0.318,0.976-0.786
		c0.831-3.796,3.821-6.786,7.617-7.617C26.271,17.997,26.613,17.464,26.495,16.925z"/>
	<path d="M43.838,34.695c0.118-0.539-0.224-1.072-0.763-1.19c-0.54-0.118-1.072,0.222-1.19,0.763
		c-0.831,3.796-3.821,6.786-7.617,7.617c-0.539,0.118-0.881,0.651-0.763,1.19c0.103,0.468,0.516,0.786,0.976,0.786
		c0.071,0,0.143-0.008,0.215-0.023C39.252,42.841,42.841,39.252,43.838,34.695z"/>
	<path d="M38.08,30c0-4.455-3.625-8.08-8.08-8.08s-8.08,3.625-8.08,8.08s3.625,8.08,8.08,8.08S38.08,34.455,38.08,30z M30,36.08
		c-3.353,0-6.08-2.728-6.08-6.08s2.728-6.08,6.08-6.08s6.08,2.728,6.08,6.08S33.353,36.08,30,36.08z"/>
</g>
<g>
</g>
<g>
</g>
<g>
</g>
<g>
</g>
<g>
</g>
<g>
</g>
<g>
</g>
<g>
</g>
<g>
</g>
<g>
</g>
<g>
</g>
<g>
</g>
<g>
</g>
<g>
</g>
<g>
</g>
</svg>
