<?xml version="1.0" encoding="iso-8859-1"?>
<!-- Generator: Adobe Illustrator 19.0.0, SVG Export Plug-In . SVG Version: 6.00 Build 0)  -->
<svg version="1.1" id="Capa_1" xmlns="http://www.w3.org/2000/svg" xmlns:xlink="http://www.w3.org/1999/xlink" x="0px" y="0px"
	 viewBox="0 0 60 60" style="enable-background:new 0 0 60 60;" xml:space="preserve">
<path d="M51,8.603v-0.02l-0.31-0.295c-0.142-0.135-0.289-0.262-0.434-0.394c-0.065-0.06-0.13-0.119-0.195-0.177
	c-0.298-0.269-0.601-0.531-0.908-0.787c-0.055-0.046-0.111-0.092-0.166-0.137c-0.324-0.266-0.653-0.524-0.987-0.776
	c-0.042-0.032-0.084-0.063-0.126-0.094c-0.352-0.262-0.708-0.516-1.069-0.761c-0.029-0.02-0.058-0.039-0.087-0.059
	c-0.374-0.252-0.753-0.495-1.137-0.729c-0.024-0.015-0.048-0.03-0.073-0.044c-0.388-0.235-0.781-0.461-1.179-0.678
	c-0.027-0.015-0.053-0.029-0.08-0.044c-0.394-0.213-0.792-0.417-1.194-0.612c-0.037-0.018-0.075-0.036-0.112-0.054
	c-0.391-0.188-0.785-0.366-1.184-0.536c-0.055-0.023-0.109-0.047-0.164-0.07c-0.38-0.159-0.763-0.31-1.15-0.454
	c-0.014-0.005-0.027-0.011-0.041-0.016c-0.014-0.006-0.029-0.011-0.043-0.017c-0.05-0.019-0.101-0.036-0.151-0.054
	c-0.364-0.132-0.73-0.255-1.099-0.373c-0.104-0.033-0.208-0.068-0.313-0.1c-0.345-0.106-0.693-0.204-1.043-0.297
	c-0.13-0.035-0.26-0.072-0.391-0.105c-0.328-0.083-0.658-0.157-0.99-0.229c-0.153-0.033-0.306-0.069-0.46-0.1
	c-0.315-0.063-0.632-0.117-0.949-0.17c-0.172-0.029-0.342-0.061-0.515-0.086c-0.31-0.046-0.623-0.083-0.935-0.119
	c-0.18-0.021-0.358-0.046-0.538-0.064c-0.333-0.033-0.668-0.055-1.003-0.077c-0.161-0.01-0.32-0.026-0.481-0.034
	C30.999,0.013,30.501,0,30,0s-0.999,0.013-1.496,0.038c-0.161,0.008-0.32,0.024-0.481,0.034c-0.335,0.022-0.67,0.044-1.003,0.077
	c-0.181,0.018-0.359,0.043-0.538,0.064c-0.313,0.037-0.625,0.073-0.935,0.119c-0.173,0.026-0.343,0.058-0.515,0.086
	c-0.317,0.053-0.634,0.107-0.949,0.17c-0.154,0.031-0.307,0.067-0.46,0.1c-0.331,0.072-0.662,0.146-0.99,0.229
	c-0.131,0.033-0.261,0.07-0.391,0.105c-0.349,0.093-0.697,0.191-1.043,0.297c-0.105,0.032-0.208,0.066-0.313,0.1
	c-0.369,0.117-0.735,0.241-1.099,0.373c-0.05,0.018-0.101,0.036-0.151,0.054c-0.015,0.006-0.029,0.011-0.043,0.017
	c-0.014,0.005-0.027,0.011-0.041,0.016c-0.386,0.144-0.77,0.295-1.15,0.454c-0.055,0.023-0.109,0.047-0.164,0.07
	c-0.398,0.17-0.793,0.348-1.184,0.536c-0.037,0.018-0.075,0.036-0.112,0.054c-0.402,0.195-0.8,0.399-1.194,0.612
	c-0.027,0.015-0.054,0.029-0.08,0.044c-0.398,0.217-0.79,0.443-1.179,0.678c-0.024,0.015-0.048,0.03-0.073,0.044
	c-0.384,0.234-0.763,0.477-1.137,0.729c-0.029,0.02-0.058,0.039-0.087,0.059c-0.361,0.245-0.718,0.499-1.069,0.761
	c-0.042,0.031-0.084,0.063-0.126,0.094c-0.334,0.251-0.662,0.51-0.987,0.776c-0.056,0.045-0.111,0.091-0.166,0.137
	c-0.307,0.256-0.609,0.518-0.908,0.787c-0.065,0.059-0.13,0.118-0.195,0.177C9.6,8.026,9.452,8.153,9.31,8.288L9,8.583v0.02
	C3.451,14.05,0,21.628,0,30c0,16.542,13.458,30,30,30s30-13.458,30-30C60,21.628,56.549,14.05,51,8.603z M29.99,51.962l0.006,0.008
	H29.98L29.99,51.962z M22.01,40.442C24.086,38.245,26.955,37,30,37s5.914,1.245,7.99,3.442L30,50.452L22.01,40.442z M39.241,38.875
	C36.805,36.404,33.505,35,30,35s-6.805,1.404-9.241,3.875l-9.354-11.718L20,20.28l9.014,7.212l0.002,0.097l0.304,0.148l0.54,0.399
	l0.154-0.075l0.166,0.076l0.494-0.396L31,27.563v-0.081l9-7.201l8.595,6.876L39.241,38.875z M11.181,9.284
	c0.003-0.003,0.006-0.006,0.01-0.008c1.653-1.502,3.486-2.809,5.462-3.885c0.012-0.006,0.024-0.013,0.036-0.019
	c0.377-0.204,0.759-0.4,1.146-0.588c0.034-0.016,0.067-0.032,0.101-0.048C18.286,4.568,18.641,4.408,19,4.254V18.52l-8,6.399V9.457
	C11.061,9.4,11.12,9.34,11.181,9.284z M21.841,3.216c0.309-0.094,0.621-0.182,0.935-0.266c0.133-0.036,0.267-0.072,0.401-0.105
	c0.294-0.074,0.59-0.141,0.887-0.205c0.153-0.033,0.306-0.068,0.461-0.098c0.283-0.056,0.568-0.105,0.854-0.153
	c0.167-0.028,0.334-0.058,0.502-0.083c0.283-0.042,0.569-0.076,0.854-0.109c0.17-0.02,0.339-0.043,0.509-0.06
	c0.305-0.03,0.613-0.05,0.921-0.07c0.151-0.01,0.3-0.024,0.452-0.032C28.743,2.029,28.872,2.03,29,2.025V24.92l-8-6.4V3.492
	c0.169-0.058,0.337-0.118,0.508-0.172C21.618,3.285,21.729,3.25,21.841,3.216z M31.835,2.067c0.308,0.02,0.616,0.04,0.921,0.07
	c0.17,0.017,0.34,0.04,0.509,0.06c0.286,0.033,0.571,0.067,0.854,0.109c0.168,0.025,0.335,0.055,0.502,0.083
	c0.286,0.048,0.571,0.097,0.854,0.153c0.154,0.031,0.307,0.065,0.461,0.098c0.297,0.064,0.594,0.132,0.887,0.205
	c0.134,0.034,0.267,0.07,0.401,0.105c0.314,0.084,0.626,0.172,0.935,0.266c0.111,0.034,0.222,0.069,0.333,0.104
	C38.663,3.375,38.831,3.435,39,3.492V18.52l-8,6.4V2.025c0.128,0.004,0.257,0.003,0.384,0.01
	C31.535,2.042,31.685,2.057,31.835,2.067z M42.166,4.784c0.387,0.188,0.769,0.383,1.146,0.588c0.012,0.006,0.024,0.013,0.036,0.019
	c1.976,1.076,3.809,2.383,5.462,3.885c0.003,0.003,0.006,0.005,0.01,0.008C48.88,9.34,48.939,9.4,49,9.457v15.462l-8-6.399V4.254
	c0.359,0.154,0.714,0.314,1.065,0.482C42.099,4.753,42.133,4.768,42.166,4.784z M30,58C14.561,58,2,45.439,2,30
	c0-7.083,2.648-13.555,7-18.491v14.937v0.904L29.012,52.42l0.005,0.201l0.001,0l0,0.011l0.32,0.15l0.496,0.39l0.02-0.009
	l0.007,0.005l0.154-0.075l0.158,0.072l0.008-0.006l0.018,0.008l0.468-0.388l0.138-0.076L31,52.604v-0.01v-0.189l20-25.055v-0.904
	V11.509c4.352,4.936,7,11.408,7,18.491C58,45.439,45.439,58,30,58z"/>
<g>
</g>
<g>
</g>
<g>
</g>
<g>
</g>
<g>
</g>
<g>
</g>
<g>
</g>
<g>
</g>
<g>
</g>
<g>
</g>
<g>
</g>
<g>
</g>
<g>
</g>
<g>
</g>
<g>
</g>
</svg>
