<?xml version="1.0" encoding="iso-8859-1"?>
<!-- Generator: Adobe Illustrator 19.0.0, SVG Export Plug-In . SVG Version: 6.00 Build 0)  -->
<svg version="1.1" id="Capa_1" xmlns="http://www.w3.org/2000/svg" xmlns:xlink="http://www.w3.org/1999/xlink" x="0px" y="0px"
	 viewBox="0 0 54 54" style="enable-background:new 0 0 54 54;" xml:space="preserve">
<g>
	<path d="M13,36H9V1c0-0.553-0.448-1-1-1S7,0.447,7,1v35H3c-0.552,0-1,0.447-1,1v12c0,0.553,0.448,1,1,1h4v3c0,0.553,0.448,1,1,1
		s1-0.447,1-1v-3h4c0.552,0,1-0.447,1-1V37C14,36.447,13.552,36,13,36z M12,48H4V38h8V48z"/>
	<path d="M32,20h-4V1c0-0.553-0.448-1-1-1s-1,0.447-1,1v19h-4c-0.552,0-1,0.447-1,1v12c0,0.553,0.448,1,1,1h4v19
		c0,0.553,0.448,1,1,1s1-0.447,1-1V34h4c0.552,0,1-0.447,1-1V21C33,20.447,32.552,20,32,20z M31,32h-8V22h8V32z"/>
	<path d="M51,4h-4V1c0-0.553-0.448-1-1-1s-1,0.447-1,1v3h-4c-0.552,0-1,0.447-1,1v12c0,0.553,0.448,1,1,1h4v35c0,0.553,0.448,1,1,1
		s1-0.447,1-1V18h4c0.552,0,1-0.447,1-1V5C52,4.447,51.552,4,51,4z M50,16h-8V6h8V16z"/>
</g>
<g>
</g>
<g>
</g>
<g>
</g>
<g>
</g>
<g>
</g>
<g>
</g>
<g>
</g>
<g>
</g>
<g>
</g>
<g>
</g>
<g>
</g>
<g>
</g>
<g>
</g>
<g>
</g>
<g>
</g>
</svg>
