<?xml version="1.0" encoding="iso-8859-1"?>
<!-- Generator: Adobe Illustrator 19.0.0, SVG Export Plug-In . SVG Version: 6.00 Build 0)  -->
<svg version="1.1" id="Capa_1" xmlns="http://www.w3.org/2000/svg" xmlns:xlink="http://www.w3.org/1999/xlink" x="0px" y="0px"
	 viewBox="0 0 60 60" style="enable-background:new 0 0 60 60;" xml:space="preserve">
<g>
	<path d="M59,0H1C0.448,0,0,0.447,0,1v58c0,0.553,0.448,1,1,1h58c0.552,0,1-0.447,1-1V1C60,0.447,59.552,0,59,0z M58,58H2V2h56V58z"
		/>
	<path d="M6,51h4v3c0,0.553,0.448,1,1,1s1-0.447,1-1v-3h4c0.552,0,1-0.447,1-1V38c0-0.553-0.448-1-1-1h-4V6c0-0.553-0.448-1-1-1
		s-1,0.447-1,1v31H6c-0.552,0-1,0.447-1,1v12C5,50.553,5.448,51,6,51z M7,39h8v10H7V39z"/>
	<path d="M25,37h4v17c0,0.553,0.448,1,1,1s1-0.447,1-1V37h4c0.552,0,1-0.447,1-1V24c0-0.553-0.448-1-1-1h-4V6c0-0.553-0.448-1-1-1
		s-1,0.447-1,1v17h-4c-0.552,0-1,0.447-1,1v12C24,36.553,24.448,37,25,37z M26,25h8v10h-8V25z"/>
	<path d="M44,23h4v31c0,0.553,0.448,1,1,1s1-0.447,1-1V23h4c0.552,0,1-0.447,1-1V10c0-0.553-0.448-1-1-1h-4V6c0-0.553-0.448-1-1-1
		s-1,0.447-1,1v3h-4c-0.552,0-1,0.447-1,1v12C43,22.553,43.448,23,44,23z M45,11h8v10h-8V11z"/>
</g>
<g>
</g>
<g>
</g>
<g>
</g>
<g>
</g>
<g>
</g>
<g>
</g>
<g>
</g>
<g>
</g>
<g>
</g>
<g>
</g>
<g>
</g>
<g>
</g>
<g>
</g>
<g>
</g>
<g>
</g>
</svg>
