<?xml version="1.0" encoding="iso-8859-1"?>
<!-- Generator: Adobe Illustrator 19.0.0, SVG Export Plug-In . SVG Version: 6.00 Build 0)  -->
<svg version="1.1" id="Capa_1" xmlns="http://www.w3.org/2000/svg" xmlns:xlink="http://www.w3.org/1999/xlink" x="0px" y="0px"
	 viewBox="0 0 60 60" style="enable-background:new 0 0 60 60;" xml:space="preserve">
<g>
	<path d="M12,53c3.86,0,7-3.141,7-7c0-3.519-2.613-6.432-6-6.92V8c0-0.553-0.448-1-1-1s-1,0.447-1,1v31.08
		C7.613,39.568,5,42.481,5,46C5,49.859,8.14,53,12,53z M12,41c2.757,0,5,2.243,5,5s-2.243,5-5,5s-5-2.243-5-5S9.243,41,12,41z"/>
	<path d="M47,20.92V52c0,0.553,0.448,1,1,1s1-0.447,1-1V20.92c3.387-0.488,6-3.401,6-6.92c0-3.859-3.14-7-7-7s-7,3.141-7,7
		C41,17.519,43.613,20.432,47,20.92z M48,9c2.757,0,5,2.243,5,5s-2.243,5-5,5s-5-2.243-5-5S45.243,9,48,9z"/>
	<path d="M29,35.92V52c0,0.553,0.448,1,1,1s1-0.447,1-1V35.92c3.387-0.488,6-3.401,6-6.92s-2.613-6.432-6-6.92V8
		c0-0.553-0.448-1-1-1s-1,0.447-1,1v14.08c-3.387,0.488-6,3.401-6,6.92S25.613,35.432,29,35.92z M30,24c2.757,0,5,2.243,5,5
		s-2.243,5-5,5s-5-2.243-5-5S27.243,24,30,24z"/>
	<path d="M59,0H1C0.448,0,0,0.447,0,1v58c0,0.553,0.448,1,1,1h58c0.552,0,1-0.447,1-1V1C60,0.447,59.552,0,59,0z M58,58H2V2h56V58z"
		/>
</g>
<g>
</g>
<g>
</g>
<g>
</g>
<g>
</g>
<g>
</g>
<g>
</g>
<g>
</g>
<g>
</g>
<g>
</g>
<g>
</g>
<g>
</g>
<g>
</g>
<g>
</g>
<g>
</g>
<g>
</g>
</svg>
