<?xml version="1.0" encoding="iso-8859-1"?>
<!-- Generator: Adobe Illustrator 19.0.0, SVG Export Plug-In . SVG Version: 6.00 Build 0)  -->
<svg version="1.1" id="Capa_1" xmlns="http://www.w3.org/2000/svg" xmlns:xlink="http://www.w3.org/1999/xlink" x="0px" y="0px"
	 viewBox="0 0 60 60" style="enable-background:new 0 0 60 60;" xml:space="preserve">
<g>
	<path d="M7,4c0-0.553-0.447-1-1-1S5,3.447,5,4v35H0v14h5v3c0,0.553,0.447,1,1,1s1-0.447,1-1v-3h5V39H7V4z M10,51H2V41h8V51z"/>
	<path d="M23,4c0-0.553-0.447-1-1-1s-1,0.447-1,1v25h-5v14h5v13c0,0.553,0.447,1,1,1s1-0.447,1-1V43h5V29h-5V4z M26,41h-8V31h8V41z"
		/>
	<path d="M39,4c0-0.553-0.447-1-1-1s-1,0.447-1,1v15h-5v14h5v23c0,0.553,0.447,1,1,1s1-0.447,1-1V33h5V19h-5V4z M42,31h-8V21h8V31z"
		/>
	<path d="M60,7h-5V4c0-0.553-0.447-1-1-1s-1,0.447-1,1v3h-5v14h5v35c0,0.553,0.447,1,1,1s1-0.447,1-1V21h5V7z M58,19h-8V9h8V19z"/>
	<path d="M20,34c0,0.553,0.447,1,1,1h2c0.553,0,1-0.447,1-1s-0.447-1-1-1h-2C20.447,33,20,33.447,20,34z"/>
	<path d="M39,27h-2c-0.553,0-1,0.447-1,1s0.447,1,1,1h2c0.553,0,1-0.447,1-1S39.553,27,39,27z"/>
	<path d="M36,24c0,0.553,0.447,1,1,1h2c0.553,0,1-0.447,1-1s-0.447-1-1-1h-2C36.447,23,36,23.447,36,24z"/>
	<path d="M55,15h-2c-0.553,0-1,0.447-1,1s0.447,1,1,1h2c0.553,0,1-0.447,1-1S55.553,15,55,15z"/>
	<path d="M52,12c0,0.553,0.447,1,1,1h2c0.553,0,1-0.447,1-1s-0.447-1-1-1h-2C52.447,11,52,11.447,52,12z"/>
	<path d="M23,37h-2c-0.553,0-1,0.447-1,1s0.447,1,1,1h2c0.553,0,1-0.447,1-1S23.553,37,23,37z"/>
	<path d="M4,44c0,0.553,0.447,1,1,1h2c0.553,0,1-0.447,1-1s-0.447-1-1-1H5C4.447,43,4,43.447,4,44z"/>
	<path d="M7,47H5c-0.553,0-1,0.447-1,1s0.447,1,1,1h2c0.553,0,1-0.447,1-1S7.553,47,7,47z"/>
</g>
<g>
</g>
<g>
</g>
<g>
</g>
<g>
</g>
<g>
</g>
<g>
</g>
<g>
</g>
<g>
</g>
<g>
</g>
<g>
</g>
<g>
</g>
<g>
</g>
<g>
</g>
<g>
</g>
<g>
</g>
</svg>
