<?xml version="1.0" encoding="iso-8859-1"?>
<!-- Generator: Adobe Illustrator 19.0.0, SVG Export Plug-In . SVG Version: 6.00 Build 0)  -->
<svg version="1.1" id="Capa_1" xmlns="http://www.w3.org/2000/svg" xmlns:xlink="http://www.w3.org/1999/xlink" x="0px" y="0px"
	 viewBox="0 0 59 59" style="enable-background:new 0 0 59 59;" xml:space="preserve">
<g>
	<path d="M8,42.58V3.5c0-0.553-0.447-1-1-1s-1,0.447-1,1v39.08c-3.386,0.488-6,3.401-6,6.92c0,3.859,3.141,7,7,7s7-3.141,7-7
		C14,45.981,11.386,43.068,8,42.58z M7,54.5c-2.757,0-5-2.243-5-5s2.243-5,5-5s5,2.243,5,5S9.757,54.5,7,54.5z"/>
	<path d="M23,30.58V3.5c0-0.553-0.447-1-1-1s-1,0.447-1,1v27.08c-3.386,0.488-6,3.401-6,6.92s2.614,6.432,6,6.92V55.5
		c0,0.553,0.447,1,1,1s1-0.447,1-1V44.42c3.386-0.488,6-3.401,6-6.92S26.386,31.068,23,30.58z M22,42.5c-2.757,0-5-2.243-5-5
		s2.243-5,5-5s5,2.243,5,5S24.757,42.5,22,42.5z"/>
	<path d="M38,18.58V3.5c0-0.553-0.447-1-1-1s-1,0.447-1,1v15.08c-3.386,0.488-6,3.401-6,6.92s2.614,6.432,6,6.92V55.5
		c0,0.553,0.447,1,1,1s1-0.447,1-1V32.42c3.386-0.488,6-3.401,6-6.92S41.386,19.068,38,18.58z M37,30.5c-2.757,0-5-2.243-5-5
		s2.243-5,5-5s5,2.243,5,5S39.757,30.5,37,30.5z"/>
	<path d="M59,13.5c0-3.519-2.614-6.432-6-6.92V3.5c0-0.553-0.447-1-1-1s-1,0.447-1,1v3.08c-3.386,0.488-6,3.401-6,6.92
		s2.614,6.432,6,6.92V55.5c0,0.553,0.447,1,1,1s1-0.447,1-1V20.42C56.386,19.932,59,17.019,59,13.5z M52,18.5c-2.757,0-5-2.243-5-5
		s2.243-5,5-5s5,2.243,5,5S54.757,18.5,52,18.5z"/>
	<path d="M53,10.5h-2c-0.553,0-1,0.447-1,1s0.447,1,1,1h2c0.553,0,1-0.447,1-1S53.553,10.5,53,10.5z"/>
	<path d="M38,22.5h-2c-0.553,0-1,0.447-1,1s0.447,1,1,1h2c0.553,0,1-0.447,1-1S38.553,22.5,38,22.5z"/>
	<path d="M38,26.5h-2c-0.553,0-1,0.447-1,1s0.447,1,1,1h2c0.553,0,1-0.447,1-1S38.553,26.5,38,26.5z"/>
	<path d="M23,34.5h-2c-0.553,0-1,0.447-1,1s0.447,1,1,1h2c0.553,0,1-0.447,1-1S23.553,34.5,23,34.5z"/>
	<path d="M23,38.5h-2c-0.553,0-1,0.447-1,1s0.447,1,1,1h2c0.553,0,1-0.447,1-1S23.553,38.5,23,38.5z"/>
	<path d="M8,46.5H6c-0.553,0-1,0.447-1,1s0.447,1,1,1h2c0.553,0,1-0.447,1-1S8.553,46.5,8,46.5z"/>
	<path d="M8,50.5H6c-0.553,0-1,0.447-1,1s0.447,1,1,1h2c0.553,0,1-0.447,1-1S8.553,50.5,8,50.5z"/>
	<path d="M53,14.5h-2c-0.553,0-1,0.447-1,1s0.447,1,1,1h2c0.553,0,1-0.447,1-1S53.553,14.5,53,14.5z"/>
</g>
<g>
</g>
<g>
</g>
<g>
</g>
<g>
</g>
<g>
</g>
<g>
</g>
<g>
</g>
<g>
</g>
<g>
</g>
<g>
</g>
<g>
</g>
<g>
</g>
<g>
</g>
<g>
</g>
<g>
</g>
</svg>
