<?xml version="1.0" encoding="iso-8859-1"?>
<!-- Generator: Adobe Illustrator 19.0.0, SVG Export Plug-In . SVG Version: 6.00 Build 0)  -->
<svg version="1.1" id="Capa_1" xmlns="http://www.w3.org/2000/svg" xmlns:xlink="http://www.w3.org/1999/xlink" x="0px" y="0px"
	 viewBox="0 0 58 58" style="enable-background:new 0 0 58 58;" xml:space="preserve">
<g>
	<path d="M40.5,0v2h-28c-2.757,0-5,2.243-5,5c0,1.164,0.4,2.236,1.069,3.087C6.255,10.524,4.5,12.561,4.5,15
		c0,1.164,0.4,2.236,1.069,3.087C3.255,18.524,1.5,20.561,1.5,23c0,2.495,1.375,3.662,2.715,4.233C3.165,28.15,2.5,29.499,2.5,31
		c0,2.757,2.243,5,5,5h14.366l-0.729,3.41c-0.973,4.551-0.334,9.717-0.116,11.191C21.539,54.094,24.628,58,27.987,58h0.239
		c1.596,0,4.274-0.909,4.274-7c0-8.023,2.002-11.694,3.681-13.36c1.647-1.634,3.236-1.613,3.319-1.64h1v2h16V0H40.5z M39.531,34.001
		c-0.092-0.008-2.419-0.049-4.682,2.144C31.963,38.941,30.5,43.939,30.5,51c0,1.867-0.295,5-2.274,5h-0.239
		c-2.231,0-4.608-3.13-4.988-5.691c-0.207-1.392-0.81-6.258,0.093-10.48L24.339,34H7.5c-1.654,0-3-1.346-3-3s1.346-3,3-3h2h1h7
		c0.552,0,1-0.447,1-1s-0.448-1-1-1h-7c-0.883,0-2.825-0.04-3.854-0.193C4.035,25.42,3.5,24.405,3.5,23c0-1.654,1.346-3,3-3h3h8
		c0.552,0,1-0.447,1-1s-0.448-1-1-1h-8c-1.654,0-3-1.346-3-3s1.346-3,3-3h2h1h7c0.552,0,1-0.447,1-1s-0.448-1-1-1h-7
		c-1.654,0-3-1.346-3-3s1.346-3,3-3h28v30L39.531,34.001z M54.5,36h-12V2h12V36z"/>
	<path d="M48.5,15c2.757,0,5-2.243,5-5s-2.243-5-5-5s-5,2.243-5,5S45.743,15,48.5,15z M48.5,7c1.654,0,3,1.346,3,3s-1.346,3-3,3
		s-3-1.346-3-3S46.846,7,48.5,7z"/>
</g>
<g>
</g>
<g>
</g>
<g>
</g>
<g>
</g>
<g>
</g>
<g>
</g>
<g>
</g>
<g>
</g>
<g>
</g>
<g>
</g>
<g>
</g>
<g>
</g>
<g>
</g>
<g>
</g>
<g>
</g>
</svg>
