<?xml version="1.0" encoding="iso-8859-1"?>
<!-- Generator: Adobe Illustrator 19.0.0, SVG Export Plug-In . SVG Version: 6.00 Build 0)  -->
<svg version="1.1" id="Capa_1" xmlns="http://www.w3.org/2000/svg" xmlns:xlink="http://www.w3.org/1999/xlink" x="0px" y="0px"
	 viewBox="0 0 60 60" style="enable-background:new 0 0 60 60;" xml:space="preserve">
<g>
	<path d="M0,0v60h60V0H0z M58,58H2V2h56V58z"/>
	<rect x="9" y="29" width="42" height="2"/>
	<path d="M30,22c2.757,0,5-2.243,5-5s-2.243-5-5-5s-5,2.243-5,5S27.243,22,30,22z M30,14c1.654,0,3,1.346,3,3s-1.346,3-3,3
		s-3-1.346-3-3S28.346,14,30,14z"/>
	<path d="M30,38c-2.757,0-5,2.243-5,5s2.243,5,5,5s5-2.243,5-5S32.757,38,30,38z M30,46c-1.654,0-3-1.346-3-3s1.346-3,3-3
		s3,1.346,3,3S31.654,46,30,46z"/>
</g>
<g>
</g>
<g>
</g>
<g>
</g>
<g>
</g>
<g>
</g>
<g>
</g>
<g>
</g>
<g>
</g>
<g>
</g>
<g>
</g>
<g>
</g>
<g>
</g>
<g>
</g>
<g>
</g>
<g>
</g>
</svg>
