<?xml version="1.0" encoding="iso-8859-1"?>
<!-- Generator: Adobe Illustrator 19.0.0, SVG Export Plug-In . SVG Version: 6.00 Build 0)  -->
<svg version="1.1" id="Capa_1" xmlns="http://www.w3.org/2000/svg" xmlns:xlink="http://www.w3.org/1999/xlink" x="0px" y="0px"
	 viewBox="0 0 44 44" style="enable-background:new 0 0 44 44;" xml:space="preserve">
<g>
	<path d="M38.059,16H5.941C2.665,16,0,18.691,0,22s2.665,6,5.941,6h32.117C41.335,28,44,25.309,44,22S41.335,16,38.059,16z
		 M38.059,26H5.941C3.805,26,2,24.168,2,22s1.805-4,3.941-4h32.117C40.195,18,42,19.832,42,22S40.195,26,38.059,26z"/>
	<path d="M22,13c3.309,0,6-2.691,6-6s-2.691-6-6-6s-6,2.691-6,6S18.691,13,22,13z M22,3c2.206,0,4,1.794,4,4s-1.794,4-4,4
		s-4-1.794-4-4S19.794,3,22,3z"/>
	<path d="M22,31c-3.309,0-6,2.691-6,6s2.691,6,6,6s6-2.691,6-6S25.309,31,22,31z M22,41c-2.206,0-4-1.794-4-4s1.794-4,4-4
		s4,1.794,4,4S24.206,41,22,41z"/>
</g>
<g>
</g>
<g>
</g>
<g>
</g>
<g>
</g>
<g>
</g>
<g>
</g>
<g>
</g>
<g>
</g>
<g>
</g>
<g>
</g>
<g>
</g>
<g>
</g>
<g>
</g>
<g>
</g>
<g>
</g>
</svg>
