<?xml version="1.0" encoding="iso-8859-1"?>
<!-- Generator: Adobe Illustrator 19.0.0, SVG Export Plug-In . SVG Version: 6.00 Build 0)  -->
<svg version="1.1" id="Capa_1" xmlns="http://www.w3.org/2000/svg" xmlns:xlink="http://www.w3.org/1999/xlink" x="0px" y="0px"
	 viewBox="0 0 59 59" style="enable-background:new 0 0 59 59;" xml:space="preserve">
<g>
	<path d="M20.187,28.313c-0.391-0.391-1.023-0.391-1.414,0s-0.391,1.023,0,1.414l9.979,9.979C28.938,39.895,29.192,40,29.458,40
		c0.007,0,0.014-0.004,0.021-0.004c0.007,0,0.013,0.004,0.021,0.004c0.333,0,0.613-0.173,0.795-0.423l9.891-9.891
		c0.391-0.391,0.391-1.023,0-1.414s-1.023-0.391-1.414,0L30.5,36.544V1c0-0.553-0.447-1-1-1s-1,0.447-1,1v35.628L20.187,28.313z"/>
	<path d="M36.5,16c-0.553,0-1,0.447-1,1s0.447,1,1,1h13v39h-40V18h13c0.553,0,1-0.447,1-1s-0.447-1-1-1h-15v43h44V16H36.5z"/>
</g>
<g>
</g>
<g>
</g>
<g>
</g>
<g>
</g>
<g>
</g>
<g>
</g>
<g>
</g>
<g>
</g>
<g>
</g>
<g>
</g>
<g>
</g>
<g>
</g>
<g>
</g>
<g>
</g>
<g>
</g>
</svg>
