<?xml version="1.0" encoding="iso-8859-1"?>
<!-- Generator: Adobe Illustrator 19.0.0, SVG Export Plug-In . SVG Version: 6.00 Build 0)  -->
<svg version="1.1" id="Capa_1" xmlns="http://www.w3.org/2000/svg" xmlns:xlink="http://www.w3.org/1999/xlink" x="0px" y="0px"
	 viewBox="0 0 42.001 42.001" style="enable-background:new 0 0 42.001 42.001;" xml:space="preserve">
<g>
	<path d="M1,32.488h40c0.372,0,0.713-0.206,0.886-0.535s0.148-0.727-0.063-1.032l-20-29c-0.373-0.543-1.273-0.543-1.646,0l-20,29
		c-0.211,0.306-0.235,0.703-0.063,1.032S0.628,32.488,1,32.488z M21,4.249l18.096,26.238H2.905L21,4.249z"/>
	<path d="M41,38.488H1c-0.553,0-1,0.447-1,1s0.447,1,1,1h40c0.553,0,1-0.447,1-1S41.553,38.488,41,38.488z"/>
</g>
<g>
</g>
<g>
</g>
<g>
</g>
<g>
</g>
<g>
</g>
<g>
</g>
<g>
</g>
<g>
</g>
<g>
</g>
<g>
</g>
<g>
</g>
<g>
</g>
<g>
</g>
<g>
</g>
<g>
</g>
</svg>
