<?xml version="1.0" encoding="iso-8859-1"?>
<!-- Generator: Adobe Illustrator 19.0.0, SVG Export Plug-In . SVG Version: 6.00 Build 0)  -->
<svg version="1.1" id="Capa_1" xmlns="http://www.w3.org/2000/svg" xmlns:xlink="http://www.w3.org/1999/xlink" x="0px" y="0px"
	 viewBox="0 0 44 44" style="enable-background:new 0 0 44 44;" xml:space="preserve">
<g>
	<path d="M5.941,20h32.117C41.335,20,44,17.309,44,14s-2.665-6-5.941-6H5.941C2.665,8,0,10.691,0,14S2.665,20,5.941,20z M5.941,10
		h32.117C40.195,10,42,11.832,42,14s-1.805,4-3.941,4H5.941C3.805,18,2,16.168,2,14S3.805,10,5.941,10z"/>
	<path d="M38.059,24H5.941C2.665,24,0,26.691,0,30s2.665,6,5.941,6h32.117C41.335,36,44,33.309,44,30S41.335,24,38.059,24z
		 M38.059,34H5.941C3.805,34,2,32.168,2,30s1.805-4,3.941-4h32.117C40.195,26,42,27.832,42,30S40.195,34,38.059,34z"/>
</g>
<g>
</g>
<g>
</g>
<g>
</g>
<g>
</g>
<g>
</g>
<g>
</g>
<g>
</g>
<g>
</g>
<g>
</g>
<g>
</g>
<g>
</g>
<g>
</g>
<g>
</g>
<g>
</g>
<g>
</g>
</svg>
