<?xml version="1.0" encoding="iso-8859-1"?>
<!-- Generator: Adobe Illustrator 19.0.0, SVG Export Plug-In . SVG Version: 6.00 Build 0)  -->
<svg version="1.1" id="Capa_1" xmlns="http://www.w3.org/2000/svg" xmlns:xlink="http://www.w3.org/1999/xlink" x="0px" y="0px"
	 viewBox="0 0 60 60" style="enable-background:new 0 0 60 60;" xml:space="preserve">
<g>
	<path d="M50,32c2.757,0,5-2.243,5-5s-2.243-5-5-5s-5,2.243-5,5S47.243,32,50,32z M50,24c1.654,0,3,1.346,3,3s-1.346,3-3,3
		s-3-1.346-3-3S48.346,24,50,24z"/>
	<path d="M18,9h18c0.553,0,1-0.447,1-1s-0.447-1-1-1H18c-0.553,0-1,0.447-1,1S17.447,9,18,9z"/>
	<path d="M42,12H18c-0.553,0-1,0.447-1,1s0.447,1,1,1h24c0.553,0,1-0.447,1-1S42.553,12,42,12z"/>
	<path d="M42,43H18c-0.553,0-1,0.447-1,1s0.447,1,1,1h24c0.553,0,1-0.447,1-1S42.553,43,42,43z"/>
	<path d="M42,48H18c-0.553,0-1,0.447-1,1s0.447,1,1,1h24c0.553,0,1-0.447,1-1S42.553,48,42,48z"/>
	<path d="M51,17V0H9v17H0v34h6v3h3v6h42v-6h3v-3h6V17H51z M11,2h38v15H11V2z M9,19h42h7v16H2V19H9z M8,52v-2v-1v-4
		c0-0.553-0.447-1-1-1s-1,0.447-1,1v4H2V37h7v15H8z M49,58H11v-4V37h38v17V58z M54,49v-4c0-0.553-0.447-1-1-1s-1,0.447-1,1v4v1v2h-1
		V37h7v12H54z"/>
	<path d="M6,24h3c0.553,0,1-0.447,1-1s-0.447-1-1-1H6c-0.553,0-1,0.447-1,1S5.447,24,6,24z"/>
	<path d="M6,28h3c0.553,0,1-0.447,1-1s-0.447-1-1-1H6c-0.553,0-1,0.447-1,1S5.447,28,6,28z"/>
	<path d="M6,32h3c0.553,0,1-0.447,1-1s-0.447-1-1-1H6c-0.553,0-1,0.447-1,1S5.447,32,6,32z"/>
	<path d="M13,24h3c0.553,0,1-0.447,1-1s-0.447-1-1-1h-3c-0.553,0-1,0.447-1,1S12.447,24,13,24z"/>
	<path d="M13,28h3c0.553,0,1-0.447,1-1s-0.447-1-1-1h-3c-0.553,0-1,0.447-1,1S12.447,28,13,28z"/>
	<path d="M13,32h3c0.553,0,1-0.447,1-1s-0.447-1-1-1h-3c-0.553,0-1,0.447-1,1S12.447,32,13,32z"/>
	<path d="M20,24h3c0.553,0,1-0.447,1-1s-0.447-1-1-1h-3c-0.553,0-1,0.447-1,1S19.447,24,20,24z"/>
	<path d="M20,28h3c0.553,0,1-0.447,1-1s-0.447-1-1-1h-3c-0.553,0-1,0.447-1,1S19.447,28,20,28z"/>
	<path d="M20,32h3c0.553,0,1-0.447,1-1s-0.447-1-1-1h-3c-0.553,0-1,0.447-1,1S19.447,32,20,32z"/>
</g>
<g>
</g>
<g>
</g>
<g>
</g>
<g>
</g>
<g>
</g>
<g>
</g>
<g>
</g>
<g>
</g>
<g>
</g>
<g>
</g>
<g>
</g>
<g>
</g>
<g>
</g>
<g>
</g>
<g>
</g>
</svg>
