<?xml version="1.0" encoding="iso-8859-1"?>
<!-- Generator: Adobe Illustrator 19.0.0, SVG Export Plug-In . SVG Version: 6.00 Build 0)  -->
<svg version="1.1" id="Capa_1" xmlns="http://www.w3.org/2000/svg" xmlns:xlink="http://www.w3.org/1999/xlink" x="0px" y="0px"
	 viewBox="0 0 60 60" style="enable-background:new 0 0 60 60;" xml:space="preserve">
<g>
	<path d="M51.676,21.931C45.917,16.171,38.26,13,30.115,13s-15.802,3.171-21.561,8.931l-7.941,7.941l7.711,7.711
		c5.759,5.759,13.416,8.931,21.561,8.931s15.802-3.171,21.561-8.931l7.941-7.941L51.676,21.931z M50.031,36.168
		c-5.381,5.381-12.536,8.345-20.146,8.345S15.12,41.55,9.738,36.168l-6.297-6.297l6.527-6.527C15.35,17.963,22.505,15,30.115,15
		s14.765,2.963,20.146,8.345l6.297,6.297L50.031,36.168z"/>
	<path d="M29.671,16.97c-7.065,0-12.813,5.748-12.813,12.813s5.748,12.813,12.813,12.813c7.064,0,12.813-5.748,12.813-12.813
		S36.735,16.97,29.671,16.97z M29.671,40.596c-5.963,0-10.813-4.851-10.813-10.813c0-5.962,4.851-10.813,10.813-10.813
		c5.962,0,10.813,4.851,10.813,10.813C40.483,35.745,35.633,40.596,29.671,40.596z"/>
	<path d="M29.265,11.706c0.092,0.093,0.203,0.166,0.326,0.217C29.713,11.973,29.842,12,29.973,12s0.26-0.027,0.382-0.077
		c0.123-0.051,0.233-0.124,0.326-0.217l3.999-3.999c0.391-0.391,0.391-1.023,0-1.414s-1.023-0.391-1.414,0l-2.293,2.293V1
		c0-0.552-0.447-1-1-1s-1,0.448-1,1v7.586L26.68,6.293c-0.391-0.391-1.023-0.391-1.414,0s-0.391,1.023,0,1.414L29.265,11.706z"/>
	<path d="M30.681,48.294c-0.092-0.093-0.203-0.166-0.326-0.217c-0.244-0.101-0.52-0.101-0.764,0
		c-0.123,0.051-0.233,0.124-0.326,0.217l-3.999,3.999c-0.391,0.391-0.391,1.023,0,1.414C25.461,53.902,25.717,54,25.973,54
		s0.512-0.098,0.707-0.293l2.293-2.293V59c0,0.552,0.447,1,1,1s1-0.448,1-1v-7.586l2.293,2.293C33.461,53.902,33.717,54,33.973,54
		s0.512-0.098,0.707-0.293c0.391-0.391,0.391-1.023,0-1.414L30.681,48.294z"/>
</g>
<g>
</g>
<g>
</g>
<g>
</g>
<g>
</g>
<g>
</g>
<g>
</g>
<g>
</g>
<g>
</g>
<g>
</g>
<g>
</g>
<g>
</g>
<g>
</g>
<g>
</g>
<g>
</g>
<g>
</g>
</svg>
