<?xml version="1.0" encoding="iso-8859-1"?>
<!-- Generator: Adobe Illustrator 19.0.0, SVG Export Plug-In . SVG Version: 6.00 Build 0)  -->
<svg version="1.1" id="Capa_1" xmlns="http://www.w3.org/2000/svg" xmlns:xlink="http://www.w3.org/1999/xlink" x="0px" y="0px"
	 viewBox="0 0 60 60" style="enable-background:new 0 0 60 60;" xml:space="preserve">
<g>
	<path d="M32.515,7l-5-7H6v4H3v4H0v52h2h56h2V17v-2v-2v-2V7H32.515z M2,58V10h1h17.485l5,7h0.012l4.69,6.551
		c0.195,0.272,0.502,0.417,0.813,0.418V24h27v34H2z M58,22H31.537l-3.579-5H58V22z M58,15H26.525l-4.712-6.582l-0.001-0.001
		L21.515,8H5V6h1h17.485l5,7H58V15z M29.515,11l-5-7H8V2h18.485l5,7H58v2H29.515z"/>
	<path d="M27,55h28V35H27V55z M29,37h24v16H29V37z"/>
	<rect x="33" y="40" width="10" height="2"/>
	<rect x="33" y="44" width="16" height="2"/>
	<rect x="33" y="48" width="16" height="2"/>
</g>
<g>
</g>
<g>
</g>
<g>
</g>
<g>
</g>
<g>
</g>
<g>
</g>
<g>
</g>
<g>
</g>
<g>
</g>
<g>
</g>
<g>
</g>
<g>
</g>
<g>
</g>
<g>
</g>
<g>
</g>
</svg>
