<?xml version="1.0" encoding="iso-8859-1"?>
<!-- Generator: Adobe Illustrator 19.0.0, SVG Export Plug-In . SVG Version: 6.00 Build 0)  -->
<svg version="1.1" id="Capa_1" xmlns="http://www.w3.org/2000/svg" xmlns:xlink="http://www.w3.org/1999/xlink" x="0px" y="0px"
	 viewBox="0 0 59.912 59.912" style="enable-background:new 0 0 59.912 59.912;" xml:space="preserve">
<path d="M59.603,23.397c-0.241-0.28-0.593-0.441-0.963-0.441H56V8.724c0-0.975-0.793-1.768-1.768-1.768H23.566l-2.485-4.141
	c-0.317-0.53-0.898-0.859-1.516-0.859H5.767C4.793,1.956,4,2.749,4,3.724v19.232H1.271c-0.37,0-0.722,0.161-0.963,0.441
	c-0.242,0.28-0.35,0.651-0.294,1.02l2.203,14.539H2.217l2.121,14h0l0.594,3.922c0.097,0.625,0.625,1.078,1.257,1.078h47.533
	c0.632,0,1.16-0.453,1.257-1.081l0.594-3.919h0.001l2.121-14h0l2.204-14.541C59.953,24.049,59.845,23.678,59.603,23.397z M6,3.956
	h13.434l2.485,4.141c0.317,0.53,0.898,0.859,1.516,0.859H54v14h-1v-4h-1v-3h-1v-3H9v3H8v3H7v4H6V3.956z M9,20.956h42v2H9V20.956z
	 M10,17.956h40v1H10V17.956z M49,15.956H11v-1h38V15.956z M53.853,50.956h-5.527l6.515-6.515L53.853,50.956z M55.346,41.108
	l-9.848,9.848h-5.172l10-10h5.043L55.346,41.108z M37.498,50.956h-5.172l10-10h5.172L37.498,50.956z M29.498,50.956h-5.172l10-10
	h5.172L29.498,50.956z M21.498,50.956h-5.172l10-10h5.172L21.498,50.956z M13.498,50.956H8.326l10-10h5.172L13.498,50.956z
	 M5.985,50.469l-0.549-3.623l5.89-5.89h4.172L5.985,50.469z M5.063,44.391L4.68,41.865l-0.138-0.909h3.955L5.063,44.391z
	 M53.096,55.956H6.815l-0.454-3h47.19L53.096,55.956z M55.672,38.956H4.24l-2.121-14H4h3h46h3h1.793L55.672,38.956z"/>
<g>
</g>
<g>
</g>
<g>
</g>
<g>
</g>
<g>
</g>
<g>
</g>
<g>
</g>
<g>
</g>
<g>
</g>
<g>
</g>
<g>
</g>
<g>
</g>
<g>
</g>
<g>
</g>
<g>
</g>
</svg>
