<?xml version="1.0" encoding="iso-8859-1"?>
<!-- Generator: Adobe Illustrator 19.0.0, SVG Export Plug-In . SVG Version: 6.00 Build 0)  -->
<svg version="1.1" id="Capa_1" xmlns="http://www.w3.org/2000/svg" xmlns:xlink="http://www.w3.org/1999/xlink" x="0px" y="0px"
	 viewBox="0 0 60 60" style="enable-background:new 0 0 60 60;" xml:space="preserve">
<g>
	<path d="M56.98,11.5H28.019V6.52c0-1.665-1.354-3.02-3.019-3.02H3.019C1.354,3.5,0,4.854,0,6.52V20.5v2v30.98
		c0,1.665,1.354,3.02,3.019,3.02H56.98c1.665,0,3.02-1.354,3.02-3.02V22.5v-2v-5.98C60,12.854,58.646,11.5,56.98,11.5z M58,53.48
		c0,0.563-0.457,1.02-1.02,1.02H3.019C2.457,54.5,2,54.043,2,53.48V22.5h56V53.48z M2,20.5V6.52C2,5.957,2.457,5.5,3.019,5.5H25
		c0.562,0,1.019,0.457,1.019,1.02v6.98H56.98c0.563,0,1.02,0.457,1.02,1.02v5.98H2z"/>
	<path d="M19,33.5h14c0.552,0,1-0.447,1-1s-0.448-1-1-1H19c-0.552,0-1,0.447-1,1S18.448,33.5,19,33.5z"/>
	<path d="M19,39.5h22c0.552,0,1-0.447,1-1s-0.448-1-1-1H19c-0.552,0-1,0.447-1,1S18.448,39.5,19,39.5z"/>
	<path d="M19,45.5h22c0.552,0,1-0.447,1-1s-0.448-1-1-1H19c-0.552,0-1,0.447-1,1S18.448,45.5,19,45.5z"/>
</g>
<g>
</g>
<g>
</g>
<g>
</g>
<g>
</g>
<g>
</g>
<g>
</g>
<g>
</g>
<g>
</g>
<g>
</g>
<g>
</g>
<g>
</g>
<g>
</g>
<g>
</g>
<g>
</g>
<g>
</g>
</svg>
