<?xml version="1.0" encoding="iso-8859-1"?>
<!-- Generator: Adobe Illustrator 19.0.0, SVG Export Plug-In . SVG Version: 6.00 Build 0)  -->
<svg version="1.1" id="Capa_1" xmlns="http://www.w3.org/2000/svg" xmlns:xlink="http://www.w3.org/1999/xlink" x="0px" y="0px"
	 viewBox="0 0 59.911 59.911" style="enable-background:new 0 0 59.911 59.911;" xml:space="preserve">
<path d="M59.605,23.399c-0.241-0.281-0.593-0.443-0.965-0.443h-2.685V8.723c0-0.975-0.793-1.768-1.768-1.768H23.522l-2.485-4.141
	c-0.317-0.53-0.898-0.859-1.516-0.859H5.723c-0.975,0-1.768,0.793-1.768,1.768v19.232H1.271c-0.37,0-0.722,0.161-0.963,0.441
	c-0.242,0.28-0.35,0.651-0.294,1.02l4.918,32.461c0.097,0.625,0.625,1.078,1.256,1.078h47.534c0.632,0,1.16-0.453,1.257-1.081
	l4.917-32.454C59.953,24.053,59.847,23.681,59.605,23.399z M5.956,3.956h13.434l2.485,4.141c0.317,0.53,0.898,0.859,1.516,0.859
	h30.565v14h-2v-7h-44v7h-2V3.956z M49.956,22.956h-40v-5h40V22.956z M53.096,55.956H6.815l-4.696-31h1.837h4h44h4h1.837
	L53.096,55.956z"/>
<g>
</g>
<g>
</g>
<g>
</g>
<g>
</g>
<g>
</g>
<g>
</g>
<g>
</g>
<g>
</g>
<g>
</g>
<g>
</g>
<g>
</g>
<g>
</g>
<g>
</g>
<g>
</g>
<g>
</g>
</svg>
