<?xml version="1.0" encoding="iso-8859-1"?>
<!-- Generator: Adobe Illustrator 19.0.0, SVG Export Plug-In . SVG Version: 6.00 Build 0)  -->
<svg version="1.1" id="Capa_1" xmlns="http://www.w3.org/2000/svg" xmlns:xlink="http://www.w3.org/1999/xlink" x="0px" y="0px"
	 viewBox="0 0 60 60" style="enable-background:new 0 0 60 60;" xml:space="preserve">
<g>
	<path d="M57.49,27H54v-6.268C54,19.226,52.774,18,51.268,18H48v-2.414l-0.495-0.495c-0.001,0-0.001-0.001-0.001-0.002l-7.296-7.296
		L32.414,0H8v11H2.732C1.226,11,0,12.226,0,13.732v43.687l0.006,0c-0.005,0.563,0.17,1.114,0.522,1.575
		C1.018,59.634,1.76,60,2.565,60h44.759c1.156,0,2.174-0.779,2.45-1.813L60,30.149v-0.177C60,28.25,58.944,27,57.49,27z M51.268,20
		C51.671,20,52,20.328,52,20.732V27h-4v-7H51.268z M33,3.415L44.586,15H33V3.415z M10,2h21v15h15v1v9H12.731
		c-0.143,0-0.284,0.012-0.422,0.035c-0.974,0.162-1.786,0.872-2.028,1.778L10,29.585V11V2z M2,13.732C2,13.328,2.329,13,2.732,13H8
		v22.035L2,51.399V13.732z M47.869,57.583C47.803,57.828,47.579,58,47.324,58H2.565c-0.243,0-0.385-0.139-0.448-0.222
		c-0.063-0.082-0.16-0.256-0.123-0.408L8,40.898v0.005l4.16-11.404l0.026-0.082C12.252,29.172,12.477,29,12.731,29H46h2h6h3.49
		c0.38,0,0.477,0.546,0.502,0.819L47.869,57.583z"/>
	<path d="M16,17h10c0.552,0,1-0.447,1-1s-0.448-1-1-1H16c-0.552,0-1,0.447-1,1S15.448,17,16,17z"/>
	<path d="M16,10h10c0.552,0,1-0.447,1-1s-0.448-1-1-1H16c-0.552,0-1,0.447-1,1S15.448,10,16,10z"/>
	<path d="M16,24h24c0.552,0,1-0.447,1-1s-0.448-1-1-1H16c-0.552,0-1,0.447-1,1S15.448,24,16,24z"/>
</g>
<g>
</g>
<g>
</g>
<g>
</g>
<g>
</g>
<g>
</g>
<g>
</g>
<g>
</g>
<g>
</g>
<g>
</g>
<g>
</g>
<g>
</g>
<g>
</g>
<g>
</g>
<g>
</g>
<g>
</g>
</svg>
