<?xml version="1.0" encoding="iso-8859-1"?>
<!-- Generator: Adobe Illustrator 19.0.0, SVG Export Plug-In . SVG Version: 6.00 Build 0)  -->
<svg version="1.1" id="Capa_1" xmlns="http://www.w3.org/2000/svg" xmlns:xlink="http://www.w3.org/1999/xlink" x="0px" y="0px"
	 viewBox="0 0 60 60" style="enable-background:new 0 0 60 60;" xml:space="preserve">
<g>
	<path d="M56.981,11.5H28.019V6.52c0-1.665-1.354-3.02-3.019-3.02H3.019C1.354,3.5,0,4.854,0,6.52V20.5v2v30.98
		c0,1.665,1.354,3.02,3.019,3.02h53.962c1.665,0,3.019-1.354,3.019-3.02V22.5v-2v-5.98C60,12.854,58.646,11.5,56.981,11.5z
		 M58,53.48c0,0.563-0.457,1.02-1.019,1.02H3.019C2.457,54.5,2,54.043,2,53.48V22.5h56V53.48z M2,20.5V6.52
		C2,5.957,2.457,5.5,3.019,5.5H25c0.562,0,1.019,0.457,1.019,1.02v6.98h30.962c0.562,0,1.019,0.457,1.019,1.02v5.98H2z"/>
	<path d="M55,37.5H34v14h21V37.5z M53,49.5H36v-10h17V49.5z"/>
	<path d="M39,43.5h4c0.552,0,1-0.447,1-1s-0.448-1-1-1h-4c-0.552,0-1,0.447-1,1S38.448,43.5,39,43.5z"/>
	<path d="M47,43.5h1c0.552,0,1-0.447,1-1s-0.448-1-1-1h-1c-0.552,0-1,0.447-1,1S46.448,43.5,47,43.5z"/>
	<path d="M39,47.5h11c0.552,0,1-0.447,1-1s-0.448-1-1-1H39c-0.552,0-1,0.447-1,1S38.448,47.5,39,47.5z"/>
</g>
<g>
</g>
<g>
</g>
<g>
</g>
<g>
</g>
<g>
</g>
<g>
</g>
<g>
</g>
<g>
</g>
<g>
</g>
<g>
</g>
<g>
</g>
<g>
</g>
<g>
</g>
<g>
</g>
<g>
</g>
</svg>
