<?xml version="1.0" encoding="iso-8859-1"?>
<!-- Generator: Adobe Illustrator 19.0.0, SVG Export Plug-In . SVG Version: 6.00 Build 0)  -->
<svg version="1.1" id="Capa_1" xmlns="http://www.w3.org/2000/svg" xmlns:xlink="http://www.w3.org/1999/xlink" x="0px" y="0px"
	 viewBox="0 0 60 60" style="enable-background:new 0 0 60 60;" xml:space="preserve">
<g>
	<path d="M26.525,10.5l-4.712-6.582l-0.001-0.001L21.515,3.5H0v53h60v-46H26.525z M58,12.5v5H31.537l-3.579-5H58z M2,54.5v-49
		h18.485l5,7h0.012l4.69,6.551c0.195,0.272,0.502,0.417,0.813,0.418V19.5h27v35H2z"/>
	<path d="M36,29.5c0-3.309-2.691-6-6-6s-6,2.691-6,6v4h-4v16h20v-16h-4V29.5z M26,29.5c0-2.206,1.794-4,4-4s4,1.794,4,4v4h-8V29.5z
		 M38,35.5v12H22v-12h2h12H38z"/>
	<path d="M29,44.358V45.5c0,0.553,0.447,1,1,1s1-0.447,1-1v-1.142c1.721-0.447,3-1.999,3-3.858c0-2.206-1.794-4-4-4s-4,1.794-4,4
		C26,42.359,27.279,43.911,29,44.358z M30,38.5c1.103,0,2,0.897,2,2s-0.897,2-2,2s-2-0.897-2-2S28.897,38.5,30,38.5z"/>
</g>
<g>
</g>
<g>
</g>
<g>
</g>
<g>
</g>
<g>
</g>
<g>
</g>
<g>
</g>
<g>
</g>
<g>
</g>
<g>
</g>
<g>
</g>
<g>
</g>
<g>
</g>
<g>
</g>
<g>
</g>
</svg>
