<?xml version="1.0" encoding="iso-8859-1"?>
<!-- Generator: Adobe Illustrator 19.0.0, SVG Export Plug-In . SVG Version: 6.00 Build 0)  -->
<svg version="1.1" id="Capa_1" xmlns="http://www.w3.org/2000/svg" xmlns:xlink="http://www.w3.org/1999/xlink" x="0px" y="0px"
	 viewBox="0 0 60 60" style="enable-background:new 0 0 60 60;" xml:space="preserve">
<g>
	<path d="M26.525,10.5l-4.618-6.451L21.515,3.5H0v53h60v-46H26.525z M58,12.5v5H31.536l-3.579-5H58z M2,54.5v-49h18.485l5,7h0.012
		l4.69,6.551c0.195,0.272,0.501,0.417,0.813,0.418V19.5h27v35H2z"/>
	<path d="M34,51.5h21v-14H34V51.5z M36,39.5h17v10H36V39.5z"/>
	<path d="M39,43.5h4c0.552,0,1-0.447,1-1s-0.448-1-1-1h-4c-0.552,0-1,0.447-1,1S38.448,43.5,39,43.5z"/>
	<path d="M47,43.5h1c0.552,0,1-0.447,1-1s-0.448-1-1-1h-1c-0.552,0-1,0.447-1,1S46.448,43.5,47,43.5z"/>
	<path d="M50,45.5H39c-0.552,0-1,0.447-1,1s0.448,1,1,1h11c0.552,0,1-0.447,1-1S50.552,45.5,50,45.5z"/>
</g>
<g>
</g>
<g>
</g>
<g>
</g>
<g>
</g>
<g>
</g>
<g>
</g>
<g>
</g>
<g>
</g>
<g>
</g>
<g>
</g>
<g>
</g>
<g>
</g>
<g>
</g>
<g>
</g>
<g>
</g>
</svg>
