<?xml version="1.0" encoding="iso-8859-1"?>
<!-- Generator: Adobe Illustrator 19.0.0, SVG Export Plug-In . SVG Version: 6.00 Build 0)  -->
<svg version="1.1" id="Capa_1" xmlns="http://www.w3.org/2000/svg" xmlns:xlink="http://www.w3.org/1999/xlink" x="0px" y="0px"
	 viewBox="0 0 52.077 52.077" style="enable-background:new 0 0 52.077 52.077;" xml:space="preserve">
<path d="M51.039,7c0-4.596-12.577-7-25-7s-25,2.404-25,7c0,1.042,0.651,1.969,1.796,2.783l17.204,23.54v17.528
	c0,0.43,0.256,0.813,0.652,0.979l0.686,0.246l10.662-10.663v-8.087L49.224,9.809l-0.001-0.012C50.379,8.98,51.039,8.047,51.039,7z
	 M26.039,2c14.04,0,23,2.961,23,5c0,0.422-0.404,0.883-1.135,1.349l-0.051-0.006l0.017,0.027C45.033,10.151,37.133,12,26.039,12
	C14.934,12,7.029,10.148,4.2,8.365l0.017-0.027L3.805,8.093C3.314,7.715,3.039,7.344,3.039,7C3.039,4.961,11.999,2,26.039,2z
	 M30.039,40.586l-8,8V34h8V40.586z M30.533,32h-8.987L6.615,11.567C11.438,13.174,18.763,14,26.039,14
	c7.276,0,14.6-0.826,19.424-2.432L30.533,32z"/>
<g>
</g>
<g>
</g>
<g>
</g>
<g>
</g>
<g>
</g>
<g>
</g>
<g>
</g>
<g>
</g>
<g>
</g>
<g>
</g>
<g>
</g>
<g>
</g>
<g>
</g>
<g>
</g>
<g>
</g>
</svg>
