<?xml version="1.0" encoding="iso-8859-1"?>
<!-- Generator: Adobe Illustrator 19.0.0, SVG Export Plug-In . SVG Version: 6.00 Build 0)  -->
<svg version="1.1" id="Capa_1" xmlns="http://www.w3.org/2000/svg" xmlns:xlink="http://www.w3.org/1999/xlink" x="0px" y="0px"
	 viewBox="0 0 53 53" style="enable-background:new 0 0 53 53;" xml:space="preserve">
<g>
	<path d="M46.5,9.557C46.5,7.596,44.904,6,42.943,6H33.5V3c0-1.654-1.346-3-3-3h-8c-1.654,0-3,1.346-3,3v3h-9.443
		C8.096,6,6.5,7.596,6.5,9.557V14h2v35.271C8.5,51.327,10.173,53,12.229,53h28.541c2.057,0,3.729-1.673,3.729-3.729V14h2V9.557z
		 M21.5,3c0-0.552,0.449-1,1-1h8c0.551,0,1,0.448,1,1v3h-10V3z M42.5,49.271c0,0.954-0.776,1.729-1.729,1.729H12.229
		c-0.954,0-1.729-0.775-1.729-1.729V14h32V49.271z M44.5,12h-36V9.557C8.5,8.698,9.198,8,10.057,8H19.5h14h9.443
		C43.802,8,44.5,8.698,44.5,9.557V12z"/>
	<circle cx="14.5" cy="21" r="1"/>
	<circle cx="14.5" cy="27" r="1"/>
	<circle cx="17.5" cy="18" r="1"/>
	<circle cx="23.5" cy="18" r="1"/>
	<circle cx="17.5" cy="24" r="1"/>
	<circle cx="23.5" cy="24" r="1"/>
	<circle cx="20.5" cy="21" r="1"/>
	<circle cx="26.5" cy="21" r="1"/>
	<circle cx="20.5" cy="27" r="1"/>
	<circle cx="26.5" cy="27" r="1"/>
	<circle cx="29.5" cy="18" r="1"/>
	<circle cx="35.5" cy="18" r="1"/>
	<circle cx="29.5" cy="24" r="1"/>
	<circle cx="35.5" cy="24" r="1"/>
	<circle cx="32.5" cy="21" r="1"/>
	<circle cx="38.5" cy="21" r="1"/>
	<circle cx="32.5" cy="27" r="1"/>
	<circle cx="38.5" cy="27" r="1"/>
	<circle cx="14.5" cy="33" r="1"/>
	<circle cx="14.5" cy="39" r="1"/>
	<circle cx="17.5" cy="30" r="1"/>
	<circle cx="23.5" cy="30" r="1"/>
	<circle cx="17.5" cy="36" r="1"/>
	<circle cx="23.5" cy="36" r="1"/>
	<circle cx="20.5" cy="33" r="1"/>
	<circle cx="26.5" cy="33" r="1"/>
	<circle cx="20.5" cy="39" r="1"/>
	<circle cx="26.5" cy="39" r="1"/>
	<circle cx="29.5" cy="30" r="1"/>
	<circle cx="35.5" cy="30" r="1"/>
	<circle cx="29.5" cy="36" r="1"/>
	<circle cx="35.5" cy="36" r="1"/>
	<circle cx="32.5" cy="33" r="1"/>
	<circle cx="38.5" cy="33" r="1"/>
	<circle cx="32.5" cy="39" r="1"/>
	<circle cx="38.5" cy="39" r="1"/>
	<circle cx="14.5" cy="45" r="1"/>
	<circle cx="17.5" cy="42" r="1"/>
	<circle cx="23.5" cy="42" r="1"/>
	<circle cx="17.5" cy="48" r="1"/>
	<circle cx="23.5" cy="48" r="1"/>
	<circle cx="20.5" cy="45" r="1"/>
	<circle cx="26.5" cy="45" r="1"/>
	<circle cx="29.5" cy="42" r="1"/>
	<circle cx="35.5" cy="42" r="1"/>
	<circle cx="29.5" cy="48" r="1"/>
	<circle cx="35.5" cy="48" r="1"/>
	<circle cx="32.5" cy="45" r="1"/>
	<circle cx="38.5" cy="45" r="1"/>
</g>
<g>
</g>
<g>
</g>
<g>
</g>
<g>
</g>
<g>
</g>
<g>
</g>
<g>
</g>
<g>
</g>
<g>
</g>
<g>
</g>
<g>
</g>
<g>
</g>
<g>
</g>
<g>
</g>
<g>
</g>
</svg>
