<?xml version="1.0" encoding="iso-8859-1"?>
<!-- Generator: Adobe Illustrator 19.0.0, SVG Export Plug-In . SVG Version: 6.00 Build 0)  -->
<svg version="1.1" id="Capa_1" xmlns="http://www.w3.org/2000/svg" xmlns:xlink="http://www.w3.org/1999/xlink" x="0px" y="0px"
	 viewBox="0 0 60 60" style="enable-background:new 0 0 60 60;" xml:space="preserve">
<g>
	<path d="M49.416,10.199c-0.572-0.759-1.405-1.25-2.346-1.382l-9.352-1.314l0.417-2.971c0.111-0.791-0.093-1.58-0.577-2.222
		s-1.185-1.056-1.977-1.167L27.661,0.03c-0.791-0.111-1.58,0.094-2.222,0.577c-0.641,0.483-1.056,1.185-1.167,1.976l-0.418,2.971
		L14.504,4.24c-1.942-0.272-3.745,1.085-4.017,3.026l-0.619,4.401l8.353,1.174l-5.855,5.855c-0.089,0.089-0.144,0.198-0.204,0.305
		h-1.03v37.271c0,2.057,1.673,3.729,3.729,3.729h28.541c2.057,0,3.729-1.673,3.729-3.729V19h-5v-2.799l7.347,1.032l0.618-4.399
		C50.229,11.893,49.988,10.957,49.416,10.199z M26.253,2.861c0.037-0.262,0.175-0.495,0.39-0.657
		c0.214-0.161,0.478-0.231,0.74-0.193l7.922,1.113c0.262,0.037,0.496,0.176,0.658,0.391c0.162,0.214,0.23,0.477,0.193,0.738
		l-0.417,2.971l-9.903-1.392L26.253,2.861z M18.475,15.414L22.061,19h-7.171L18.475,15.414z M35.132,16v3h-1v-3h-10v2.243
		l-5.319-5.319L40.702,16H35.132z M40.132,18v1h-3v-1H40.132z M32.132,18v1h-6v-1H32.132z M45.132,21v35.271
		c0,0.954-0.776,1.729-1.729,1.729H14.862c-0.954,0-1.729-0.775-1.729-1.729V21h11h0.07h9.93h1h7H45.132z M48.117,12.556
		l-0.34,2.418l-35.65-5.01l0.34-2.42c0.119-0.849,0.904-1.439,1.758-1.324l9.351,1.314v0l8.601,1.209l14.615,2.054
		c0.412,0.058,0.776,0.272,1.026,0.604C48.069,11.734,48.175,12.144,48.117,12.556z"/>
	<circle cx="17.132" cy="28" r="1"/>
	<circle cx="17.132" cy="34" r="1"/>
	<circle cx="20.132" cy="25" r="1"/>
	<circle cx="26.132" cy="25" r="1"/>
	<circle cx="20.132" cy="31" r="1"/>
	<circle cx="26.132" cy="31" r="1"/>
	<circle cx="23.132" cy="28" r="1"/>
	<circle cx="29.132" cy="28" r="1"/>
	<circle cx="23.132" cy="34" r="1"/>
	<circle cx="29.132" cy="34" r="1"/>
	<circle cx="32.132" cy="25" r="1"/>
	<circle cx="38.132" cy="25" r="1"/>
	<circle cx="32.132" cy="31" r="1"/>
	<circle cx="38.132" cy="31" r="1"/>
	<circle cx="35.132" cy="28" r="1"/>
	<circle cx="41.132" cy="28" r="1"/>
	<circle cx="35.132" cy="34" r="1"/>
	<circle cx="41.132" cy="34" r="1"/>
	<circle cx="17.132" cy="40" r="1"/>
	<circle cx="17.132" cy="46" r="1"/>
	<circle cx="20.132" cy="37" r="1"/>
	<circle cx="26.132" cy="37" r="1"/>
	<circle cx="20.132" cy="43" r="1"/>
	<circle cx="26.132" cy="43" r="1"/>
	<circle cx="23.132" cy="40" r="1"/>
	<circle cx="29.132" cy="40" r="1"/>
	<circle cx="23.132" cy="46" r="1"/>
	<circle cx="29.132" cy="46" r="1"/>
	<circle cx="32.132" cy="37" r="1"/>
	<circle cx="38.132" cy="37" r="1"/>
	<circle cx="32.132" cy="43" r="1"/>
	<circle cx="38.132" cy="43" r="1"/>
	<circle cx="35.132" cy="40" r="1"/>
	<circle cx="41.132" cy="40" r="1"/>
	<circle cx="35.132" cy="46" r="1"/>
	<circle cx="41.132" cy="46" r="1"/>
	<circle cx="17.132" cy="52" r="1"/>
	<circle cx="20.132" cy="49" r="1"/>
	<circle cx="26.132" cy="49" r="1"/>
	<circle cx="20.132" cy="55" r="1"/>
	<circle cx="26.132" cy="55" r="1"/>
	<circle cx="23.132" cy="52" r="1"/>
	<circle cx="29.132" cy="52" r="1"/>
	<circle cx="32.132" cy="49" r="1"/>
	<circle cx="38.132" cy="49" r="1"/>
	<circle cx="32.132" cy="55" r="1"/>
	<circle cx="38.132" cy="55" r="1"/>
	<circle cx="35.132" cy="52" r="1"/>
	<circle cx="41.132" cy="52" r="1"/>
</g>
<g>
</g>
<g>
</g>
<g>
</g>
<g>
</g>
<g>
</g>
<g>
</g>
<g>
</g>
<g>
</g>
<g>
</g>
<g>
</g>
<g>
</g>
<g>
</g>
<g>
</g>
<g>
</g>
<g>
</g>
</svg>
