<?xml version="1.0" encoding="iso-8859-1"?>
<!-- Generator: Adobe Illustrator 19.0.0, SVG Export Plug-In . SVG Version: 6.00 Build 0)  -->
<svg version="1.1" id="Capa_1" xmlns="http://www.w3.org/2000/svg" xmlns:xlink="http://www.w3.org/1999/xlink" x="0px" y="0px"
	 viewBox="0 0 58.365 58.365" style="enable-background:new 0 0 58.365 58.365;" xml:space="preserve">
<path d="M57.863,26.632L29.182,0L0.502,26.632c-0.404,0.376-0.428,1.009-0.052,1.414c0.374,0.404,1.009,0.427,1.413,0.052
	l3.319-3.082v33.349h16h16h16V25.015l3.319,3.082c0.192,0.179,0.437,0.267,0.681,0.267c0.269,0,0.536-0.107,0.732-0.319
	C58.291,27.641,58.267,27.008,57.863,26.632z M23.182,56.365v-16c0-3.309,2.691-6,6-6s6,2.691,6,6v16H23.182z M51.182,56.365h-14
	v-16c0-4.411-3.589-8-8-8s-8,3.589-8,8v16h-14V23.158l22-20.429l22,20.429V56.365z"/>
<g>
</g>
<g>
</g>
<g>
</g>
<g>
</g>
<g>
</g>
<g>
</g>
<g>
</g>
<g>
</g>
<g>
</g>
<g>
</g>
<g>
</g>
<g>
</g>
<g>
</g>
<g>
</g>
<g>
</g>
</svg>
