<?xml version="1.0" encoding="iso-8859-1"?>
<!-- Generator: Adobe Illustrator 19.0.0, SVG Export Plug-In . SVG Version: 6.00 Build 0)  -->
<svg version="1.1" id="Capa_1" xmlns="http://www.w3.org/2000/svg" xmlns:xlink="http://www.w3.org/1999/xlink" x="0px" y="0px"
	 viewBox="0 0 60 60" style="enable-background:new 0 0 60 60;" xml:space="preserve">
<g>
	<circle cx="35" cy="52" r="1"/>
	<circle cx="39" cy="52" r="1"/>
	<circle cx="43" cy="52" r="1"/>
	<circle cx="33" cy="33" r="1"/>
	<circle cx="35" cy="22" r="1"/>
	<circle cx="39" cy="22" r="1"/>
	<circle cx="37" cy="20" r="1"/>
	<circle cx="39" cy="18" r="1"/>
	<circle cx="35" cy="26" r="1"/>
	<circle cx="33" cy="24" r="1"/>
	<circle cx="37" cy="24" r="1"/>
	<circle cx="33" cy="36" r="1"/>
	<circle cx="33" cy="39" r="1"/>
	<circle cx="33" cy="42" r="1"/>
	<circle cx="33" cy="45" r="1"/>
	<circle cx="33" cy="48" r="1"/>
	<circle cx="37" cy="50" r="1"/>
	<circle cx="41" cy="50" r="1"/>
	<path d="M24,11h-5c-0.552,0-1,0.447-1,1s0.448,1,1,1h5c0.552,0,1-0.447,1-1S24.552,11,24,11z"/>
	<path d="M24,18H14c-0.552,0-1,0.447-1,1s0.448,1,1,1h10c0.552,0,1-0.447,1-1S24.552,18,24,18z"/>
	<path d="M24,25H9c-0.552,0-1,0.447-1,1s0.448,1,1,1h15c0.552,0,1-0.447,1-1S24.552,25,24,25z"/>
	<path d="M24,32H5c-0.552,0-1,0.447-1,1s0.448,1,1,1h19c0.552,0,1-0.447,1-1S24.552,32,24,32z"/>
	<path d="M24,39H11c-0.552,0-1,0.447-1,1s0.448,1,1,1h13c0.552,0,1-0.447,1-1S24.552,39,24,39z"/>
	<path d="M24,46h-7c-0.552,0-1,0.447-1,1s0.448,1,1,1h7c0.552,0,1-0.447,1-1S24.552,46,24,46z"/>
	<path d="M53,54h-5v-6c0-7.591-4.147-14.44-10.714-18C43.853,26.44,48,19.591,48,12V6h5c1.654,0,3-1.346,3-3s-1.346-3-3-3H30
		c-0.552,0-1,0.447-1,1s0.448,1,1,1h23c0.551,0,1,0.448,1,1s-0.449,1-1,1h-5H30c-0.552,0-1,0.447-1,1s0.448,1,1,1h16v6
		c0,7.491-4.467,14.193-11.381,17.075c-0.001,0-0.001,0-0.002,0.001c0,0-0.001,0.001-0.002,0.001
		c-0.011,0.005-0.018,0.014-0.029,0.02c-0.107,0.049-0.208,0.113-0.293,0.198c-0.07,0.07-0.117,0.155-0.162,0.241
		c-0.016,0.029-0.041,0.049-0.054,0.08c0,0.001,0,0.002,0,0.002c-0.05,0.121-0.076,0.251-0.076,0.383
		c0,0.132,0.026,0.262,0.075,0.382c0,0,0,0.002,0.001,0.003c0.046,0.111,0.114,0.205,0.192,0.289
		c0.022,0.023,0.047,0.041,0.071,0.063c0.069,0.062,0.143,0.112,0.225,0.152c0.019,0.009,0.031,0.026,0.051,0.034
		C41.531,33.805,46,40.508,46,48v6c0-0.552-0.448-1-1-1s-1,0.448-1,1h-2c0-0.552-0.448-1-1-1s-1,0.448-1,1h-2c0-0.552-0.448-1-1-1
		s-1,0.448-1,1h-2c0-0.552-0.448-1-1-1s-1,0.448-1,1h-2c-0.552,0-1,0.447-1,1s0.448,1,1,1h18h5c0.551,0,1,0.448,1,1s-0.449,1-1,1H30
		c-0.552,0-1,0.447-1,1s0.448,1,1,1h23c1.654,0,3-1.346,3-3S54.654,54,53,54z"/>
</g>
<g>
</g>
<g>
</g>
<g>
</g>
<g>
</g>
<g>
</g>
<g>
</g>
<g>
</g>
<g>
</g>
<g>
</g>
<g>
</g>
<g>
</g>
<g>
</g>
<g>
</g>
<g>
</g>
<g>
</g>
</svg>
