<?xml version="1.0" encoding="iso-8859-1"?>
<!-- Generator: Adobe Illustrator 19.0.0, SVG Export Plug-In . SVG Version: 6.00 Build 0)  -->
<svg version="1.1" id="Capa_1" xmlns="http://www.w3.org/2000/svg" xmlns:xlink="http://www.w3.org/1999/xlink" x="0px" y="0px"
	 viewBox="0 0 60 60" style="enable-background:new 0 0 60 60;" xml:space="preserve">
<g>
	<path d="M47,4h-12l1.8-2.4c0.332-0.441,0.242-1.068-0.2-1.399c-0.443-0.331-1.069-0.242-1.4,0.2L32.5,4h-4.882l-1.724-3.447
		c-0.247-0.494-0.846-0.692-1.342-0.447c-0.494,0.247-0.694,0.848-0.447,1.342L25.382,4H13c-1.654,0-3,1.346-3,3v50
		c0,1.654,1.346,3,3,3h34c1.654,0,3-1.346,3-3V7C50,5.346,48.654,4,47,4z M48,57c0,0.552-0.448,1-1,1H13c-0.551,0-1-0.448-1-1V7
		c0-0.552,0.449-1,1-1h13.382l1,2C26.542,8.734,26,9.799,26,11c0,2.206,1.794,4,4,4s4-1.794,4-4s-1.794-4-4-4
		c-0.287,0-0.566,0.033-0.836,0.091L28.618,6H47c0.552,0,1,0.448,1,1V57z M28.332,9.9l0.773,1.547
		C29.281,11.798,29.634,12,30.001,12c0.15,0,0.303-0.034,0.446-0.105c0.494-0.247,0.694-0.848,0.447-1.342l-0.77-1.54
		C31.168,9.078,32,9.94,32,11c0,1.103-0.897,2-2,2s-2-0.897-2-2C28,10.594,28.123,10.216,28.332,9.9z"/>
	<path d="M30,23c-7.168,0-13,5.832-13,13c0,2.436,0.686,4.709,1.856,6.66l-0.077,0.026l0.835,1.11
		c0.022,0.029,0.047,0.053,0.069,0.082c0.258,0.337,0.531,0.66,0.82,0.97c0.052,0.057,0.102,0.116,0.156,0.171
		c0.305,0.316,0.624,0.618,0.96,0.902c0.036,0.031,0.069,0.065,0.105,0.096c0.343,0.283,0.701,0.548,1.072,0.796
		c0.19,0.127,0.388,0.238,0.584,0.355c0.191,0.114,0.38,0.228,0.576,0.332c0.22,0.116,0.445,0.221,0.672,0.324
		c0.191,0.087,0.382,0.171,0.578,0.249c0.227,0.09,0.454,0.175,0.686,0.252c0.219,0.073,0.441,0.136,0.664,0.198
		c0.216,0.059,0.43,0.12,0.65,0.167c0.275,0.061,0.555,0.104,0.836,0.147c0.178,0.027,0.354,0.062,0.534,0.082
		C29.044,48.969,29.518,49,30,49s0.956-0.031,1.424-0.082c0.18-0.02,0.356-0.055,0.534-0.082c0.281-0.043,0.561-0.086,0.836-0.147
		c0.219-0.048,0.434-0.108,0.65-0.167c0.224-0.062,0.446-0.125,0.664-0.198c0.232-0.077,0.46-0.162,0.686-0.252
		c0.195-0.078,0.387-0.161,0.578-0.249c0.227-0.103,0.452-0.208,0.672-0.324c0.197-0.104,0.386-0.219,0.576-0.332
		c0.196-0.117,0.394-0.228,0.584-0.355c0.371-0.248,0.729-0.512,1.072-0.796c0.036-0.03,0.069-0.065,0.105-0.096
		c0.336-0.284,0.654-0.586,0.96-0.902c0.053-0.055,0.103-0.115,0.156-0.171c0.289-0.31,0.562-0.633,0.82-0.97
		c0.022-0.029,0.048-0.053,0.069-0.082l0.835-1.11l-0.077-0.026C42.314,40.709,43,38.436,43,36C43,28.832,37.168,23,30,23z
		 M26.975,40.611C26.337,39.865,26,38.972,26,38.027V34c0-2.206,1.794-4,4-4s4,1.794,4,4v4.027c0,0.944-0.337,1.838-0.976,2.584
		l-0.966,1.13l5.806,1.935c-0.22,0.227-0.451,0.437-0.687,0.642c-0.048,0.042-0.092,0.087-0.141,0.128
		c-0.157,0.132-0.324,0.25-0.488,0.372c-0.134,0.1-0.262,0.206-0.401,0.3c-0.016,0.011-0.033,0.019-0.049,0.03
		C34.353,46.316,32.255,47,30,47s-4.353-0.684-6.1-1.853c-0.016-0.011-0.033-0.019-0.049-0.03c-0.138-0.094-0.267-0.2-0.401-0.3
		c-0.164-0.123-0.331-0.24-0.488-0.372c-0.049-0.041-0.093-0.086-0.141-0.128c-0.236-0.205-0.467-0.415-0.687-0.642l5.806-1.935
		L26.975,40.611z M39.2,42.012l-3.86-1.286c0.431-0.838,0.66-1.763,0.66-2.699V34c0-3.309-2.691-6-6-6s-6,2.691-6,6v4.027
		c0,0.937,0.229,1.861,0.66,2.699l-3.86,1.286C19.665,40.282,19,38.219,19,36c0-6.065,4.935-11,11-11s11,4.935,11,11
		C41,38.219,40.334,40.282,39.2,42.012z"/>
	<circle cx="45.2" cy="19" r="1"/>
	<circle cx="26.2" cy="19" r="1"/>
	<circle cx="18.6" cy="19" r="1"/>
	<circle cx="14.8" cy="19" r="1"/>
	<circle cx="22.4" cy="19" r="1"/>
	<circle cx="30" cy="19" r="1"/>
	<circle cx="41.4" cy="19" r="1"/>
	<circle cx="37.6" cy="19" r="1"/>
	<circle cx="33.8" cy="19" r="1"/>
	<circle cx="14.8" cy="54" r="1"/>
	<circle cx="22.4" cy="54" r="1"/>
	<circle cx="41.4" cy="54" r="1"/>
	<circle cx="37.6" cy="54" r="1"/>
	<circle cx="45.2" cy="54" r="1"/>
	<circle cx="30" cy="54" r="1"/>
	<circle cx="26.2" cy="54" r="1"/>
	<circle cx="33.8" cy="54" r="1"/>
	<circle cx="18.6" cy="54" r="1"/>
</g>
<g>
</g>
<g>
</g>
<g>
</g>
<g>
</g>
<g>
</g>
<g>
</g>
<g>
</g>
<g>
</g>
<g>
</g>
<g>
</g>
<g>
</g>
<g>
</g>
<g>
</g>
<g>
</g>
<g>
</g>
</svg>
