<?xml version="1.0" encoding="iso-8859-1"?>
<!-- Generator: Adobe Illustrator 19.0.0, SVG Export Plug-In . SVG Version: 6.00 Build 0)  -->
<svg version="1.1" id="Capa_1" xmlns="http://www.w3.org/2000/svg" xmlns:xlink="http://www.w3.org/1999/xlink" x="0px" y="0px"
	 viewBox="0 0 60 60" style="enable-background:new 0 0 60 60;" xml:space="preserve">
<g>
	<path d="M55.783,8H4.217C1.892,8,0,9.892,0,12.217V13v10v24.783C0,50.108,1.892,52,4.217,52h51.566C58.108,52,60,50.108,60,47.783
		V23V13v-0.783C60,9.892,58.108,8,55.783,8z M3,16c0.552,0,1-0.448,1-1h4c0,0.552,0.448,1,1,1s1-0.448,1-1h4c0,0.552,0.448,1,1,1
		s1-0.448,1-1h4c0,0.552,0.448,1,1,1s1-0.448,1-1h4c0,0.552,0.448,1,1,1s1-0.448,1-1h4c0,0.552,0.448,1,1,1s1-0.448,1-1h4
		c0,0.552,0.448,1,1,1s1-0.448,1-1h4c0,0.552,0.448,1,1,1s1-0.448,1-1h4c0,0.552,0.448,1,1,1s1-0.448,1-1h4c0,0.552,0.448,1,1,1
		s1-0.448,1-1v6c0-0.552-0.448-1-1-1s-1,0.448-1,1h-4c0-0.552-0.448-1-1-1s-1,0.448-1,1h-4c0-0.552-0.448-1-1-1s-1,0.448-1,1h-4
		c0-0.552-0.448-1-1-1s-1,0.448-1,1h-4c0-0.552-0.448-1-1-1s-1,0.448-1,1h-4c0-0.552-0.448-1-1-1s-1,0.448-1,1h-4
		c0-0.552-0.448-1-1-1s-1,0.448-1,1h-4c0-0.552-0.448-1-1-1s-1,0.448-1,1h-4c0-0.552-0.448-1-1-1s-1,0.448-1,1H4
		c0-0.552-0.448-1-1-1s-1,0.448-1,1v-6C2,15.552,2.448,16,3,16z M58,47.783C58,49.006,57.006,50,55.783,50H4.217
		C2.994,50,2,49.006,2,47.783V23h56V47.783z M2,13v-0.783C2,10.994,2.994,10,4.217,10h51.566C57.006,10,58,10.994,58,12.217V13H2z"
		/>
	<path d="M50.649,47H55V25H33v22h4.351H50.649z M39,45v-0.005c0-0.435,0.237-0.834,0.581-1.022l2.578-1.27
		C42.678,42.445,43,41.926,43,41.348v-1.422l-0.604-0.261c-0.911-0.392-1.506-1.151-1.819-2.321l-0.143-0.533l-0.526-0.164
		c-0.116-0.036-0.24-0.149-0.24-0.313v-0.667c0-0.141,0.095-0.242,0.184-0.289l0.47-0.25l0.056-0.53
		c0.062-0.595,0.192-1.14,0.391-1.621c0.086-0.211,0.159-0.368,0.219-0.496c0.155-0.333,0.249-0.579,0.283-0.855
		c0.731,0.305,1.559,0.428,2.44,0.357c0.095-0.008,0.192-0.012,0.291-0.012c2.919,0,3.469,1.334,3.622,2.638l0.062,0.522
		l0.465,0.246c0.089,0.047,0.185,0.147,0.185,0.29v0.667c0,0.164-0.124,0.277-0.24,0.313l-0.526,0.164l-0.143,0.533
		c-0.313,1.17-0.908,1.93-1.819,2.321L45,39.926v1.428c0,0.57,0.315,1.087,0.824,1.347l2.52,1.286
		c0.39,0.195,0.638,0.581,0.655,1.014H39z M35,27h18v18h-2.003c-0.018-1.194-0.685-2.264-1.754-2.801l-2.118-1.081
		c0.974-0.623,1.676-1.561,2.094-2.801c0.685-0.416,1.115-1.158,1.115-1.984v-0.667c0-0.677-0.295-1.308-0.793-1.745
		c-0.357-1.898-1.645-3.951-5.54-3.951c-0.153,0-0.304,0.006-0.45,0.018c-0.525,0.041-1.286,0-1.937-0.438
		c-0.305-0.204-0.458-0.361-0.536-0.461c-0.319-0.403-0.851-0.541-1.324-0.347c-0.473,0.195-0.75,0.669-0.692,1.176
		c0.029,0.257,0.073,0.557,0.139,0.886c0.084,0.421,0.09,0.541,0.086,0.573c-0.009,0.035-0.066,0.159-0.112,0.259
		c-0.07,0.15-0.156,0.335-0.257,0.582c-0.218,0.528-0.375,1.104-0.471,1.72c-0.49,0.437-0.778,1.062-0.778,1.729v0.667
		c0,0.826,0.431,1.568,1.115,1.984c0.417,1.235,1.115,2.171,2.083,2.793l-2.205,1.087C37.636,42.758,37,43.829,37,44.995V45h-2V27z"
		/>
	<path d="M6,29h9c0.553,0,1-0.447,1-1s-0.447-1-1-1H6c-0.553,0-1,0.447-1,1S5.447,29,6,29z"/>
	<path d="M19,29h9c0.553,0,1-0.447,1-1s-0.447-1-1-1h-9c-0.553,0-1,0.447-1,1S18.447,29,19,29z"/>
	<path d="M6,34h1c0.553,0,1-0.447,1-1s-0.447-1-1-1H6c-0.553,0-1,0.447-1,1S5.447,34,6,34z"/>
	<path d="M13,34c0.553,0,1-0.447,1-1s-0.447-1-1-1h-2c-0.553,0-1,0.447-1,1s0.447,1,1,1H13z"/>
	<path d="M17,34h1c0.553,0,1-0.447,1-1s-0.447-1-1-1h-1c-0.553,0-1,0.447-1,1S16.447,34,17,34z"/>
	<path d="M24,34c0.553,0,1-0.447,1-1s-0.447-1-1-1h-2c-0.553,0-1,0.447-1,1s0.447,1,1,1H24z"/>
	<path d="M27.29,32.29C27.109,32.479,27,32.729,27,33c0,0.27,0.109,0.52,0.29,0.71C27.479,33.89,27.74,34,28,34s0.52-0.11,0.71-0.29
		C28.89,33.52,29,33.26,29,33s-0.11-0.521-0.29-0.71C28.34,31.92,27.66,31.92,27.29,32.29z"/>
	<path d="M11.651,37.4c-2.19,1.14-2.928,3.321-3.196,5.582c-0.414-0.347-0.828-0.693-1.241-1.04
		c-0.98-0.821-2.402,0.586-1.414,1.414c0.935,0.783,1.871,1.567,2.806,2.351c0.658,0.552,1.677,0.203,1.707-0.707
		c0.073-2.166,0.175-4.742,2.348-5.873C13.803,38.533,12.793,36.806,11.651,37.4z"/>
	<path d="M24.906,40.372c-1.458-0.092-3.592,2.155-4.716,0.153c-0.26-0.464-0.913-0.638-1.368-0.359
		c-1.416,0.869-3.267,2.119-4.756,0.5c-0.873-0.949-2.285,0.468-1.414,1.414c1.87,2.033,4.276,1.414,6.399,0.263
		c0.478,0.535,1.071,0.926,1.837,1.081c0.793,0.16,4.025-1.141,4.2-0.901c0.752,1.029,2.488,0.032,1.727-1.01
		C26.298,40.807,25.821,40.429,24.906,40.372z"/>
	<circle cx="42" cy="18" r="1"/>
	<circle cx="48" cy="18" r="1"/>
	<circle cx="24" cy="18" r="1"/>
	<circle cx="30" cy="18" r="1"/>
	<circle cx="36" cy="18" r="1"/>
	<circle cx="54" cy="18" r="1"/>
	<circle cx="18" cy="18" r="1"/>
	<circle cx="6" cy="18" r="1"/>
	<circle cx="12" cy="18" r="1"/>
</g>
<g>
</g>
<g>
</g>
<g>
</g>
<g>
</g>
<g>
</g>
<g>
</g>
<g>
</g>
<g>
</g>
<g>
</g>
<g>
</g>
<g>
</g>
<g>
</g>
<g>
</g>
<g>
</g>
<g>
</g>
</svg>
