<?xml version="1.0" encoding="iso-8859-1"?>
<!-- Generator: Adobe Illustrator 19.0.0, SVG Export Plug-In . SVG Version: 6.00 Build 0)  -->
<svg version="1.1" id="Capa_1" xmlns="http://www.w3.org/2000/svg" xmlns:xlink="http://www.w3.org/1999/xlink" x="0px" y="0px"
	 viewBox="0 0 60 60" style="enable-background:new 0 0 60 60;" xml:space="preserve">
<g>
	<path d="M47,4h-12l1.8-2.4c0.332-0.441,0.242-1.068-0.2-1.399c-0.441-0.331-1.068-0.242-1.399,0.2L32.5,4h-4.882l-1.724-3.447
		c-0.247-0.494-0.848-0.692-1.342-0.447c-0.494,0.247-0.694,0.848-0.447,1.342L25.382,4H13c-1.654,0-3,1.346-3,3v50
		c0,1.654,1.346,3,3,3h34c1.654,0,3-1.346,3-3V7C50,5.346,48.654,4,47,4z M13,6h13.382l1,2C26.542,8.734,26,9.799,26,11
		c0,2.206,1.794,4,4,4s4-1.794,4-4s-1.794-4-4-4c-0.287,0-0.566,0.033-0.836,0.091L28.618,6H47c0.552,0,1,0.448,1,1v33h-8.148
		c-0.305-1.183-1.095-2.194-2.21-2.752L34,35.388v-0.387c1.628-0.889,2.773-2.353,3.412-4.364C38.381,30.123,39,29.122,39,28v-1
		c0-0.926-0.431-1.785-1.151-2.349c-0.624-3.78-3.262-5.696-7.849-5.696c-0.217,0-0.429,0.008-0.636,0.024
		c-0.863,0.067-2.129-0.003-3.224-0.74c-0.409-0.276-0.718-0.544-0.915-0.793c-0.336-0.43-0.9-0.58-1.402-0.373
		c-0.502,0.206-0.797,0.708-0.734,1.247c0.042,0.374,0.105,0.809,0.2,1.286c0.193,0.975,0.193,0.975-0.078,1.558
		c-0.102,0.221-0.228,0.49-0.376,0.853c-0.331,0.811-0.566,1.699-0.701,2.647C21.424,25.228,21,26.083,21,27v1
		c0,1.122,0.619,2.123,1.588,2.637c0.639,2.012,1.784,3.476,3.412,4.364v0.376l-3.769,1.858c-1.077,0.587-1.828,1.598-2.107,2.765
		H12V7C12,6.448,12.448,6,13,6z M28.332,9.901l0.773,1.546C29.281,11.798,29.634,12,30.001,12c0.15,0,0.303-0.034,0.446-0.105
		c0.494-0.247,0.694-0.848,0.447-1.342l-0.77-1.54C31.168,9.078,32,9.94,32,11c0,1.103-0.897,2-2,2s-2-0.897-2-2
		C28,10.594,28.123,10.217,28.332,9.901z M27.01,37.109c0.602-0.294,0.99-0.917,0.99-1.588v-1.803l-0.604-0.26
		c-1.517-0.654-2.503-1.901-3.015-3.814l-0.143-0.533l-0.526-0.164C23.293,28.817,23,28.428,23,28v-1
		c0-0.362,0.207-0.698,0.541-0.876l0.469-0.25l0.055-0.529c0.099-0.938,0.308-1.803,0.622-2.57c0.133-0.325,0.246-0.568,0.338-0.767
		c0.339-0.728,0.462-1.104,0.377-1.875c1.176,0.672,2.589,0.956,4.122,0.841c0.155-0.013,0.314-0.019,0.477-0.019
		c3.744,0,5.572,1.356,5.929,4.398l0.062,0.522l0.465,0.246C36.791,26.299,37,26.636,37,27v1c0,0.428-0.293,0.817-0.712,0.947
		l-0.526,0.164l-0.143,0.533c-0.512,1.913-1.498,3.16-3.015,3.814L32,33.719v1.811c0,0.669,0.37,1.272,0.964,1.575l3.775,1.929
		c0.431,0.216,0.772,0.557,0.99,0.967H22.225c0.199-0.419,0.522-0.77,0.927-0.989L27.01,37.109z M47,58H13c-0.552,0-1-0.448-1-1V42
		h8h20.018H48v15C48,57.552,47.552,58,47,58z"/>
	<path d="M39,49H21c-0.553,0-1,0.447-1,1s0.447,1,1,1h18c0.553,0,1-0.447,1-1S39.553,49,39,49z"/>
	<path d="M25,47h10c0.553,0,1-0.447,1-1s-0.447-1-1-1H25c-0.553,0-1,0.447-1,1S24.447,47,25,47z"/>
	<path d="M22,53h-1c-0.553,0-1,0.447-1,1s0.447,1,1,1h1c0.553,0,1-0.447,1-1S22.553,53,22,53z"/>
	<path d="M28,53h-2c-0.553,0-1,0.447-1,1s0.447,1,1,1h2c0.553,0,1-0.447,1-1S28.553,53,28,53z"/>
	<path d="M33,53h-1c-0.553,0-1,0.447-1,1s0.447,1,1,1h1c0.553,0,1-0.447,1-1S33.553,53,33,53z"/>
	<path d="M39,53h-2c-0.553,0-1,0.447-1,1s0.447,1,1,1h2c0.553,0,1-0.447,1-1S39.553,53,39,53z"/>
</g>
<g>
</g>
<g>
</g>
<g>
</g>
<g>
</g>
<g>
</g>
<g>
</g>
<g>
</g>
<g>
</g>
<g>
</g>
<g>
</g>
<g>
</g>
<g>
</g>
<g>
</g>
<g>
</g>
<g>
</g>
</svg>
