<?xml version="1.0" encoding="iso-8859-1"?>
<!-- Generator: Adobe Illustrator 19.0.0, SVG Export Plug-In . SVG Version: 6.00 Build 0)  -->
<svg version="1.1" id="Capa_1" xmlns="http://www.w3.org/2000/svg" xmlns:xlink="http://www.w3.org/1999/xlink" x="0px" y="0px"
	 viewBox="0 0 57.746 57.746" style="enable-background:new 0 0 57.746 57.746;" xml:space="preserve">
<path d="M56.28,15.314c-0.161-0.238-2.92-4.216-8.28-6.257V4.873H0v48h48V16.164c2.081-0.175,4.475-0.013,7.205,0.68l2.541,0.645
	L56.28,15.314z M46,50.873H2v-44h44v1.565c-0.974-0.246-2.014-0.42-3.127-0.502c-0.086-0.007-0.173-0.008-0.26-0.014
	c-0.425-0.026-0.85-0.049-1.295-0.045c-0.582,0.001-1.165,0.024-1.75,0.079c-0.214,0.007-5.075,0.231-10.457,5.528l-6.118-6.118
	l0.056,20.435l20.435,0.056l-6.229-6.229c0.036-0.045,0.085-0.101,0.125-0.15c0.077-0.094,0.159-0.19,0.252-0.297
	c0.076-0.086,0.164-0.179,0.25-0.271c0.086-0.093,0.181-0.189,0.278-0.288c0.106-0.107,0.214-0.215,0.333-0.327
	c0.104-0.099,0.223-0.201,0.337-0.303c0.229-0.203,0.477-0.408,0.746-0.617c0.13-0.102,0.258-0.203,0.398-0.304
	c0.174-0.126,0.363-0.251,0.553-0.376c0.139-0.092,0.283-0.183,0.43-0.273c0.208-0.127,0.419-0.253,0.644-0.375
	c0.151-0.083,0.315-0.16,0.473-0.24c0.41-0.206,0.848-0.399,1.31-0.579c0.197-0.077,0.388-0.156,0.594-0.228
	c0.257-0.088,0.53-0.165,0.802-0.242c0.237-0.068,0.478-0.131,0.726-0.19c0.161-0.038,0.328-0.071,0.494-0.105V50.873z M48,14.165
	v-0.048l-1.131,0.149c-7.898,1.044-11.443,6.411-11.75,6.9c-0.015,0.023-0.026,0.04-0.028,0.043l-0.41,0.671l3.961,3.962
	l-13.599-0.036l-0.036-13.599l4.134,4.134l0.707-0.75c5.054-5.369,9.746-5.636,9.845-5.641c0.571-0.053,1.136-0.073,1.698-0.071
	c0.061,0,0.123,0,0.184,0c1.759,0.024,3.469,0.311,5.106,0.865l0.927,0.313c2.248,0.907,3.954,2.18,5.122,3.261
	C51.017,14.084,49.446,14.053,48,14.165z"/>
<g>
</g>
<g>
</g>
<g>
</g>
<g>
</g>
<g>
</g>
<g>
</g>
<g>
</g>
<g>
</g>
<g>
</g>
<g>
</g>
<g>
</g>
<g>
</g>
<g>
</g>
<g>
</g>
<g>
</g>
</svg>
