<?xml version="1.0" encoding="iso-8859-1"?>
<!-- Generator: Adobe Illustrator 19.0.0, SVG Export Plug-In . SVG Version: 6.00 Build 0)  -->
<svg version="1.1" id="Capa_1" xmlns="http://www.w3.org/2000/svg" xmlns:xlink="http://www.w3.org/1999/xlink" x="0px" y="0px"
	 viewBox="0 0 60 60" style="enable-background:new 0 0 60 60;" xml:space="preserve">
<path d="M58.681,46h0.042l-0.238-1.177L52.347,8H17.5V6c0-2.206,1.794-4,4-4s4,1.794,4,4c0,0.553,0.448,1,1,1s1-0.447,1-1
	c0-3.309-2.691-6-6-6s-6,2.691-6,6v2H7.653L1.516,44.823L1.278,46h0.042H25.5v9h-3v5h15v-5h-3v-9H58.681z M9.347,10H15.5v7
	c0,0.553,0.448,1,1,1s1-0.447,1-1v-7h33.153l4.5,27H4.847L9.347,10z M3.722,44l1.01-5h50.536l1.01,5H34.5h-9H3.722z M35.5,57v1h-11
	v-1h1h9H35.5z M32.5,55h-5v-9h5V55z"/>
<g>
</g>
<g>
</g>
<g>
</g>
<g>
</g>
<g>
</g>
<g>
</g>
<g>
</g>
<g>
</g>
<g>
</g>
<g>
</g>
<g>
</g>
<g>
</g>
<g>
</g>
<g>
</g>
<g>
</g>
</svg>
