<?xml version="1.0" encoding="iso-8859-1"?>
<!-- Generator: Adobe Illustrator 19.0.0, SVG Export Plug-In . SVG Version: 6.00 Build 0)  -->
<svg version="1.1" id="Capa_1" xmlns="http://www.w3.org/2000/svg" xmlns:xlink="http://www.w3.org/1999/xlink" x="0px" y="0px"
	 viewBox="0 0 54.953 54.953" style="enable-background:new 0 0 54.953 54.953;" xml:space="preserve">
<g>
	<circle cx="45.021" cy="25.976" r="1"/>
	<circle cx="9.021" cy="25.976" r="1"/>
	<circle cx="12.021" cy="28.976" r="1"/>
	<circle cx="18.021" cy="28.976" r="1"/>
	<circle cx="15.021" cy="31.976" r="1"/>
	<circle cx="21.021" cy="31.976" r="1"/>
	<circle cx="24.021" cy="34.976" r="1"/>
	<circle cx="30.021" cy="34.976" r="1"/>
	<circle cx="33.021" cy="31.976" r="1"/>
	<circle cx="27.021" cy="37.976" r="1"/>
	<circle cx="36.021" cy="28.976" r="1"/>
	<circle cx="42.021" cy="28.976" r="1"/>
	<circle cx="39.021" cy="31.976" r="1"/>
	<path d="M45.559,32.796l9.394-5.367l-9.656-5.483l9.656-5.517L27.477,0.826L0,16.429l9.656,5.517L0,27.429l9.656,5.517L0,38.429
		l27.477,15.698l27.477-15.698l-9.656-5.483l0.071-0.041C45.439,32.879,45.497,32.837,45.559,32.796z M27.477,3.125l23.436,13.309
		l-7.637,4.364l0,0l-15.798,9.026L4.041,16.434L27.477,3.125z M11.129,23.409c0.162,0.333,0.497,0.567,0.892,0.567
		c0.27,0,0.512-0.109,0.692-0.283l2.262,1.292c-0.53,0.025-0.954,0.455-0.954,0.991c0,0.552,0.448,1,1,1s1-0.448,1-1
		c0-0.173-0.055-0.327-0.132-0.469l10.33,5.902c-0.116,0.163-0.198,0.352-0.198,0.567c0,0.552,0.448,1,1,1s1-0.448,1-1
		c0-0.051-0.021-0.094-0.029-0.143l10.052-5.743c0.059,0.496,0.465,0.885,0.977,0.885c0.552,0,1-0.448,1-1
		c0-0.325-0.165-0.601-0.406-0.783l2.202-1.258c0.068,0.015,0.132,0.041,0.204,0.041c0.444,0,0.807-0.294,0.938-0.694l0.32-0.183
		l7.634,4.335l-1.983,1.133c-0.157-0.347-0.503-0.591-0.908-0.591c-0.552,0-1,0.448-1,1c0,0.216,0.083,0.405,0.199,0.568
		l-3.945,2.254l0,0l-6.388,3.65c0.078-0.142,0.134-0.298,0.134-0.472c0-0.552-0.448-1-1-1s-1,0.448-1,1
		c0,0.537,0.426,0.967,0.957,0.991l-2.263,1.293c-0.18-0.174-0.423-0.284-0.694-0.284c-0.552,0-1,0.448-1,1
		c0,0.08,0.028,0.151,0.046,0.226l-4.59,2.622l-5.517-3.152c-0.13-0.401-0.494-0.696-0.939-0.696c-0.073,0-0.138,0.027-0.206,0.042
		l-2.201-1.257c0.241-0.183,0.407-0.458,0.407-0.784c0-0.552-0.448-1-1-1c-0.512,0-0.919,0.391-0.977,0.887L6.991,29.12
		c0.007-0.049,0.029-0.093,0.029-0.144c0-0.552-0.448-1-1-1c-0.239,0-0.449,0.095-0.621,0.235l-1.359-0.776L11.129,23.409z
		 M50.912,38.434l-23.436,13.39L4.041,38.434l7.633-4.335l15.803,9.028l15.802-9.028L50.912,38.434z"/>
</g>
<g>
</g>
<g>
</g>
<g>
</g>
<g>
</g>
<g>
</g>
<g>
</g>
<g>
</g>
<g>
</g>
<g>
</g>
<g>
</g>
<g>
</g>
<g>
</g>
<g>
</g>
<g>
</g>
<g>
</g>
</svg>
