<?xml version="1.0" encoding="iso-8859-1"?>
<!-- Generator: Adobe Illustrator 19.0.0, SVG Export Plug-In . SVG Version: 6.00 Build 0)  -->
<svg version="1.1" id="Capa_1" xmlns="http://www.w3.org/2000/svg" xmlns:xlink="http://www.w3.org/1999/xlink" x="0px" y="0px"
	 viewBox="0 0 54.953 54.953" style="enable-background:new 0 0 54.953 54.953;" xml:space="preserve">
<path d="M45.297,21.946l9.656-5.517L27.477,0.825L0,16.429l9.656,5.517L0,27.429l9.656,5.517L0,38.429l27.477,15.698l27.476-15.698
	l-9.656-5.483l9.656-5.517L45.297,21.946z M27.477,3.125l23.435,13.309l-23.435,13.39L4.041,16.434L27.477,3.125z M11.675,23.099
	l15.802,9.028l15.802-9.028l7.633,4.335l-23.435,13.39L4.041,27.434L11.675,23.099z M50.912,38.434l-23.435,13.39L4.041,38.434
	l7.634-4.335l15.802,9.028l15.802-9.028L50.912,38.434z"/>
<g>
</g>
<g>
</g>
<g>
</g>
<g>
</g>
<g>
</g>
<g>
</g>
<g>
</g>
<g>
</g>
<g>
</g>
<g>
</g>
<g>
</g>
<g>
</g>
<g>
</g>
<g>
</g>
<g>
</g>
</svg>
