<?xml version="1.0" encoding="iso-8859-1"?>
<!-- Generator: Adobe Illustrator 19.0.0, SVG Export Plug-In . SVG Version: 6.00 Build 0)  -->
<svg version="1.1" id="Capa_1" xmlns="http://www.w3.org/2000/svg" xmlns:xlink="http://www.w3.org/1999/xlink" x="0px" y="0px"
	 viewBox="0 0 58 58" style="enable-background:new 0 0 58 58;" xml:space="preserve">
<g>
	<path d="M9.5,43c-2.757,0-5,2.243-5,5s2.243,5,5,5s5-2.243,5-5S12.257,43,9.5,43z M9.5,51c-1.654,0-3-1.346-3-3s1.346-3,3-3
		s3,1.346,3,3S11.154,51,9.5,51z"/>
	<path d="M56.5,35c0-2.495-1.375-3.662-2.715-4.233C54.835,29.85,55.5,28.501,55.5,27c0-2.757-2.243-5-5-5H36.134l0.729-3.41
		c0.973-4.549,0.334-9.716,0.116-11.191C36.461,3.906,33.372,0,30.013,0h-0.239C28.178,0,25.5,0.909,25.5,7
		c0,8.023-2.002,11.694-3.681,13.36c-1.647,1.634-3.231,1.616-3.319,1.64h-1v-2h-16v38h16v-2h28c2.757,0,5-2.243,5-5
		c0-1.164-0.4-2.236-1.069-3.087C51.745,47.476,53.5,45.439,53.5,43c0-1.164-0.4-2.236-1.069-3.087
		C54.745,39.476,56.5,37.439,56.5,35z M3.5,56V22h12v34H3.5z M51.5,38h-3h-8c-0.552,0-1,0.447-1,1s0.448,1,1,1h8
		c1.654,0,3,1.346,3,3s-1.346,3-3,3h-2h-1h-7c-0.552,0-1,0.447-1,1s0.448,1,1,1h7c1.654,0,3,1.346,3,3s-1.346,3-3,3h-28V24
		l0.969-0.001c0.097,0.019,2.42,0.05,4.682-2.144C26.037,19.059,27.5,14.061,27.5,7c0-1.867,0.295-5,2.274-5h0.239
		C32.244,2,34.621,5.13,35,7.691c0.207,1.392,0.81,6.26-0.093,10.48L33.662,24H50.5c1.654,0,3,1.346,3,3s-1.346,3-3,3h-2h-1h-7
		c-0.552,0-1,0.447-1,1s0.448,1,1,1h7c0.883,0,2.825,0.04,3.854,0.193C53.965,32.58,54.5,33.595,54.5,35
		C54.5,36.654,53.154,38,51.5,38z"/>
</g>
<g>
</g>
<g>
</g>
<g>
</g>
<g>
</g>
<g>
</g>
<g>
</g>
<g>
</g>
<g>
</g>
<g>
</g>
<g>
</g>
<g>
</g>
<g>
</g>
<g>
</g>
<g>
</g>
<g>
</g>
</svg>
