<?xml version="1.0" encoding="iso-8859-1"?>
<!-- Generator: Adobe Illustrator 19.0.0, SVG Export Plug-In . SVG Version: 6.00 Build 0)  -->
<svg version="1.1" id="Capa_1" xmlns="http://www.w3.org/2000/svg" xmlns:xlink="http://www.w3.org/1999/xlink" x="0px" y="0px"
	 viewBox="0 0 60 60" style="enable-background:new 0 0 60 60;" xml:space="preserve">
<g>
	<path d="M36,14c0-3.309-2.691-6-6-6s-6,2.691-6,6v1c0,0.553,0.448,1,1,1s1-0.447,1-1v-1c0-2.206,1.794-4,4-4s4,1.794,4,4v7H19v19
		h22V21h-5V14z M39,38H21V23h18V38z"/>
	<path d="M30,25c-2.206,0-4,1.794-4,4c0,1.859,1.28,3.411,3,3.858V35c0,0.553,0.448,1,1,1s1-0.447,1-1v-2.142
		c1.72-0.447,3-1.999,3-3.858C34,26.794,32.206,25,30,25z M30,31c-1.103,0-2-0.897-2-2s0.897-2,2-2s2,0.897,2,2S31.103,31,30,31z"/>
	<path d="M30,0C15.112,0,3,12.112,3,27c0,14.109,10.881,25.719,24.691,26.895l-4.398,4.398c-0.391,0.391-0.391,1.023,0,1.414
		C23.488,59.902,23.744,60,24,60s0.512-0.098,0.707-0.293l5.999-5.999c0.093-0.092,0.166-0.203,0.217-0.326
		c0.101-0.244,0.101-0.52,0-0.764c-0.051-0.123-0.124-0.233-0.217-0.326l-5.999-5.999c-0.391-0.391-1.023-0.391-1.414,0
		s-0.391,1.023,0,1.414l4.164,4.164C14.862,50.593,5,39.927,5,27C5,13.215,16.215,2,30,2s25,11.215,25,25
		c0,6.633-2.57,12.881-7.238,17.593c-0.389,0.393-0.386,1.026,0.007,1.415c0.392,0.387,1.025,0.385,1.414-0.007
		C54.224,40.911,57,34.163,57,27C57,12.112,44.888,0,30,0z"/>
</g>
<g>
</g>
<g>
</g>
<g>
</g>
<g>
</g>
<g>
</g>
<g>
</g>
<g>
</g>
<g>
</g>
<g>
</g>
<g>
</g>
<g>
</g>
<g>
</g>
<g>
</g>
<g>
</g>
<g>
</g>
</svg>
