<?xml version="1.0" encoding="iso-8859-1"?>
<!-- Generator: Adobe Illustrator 19.0.0, SVG Export Plug-In . SVG Version: 6.00 Build 0)  -->
<svg version="1.1" id="Capa_1" xmlns="http://www.w3.org/2000/svg" xmlns:xlink="http://www.w3.org/1999/xlink" x="0px" y="0px"
	 viewBox="0 0 57 57" style="enable-background:new 0 0 57 57;" xml:space="preserve">
<g>
	<path d="M40.5,23V11.601C40.5,5.204,34.893,0,28,0S15.5,5.204,15.5,11.601V23h-9v20v14h44V43V23H40.5z M17.5,11.601
		C17.5,6.307,22.21,2,28,2s10.5,4.307,10.5,9.601V23h-21V11.601z M8.5,45h7.586L8.5,52.586V45z M9.207,54.707L18.914,45h9.172
		l-10,10H8.5C8.756,55,9.012,54.902,9.207,54.707z M40.086,45l-10,10h-9.172l10-10H40.086z M48.5,45v3.586L42.086,55h-9.172l10-10
		H48.5z M44.914,55l3.586-3.586V55H44.914z M8.5,43V25h7h25h8v18H8.5z"/>
	<circle cx="46.5" cy="31" r="1"/>
	<circle cx="46.5" cy="37" r="1"/>
	<circle cx="28.5" cy="31" r="1"/>
	<circle cx="31.5" cy="28" r="1"/>
	<circle cx="31.5" cy="34" r="1"/>
	<circle cx="34.5" cy="31" r="1"/>
	<circle cx="40.5" cy="31" r="1"/>
	<circle cx="37.5" cy="28" r="1"/>
	<circle cx="43.5" cy="28" r="1"/>
	<circle cx="37.5" cy="34" r="1"/>
	<circle cx="43.5" cy="34" r="1"/>
	<circle cx="28.5" cy="37" r="1"/>
	<circle cx="31.5" cy="40" r="1"/>
	<circle cx="34.5" cy="37" r="1"/>
	<circle cx="40.5" cy="37" r="1"/>
	<circle cx="37.5" cy="40" r="1"/>
	<circle cx="43.5" cy="40" r="1"/>
	<circle cx="22.5" cy="31" r="1"/>
	<circle cx="25.5" cy="28" r="1"/>
	<circle cx="25.5" cy="34" r="1"/>
	<circle cx="22.5" cy="37" r="1"/>
	<circle cx="25.5" cy="40" r="1"/>
	<circle cx="10.5" cy="31" r="1"/>
	<circle cx="16.5" cy="31" r="1"/>
	<circle cx="13.5" cy="28" r="1"/>
	<circle cx="19.5" cy="28" r="1"/>
	<circle cx="13.5" cy="34" r="1"/>
	<circle cx="19.5" cy="34" r="1"/>
	<circle cx="10.5" cy="37" r="1"/>
	<circle cx="16.5" cy="37" r="1"/>
	<circle cx="13.5" cy="40" r="1"/>
	<circle cx="19.5" cy="40" r="1"/>
</g>
<g>
</g>
<g>
</g>
<g>
</g>
<g>
</g>
<g>
</g>
<g>
</g>
<g>
</g>
<g>
</g>
<g>
</g>
<g>
</g>
<g>
</g>
<g>
</g>
<g>
</g>
<g>
</g>
<g>
</g>
</svg>
