<?xml version="1.0" encoding="iso-8859-1"?>
<!-- Generator: Adobe Illustrator 19.0.0, SVG Export Plug-In . SVG Version: 6.00 Build 0)  -->
<svg version="1.1" id="Capa_1" xmlns="http://www.w3.org/2000/svg" xmlns:xlink="http://www.w3.org/1999/xlink" x="0px" y="0px"
	 viewBox="0 0 56.598 56.598" style="enable-background:new 0 0 56.598 56.598;" xml:space="preserve">
<g>
	<path d="M31.02,21.428c0,0-0.001,0-0.001,0.001c0,0-0.001,0.001-0.001,0.001L0.092,52.355l4.243,4.242l40.341-40.342l-4.242-4.242
		L31.02,21.428z M4.334,53.77L2.92,52.355L31.725,23.55l1.414,1.414L4.334,53.77z M34.554,23.55l-1.414-1.414l7.294-7.294
		l1.414,1.414L34.554,23.55z"/>
	<path d="M40.506,9c0.552,0,1-0.447,1-1V1c0-0.553-0.448-1-1-1s-1,0.447-1,1v7C39.506,8.553,39.954,9,40.506,9z"/>
	<path d="M40.506,23c-0.552,0-1,0.447-1,1v7c0,0.553,0.448,1,1,1s1-0.447,1-1v-7C41.506,23.447,41.058,23,40.506,23z"/>
	<path d="M55.506,15h-7c-0.552,0-1,0.447-1,1s0.448,1,1,1h7c0.552,0,1-0.447,1-1S56.058,15,55.506,15z"/>
	<path d="M25.506,17h7c0.552,0,1-0.447,1-1s-0.448-1-1-1h-7c-0.552,0-1,0.447-1,1S24.954,17,25.506,17z"/>
	<path d="M46.506,11c0.256,0,0.512-0.098,0.707-0.293l4.95-4.95c0.391-0.391,0.391-1.023,0-1.414s-1.023-0.391-1.414,0l-4.95,4.95
		c-0.391,0.391-0.391,1.023,0,1.414C45.994,10.902,46.25,11,46.506,11z"/>
	<path d="M47.213,21.293c-0.391-0.391-1.023-0.391-1.414,0s-0.391,1.023,0,1.414l4.95,4.95c0.195,0.195,0.451,0.293,0.707,0.293
		s0.512-0.098,0.707-0.293c0.391-0.391,0.391-1.023,0-1.414L47.213,21.293z"/>
	<path d="M33.799,10.707C33.994,10.902,34.25,11,34.506,11s0.512-0.098,0.707-0.293c0.391-0.391,0.391-1.023,0-1.414l-4.95-4.95
		c-0.391-0.391-1.023-0.391-1.414,0s-0.391,1.023,0,1.414L33.799,10.707z"/>
</g>
<g>
</g>
<g>
</g>
<g>
</g>
<g>
</g>
<g>
</g>
<g>
</g>
<g>
</g>
<g>
</g>
<g>
</g>
<g>
</g>
<g>
</g>
<g>
</g>
<g>
</g>
<g>
</g>
<g>
</g>
</svg>
