<?xml version="1.0" encoding="iso-8859-1"?>
<!-- Generator: Adobe Illustrator 19.0.0, SVG Export Plug-In . SVG Version: 6.00 Build 0)  -->
<svg version="1.1" id="Capa_1" xmlns="http://www.w3.org/2000/svg" xmlns:xlink="http://www.w3.org/1999/xlink" x="0px" y="0px"
	 viewBox="0 0 60 60" style="enable-background:new 0 0 60 60;" xml:space="preserve">
<g>
	<path d="M27,3C12.112,3,0,15.112,0,30s12.112,27,27,27h21V41H27c-6.065,0-11-4.935-11-11s4.935-11,11-11h21V3H27z M46,55h-7V43h7
		V55z M14,30c0,7.168,5.832,13,13,13h10v12H27C13.215,55,2,43.785,2,30S13.215,5,27,5h10v12H27C19.832,17,14,22.832,14,30z M46,17
		h-7V5h7V17z"/>
	<path d="M54,8h1c0.552,0,1-0.447,1-1s-0.448-1-1-1h-1c-0.552,0-1,0.447-1,1S53.448,8,54,8z"/>
	<path d="M50,8h1c0.552,0,1-0.447,1-1s-0.448-1-1-1h-1c-0.552,0-1,0.447-1,1S49.448,8,50,8z"/>
	<path d="M58,8h1c0.552,0,1-0.447,1-1s-0.448-1-1-1h-1c-0.552,0-1,0.447-1,1S57.448,8,58,8z"/>
	<path d="M55,14h-1c-0.552,0-1,0.447-1,1s0.448,1,1,1h1c0.552,0,1-0.447,1-1S55.552,14,55,14z"/>
	<path d="M50,16h1c0.552,0,1-0.447,1-1s-0.448-1-1-1h-1c-0.552,0-1,0.447-1,1S49.448,16,50,16z"/>
	<path d="M59,14h-1c-0.552,0-1,0.447-1,1s0.448,1,1,1h1c0.552,0,1-0.447,1-1S59.552,14,59,14z"/>
	<path d="M51,11c0,0.553,0.448,1,1,1h1c0.552,0,1-0.447,1-1s-0.448-1-1-1h-1C51.448,10,51,10.447,51,11z"/>
	<path d="M55,11c0,0.553,0.448,1,1,1h1c0.552,0,1-0.447,1-1s-0.448-1-1-1h-1C55.448,10,55,10.447,55,11z"/>
	<path d="M55,45h-1c-0.552,0-1,0.447-1,1s0.448,1,1,1h1c0.552,0,1-0.447,1-1S55.552,45,55,45z"/>
	<path d="M50,47h1c0.552,0,1-0.447,1-1s-0.448-1-1-1h-1c-0.552,0-1,0.447-1,1S49.448,47,50,47z"/>
	<path d="M59,45h-1c-0.552,0-1,0.447-1,1s0.448,1,1,1h1c0.552,0,1-0.447,1-1S59.552,45,59,45z"/>
	<path d="M55,53h-1c-0.552,0-1,0.447-1,1s0.448,1,1,1h1c0.552,0,1-0.447,1-1S55.552,53,55,53z"/>
	<path d="M51,53h-1c-0.552,0-1,0.447-1,1s0.448,1,1,1h1c0.552,0,1-0.447,1-1S51.552,53,51,53z"/>
	<path d="M59,53h-1c-0.552,0-1,0.447-1,1s0.448,1,1,1h1c0.552,0,1-0.447,1-1S59.552,53,59,53z"/>
	<path d="M54,50c0-0.553-0.448-1-1-1h-1c-0.552,0-1,0.447-1,1s0.448,1,1,1h1C53.552,51,54,50.553,54,50z"/>
	<path d="M58,50c0-0.553-0.448-1-1-1h-1c-0.552,0-1,0.447-1,1s0.448,1,1,1h1C57.552,51,58,50.553,58,50z"/>
</g>
<g>
</g>
<g>
</g>
<g>
</g>
<g>
</g>
<g>
</g>
<g>
</g>
<g>
</g>
<g>
</g>
<g>
</g>
<g>
</g>
<g>
</g>
<g>
</g>
<g>
</g>
<g>
</g>
<g>
</g>
</svg>
