<?xml version="1.0" encoding="iso-8859-1"?>
<!-- Generator: Adobe Illustrator 19.0.0, SVG Export Plug-In . SVG Version: 6.00 Build 0)  -->
<svg version="1.1" id="Capa_1" xmlns="http://www.w3.org/2000/svg" xmlns:xlink="http://www.w3.org/1999/xlink" x="0px" y="0px"
	 viewBox="0 0 60 60" style="enable-background:new 0 0 60 60;" xml:space="preserve">
<path d="M27,19h14h6h13V3H47h-6H27C12.112,3,0,15.112,0,30s12.112,27,27,27h14h6h13V41H47h-6H27c-6.065,0-11-4.935-11-11
	S20.935,19,27,19z M58,5v12H47V5H58z M45,5v12h-2V5H45z M58,43v12H47V43H58z M45,43v12h-2V43H45z M14,30c0,7.168,5.832,13,13,13h14
	v12H27C13.215,55,2,43.785,2,30S13.215,5,27,5h14v12H27C19.832,17,14,22.832,14,30z"/>
<g>
</g>
<g>
</g>
<g>
</g>
<g>
</g>
<g>
</g>
<g>
</g>
<g>
</g>
<g>
</g>
<g>
</g>
<g>
</g>
<g>
</g>
<g>
</g>
<g>
</g>
<g>
</g>
<g>
</g>
</svg>
