<?xml version="1.0" encoding="iso-8859-1"?>
<!-- Generator: Adobe Illustrator 19.0.0, SVG Export Plug-In . SVG Version: 6.00 Build 0)  -->
<svg version="1.1" id="Capa_1" xmlns="http://www.w3.org/2000/svg" xmlns:xlink="http://www.w3.org/1999/xlink" x="0px" y="0px"
	 viewBox="0 0 60 60" style="enable-background:new 0 0 60 60;" xml:space="preserve">
<g>
	<path d="M27,19h33V3H27C12.112,3,0,15.112,0,30s12.112,27,27,27h33V41H27c-6.065,0-11-4.935-11-11S20.935,19,27,19z M58,17H46V5h12
		V17z M58,55H46V43h12V55z M14,30c0,7.168,5.832,13,13,13h17v12H27C13.215,55,2,43.785,2,30S13.215,5,27,5h17v12H27
		C19.832,17,14,22.832,14,30z"/>
	<path d="M49,12h2v2c0,0.553,0.447,1,1,1s1-0.447,1-1v-2h2c0.553,0,1-0.447,1-1s-0.447-1-1-1h-2V8c0-0.553-0.447-1-1-1s-1,0.447-1,1
		v2h-2c-0.553,0-1,0.447-1,1S48.447,12,49,12z"/>
	<path d="M49,50h6c0.553,0,1-0.447,1-1s-0.447-1-1-1h-6c-0.553,0-1,0.447-1,1S48.447,50,49,50z"/>
</g>
<g>
</g>
<g>
</g>
<g>
</g>
<g>
</g>
<g>
</g>
<g>
</g>
<g>
</g>
<g>
</g>
<g>
</g>
<g>
</g>
<g>
</g>
<g>
</g>
<g>
</g>
<g>
</g>
<g>
</g>
</svg>
