<?xml version="1.0" encoding="iso-8859-1"?>
<!-- Generator: Adobe Illustrator 19.0.0, SVG Export Plug-In . SVG Version: 6.00 Build 0)  -->
<svg version="1.1" id="Capa_1" xmlns="http://www.w3.org/2000/svg" xmlns:xlink="http://www.w3.org/1999/xlink" x="0px" y="0px"
	 viewBox="0 0 60 60" style="enable-background:new 0 0 60 60;" xml:space="preserve">
<path d="M59.423,11.591l-15-7c-0.015-0.007-0.032-0.009-0.047-0.015c-0.042-0.017-0.085-0.03-0.128-0.041
	c-0.036-0.009-0.071-0.018-0.107-0.023c-0.045-0.007-0.09-0.008-0.136-0.008c-0.037,0-0.074,0-0.111,0.004
	c-0.043,0.004-0.084,0.014-0.126,0.024c-0.04,0.01-0.08,0.02-0.119,0.034c-0.014,0.005-0.029,0.006-0.043,0.012L30,10.409
	L16.394,4.578c-0.009-0.004-0.018-0.004-0.027-0.008c-0.04-0.016-0.081-0.025-0.122-0.035c-0.038-0.01-0.076-0.021-0.115-0.027
	c-0.042-0.005-0.083-0.004-0.125-0.004c-0.039,0-0.077-0.003-0.115,0.002c-0.043,0.005-0.085,0.017-0.127,0.027
	c-0.037,0.009-0.074,0.016-0.11,0.029c-0.008,0.003-0.017,0.003-0.025,0.007l-15,6C0.249,10.721,0,11.088,0,11.497v43
	c0,0.332,0.165,0.642,0.439,0.828C0.607,55.438,0.803,55.497,1,55.497c0.125,0,0.251-0.023,0.372-0.071l14.616-5.846l13.619,5.836
	c0.014,0.006,0.029,0.003,0.043,0.009c0.114,0.043,0.231,0.072,0.351,0.072s0.238-0.029,0.351-0.072
	c0.014-0.005,0.029-0.003,0.043-0.009l13.619-5.836l14.616,5.846c0.12,0.048,0.246,0.071,0.372,0.071
	c0.197,0,0.393-0.059,0.561-0.172C59.835,55.139,60,54.829,60,54.497v-42C60,12.108,59.775,11.755,59.423,11.591z M2,12.174l13-5.2
	V47.82l-13,5.2V12.174z M17,7.014l12,5.143V52.98l-12-5.143V7.014z M31,12.156l12-5.143v40.824L31,52.98V12.156z M58,53.02l-13-5.2
	V7.067l13,6.066V53.02z"/>
<g>
</g>
<g>
</g>
<g>
</g>
<g>
</g>
<g>
</g>
<g>
</g>
<g>
</g>
<g>
</g>
<g>
</g>
<g>
</g>
<g>
</g>
<g>
</g>
<g>
</g>
<g>
</g>
<g>
</g>
</svg>
