<?xml version="1.0" encoding="iso-8859-1"?>
<!-- Generator: Adobe Illustrator 19.0.0, SVG Export Plug-In . SVG Version: 6.00 Build 0)  -->
<svg version="1.1" id="Capa_1" xmlns="http://www.w3.org/2000/svg" xmlns:xlink="http://www.w3.org/1999/xlink" x="0px" y="0px"
	 viewBox="0 0 55 55" style="enable-background:new 0 0 55 55;" xml:space="preserve">
<path d="M54.584,2.189c-0.261-0.188-0.597-0.241-0.901-0.137l-17.73,5.91L19.229,4.027c-0.042-0.01-0.083,0.004-0.125,0
	c-0.107-0.011-0.214-0.025-0.321-0.002l-18,4C0.326,8.127,0,8.532,0,9.001v43c0,0.304,0.138,0.59,0.375,0.78
	c0.179,0.144,0.4,0.22,0.625,0.22c0.072,0,0.145-0.008,0.217-0.023l17.807-3.957l16.802,2.965c0.058,0.011,0.116,0.016,0.174,0.016
	c0.121,0,0.24-0.024,0.352-0.066c0.003-0.001,0.007,0,0.01-0.002l18-7C54.747,44.783,55,44.413,55,44.001v-41
	C55,2.679,54.846,2.378,54.584,2.189z M2,9.802l16-3.555v40.951L2,50.754V9.802z M20,6.263l15,3.529v40.016l-15-2.646V6.263z
	 M53,43.317l-16,6.222V9.721l16-5.333V43.317z"/>
<g>
</g>
<g>
</g>
<g>
</g>
<g>
</g>
<g>
</g>
<g>
</g>
<g>
</g>
<g>
</g>
<g>
</g>
<g>
</g>
<g>
</g>
<g>
</g>
<g>
</g>
<g>
</g>
<g>
</g>
</svg>
