<?xml version="1.0" encoding="iso-8859-1"?>
<!-- Generator: Adobe Illustrator 19.0.0, SVG Export Plug-In . SVG Version: 6.00 Build 0)  -->
<svg version="1.1" id="Capa_1" xmlns="http://www.w3.org/2000/svg" xmlns:xlink="http://www.w3.org/1999/xlink" x="0px" y="0px"
	 viewBox="0 0 57 57" style="enable-background:new 0 0 57 57;" xml:space="preserve">
<path d="M52,3c-2.757,0-5,2.243-5,5v2.268L7.964,22.645C7.781,20.607,6.084,19,4,19c-2.206,0-4,1.794-4,4v11c0,2.206,1.794,4,4,4
	c2.084,0,3.781-1.607,3.964-3.645l3.368,1.068c-0.506,0.455-0.913,1.03-1.138,1.722c-0.328,1.014-0.241,2.097,0.246,3.051
	c0.486,0.954,1.313,1.66,2.326,1.987l14.27,4.623c0.403,0.131,0.818,0.195,1.23,0.195c0.625,0,1.246-0.148,1.819-0.441
	c0.954-0.486,1.66-1.313,1.988-2.326c0.235-0.727,0.249-1.489,0.063-2.214L47,46.732V49c0,2.757,2.243,5,5,5s5-2.243,5-5V8
	C57,5.243,54.757,3,52,3z M30.172,43.616c-0.164,0.506-0.518,0.919-0.995,1.162c-0.477,0.244-1.019,0.287-1.523,0.125L13.383,40.28
	c-0.505-0.164-0.918-0.517-1.161-0.995c-0.244-0.478-0.289-1.019-0.125-1.523c0.274-0.846,1.061-1.384,1.905-1.384
	c0.203,0,0.41,0.031,0.613,0.097l14.271,4.623C29.935,41.438,30.512,42.567,30.172,43.616z M6,34c0,1.103-0.897,2-2,2s-2-0.897-2-2
	V23c0-1.103,0.897-2,2-2s2,0.897,2,2v0.268v10.465V34z M8,32.268v-7.535l39-12.366v32.268L8,32.268z M55,49c0,1.654-1.346,3-3,3
	s-3-1.346-3-3v-1.634V9.634V8c0-1.654,1.346-3,3-3s3,1.346,3,3V49z"/>
<g>
</g>
<g>
</g>
<g>
</g>
<g>
</g>
<g>
</g>
<g>
</g>
<g>
</g>
<g>
</g>
<g>
</g>
<g>
</g>
<g>
</g>
<g>
</g>
<g>
</g>
<g>
</g>
<g>
</g>
</svg>
