<?xml version="1.0" encoding="iso-8859-1"?>
<!-- Generator: Adobe Illustrator 19.0.0, SVG Export Plug-In . SVG Version: 6.00 Build 0)  -->
<svg version="1.1" id="Capa_1" xmlns="http://www.w3.org/2000/svg" xmlns:xlink="http://www.w3.org/1999/xlink" x="0px" y="0px"
	 viewBox="0 0 60 60" style="enable-background:new 0 0 60 60;" xml:space="preserve">
<g>
	<path d="M43.844,13.013l-19,3C24.358,16.089,24,16.508,24,17v3.286V23v13.68C22.831,35.642,21.246,35,19.5,35
		c-3.584,0-6.5,2.691-6.5,6s2.916,6,6.5,6c3.533,0,6.411-2.617,6.492-5.861C25.993,41.126,26,41.115,26,41.102V23.854l17-2.684
		v9.511C41.831,29.642,40.246,29,38.5,29c-3.584,0-6.5,2.691-6.5,6s2.916,6,6.5,6s6.5-2.691,6.5-6V20v-5v-1
		c0-0.292-0.128-0.57-0.351-0.76C44.427,13.05,44.134,12.967,43.844,13.013z M19.5,45c-2.481,0-4.5-1.794-4.5-4s2.019-4,4.5-4
		s4.5,1.794,4.5,4S21.981,45,19.5,45z M26,21.83v-1.544v-2.432l17-2.685v3.976L26,21.83z M38.5,39c-2.481,0-4.5-1.794-4.5-4
		s2.019-4,4.5-4s4.5,1.794,4.5,4S40.981,39,38.5,39z"/>
	<path d="M60,14h-4v-4h-4V6H8v4H4v4H0v32h4v4h4v4h44v-4h4v-4h4V14z M2,44V16h2v28H2z M6,48v-2V14v-2h2v36H6z M50,52H10v-2V10V8h40v2
		v40V52z M54,48h-2V12h2v2v32V48z M58,44h-2V16h2V44z"/>
</g>
<g>
</g>
<g>
</g>
<g>
</g>
<g>
</g>
<g>
</g>
<g>
</g>
<g>
</g>
<g>
</g>
<g>
</g>
<g>
</g>
<g>
</g>
<g>
</g>
<g>
</g>
<g>
</g>
<g>
</g>
</svg>
