<?xml version="1.0" encoding="iso-8859-1"?>
<!-- Generator: Adobe Illustrator 19.0.0, SVG Export Plug-In . SVG Version: 6.00 Build 0)  -->
<svg version="1.1" id="Capa_1" xmlns="http://www.w3.org/2000/svg" xmlns:xlink="http://www.w3.org/1999/xlink" x="0px" y="0px"
	 viewBox="0 0 58 58" style="enable-background:new 0 0 58 58;" xml:space="preserve">
<g>
	<path d="M44.5,28c-0.552,0-1,0.447-1,1v6c0,7.72-6.28,14-14,14s-14-6.28-14-14v-6c0-0.553-0.448-1-1-1s-1,0.447-1,1v6
		c0,8.485,6.644,15.429,15,15.949V56h-5c-0.552,0-1,0.447-1,1s0.448,1,1,1h12c0.552,0,1-0.447,1-1s-0.448-1-1-1h-5v-5.051
		c8.356-0.52,15-7.465,15-15.949v-6C45.5,28.447,45.052,28,44.5,28z"/>
	<path d="M29.5,46c6.065,0,11-4.935,11-11V11c0-6.065-4.935-11-11-11s-11,4.935-11,11v24C18.5,41.065,23.435,46,29.5,46z M20.5,11
		c0-4.963,4.038-9,9-9s9,4.037,9,9v24c0,4.963-4.038,9-9,9s-9-4.037-9-9V11z"/>
	<path d="M52.207,4.293c-0.391-0.391-1.023-0.391-1.414,0l-9,9c-0.391,0.391-0.391,1.023,0,1.414C41.988,14.902,42.244,15,42.5,15
		s0.512-0.098,0.707-0.293l9-9C52.598,5.316,52.598,4.684,52.207,4.293z"/>
	<path d="M37.207,20.707c0.391-0.391,0.391-1.023,0-1.414s-1.023-0.391-1.414,0l-14,14c-0.391,0.391-0.391,1.023,0,1.414
		C21.988,34.902,22.244,35,22.5,35s0.512-0.098,0.707-0.293L37.207,20.707z"/>
	<path d="M12.793,42.293l-7,7c-0.391,0.391-0.391,1.023,0,1.414C5.988,50.902,6.244,51,6.5,51s0.512-0.098,0.707-0.293l7-7
		c0.391-0.391,0.391-1.023,0-1.414S13.184,41.902,12.793,42.293z"/>
</g>
<g>
</g>
<g>
</g>
<g>
</g>
<g>
</g>
<g>
</g>
<g>
</g>
<g>
</g>
<g>
</g>
<g>
</g>
<g>
</g>
<g>
</g>
<g>
</g>
<g>
</g>
<g>
</g>
<g>
</g>
</svg>
