<?xml version="1.0" encoding="iso-8859-1"?>
<!-- Generator: Adobe Illustrator 19.0.0, SVG Export Plug-In . SVG Version: 6.00 Build 0)  -->
<svg version="1.1" id="Capa_1" xmlns="http://www.w3.org/2000/svg" xmlns:xlink="http://www.w3.org/1999/xlink" x="0px" y="0px"
	 viewBox="0 0 60 60" style="enable-background:new 0 0 60 60;" xml:space="preserve">
<g>
	<path d="M41.5,2h-6V1c0-0.553-0.447-1-1-1h-9c-0.553,0-1,0.447-1,1v1h-6h-13v58h49V2H41.5z M52.5,38.586l-1,1V5h-9V4h10V38.586z
		 M36.086,55H10.5V7h7v2v1h1h23h1V9V7h7v34.586L36.086,55z M49.5,44.414V55H38.914L49.5,44.414z M33.5,2v1v2h-7V3V2H33.5z M24.5,4v2
		v1h1h9h1V6V4h5v1v3h-21V5V4H24.5z M7.5,4h10v1h-9v52h25.586l-1,1H7.5V4z M35.914,58l1-1H51.5V42.414l1-1V58H35.914z"/>
	<path d="M16.5,18h9c0.553,0,1-0.447,1-1s-0.447-1-1-1h-9c-0.553,0-1,0.447-1,1S15.947,18,16.5,18z"/>
	<path d="M16.5,26h5c0.553,0,1-0.447,1-1s-0.447-1-1-1h-5c-0.553,0-1,0.447-1,1S15.947,26,16.5,26z"/>
	<path d="M38.5,24h-7c-0.553,0-1,0.447-1,1s0.447,1,1,1h7c0.553,0,1-0.447,1-1S39.053,24,38.5,24z"/>
	<path d="M25.79,24.29C25.6,24.479,25.5,24.729,25.5,25c0,0.27,0.109,0.52,0.29,0.71C25.979,25.89,26.229,26,26.5,26
		c0.27,0,0.52-0.101,0.71-0.29c0.18-0.19,0.29-0.45,0.29-0.71c0-0.261-0.11-0.521-0.29-0.71C26.83,23.92,26.17,23.92,25.79,24.29z"
		/>
	<path d="M44.21,24.29c-0.37-0.37-1.04-0.37-1.42,0C42.6,24.479,42.5,24.729,42.5,25c0,0.27,0.109,0.52,0.29,0.71
		C42.979,25.89,43.229,26,43.5,26c0.27,0,0.52-0.11,0.71-0.29c0.18-0.19,0.29-0.45,0.29-0.71C44.5,24.739,44.39,24.479,44.21,24.29z
		"/>
	<path d="M28.5,32h-7c-0.553,0-1,0.447-1,1s0.447,1,1,1h7c0.553,0,1-0.447,1-1S29.053,32,28.5,32z"/>
	<path d="M16.5,34c0.27,0,0.52-0.11,0.71-0.29c0.18-0.19,0.29-0.45,0.29-0.71c0-0.261-0.11-0.521-0.29-0.71
		c-0.37-0.37-1.05-0.37-1.42,0c-0.181,0.189-0.29,0.439-0.29,0.71c0,0.27,0.109,0.52,0.29,0.71C15.979,33.89,16.229,34,16.5,34z"/>
	<path d="M19.645,41.166c-2.19,1.14-2.927,3.321-3.196,5.582c-0.414-0.347-0.828-0.693-1.242-1.04
		c-0.98-0.821-2.402,0.586-1.414,1.415c0.935,0.783,1.871,1.567,2.806,2.351c0.658,0.551,1.677,0.203,1.707-0.707
		c0.073-2.166,0.175-4.742,2.348-5.873C21.796,42.299,20.786,40.572,19.645,41.166z"/>
	<path d="M26.295,45.155c-1.385,0.321-2.961,2.083-3.936,0.106c-0.569-1.154-2.295-0.142-1.727,1.009
		c0.517,1.049,1.5,1.784,2.669,1.932c0.594,0.075,1.131-0.009,1.688-0.226c0.409-0.159,1.937-1.308,2.267-0.717
		c0.628,1.124,2.356,0.116,1.727-1.009C28.446,45.288,27.359,44.908,26.295,45.155z"/>
</g>
<g>
</g>
<g>
</g>
<g>
</g>
<g>
</g>
<g>
</g>
<g>
</g>
<g>
</g>
<g>
</g>
<g>
</g>
<g>
</g>
<g>
</g>
<g>
</g>
<g>
</g>
<g>
</g>
<g>
</g>
</svg>
