<?xml version="1.0" encoding="iso-8859-1"?>
<!-- Generator: Adobe Illustrator 19.0.0, SVG Export Plug-In . SVG Version: 6.00 Build 0)  -->
<svg version="1.1" id="Capa_1" xmlns="http://www.w3.org/2000/svg" xmlns:xlink="http://www.w3.org/1999/xlink" x="0px" y="0px"
	 viewBox="0 0 60 60" style="enable-background:new 0 0 60 60;" xml:space="preserve">
<g>
	<path d="M40.004,0.004H38h-7H1V17.01v20V54h4v5.868l4-2.666l4,2.666V54h18h7h2.004C42.207,54,44,52.207,44,50.004V37.01v-20V4
		C44,1.797,42.207,0.004,40.004,0.004z M3,2.004h28V17.01H3V2.004z M31,35.01H3v-16h28V35.01z M11,56.132l-2-1.334l-2,1.334V54h4
		V56.132z M13,52H5H3V37.01h28V52H13z M33,52V37.01v-20V2.004h3V17.01v20V52H33z M38,19.01h4v16h-4V19.01z M42,50.004
		C42,51.104,41.104,52,40.004,52H38V37.01h4V50.004z M38,17.01V2.004h2.004C41.104,2.004,42,2.899,42,4v13.01H38z"/>
	<path d="M56.015,0h-4.029C50.339,0,49,1.339,49,2.985V7v6v37.266l4,7V59c0,0.553,0.447,1,1,1s1-0.447,1-1v-1.734l4-7V13V7V2.985
		C59,1.339,57.661,0,56.015,0z M51,9h6v2h-6V9z M54,54.984L51.723,51h4.554L54,54.984z M57,49h-6V13h6V49z M51,7V2.985
		C51,2.442,51.442,2,51.985,2h4.029C56.558,2,57,2.442,57,2.985V7H51z"/>
</g>
<g>
</g>
<g>
</g>
<g>
</g>
<g>
</g>
<g>
</g>
<g>
</g>
<g>
</g>
<g>
</g>
<g>
</g>
<g>
</g>
<g>
</g>
<g>
</g>
<g>
</g>
<g>
</g>
<g>
</g>
</svg>
