<?xml version="1.0" encoding="iso-8859-1"?>
<!-- Generator: Adobe Illustrator 19.0.0, SVG Export Plug-In . SVG Version: 6.00 Build 0)  -->
<svg version="1.1" id="Capa_1" xmlns="http://www.w3.org/2000/svg" xmlns:xlink="http://www.w3.org/1999/xlink" x="0px" y="0px"
	 viewBox="0 0 59.864 59.864" style="enable-background:new 0 0 59.864 59.864;" xml:space="preserve">
<g>
	<path d="M47.436,0h-2.003h-7h-30v17.007v20v16.989h4v5.868l4-2.666l4,2.666v-5.868h18h7h2.003c2.204,0,3.997-1.793,3.997-3.996
		V37.007v-20V3.996C51.432,1.793,49.639,0,47.436,0z M10.432,2h28v15.007h-28V2z M32.432,33.997c-0.552,0-1,0.448-1,1
		c0,0,0.002,0.007,0.002,0.01H27.43c0-0.003,0.002-0.007,0.002-0.007c0-0.556-0.448-1.003-1-1.003s-1,0.448-1,1
		c0,0,0.002,0.007,0.002,0.01H21.43c0-0.003,0.002-0.007,0.002-0.007c0-0.556-0.448-1.003-1-1.003s-1,0.448-1,1
		c0,0,0.002,0.007,0.002,0.01H15.43c0-0.003,0.002-0.007,0.002-0.007c0-0.556-0.448-1.003-1-1.003s-1,0.448-1,1
		c0,0,0.002,0.007,0.002,0.01h-3.002v-3.01v-6v-6v-0.99h0.949c-0.527,0.028-0.949,0.456-0.949,0.99c0,0.552,0.448,1,1,1s1-0.448,1-1
		c0-0.534-0.422-0.962-0.949-0.99h5.898c-0.527,0.028-0.949,0.456-0.949,0.99c0,0.552,0.448,1,1,1s1-0.448,1-1
		c0-0.534-0.422-0.962-0.949-0.99h5.898c-0.527,0.028-0.949,0.456-0.949,0.99c0,0.552,0.448,1,1,1s1-0.448,1-1
		c0-0.534-0.422-0.962-0.949-0.99h5.898c-0.527,0.028-0.949,0.456-0.949,0.99c0,0.552,0.448,1,1,1s1-0.448,1-1
		c0-0.534-0.422-0.962-0.949-0.99h5.898c-0.527,0.028-0.949,0.456-0.949,0.99c0,0.552,0.448,1,1,1s1-0.448,1-1
		c0-0.534-0.422-0.962-0.949-0.99h2.949v2.99c-0.552,0-1,0.448-1,1s0.448,1,1,1v4c-0.552,0-1,0.448-1,1s0.448,1,1,1v4
		c-0.552,0-1,0.448-1,1c0,0,0.002,0.007,0.002,0.01H33.43c0-0.003,0.002-0.007,0.002-0.007
		C33.432,34.444,32.984,33.997,32.432,33.997z M18.432,56.128l-2-1.334l-2,1.334v-2.132h4V56.128z M20.432,51.996h-8h-2V37.007h28
		v14.989H20.432z M40.432,51.996V37.007v-20V2h3v15.007v20v14.989H40.432z M47.432,20.997c0.552,0,1-0.448,1-1
		c0-0.534-0.422-0.962-0.949-0.99h1.949v16h-4v-16h1.949c-0.527,0.028-0.949,0.456-0.949,0.99
		C46.432,20.549,46.88,20.997,47.432,20.997z M49.432,50c0,1.101-0.896,1.996-1.997,1.996h-2.003V37.007h4V50z M45.432,17.007V2
		h2.003c1.101,0,1.997,0.896,1.997,1.996v13.011H45.432z"/>
	<circle cx="14.432" cy="22.997" r="1"/>
	<circle cx="20.432" cy="22.997" r="1"/>
	<circle cx="26.432" cy="22.997" r="1"/>
	<circle cx="32.432" cy="22.997" r="1"/>
	<circle cx="11.432" cy="25.997" r="1"/>
	<circle cx="17.432" cy="25.997" r="1"/>
	<circle cx="11.432" cy="31.997" r="1"/>
	<circle cx="17.432" cy="31.997" r="1"/>
	<circle cx="14.432" cy="28.997" r="1"/>
	<circle cx="20.432" cy="28.997" r="1"/>
	<circle cx="23.432" cy="25.997" r="1"/>
	<circle cx="29.432" cy="25.997" r="1"/>
	<circle cx="23.432" cy="31.997" r="1"/>
	<circle cx="29.432" cy="31.997" r="1"/>
	<circle cx="26.432" cy="28.997" r="1"/>
	<circle cx="32.432" cy="28.997" r="1"/>
	<circle cx="35.432" cy="25.997" r="1"/>
	<circle cx="35.432" cy="31.997" r="1"/>
	<circle cx="47.432" cy="25.997" r="1"/>
	<circle cx="47.432" cy="31.997" r="1"/>
</g>
<g>
</g>
<g>
</g>
<g>
</g>
<g>
</g>
<g>
</g>
<g>
</g>
<g>
</g>
<g>
</g>
<g>
</g>
<g>
</g>
<g>
</g>
<g>
</g>
<g>
</g>
<g>
</g>
<g>
</g>
</svg>
