<?xml version="1.0" encoding="iso-8859-1"?>
<!-- Generator: Adobe Illustrator 19.0.0, SVG Export Plug-In . SVG Version: 6.00 Build 0)  -->
<svg version="1.1" id="Capa_1" xmlns="http://www.w3.org/2000/svg" xmlns:xlink="http://www.w3.org/1999/xlink" x="0px" y="0px"
	 viewBox="0 0 59 59" style="enable-background:new 0 0 59 59;" xml:space="preserve">
<g>
	<path d="M26.5,2c1.654,0,3,1.346,3,3s-1.346,3-3,3c-0.552,0-1,0.447-1,1s0.448,1,1,1c2.757,0,5-2.243,5-5s-2.243-5-5-5
		c-0.552,0-1,0.447-1,1S25.948,2,26.5,2z"/>
	<path d="M32.5,2c1.654,0,3,1.346,3,3s-1.346,3-3,3c-0.552,0-1,0.447-1,1s0.448,1,1,1c2.757,0,5-2.243,5-5s-2.243-5-5-5
		c-0.552,0-1,0.447-1,1S31.948,2,32.5,2z"/>
	<path d="M43.399,4c-0.465-2.279-2.484-4-4.899-4c-0.552,0-1,0.447-1,1s0.448,1,1,1c1.654,0,3,1.346,3,3s-1.346,3-3,3
		c-0.552,0-1,0.447-1,1s0.448,1,1,1c2.414,0,4.434-1.721,4.899-4H53.5v10h-1c-0.552,0-1,0.447-1,1s0.448,1,1,1h1v8h-1
		c-0.552,0-1,0.447-1,1s0.448,1,1,1h1v8h-1c-0.552,0-1,0.447-1,1s0.448,1,1,1h1v7h-12v12h-36v-9h1c0.552,0,1-0.447,1-1s-0.448-1-1-1
		h-1v-8h1c0.552,0,1-0.447,1-1s-0.448-1-1-1h-1v-8h1c0.552,0,1-0.447,1-1s-0.448-1-1-1h-1v-8h1c0.552,0,1-0.447,1-1s-0.448-1-1-1h-1
		V6h11h3c0.552,0,1-0.447,1-1s-0.448-1-1-1h-1.816c0.414-1.162,1.514-2,2.816-2c1.654,0,3,1.346,3,3s-1.346,3-3,3
		c-0.552,0-1,0.447-1,1s0.448,1,1,1c2.757,0,5-2.243,5-5s-2.243-5-5-5c-2.414,0-4.434,1.721-4.899,4H3.5v55h38h1.414H55.5V46.414V45
		V4H43.399z M43.5,47h8.586L43.5,55.586V47z M44.915,57l8.585-8.585V57H44.915z"/>
	<path d="M30.5,16h-2c-0.552,0-1,0.447-1,1s0.448,1,1,1h2c0.552,0,1-0.447,1-1S31.052,16,30.5,16z"/>
	<path d="M24.5,16h-2c-0.552,0-1,0.447-1,1s0.448,1,1,1h2c0.552,0,1-0.447,1-1S25.052,16,24.5,16z"/>
	<path d="M18.5,16h-2c-0.552,0-1,0.447-1,1s0.448,1,1,1h2c0.552,0,1-0.447,1-1S19.052,16,18.5,16z"/>
	<path d="M40.5,18h2c0.552,0,1-0.447,1-1s-0.448-1-1-1h-2c-0.552,0-1,0.447-1,1S39.948,18,40.5,18z"/>
	<path d="M46.5,18h2c0.552,0,1-0.447,1-1s-0.448-1-1-1h-2c-0.552,0-1,0.447-1,1S45.948,18,46.5,18z"/>
	<path d="M36.5,16h-2c-0.552,0-1,0.447-1,1s0.448,1,1,1h2c0.552,0,1-0.447,1-1S37.052,16,36.5,16z"/>
	<path d="M13.5,17c0-0.553-0.448-1-1-1v-4c0-0.553-0.448-1-1-1s-1,0.447-1,1v4c-0.552,0-1,0.447-1,1s0.448,1,1,1v8
		c-0.552,0-1,0.447-1,1s0.448,1,1,1v8c-0.552,0-1,0.447-1,1s0.448,1,1,1v8c-0.552,0-1,0.447-1,1s0.448,1,1,1v5c0,0.553,0.448,1,1,1
		s1-0.447,1-1v-5c0.552,0,1-0.447,1-1s-0.448-1-1-1v-8c0.552,0,1-0.447,1-1s-0.448-1-1-1v-8c0.552,0,1-0.447,1-1s-0.448-1-1-1v-8
		C13.052,18,13.5,17.553,13.5,17z"/>
	<path d="M36.5,26h-2c-0.552,0-1,0.447-1,1s0.448,1,1,1h2c0.552,0,1-0.447,1-1S37.052,26,36.5,26z"/>
	<path d="M30.5,26h-2c-0.552,0-1,0.447-1,1s0.448,1,1,1h2c0.552,0,1-0.447,1-1S31.052,26,30.5,26z"/>
	<path d="M18.5,26h-2c-0.552,0-1,0.447-1,1s0.448,1,1,1h2c0.552,0,1-0.447,1-1S19.052,26,18.5,26z"/>
	<path d="M24.5,26h-2c-0.552,0-1,0.447-1,1s0.448,1,1,1h2c0.552,0,1-0.447,1-1S25.052,26,24.5,26z"/>
	<path d="M46.5,28h2c0.552,0,1-0.447,1-1s-0.448-1-1-1h-2c-0.552,0-1,0.447-1,1S45.948,28,46.5,28z"/>
	<path d="M40.5,28h2c0.552,0,1-0.447,1-1s-0.448-1-1-1h-2c-0.552,0-1,0.447-1,1S39.948,28,40.5,28z"/>
	<path d="M40.5,38h2c0.552,0,1-0.447,1-1s-0.448-1-1-1h-2c-0.552,0-1,0.447-1,1S39.948,38,40.5,38z"/>
	<path d="M46.5,38h2c0.552,0,1-0.447,1-1s-0.448-1-1-1h-2c-0.552,0-1,0.447-1,1S45.948,38,46.5,38z"/>
	<path d="M36.5,36h-2c-0.552,0-1,0.447-1,1s0.448,1,1,1h2c0.552,0,1-0.447,1-1S37.052,36,36.5,36z"/>
	<path d="M30.5,36h-2c-0.552,0-1,0.447-1,1s0.448,1,1,1h2c0.552,0,1-0.447,1-1S31.052,36,30.5,36z"/>
	<path d="M18.5,36h-2c-0.552,0-1,0.447-1,1s0.448,1,1,1h2c0.552,0,1-0.447,1-1S19.052,36,18.5,36z"/>
	<path d="M24.5,36h-2c-0.552,0-1,0.447-1,1s0.448,1,1,1h2c0.552,0,1-0.447,1-1S25.052,36,24.5,36z"/>
	<path d="M24.5,46h-2c-0.552,0-1,0.447-1,1s0.448,1,1,1h2c0.552,0,1-0.447,1-1S25.052,46,24.5,46z"/>
	<path d="M36.5,46h-2c-0.552,0-1,0.447-1,1s0.448,1,1,1h2c0.552,0,1-0.447,1-1S37.052,46,36.5,46z"/>
	<path d="M30.5,46h-2c-0.552,0-1,0.447-1,1s0.448,1,1,1h2c0.552,0,1-0.447,1-1S31.052,46,30.5,46z"/>
	<path d="M18.5,46h-2c-0.552,0-1,0.447-1,1s0.448,1,1,1h2c0.552,0,1-0.447,1-1S19.052,46,18.5,46z"/>
</g>
<g>
</g>
<g>
</g>
<g>
</g>
<g>
</g>
<g>
</g>
<g>
</g>
<g>
</g>
<g>
</g>
<g>
</g>
<g>
</g>
<g>
</g>
<g>
</g>
<g>
</g>
<g>
</g>
<g>
</g>
</svg>
