<?xml version="1.0" encoding="iso-8859-1"?>
<!-- Generator: Adobe Illustrator 19.0.0, SVG Export Plug-In . SVG Version: 6.00 Build 0)  -->
<svg version="1.1" id="Capa_1" xmlns="http://www.w3.org/2000/svg" xmlns:xlink="http://www.w3.org/1999/xlink" x="0px" y="0px"
	 viewBox="0 0 60 60" style="enable-background:new 0 0 60 60;" xml:space="preserve">
<g>
	<path d="M15,19h9c0.553,0,1-0.447,1-1s-0.447-1-1-1h-9c-0.553,0-1,0.447-1,1S14.447,19,15,19z"/>
	<path d="M15,26h5c0.553,0,1-0.447,1-1s-0.447-1-1-1h-5c-0.553,0-1,0.447-1,1S14.447,26,15,26z"/>
	<path d="M28,26h7c0.553,0,1-0.447,1-1s-0.447-1-1-1h-7c-0.553,0-1,0.447-1,1S27.447,26,28,26z"/>
	<path d="M24.71,25.71C24.89,25.52,25,25.26,25,25c0-0.261-0.11-0.521-0.29-0.71c-0.38-0.37-1.04-0.37-1.42,0
		C23.109,24.479,23,24.739,23,25c0,0.26,0.109,0.52,0.29,0.71C23.479,25.899,23.729,26,24,26C24.26,26,24.52,25.89,24.71,25.71z"/>
	<path d="M39,26c0.27,0,0.52-0.11,0.71-0.29C39.89,25.52,40,25.26,40,25c0-0.261-0.11-0.521-0.29-0.71c-0.38-0.37-1.04-0.37-1.42,0
		C38.109,24.479,38,24.739,38,25c0,0.26,0.109,0.52,0.29,0.71C38.479,25.899,38.729,26,39,26z"/>
	<path d="M18,32c0,0.553,0.447,1,1,1h7c0.553,0,1-0.447,1-1s-0.447-1-1-1h-7C18.447,31,18,31.447,18,32z"/>
	<path d="M15.71,32.71C15.899,32.52,16,32.26,16,32c0-0.261-0.101-0.521-0.29-0.71c-0.38-0.37-1.04-0.37-1.42,0
		C14.1,31.479,14,31.729,14,32c0,0.26,0.109,0.52,0.29,0.71C14.479,32.89,14.74,33,15,33S15.52,32.89,15.71,32.71z"/>
	<path d="M20.525,37.137c-2.19,1.14-2.927,3.321-3.196,5.582c-0.414-0.347-0.828-0.693-1.241-1.04
		c-0.98-0.821-2.402,0.586-1.414,1.415c0.935,0.783,1.871,1.567,2.806,2.351c0.658,0.551,1.676,0.203,1.707-0.707
		c0.073-2.166,0.175-4.742,2.348-5.873C22.677,38.269,21.667,36.542,20.525,37.137z"/>
	<path d="M27.175,41.125c-1.385,0.321-2.961,2.083-3.936,0.106c-0.569-1.154-2.295-0.142-1.727,1.009
		c0.518,1.049,1.5,1.784,2.669,1.932c0.594,0.075,1.131-0.009,1.688-0.226c0.409-0.159,1.937-1.308,2.267-0.717
		c0.628,1.124,2.356,0.117,1.727-1.009C29.326,41.258,28.239,40.878,27.175,41.125z"/>
	<path d="M55.015,0h-4.029c-1.299,0-2.396,0.839-2.805,2H38h-6V1c0-0.553-0.447-1-1-1h-9c-0.553,0-1,0.447-1,1v1h-6H2v58h49v-4.484
		l1,1.75V59c0,0.553,0.447,1,1,1s1-0.447,1-1v-1.734l4-7V13V7V2.985C58,1.339,56.661,0,55.015,0z M50,9h6v2h-6V9z M30,2v1v2h-7V3V2
		H30z M21,4v2v1h1h9h1V6V4h5v3v1H16V7V4H21z M15,10h23h1V9h5v44H9V9h5v1H15z M49,58H4V4h10v3H7v48h39V7h-7V4h9v3v6v37.266l1,1.75V58
		z M50.723,51h4.554L53,54.984l-2-3.5L50.723,51z M56,49h-6V13h6V49z M50,7V2.985C50,2.442,50.442,2,50.985,2h4.029
		C55.558,2,56,2.442,56,2.985V7H50z"/>
</g>
<g>
</g>
<g>
</g>
<g>
</g>
<g>
</g>
<g>
</g>
<g>
</g>
<g>
</g>
<g>
</g>
<g>
</g>
<g>
</g>
<g>
</g>
<g>
</g>
<g>
</g>
<g>
</g>
<g>
</g>
</svg>
