<?xml version="1.0" encoding="iso-8859-1"?>
<!-- Generator: Adobe Illustrator 19.0.0, SVG Export Plug-In . SVG Version: 6.00 Build 0)  -->
<svg version="1.1" id="Capa_1" xmlns="http://www.w3.org/2000/svg" xmlns:xlink="http://www.w3.org/1999/xlink" x="0px" y="0px"
	 viewBox="0 0 59.864 59.864" style="enable-background:new 0 0 59.864 59.864;" xml:space="preserve">
<path d="M47.436,0h-2.004h-7h-30v17.007v20v16.989h4v5.868l4-2.666l4,2.666v-5.868h18h7h2.004c2.203,0,3.996-1.793,3.996-3.996
	V37.007v-20V3.996C51.432,1.793,49.639,0,47.436,0z M10.432,2h28v15.007h-28V2z M38.432,35.007h-28v-16h28V35.007z M18.432,56.128
	l-2-1.334l-2,1.334v-2.132h4V56.128z M20.432,51.996h-8h-2V37.007h28v14.989H20.432z M40.432,51.996V37.007v-20V2h3v15.007v20
	v14.989H40.432z M45.432,19.007h4v16h-4V19.007z M49.432,50c0,1.101-0.896,1.996-1.996,1.996h-2.004V37.007h4V50z M45.432,17.007V2
	h2.004c1.101,0,1.996,0.896,1.996,1.996v13.011H45.432z"/>
<g>
</g>
<g>
</g>
<g>
</g>
<g>
</g>
<g>
</g>
<g>
</g>
<g>
</g>
<g>
</g>
<g>
</g>
<g>
</g>
<g>
</g>
<g>
</g>
<g>
</g>
<g>
</g>
<g>
</g>
</svg>
