<?xml version="1.0" encoding="iso-8859-1"?>
<!-- Generator: Adobe Illustrator 19.0.0, SVG Export Plug-In . SVG Version: 6.00 Build 0)  -->
<svg version="1.1" id="Capa_1" xmlns="http://www.w3.org/2000/svg" xmlns:xlink="http://www.w3.org/1999/xlink" x="0px" y="0px"
	 viewBox="0 0 60 60" style="enable-background:new 0 0 60 60;" xml:space="preserve">
<g>
	<path d="M0,0v60h60V0H0z M58,58H2V2h56V58z"/>
	<path d="M48.707,12.707l-36,36l-1.414-1.414l36-36L48.707,12.707z"/>
	<path d="M17,23c3.309,0,6-2.691,6-6s-2.691-6-6-6s-6,2.691-6,6S13.691,23,17,23z M17,13c2.206,0,4,1.794,4,4s-1.794,4-4,4
		s-4-1.794-4-4S14.794,13,17,13z"/>
	<path d="M43,37c-3.309,0-6,2.691-6,6s2.691,6,6,6s6-2.691,6-6S46.309,37,43,37z M43,47c-2.206,0-4-1.794-4-4s1.794-4,4-4
		s4,1.794,4,4S45.206,47,43,47z"/>
</g>
<g>
</g>
<g>
</g>
<g>
</g>
<g>
</g>
<g>
</g>
<g>
</g>
<g>
</g>
<g>
</g>
<g>
</g>
<g>
</g>
<g>
</g>
<g>
</g>
<g>
</g>
<g>
</g>
<g>
</g>
</svg>
