<?xml version="1.0" encoding="iso-8859-1"?>
<!-- Generator: Adobe Illustrator 19.0.0, SVG Export Plug-In . SVG Version: 6.00 Build 0)  -->
<svg version="1.1" id="Capa_1" xmlns="http://www.w3.org/2000/svg" xmlns:xlink="http://www.w3.org/1999/xlink" x="0px" y="0px"
	 viewBox="0 0 59.999 59.999" style="enable-background:new 0 0 59.999 59.999;" xml:space="preserve">
<g>
	<path d="M51.675,21.929c-11.889-11.889-31.233-11.889-43.122,0L0.613,29.87l7.711,7.711c5.759,5.759,13.416,8.931,21.561,8.931
		s15.801-3.171,21.56-8.931l7.941-7.941L51.675,21.929z M50.031,36.167c-5.381,5.381-12.536,8.345-20.146,8.345
		s-14.765-2.963-20.146-8.345L3.441,29.87l6.527-6.527c11.109-11.108,29.186-11.108,40.293,0l6.297,6.297L50.031,36.167z"/>
	<path d="M29.67,16.969c-7.065,0-12.813,5.748-12.813,12.813s5.748,12.813,12.813,12.813s12.813-5.748,12.813-12.813
		S36.735,16.969,29.67,16.969z M29.67,40.594c-5.962,0-10.813-4.851-10.813-10.813c0-5.962,4.851-10.813,10.813-10.813
		s10.813,4.851,10.813,10.813C40.483,35.744,35.632,40.594,29.67,40.594z"/>
	<path d="M25.857,5.999c0.256,0,0.512-0.098,0.707-0.293l2.293-2.293v7.586c0,0.552,0.448,1,1,1s1-0.448,1-1V3.413l2.293,2.293
		c0.195,0.195,0.451,0.293,0.707,0.293s0.512-0.098,0.707-0.293c0.391-0.391,0.391-1.023,0-1.414l-4-4
		c-0.092-0.092-0.203-0.165-0.325-0.216c-0.245-0.101-0.52-0.101-0.764,0c-0.122,0.051-0.233,0.124-0.325,0.216l-4,4
		c-0.391,0.391-0.391,1.023,0,1.414C25.345,5.901,25.601,5.999,25.857,5.999z"/>
	<path d="M33.15,54.292l-2.293,2.293v-7.586c0-0.552-0.448-1-1-1s-1,0.448-1,1v7.586l-2.293-2.293c-0.391-0.391-1.023-0.391-1.414,0
		s-0.391,1.023,0,1.414l4,4c0.092,0.092,0.203,0.165,0.325,0.216c0.122,0.051,0.252,0.077,0.382,0.077s0.26-0.027,0.382-0.077
		c0.122-0.051,0.233-0.124,0.325-0.216l4-4c0.391-0.391,0.391-1.023,0-1.414S33.54,53.901,33.15,54.292z"/>
</g>
<g>
</g>
<g>
</g>
<g>
</g>
<g>
</g>
<g>
</g>
<g>
</g>
<g>
</g>
<g>
</g>
<g>
</g>
<g>
</g>
<g>
</g>
<g>
</g>
<g>
</g>
<g>
</g>
<g>
</g>
</svg>
