<?xml version="1.0" encoding="iso-8859-1"?>
<!-- Generator: Adobe Illustrator 19.0.0, SVG Export Plug-In . SVG Version: 6.00 Build 0)  -->
<svg version="1.1" id="Capa_1" xmlns="http://www.w3.org/2000/svg" xmlns:xlink="http://www.w3.org/1999/xlink" x="0px" y="0px"
	 viewBox="0 0 60 60" style="enable-background:new 0 0 60 60;" xml:space="preserve">
<g>
	<path d="M60,30c0-4.463-2.94-8.25-6.984-9.533c1.954-3.766,1.354-8.524-1.802-11.68c-3.157-3.156-7.914-3.753-11.68-1.801
		C38.252,2.941,34.463,0,30,0c-4.463,0-8.251,2.941-9.533,6.986C16.7,5.033,11.942,5.633,8.787,8.787
		c-3.156,3.156-3.756,7.913-1.802,11.68C2.94,21.749,0,25.537,0,30s2.94,8.251,6.985,9.533c-1.953,3.766-1.354,8.524,1.802,11.68
		c1.949,1.95,4.51,2.924,7.071,2.924c1.584,0,3.168-0.375,4.608-1.122C21.749,57.059,25.537,60,30,60s8.251-2.941,9.533-6.985
		c1.44,0.747,3.024,1.122,4.609,1.122c2.561,0,5.122-0.975,7.071-2.924c3.156-3.156,3.756-7.914,1.802-11.68
		C57.06,38.25,60,34.463,60,30z M2,30c0-3.774,2.63-6.938,6.151-7.775c0.2,0.242,0.41,0.478,0.636,0.704L15.858,30l-7.071,7.071
		c-0.226,0.226-0.436,0.462-0.636,0.704C4.63,36.938,2,33.774,2,30z M18.687,30L20,28.687v2.627L18.687,30z M20,34.142V38h-9.313
		l6.586-6.586L20,34.142z M17.272,28.586L10.687,22H20v3.858L17.272,28.586z M10.201,49.799c-2.668-2.668-3.046-6.765-1.149-9.847
		C9.365,39.981,9.68,40,10,40h10v10c0,0.32,0.018,0.635,0.048,0.948C16.965,52.845,12.869,52.467,10.201,49.799z M20,10v10H10
		c-0.32,0-0.635,0.019-0.948,0.048c-1.897-3.082-1.519-7.178,1.149-9.847c1.56-1.56,3.608-2.339,5.656-2.339
		c1.457,0,2.91,0.402,4.191,1.19C20.018,9.365,20,9.68,20,10z M30,2c3.774,0,6.938,2.63,7.776,6.151
		c-0.242,0.2-0.478,0.41-0.704,0.636L30,15.858l-7.071-7.071c-0.226-0.226-0.463-0.436-0.704-0.636C23.062,4.63,26.226,2,30,2z
		 M31.314,20h-2.627L30,18.687L31.314,20z M22,10.687l6.586,6.586L25.858,20H22V10.687z M22,22h1.858L22,23.858V22z M22,36.142
		L23.858,38H22V36.142z M22,40h3.858l2.728,2.728L22,49.313V40z M30,58c-3.774,0-6.938-2.63-7.776-6.151
		c0.242-0.2,0.478-0.41,0.704-0.636L30,44.142l7.071,7.071c0.226,0.226,0.463,0.436,0.704,0.636C36.938,55.37,33.774,58,30,58z
		 M28.687,40h2.627L30,41.313L28.687,40z M38,49.313l-6.586-6.586L34.142,40H38V49.313z M38,38h-1.858L38,36.142V38z M38,33.314
		L33.314,38h-6.627L22,33.313v-6.627L26.687,22h6.627L38,26.686V33.314z M38,23.858L36.142,22H38V23.858z M38,20h-3.858
		l-2.728-2.728L38,10.687V20z M44.143,7.862c2.049,0,4.098,0.779,5.657,2.339c2.668,2.668,3.046,6.765,1.149,9.847
		C50.636,20.019,50.32,20,50,20H40V10c0-0.32-0.018-0.635-0.048-0.948C41.233,8.264,42.686,7.862,44.143,7.862z M42.728,31.414
		L49.314,38H40v-3.858L42.728,31.414z M40,31.314v-2.628L41.314,30L40,31.314z M40,25.858V22h9.314l-6.586,6.586L40,25.858z
		 M49.8,49.799c-2.67,2.668-6.766,3.046-9.848,1.149C39.982,50.635,40,50.32,40,50V40h10c0.32,0,0.636-0.019,0.949-0.048
		C52.846,43.034,52.468,47.13,49.8,49.799z M51.85,37.775c-0.2-0.242-0.41-0.478-0.636-0.704L44.142,30l7.072-7.071
		c0.226-0.226,0.436-0.462,0.636-0.704C55.371,23.063,58,26.227,58,30S55.371,36.937,51.85,37.775z"/>
</g>
<g>
</g>
<g>
</g>
<g>
</g>
<g>
</g>
<g>
</g>
<g>
</g>
<g>
</g>
<g>
</g>
<g>
</g>
<g>
</g>
<g>
</g>
<g>
</g>
<g>
</g>
<g>
</g>
<g>
</g>
</svg>
