<?xml version="1.0" encoding="iso-8859-1"?>
<!-- Generator: Adobe Illustrator 19.0.0, SVG Export Plug-In . SVG Version: 6.00 Build 0)  -->
<svg version="1.1" id="Capa_1" xmlns="http://www.w3.org/2000/svg" xmlns:xlink="http://www.w3.org/1999/xlink" x="0px" y="0px"
	 viewBox="0 0 57 57" style="enable-background:new 0 0 57 57;" xml:space="preserve">
<g>
	<path d="M5,53h47V19H5V53z M50,51H8.649l14.324-12.611l10.302,10.301c0.391,0.391,1.023,0.391,1.414,0s0.391-1.023,0-1.414
		l-4.807-4.807l9.181-10.054L50,42.44V51z M7,21h43v18.727l-10.324-9.464c-0.196-0.179-0.458-0.28-0.72-0.262
		c-0.265,0.012-0.515,0.129-0.694,0.325l-9.794,10.727l-4.743-4.743c-0.374-0.373-0.972-0.391-1.368-0.044L7,49.787V21z"/>
	<path d="M15,24c-3.071,0-5.569,2.498-5.569,5.569c0,3.07,2.498,5.568,5.569,5.568s5.569-2.498,5.569-5.568
		C20.569,26.498,18.071,24,15,24z M15,33.138c-1.968,0-3.569-1.601-3.569-3.568S13.032,26,15,26s3.569,1.602,3.569,3.569
		S16.968,33.138,15,33.138z"/>
	<path d="M49.38,15c-1.79-1.586-11.313-9.958-16.748-13.415C31.72,0.615,30.434,0,29,0s-2.72,0.615-3.632,1.585
		C19.933,5.042,10.41,13.414,8.62,15H1v42h55V15H49.38z M26.069,4.369c0.009-0.043,0.028-0.083,0.039-0.125
		c0.145-0.535,0.415-0.949,0.66-1.224c0.005-0.005,0.006-0.012,0.011-0.018C27.328,2.391,28.116,2,29,2s1.672,0.391,2.221,1.002
		c0.005,0.005,0.006,0.012,0.011,0.018c0.245,0.275,0.515,0.69,0.66,1.225c0.011,0.042,0.029,0.082,0.039,0.125
		C31.974,4.564,32,4.774,32,5c0,1.654-1.346,3-3,3s-3-1.346-3-3C26,4.774,26.026,4.564,26.069,4.369z M24,4.95
		c0,0.017,0,0.033,0,0.05c0,2.757,2.243,5,5,5s5-2.243,5-5c0-0.017,0-0.033,0-0.05c4.17,3.033,9.504,7.581,12.345,10.05H11.655
		C14.496,12.531,19.831,7.983,24,4.95z M54,55H3V17h6h40h5V55z"/>
</g>
<g>
</g>
<g>
</g>
<g>
</g>
<g>
</g>
<g>
</g>
<g>
</g>
<g>
</g>
<g>
</g>
<g>
</g>
<g>
</g>
<g>
</g>
<g>
</g>
<g>
</g>
<g>
</g>
<g>
</g>
</svg>
