<?xml version="1.0" encoding="iso-8859-1"?>
<!-- Generator: Adobe Illustrator 19.0.0, SVG Export Plug-In . SVG Version: 6.00 Build 0)  -->
<svg version="1.1" id="Capa_1" xmlns="http://www.w3.org/2000/svg" xmlns:xlink="http://www.w3.org/1999/xlink" x="0px" y="0px"
	 viewBox="0 0 59 59" style="enable-background:new 0 0 59 59;" xml:space="preserve">
<g>
	<path d="M44.5,15c0-8.271-6.729-15-15-15s-15,6.729-15,15c0,7.934,6.195,14.431,14,14.949V58c0,0.553,0.448,1,1,1s1-0.447,1-1
		V29.949C38.305,29.431,44.5,22.934,44.5,15z M29.5,28c-7.168,0-13-5.832-13-13s5.832-13,13-13s13,5.832,13,13S36.668,28,29.5,28z"
		/>
	<path d="M24.5,7c-2.206,0-4,1.794-4,4s1.794,4,4,4s4-1.794,4-4S26.706,7,24.5,7z M24.5,13c-1.103,0-2-0.897-2-2s0.897-2,2-2
		s2,0.897,2,2S25.603,13,24.5,13z"/>
</g>
<g>
</g>
<g>
</g>
<g>
</g>
<g>
</g>
<g>
</g>
<g>
</g>
<g>
</g>
<g>
</g>
<g>
</g>
<g>
</g>
<g>
</g>
<g>
</g>
<g>
</g>
<g>
</g>
<g>
</g>
</svg>
