<?xml version="1.0" encoding="iso-8859-1"?>
<!-- Generator: Adobe Illustrator 19.0.0, SVG Export Plug-In . SVG Version: 6.00 Build 0)  -->
<svg version="1.1" id="Capa_1" xmlns="http://www.w3.org/2000/svg" xmlns:xlink="http://www.w3.org/1999/xlink" x="0px" y="0px"
	 viewBox="0 0 57.502 57.502" style="enable-background:new 0 0 57.502 57.502;" xml:space="preserve">
<g>
	<path d="M20.832,12.125c-5.204,0-9.438,4.233-9.438,9.438S15.628,31,20.832,31s9.438-4.233,9.438-9.438
		S26.036,12.125,20.832,12.125z M20.832,29c-4.101,0-7.438-3.337-7.438-7.438s3.337-7.438,7.438-7.438s7.438,3.337,7.438,7.438
		S24.933,29,20.832,29z"/>
	<path d="M52.051,13.078C50.929,4.522,45.61,0,36.67,0c-8.656,0-12.434,3.722-14.084,7.065C22.017,7.024,21.434,7,20.832,7
		c-8.94,0-14.259,4.522-15.381,13.078c-0.373,2.84-0.222,5.897,0.451,9.088C9.24,44.989,17.297,54.477,19.686,57.007
		c0.297,0.314,0.715,0.495,1.146,0.495c0.431,0,0.849-0.181,1.146-0.495c1.521-1.611,5.339-6.055,8.774-13.149
		c2.166,3.27,4.015,5.347,4.771,6.147c0.297,0.316,0.715,0.498,1.146,0.498c0.433,0,0.851-0.182,1.146-0.496
		c2.39-2.532,10.446-12.023,13.783-27.841C52.272,18.976,52.424,15.918,52.051,13.078z M20.831,55.301
		C18.649,52.899,11,43.641,7.859,28.754c-0.626-2.969-0.77-5.8-0.426-8.416C8.421,12.814,12.928,9,20.832,9
		c3.307,0,6.011,0.677,8.12,2.005c3.815,2.513,4.948,7.061,5.278,9.585c0.044,0.328,0.077,0.662,0.105,1.005
		c0.002,0.03,0.005,0.06,0.008,0.09c0.024,0.325,0.041,0.661,0.052,1.008c0.042,1.935-0.147,3.96-0.59,6.06
		C30.663,43.641,23.015,52.899,20.831,55.301z M30.639,9.709C31.966,7.998,34.205,7,36.813,7c4.101,0,7.438,3.337,7.438,7.438
		s-3.337,7.438-7.438,7.438c-0.148,0-0.297-0.006-0.453-0.017c-0.032-0.6-0.072-1.198-0.149-1.78
		C35.595,15.371,33.7,11.893,30.639,9.709z M49.643,21.754c-3.139,14.88-10.787,24.142-12.973,26.547
		c-0.948-1.042-2.822-3.265-4.926-6.597c1.576-3.598,3.012-7.775,4.016-12.538c0.384-1.821,0.578-3.592,0.622-5.311
		c0.144,0.007,0.29,0.02,0.431,0.02c5.204,0,9.438-4.233,9.438-9.438S42.018,5,36.813,5c-3.336,0-6.207,1.366-7.894,3.686
		c-1.247-0.62-2.643-1.068-4.184-1.345C26.796,3.809,30.789,2,36.67,2c7.904,0,12.411,3.814,13.398,11.338
		C50.412,15.954,50.269,18.785,49.643,21.754z"/>
</g>
<g>
</g>
<g>
</g>
<g>
</g>
<g>
</g>
<g>
</g>
<g>
</g>
<g>
</g>
<g>
</g>
<g>
</g>
<g>
</g>
<g>
</g>
<g>
</g>
<g>
</g>
<g>
</g>
<g>
</g>
</svg>
