<?xml version="1.0" encoding="iso-8859-1"?>
<!-- Generator: Adobe Illustrator 19.0.0, SVG Export Plug-In . SVG Version: 6.00 Build 0)  -->
<svg version="1.1" id="Capa_1" xmlns="http://www.w3.org/2000/svg" xmlns:xlink="http://www.w3.org/1999/xlink" x="0px" y="0px"
	 viewBox="0 0 57.945 57.945" style="enable-background:new 0 0 57.945 57.945;" xml:space="preserve">
<path d="M50.157,9.178l2.012-2.012c0.391-0.391,0.391-1.023,0-1.414s-1.023-0.391-1.414,0l-2.01,2.01
	c-9.974-9.305-25.32-10.368-36.463-2.515C10.321,3.494,7.309,3.54,5.427,5.423c-1.882,1.882-1.929,4.895-0.176,6.855
	c-8.045,11.414-6.738,27.243,3.206,37.187c5.653,5.653,13.08,8.48,20.506,8.48s14.853-2.827,20.506-8.48
	C60.537,38.395,60.762,20.533,50.157,9.178z M6.841,6.837C7.407,6.27,8.16,5.959,8.962,5.959s1.555,0.312,2.121,0.878
	c0.08,0.08,0.141,0.17,0.21,0.257l0.058,0.077c0.333,0.444,0.525,0.958,0.581,1.481c0,0,0,0.004,0.001,0.006
	c0.018,0.168,0.02,0.337,0.009,0.506c-0.001,0.016-0.003,0.031-0.004,0.047C11.924,9.366,11.9,9.52,11.864,9.671
	c-0.009,0.036-0.021,0.071-0.032,0.107c-0.036,0.132-0.079,0.262-0.133,0.389c-0.03,0.068-0.069,0.133-0.104,0.198
	c-0.049,0.093-0.094,0.187-0.153,0.275c-0.105,0.155-0.222,0.303-0.359,0.44c-0.14,0.14-0.293,0.262-0.455,0.367
	c-0.012,0.008-0.025,0.013-0.036,0.02c-0.645,0.405-1.436,0.543-2.181,0.412c-0.02-0.004-0.041-0.008-0.061-0.012
	c-0.135-0.027-0.267-0.069-0.398-0.113c-0.08-0.029-0.16-0.056-0.237-0.092c-0.057-0.025-0.11-0.056-0.165-0.084
	c-0.129-0.069-0.256-0.141-0.376-0.23l-0.016-0.012c-0.109-0.081-0.22-0.158-0.317-0.256C5.671,9.91,5.671,8.007,6.841,6.837z
	 M48.054,48.051c-10.527,10.527-27.656,10.527-38.184,0C0.626,38.806-0.607,24.095,6.847,13.473
	c0.212,0.099,0.431,0.177,0.655,0.245c0.038,0.011,0.076,0.024,0.114,0.034c0.216,0.061,0.435,0.108,0.66,0.139
	c0.04,0.005,0.08,0.007,0.12,0.012c0.188,0.021,0.374,0.055,0.566,0.055c0.482,0,0.947-0.09,1.397-0.222
	c0.094-0.027,0.187-0.052,0.279-0.084c0.156-0.056,0.308-0.118,0.457-0.189c0.135-0.063,0.265-0.136,0.395-0.211
	c0.111-0.065,0.223-0.126,0.329-0.2c0.238-0.165,0.468-0.347,0.678-0.558c0.217-0.217,0.403-0.454,0.572-0.701
	c0.064-0.093,0.117-0.19,0.174-0.286c0.09-0.152,0.172-0.306,0.245-0.466c0.059-0.129,0.114-0.257,0.161-0.389
	c0.044-0.123,0.077-0.249,0.111-0.375c0.165-0.605,0.214-1.229,0.148-1.85c-0.006-0.055-0.008-0.109-0.016-0.164
	c-0.029-0.208-0.074-0.41-0.129-0.613C13.747,7.59,13.729,7.53,13.71,7.469c-0.064-0.207-0.137-0.409-0.229-0.607
	c-0.003-0.006-0.004-0.012-0.006-0.017c10.351-7.263,24.567-6.257,33.841,2.347l-3.539,3.54c-8.622-7.875-22.031-7.668-30.37,0.671
	c-8.578,8.578-8.578,22.534,0,31.112c4.289,4.289,9.923,6.434,15.557,6.434s11.268-2.145,15.557-6.434
	c3.461-3.46,5.646-8.009,6.242-12.871c0.821-0.219,1.601-0.628,2.243-1.271c1.948-1.949,1.948-5.122,0-7.071
	c-0.898-0.898-2.056-1.362-3.234-1.433c-0.971-2.86-2.531-5.505-4.567-7.737l3.54-3.54C58.569,21.167,58.344,37.761,48.054,48.051z
	 M49.469,23.839c0.768,0,1.536,0.293,2.121,0.877c1.169,1.17,1.169,3.073,0,4.243c-0.435,0.434-0.971,0.705-1.533,0.817
	l-0.291,0.029c-0.446,0.044-0.886-0.01-1.292-0.149c-0.01-0.003-0.02-0.005-0.03-0.009c-0.183-0.064-0.356-0.151-0.522-0.25
	c-0.022-0.014-0.047-0.022-0.069-0.036c-0.181-0.114-0.351-0.248-0.505-0.402c-1.17-1.17-1.17-3.073,0-4.243
	c0.605-0.604,1.318-0.793,1.811-0.845l0.292-0.03C49.455,23.841,49.462,23.839,49.469,23.839z M47.73,22.163
	c-0.277,0.103-0.544,0.235-0.803,0.389c-0.054,0.031-0.112,0.053-0.165,0.086c-0.293,0.189-0.573,0.407-0.83,0.664
	c-1.949,1.949-1.949,5.122,0,7.071c0.218,0.218,0.457,0.406,0.706,0.576c0.097,0.067,0.199,0.121,0.299,0.18
	c0.151,0.088,0.304,0.172,0.463,0.243c0.136,0.062,0.272,0.115,0.412,0.164c0.122,0.042,0.245,0.077,0.37,0.109
	c0.173,0.046,0.345,0.089,0.521,0.116c0.015,0.002,0.029,0.008,0.043,0.01c-0.604,4.281-2.585,8.271-5.643,11.329
	c-7.799,7.799-20.486,7.799-28.285,0c-7.798-7.798-7.798-20.486,0-28.284c3.899-3.899,9.021-5.848,14.143-5.848
	c4.808,0,9.604,1.741,13.4,5.177l-4.242,4.242c-2.541-2.206-5.751-3.421-9.158-3.421c-3.744,0-7.26,1.454-9.899,4.094
	s-4.094,6.155-4.094,9.899s1.454,7.26,4.094,9.899s6.155,4.094,9.899,4.094s7.26-1.454,9.899-4.094s4.094-6.155,4.094-9.899
	c0-3.407-1.215-6.617-3.421-9.158l4.239-4.239c1.735,1.92,3.109,4.154,3.987,6.586C47.749,22.152,47.74,22.159,47.73,22.163z
	 M28.255,29.666c0.195,0.195,0.451,0.293,0.707,0.293s0.512-0.098,0.707-0.293l8.451-8.451c1.831,2.16,2.835,4.871,2.835,7.744
	c0,3.21-1.246,6.224-3.508,8.485s-5.275,3.508-8.485,3.508s-6.224-1.246-8.485-3.508s-3.508-5.275-3.508-8.485
	s1.246-6.224,3.508-8.485s5.275-3.508,8.485-3.508c2.873,0,5.584,1.004,7.744,2.835l-8.451,8.451
	C27.864,28.643,27.864,29.275,28.255,29.666z"/>
<g>
</g>
<g>
</g>
<g>
</g>
<g>
</g>
<g>
</g>
<g>
</g>
<g>
</g>
<g>
</g>
<g>
</g>
<g>
</g>
<g>
</g>
<g>
</g>
<g>
</g>
<g>
</g>
<g>
</g>
</svg>
