<?xml version="1.0" encoding="iso-8859-1"?>
<!-- Generator: Adobe Illustrator 19.0.0, SVG Export Plug-In . SVG Version: 6.00 Build 0)  -->
<svg version="1.1" id="Capa_1" xmlns="http://www.w3.org/2000/svg" xmlns:xlink="http://www.w3.org/1999/xlink" x="0px" y="0px"
	 viewBox="0 0 60 60" style="enable-background:new 0 0 60 60;" xml:space="preserve">
<path d="M56,4.5H33c-1.2,0-2.266,0.542-3,1.382C29.266,5.042,28.2,4.5,27,4.5H4c-2.206,0-4,1.794-4,4v39c0,2.206,1.794,4,4,4h22
	c1.157,0,3,1.373,3,3c0,0.553,0.448,1,1,1s1-0.447,1-1c0-1.627,1.843-3,3-3h22c2.206,0,4-1.794,4-4v-39C60,6.294,58.206,4.5,56,4.5z
	 M29,50.659c-0.908-0.724-2-1.159-3-1.159H4c-1.103,0-2-0.897-2-2v-39c0-1.103,0.897-2,2-2h23c1.103,0,2,0.897,2,2V50.659z M58,47.5
	c0,1.103-0.897,2-2,2H34c-1,0-2.092,0.436-3,1.159V8.5c0-1.103,0.897-2,2-2h23c1.103,0,2,0.897,2,2V47.5z"/>
<g>
</g>
<g>
</g>
<g>
</g>
<g>
</g>
<g>
</g>
<g>
</g>
<g>
</g>
<g>
</g>
<g>
</g>
<g>
</g>
<g>
</g>
<g>
</g>
<g>
</g>
<g>
</g>
<g>
</g>
</svg>
