<?xml version="1.0" encoding="iso-8859-1"?>
<!-- Generator: Adobe Illustrator 19.0.0, SVG Export Plug-In . SVG Version: 6.00 Build 0)  -->
<svg version="1.1" id="Capa_1" xmlns="http://www.w3.org/2000/svg" xmlns:xlink="http://www.w3.org/1999/xlink" x="0px" y="0px"
	 viewBox="0 0 60 60" style="enable-background:new 0 0 60 60;" xml:space="preserve">
<path d="M47,17c-7.168,0-13,5.832-13,13c0,4.634,2.444,8.698,6.104,11H19.896C23.556,38.698,26,34.634,26,30c0-7.168-5.832-13-13-13
	S0,22.832,0,30s5.832,13,13,13h34c7.168,0,13-5.832,13-13S54.168,17,47,17z M2,30c0-6.065,4.935-11,11-11s11,4.935,11,11
	s-4.935,11-11,11S2,36.065,2,30z M47,41c-6.065,0-11-4.935-11-11s4.935-11,11-11s11,4.935,11,11S53.065,41,47,41z"/>
<g>
</g>
<g>
</g>
<g>
</g>
<g>
</g>
<g>
</g>
<g>
</g>
<g>
</g>
<g>
</g>
<g>
</g>
<g>
</g>
<g>
</g>
<g>
</g>
<g>
</g>
<g>
</g>
<g>
</g>
</svg>
