<?xml version="1.0" encoding="iso-8859-1"?>
<!-- Generator: Adobe Illustrator 19.0.0, SVG Export Plug-In . SVG Version: 6.00 Build 0)  -->
<svg version="1.1" id="Capa_1" xmlns="http://www.w3.org/2000/svg" xmlns:xlink="http://www.w3.org/1999/xlink" x="0px" y="0px"
	 viewBox="0 0 60 60" style="enable-background:new 0 0 60 60;" xml:space="preserve">
<g>
	<path d="M34.925,20l-8.513,6.191c-0.447,0.324-0.546,0.95-0.221,1.396c0.195,0.27,0.5,0.412,0.81,0.412
		c0.204,0,0.409-0.063,0.587-0.191L39.7,19l-12.112-8.809c-0.448-0.325-1.073-0.227-1.396,0.221
		c-0.325,0.446-0.227,1.072,0.221,1.396L34.925,18H23c-7.168,0-13,5.832-13,13c0,0.553,0.447,1,1,1s1-0.447,1-1
		c0-6.065,4.935-11,11-11H34.925z"/>
	<path d="M30,0C13.458,0,0,13.458,0,30s13.458,30,30,30s30-13.458,30-30S46.542,0,30,0z M30,58C14.561,58,2,45.439,2,30
		S14.561,2,30,2s28,12.561,28,28S45.439,58,30,58z"/>
	<path d="M48,28c-0.553,0-1,0.447-1,1c0,6.065-4.935,11-11,11H24.075l8.513-6.191c0.447-0.324,0.546-0.95,0.221-1.396
		c-0.324-0.447-0.949-0.546-1.396-0.221L19.3,41l12.112,8.809C31.59,49.938,31.795,50,31.999,50c0.31,0,0.614-0.143,0.81-0.412
		c0.325-0.446,0.227-1.072-0.221-1.396L24.075,42H36c7.168,0,13-5.832,13-13C49,28.447,48.553,28,48,28z"/>
</g>
<g>
</g>
<g>
</g>
<g>
</g>
<g>
</g>
<g>
</g>
<g>
</g>
<g>
</g>
<g>
</g>
<g>
</g>
<g>
</g>
<g>
</g>
<g>
</g>
<g>
</g>
<g>
</g>
<g>
</g>
</svg>
