<?xml version="1.0" encoding="iso-8859-1"?>
<!-- Generator: Adobe Illustrator 19.0.0, SVG Export Plug-In . SVG Version: 6.00 Build 0)  -->
<svg version="1.1" id="Capa_1" xmlns="http://www.w3.org/2000/svg" xmlns:xlink="http://www.w3.org/1999/xlink" x="0px" y="0px"
	 viewBox="0 0 60 60" style="enable-background:new 0 0 60 60;" xml:space="preserve">
<g>
	<path d="M49.467,14.116c-0.326-0.174-0.724-0.15-1.03,0.058L28,28.108V15c0-0.371-0.205-0.711-0.533-0.884
		c-0.326-0.174-0.723-0.15-1.03,0.058l-22,15C4.163,29.36,4,29.669,4,30s0.163,0.64,0.437,0.826l22,15
		C26.605,45.941,26.803,46,27,46c0.16,0,0.32-0.038,0.467-0.116C27.795,45.711,28,45.371,28,45V31.892l20.437,13.934
		C48.605,45.941,48.803,46,49,46c0.16,0,0.32-0.038,0.467-0.116C49.795,45.711,50,45.371,50,45V15
		C50,14.629,49.795,14.289,49.467,14.116z M26,43.107L6.775,30L26,16.893V43.107z M48,43.107L28.775,30L48,16.893V43.107z"/>
	<path d="M30,0C13.458,0,0,13.458,0,30s13.458,30,30,30s30-13.458,30-30S46.542,0,30,0z M30,58C14.561,58,2,45.439,2,30
		S14.561,2,30,2s28,12.561,28,28S45.439,58,30,58z"/>
</g>
<g>
</g>
<g>
</g>
<g>
</g>
<g>
</g>
<g>
</g>
<g>
</g>
<g>
</g>
<g>
</g>
<g>
</g>
<g>
</g>
<g>
</g>
<g>
</g>
<g>
</g>
<g>
</g>
<g>
</g>
</svg>
