<?xml version="1.0" encoding="iso-8859-1"?>
<!-- Generator: Adobe Illustrator 19.0.0, SVG Export Plug-In . SVG Version: 6.00 Build 0)  -->
<svg version="1.1" id="Capa_1" xmlns="http://www.w3.org/2000/svg" xmlns:xlink="http://www.w3.org/1999/xlink" x="0px" y="0px"
	 viewBox="0 0 58.424 58.424" style="enable-background:new 0 0 58.424 58.424;" xml:space="preserve">
<path d="M57.417,14.489L43.007,0v8.652c-3.875,0.031-6.701,0.909-8.557,1.771H1.007v48h48V22.945L57.417,14.489z M43.232,10.651
	c0.243,0,0.492,0.004,0.744,0.012l1.03,0.03V4.848l9.59,9.642l-5.59,5.619v0l-0.948,0.953l-3.052,3.069v-5.602v-0.001l-0.765-0.185
	c-0.119-0.029-2.943-0.69-6.714,0.24c-1.151,0.285-2.47,0.747-3.861,1.478c-1.316,0.691-2.697,1.625-4.066,2.889
	c-0.906,0.836-1.808,1.813-2.68,2.961c0.115-2.535,0.85-6.373,3.761-9.92c0.671-0.818,1.458-1.62,2.38-2.387
	c0.001-0.001,0.041-0.036,0.108-0.09c0.01-0.008,0.019-0.016,0.031-0.025c0.027-0.021,0.063-0.049,0.098-0.075
	c0.027-0.021,0.054-0.041,0.086-0.064c0.031-0.023,0.069-0.05,0.105-0.075c0.052-0.037,0.106-0.075,0.167-0.116
	c0.028-0.019,0.059-0.039,0.09-0.06c0.086-0.057,0.18-0.116,0.283-0.179c0.014-0.009,0.029-0.017,0.043-0.026
	C35.517,12.021,38.531,10.651,43.232,10.651z M47.007,24.956v31.468h-44v-44h28.358c-0.069,0.06-0.131,0.121-0.198,0.181
	c-0.119,0.107-0.236,0.213-0.35,0.321c-0.125,0.117-0.247,0.235-0.367,0.353c-0.11,0.108-0.218,0.217-0.323,0.326
	c-0.116,0.12-0.229,0.24-0.34,0.36c-0.1,0.109-0.199,0.218-0.296,0.327c-0.107,0.122-0.211,0.244-0.314,0.367
	c-0.092,0.11-0.183,0.22-0.271,0.33c-0.098,0.123-0.193,0.247-0.287,0.37c-0.084,0.111-0.167,0.221-0.247,0.333
	c-0.09,0.124-0.176,0.248-0.261,0.372c-0.076,0.111-0.152,0.223-0.225,0.334c-0.082,0.125-0.16,0.25-0.238,0.375
	c-0.068,0.11-0.136,0.22-0.202,0.331c-0.075,0.127-0.146,0.253-0.217,0.38c-0.061,0.109-0.121,0.218-0.179,0.327
	c-0.068,0.127-0.132,0.254-0.196,0.381c-0.054,0.107-0.108,0.215-0.159,0.322c-0.061,0.128-0.119,0.256-0.176,0.383
	c-0.047,0.106-0.095,0.211-0.14,0.317c-0.054,0.127-0.105,0.254-0.156,0.38c-0.042,0.104-0.084,0.209-0.123,0.313
	c-0.048,0.127-0.093,0.253-0.137,0.379c-0.036,0.101-0.072,0.202-0.105,0.303c-0.042,0.127-0.081,0.252-0.12,0.378
	c-0.031,0.099-0.062,0.198-0.09,0.296c-0.036,0.125-0.07,0.248-0.103,0.371c-0.026,0.096-0.052,0.192-0.076,0.288
	c-0.031,0.125-0.06,0.247-0.088,0.37c-0.021,0.091-0.043,0.182-0.062,0.272c-0.027,0.124-0.05,0.245-0.074,0.367
	c-0.017,0.087-0.035,0.174-0.05,0.26c-0.022,0.122-0.041,0.242-0.061,0.362c-0.013,0.082-0.027,0.164-0.039,0.245
	c-0.018,0.12-0.033,0.237-0.048,0.354c-0.01,0.078-0.021,0.156-0.03,0.233c-0.014,0.117-0.025,0.231-0.036,0.345
	c-0.007,0.072-0.015,0.145-0.021,0.216c-0.01,0.114-0.017,0.224-0.025,0.335c-0.005,0.068-0.01,0.136-0.014,0.202
	c-0.006,0.11-0.011,0.216-0.015,0.323c-0.002,0.062-0.006,0.125-0.008,0.186c-0.003,0.107-0.005,0.21-0.006,0.313
	c-0.001,0.055-0.002,0.111-0.003,0.165c-0.001,0.104,0,0.204,0.001,0.303c0,0.048,0,0.098,0.001,0.144
	c0.002,0.096,0.005,0.187,0.008,0.278c0.001,0.045,0.002,0.093,0.004,0.137c0.004,0.09,0.009,0.175,0.013,0.259
	c0.002,0.039,0.004,0.08,0.006,0.117c0.005,0.085,0.011,0.163,0.018,0.241c0.002,0.032,0.005,0.067,0.007,0.097
	c0.007,0.08,0.014,0.154,0.021,0.226c0.002,0.023,0.004,0.049,0.007,0.072c0.008,0.073,0.015,0.139,0.023,0.203
	c0.002,0.017,0.004,0.037,0.006,0.053c0.009,0.071,0.017,0.134,0.025,0.192c0.001,0.006,0.002,0.013,0.002,0.019
	c0.017,0.117,0.031,0.204,0.042,0.264c0.001,0.005,0.002,0.013,0.003,0.018c0.005,0.03,0.009,0.051,0.012,0.063l0.5,2.573
	l1.341-2.252c4.445-7.467,10.111-9.137,13.61-9.374c1.045-0.07,1.899-0.014,2.467,0.055v8.817v0.001L47.007,24.956z"/>
<g>
</g>
<g>
</g>
<g>
</g>
<g>
</g>
<g>
</g>
<g>
</g>
<g>
</g>
<g>
</g>
<g>
</g>
<g>
</g>
<g>
</g>
<g>
</g>
<g>
</g>
<g>
</g>
<g>
</g>
</svg>
