<?xml version="1.0" encoding="iso-8859-1"?>
<!-- Generator: Adobe Illustrator 19.0.0, SVG Export Plug-In . SVG Version: 6.00 Build 0)  -->
<svg version="1.1" id="Capa_1" xmlns="http://www.w3.org/2000/svg" xmlns:xlink="http://www.w3.org/1999/xlink" x="0px" y="0px"
	 viewBox="0 0 60 60" style="enable-background:new 0 0 60 60;" xml:space="preserve">
<g>
	<path d="M10.5,16c2.481,0,4.5-2.019,4.5-4.5S12.981,7,10.5,7S6,9.019,6,11.5S8.019,16,10.5,16z M10.5,9c1.378,0,2.5,1.121,2.5,2.5
		S11.878,14,10.5,14S8,12.879,8,11.5S9.122,9,10.5,9z"/>
	<circle cx="50" cy="10" r="1"/>
	<circle cx="46" cy="10" r="1"/>
	<circle cx="52" cy="13" r="1"/>
	<circle cx="48" cy="13" r="1"/>
	<circle cx="42" cy="10" r="1"/>
	<circle cx="44" cy="13" r="1"/>
	<circle cx="38" cy="10" r="1"/>
	<circle cx="40" cy="13" r="1"/>
	<circle cx="34" cy="10" r="1"/>
	<circle cx="36" cy="13" r="1"/>
	<path d="M16.902,3h1.026c0.552,0,1-0.447,1-1s-0.448-1-1-1h-1.026c-0.552,0-1,0.447-1,1S16.35,3,16.902,3z"/>
	<path d="M8.692,3h1.026c0.552,0,1-0.447,1-1s-0.448-1-1-1H8.692c-0.552,0-1,0.447-1,1S8.14,3,8.692,3z"/>
	<path d="M13.823,20h-0.505h-0.521c-0.552,0-1,0.447-1,1s0.448,1,1,1h0.521h0.505h0.521c0.552,0,1-0.447,1-1s-0.448-1-1-1H13.823z"
		/>
	<path d="M12.797,3h1.026c0.552,0,1-0.447,1-1s-0.448-1-1-1h-1.026c-0.552,0-1,0.447-1,1S12.245,3,12.797,3z"/>
	<path d="M21.007,3h1.026c0.552,0,1-0.447,1-1s-0.448-1-1-1h-1.026c-0.552,0-1,0.447-1,1S20.455,3,21.007,3z"/>
	<path d="M41.53,3h1.026c0.552,0,1-0.447,1-1s-0.448-1-1-1H41.53c-0.552,0-1,0.447-1,1S40.978,3,41.53,3z"/>
	<path d="M37.426,3h1.026c0.552,0,1-0.447,1-1s-0.448-1-1-1h-1.026c-0.552,0-1,0.447-1,1S36.874,3,37.426,3z"/>
	<path d="M49.74,3h1.026c0.552,0,1-0.447,1-1s-0.448-1-1-1H49.74c-0.552,0-1,0.447-1,1S49.188,3,49.74,3z"/>
	<path d="M53.845,3h1.026c0.552,0,1-0.447,1-1s-0.448-1-1-1h-1.026c-0.552,0-1,0.447-1,1S53.292,3,53.845,3z"/>
	<path d="M33.321,3h1.026c0.552,0,1-0.447,1-1s-0.448-1-1-1h-1.026c-0.552,0-1,0.447-1,1S32.769,3,33.321,3z"/>
	<path d="M25.111,3h1.026c0.552,0,1-0.447,1-1s-0.448-1-1-1h-1.026c-0.552,0-1,0.447-1,1S24.559,3,25.111,3z"/>
	<path d="M29.216,3h1.026c0.552,0,1-0.447,1-1s-0.448-1-1-1h-1.026c-0.552,0-1,0.447-1,1S28.664,3,29.216,3z"/>
	<path d="M45.635,3h1.026c0.552,0,1-0.447,1-1s-0.448-1-1-1h-1.026c-0.552,0-1,0.447-1,1S45.083,3,45.635,3z"/>
	<path d="M4.608,3h1.005c0.552,0,1-0.447,1-1s-0.448-1-1-1H4.587c-0.552,0-0.99,0.447-0.99,1S4.056,3,4.608,3z"/>
	<path d="M57.489,20.497c0.188,0.16,0.418,0.238,0.647,0.238c0.283,0,0.565-0.12,0.763-0.353c0.284-0.334,0.519-0.705,0.697-1.102
		c0.227-0.503,0.002-1.095-0.501-1.322c-0.504-0.226-1.096-0.003-1.322,0.502c-0.102,0.225-0.235,0.436-0.398,0.627
		C57.017,19.509,57.068,20.14,57.489,20.497z"/>
	<path d="M1,9.169c0.552,0,1-0.447,1-1V7.143c0-0.553-0.448-1-1-1s-1,0.447-1,1v1.026C0,8.722,0.448,9.169,1,9.169z"/>
	<path d="M1,13.273c0.552,0,1-0.447,1-1v-1.026c0-0.553-0.448-1-1-1s-1,0.447-1,1v1.026C0,12.826,0.448,13.273,1,13.273z"/>
	<path d="M22.553,20h-0.521h-0.505h-0.521c-0.552,0-1,0.447-1,1s0.448,1,1,1h0.521h0.505h0.521c0.552,0,1-0.447,1-1
		S23.105,20,22.553,20z"/>
	<path d="M54.871,20h-0.506h-0.521c-0.552,0-1,0.447-1,1s0.448,1,1,1h1.026c0.001,0,0.002,0,0.002,0l0.555,0l0.001-0.191
		c0.002-0.001,0.003-0.002,0.005-0.003v0.194c0.552,0,0.979-0.447,0.979-1c0-0.552-0.468-0.999-1.021-0.999H54.871z"/>
	<path d="M1,17.378c0.552,0,1-0.447,1-1v-1.025c0-0.553-0.448-1-1-1s-1,0.447-1,1v1.025C0,16.931,0.448,17.378,1,17.378z"/>
	<path d="M59,9.706c-0.552,0-1,0.447-1,1v1.025c0,0.553,0.448,1,1,1s1-0.447,1-1v-1.025C60,10.153,59.552,9.706,59,9.706z"/>
	<path d="M57.579,4.186c0.192,0.293,0.511,0.452,0.837,0.452c0.188,0,0.378-0.053,0.547-0.163c0.462-0.303,0.591-0.923,0.289-1.385
		c-0.239-0.365-0.528-0.694-0.86-0.979c-0.418-0.36-1.05-0.312-1.41,0.107s-0.312,1.05,0.107,1.41
		C57.277,3.79,57.442,3.978,57.579,4.186z"/>
	<path d="M59,13.811c-0.552,0-1,0.447-1,1v1.026c0,0.553,0.448,1,1,1s1-0.447,1-1v-1.026C60,14.258,59.552,13.811,59,13.811z"/>
	<path d="M0.909,5.021c0.134,0.061,0.275,0.09,0.415,0.09c0.379,0,0.742-0.217,0.91-0.585c0.103-0.225,0.237-0.434,0.399-0.621
		c0.361-0.417,0.316-1.049-0.102-1.41C2.114,2.132,1.482,2.179,1.121,2.596c-0.287,0.331-0.524,0.701-0.706,1.1
		C0.185,4.197,0.407,4.791,0.909,5.021z"/>
	<path d="M1.033,18.504c-0.464,0.299-0.599,0.918-0.3,1.382c0.237,0.368,0.525,0.7,0.856,0.987c0.189,0.164,0.422,0.244,0.654,0.244
		c0.28,0,0.559-0.117,0.756-0.346c0.362-0.417,0.316-1.049-0.101-1.41c-0.188-0.162-0.351-0.351-0.484-0.558
		C2.117,18.34,1.496,18.205,1.033,18.504z"/>
	<path d="M59,5.601c-0.552,0-1,0.447-1,1v1.026c0,0.553,0.448,1,1,1s1-0.447,1-1V6.601C60,6.048,59.552,5.601,59,5.601z"/>
	<path d="M15,30.5c0-2.481-2.019-4.5-4.5-4.5S6,28.019,6,30.5S8.019,35,10.5,35S15,32.981,15,30.5z M10.5,33
		C9.122,33,8,31.879,8,30.5S9.122,28,10.5,28s2.5,1.121,2.5,2.5S11.878,33,10.5,33z"/>
	<circle cx="50" cy="29" r="1"/>
	<circle cx="46" cy="29" r="1"/>
	<circle cx="52" cy="32" r="1"/>
	<circle cx="48" cy="32" r="1"/>
	<circle cx="42" cy="29" r="1"/>
	<circle cx="44" cy="32" r="1"/>
	<circle cx="38" cy="29" r="1"/>
	<circle cx="40" cy="32" r="1"/>
	<circle cx="34" cy="29" r="1"/>
	<circle cx="36" cy="32" r="1"/>
	<path d="M46.156,41h1.026c0.552,0,1-0.447,1-1s-0.448-1-1-1h-1.026c-0.552,0-1,0.447-1,1S45.604,41,46.156,41z"/>
	<path d="M42.051,41h1.026c0.552,0,1-0.447,1-1s-0.448-1-1-1h-1.026c-0.552,0-1,0.447-1,1S41.499,41,42.051,41z"/>
	<path d="M46.156,22h0.506h0.521c0.552,0,1-0.447,1-1s-0.448-1-1-1h-0.521h-0.506h-0.521c-0.552,0-1,0.447-1,1s0.448,1,1,1H46.156z"
		/>
	<path d="M57.579,23.186c0.192,0.293,0.511,0.452,0.837,0.452c0.188,0,0.378-0.053,0.547-0.163c0.462-0.303,0.591-0.923,0.289-1.385
		c-0.239-0.365-0.528-0.694-0.86-0.979c-0.418-0.359-1.05-0.311-1.41,0.107c-0.36,0.419-0.312,1.05,0.107,1.41
		C57.277,22.79,57.442,22.978,57.579,23.186z"/>
	<path d="M49.74,22h0.521h0.505h0.521c0.552,0,1-0.447,1-1s-0.448-1-1-1h-0.521h-0.505H49.74c-0.552,0-1,0.447-1,1
		S49.188,22,49.74,22z"/>
	<path d="M36.426,21c0,0.553,0.448,1,1,1h0.521h0.506h0.521c0.552,0,1-0.447,1-1s-0.448-1-1-1h-0.521h-0.506h-0.521
		C36.874,20,36.426,20.447,36.426,21z"/>
	<path d="M50.261,41h1.026c0.552,0,1-0.447,1-1s-0.448-1-1-1h-1.026c-0.552,0-1,0.447-1,1S49.708,41,50.261,41z"/>
	<path d="M56.412,39.999c0-0.552-0.468-0.999-1.021-0.999h-1.026c-0.552,0-1,0.447-1,1s0.448,1,1,1l1.062-0.001l0.006-1v1
		C55.985,40.999,56.412,40.552,56.412,39.999z"/>
	<path d="M57.489,39.497c0.188,0.16,0.418,0.238,0.647,0.238c0.283,0,0.565-0.12,0.763-0.353c0.284-0.334,0.519-0.705,0.697-1.102
		c0.227-0.503,0.002-1.095-0.501-1.322c-0.504-0.226-1.096-0.003-1.322,0.502c-0.102,0.225-0.235,0.436-0.398,0.627
		C57.017,38.509,57.068,39.14,57.489,39.497z"/>
	<path d="M42.051,22h0.505h0.521c0.552,0,1-0.447,1-1s-0.448-1-1-1h-0.521h-0.505H41.53c-0.552,0-1,0.447-1,1s0.448,1,1,1H42.051z"
		/>
	<path d="M37.946,41h1.026c0.552,0,1-0.447,1-1s-0.448-1-1-1h-1.026c-0.552,0-1,0.447-1,1S37.394,41,37.946,41z"/>
	<path d="M1,28.169c0.552,0,1-0.447,1-1v-1.026c0-0.553-0.448-1-1-1s-1,0.447-1,1v1.026C0,27.722,0.448,28.169,1,28.169z"/>
	<path d="M1,36.378c0.552,0,1-0.447,1-1v-1.025c0-0.553-0.448-1-1-1s-1,0.447-1,1v1.025C0,35.931,0.448,36.378,1,36.378z"/>
	<path d="M59,32.811c-0.552,0-1,0.447-1,1v1.026c0,0.553,0.448,1,1,1s1-0.447,1-1v-1.026C60,33.258,59.552,32.811,59,32.811z"/>
	<path d="M2.633,22.904c0.361-0.417,0.316-1.049-0.102-1.41c-0.417-0.362-1.049-0.315-1.411,0.102
		c-0.287,0.331-0.524,0.701-0.706,1.1c-0.229,0.502-0.008,1.096,0.495,1.325c0.134,0.061,0.275,0.09,0.415,0.09
		c0.379,0,0.742-0.217,0.91-0.585C2.336,23.301,2.471,23.092,2.633,22.904z"/>
	<path d="M1.033,37.504c-0.464,0.299-0.599,0.918-0.3,1.382c0.237,0.368,0.525,0.7,0.856,0.987c0.189,0.164,0.422,0.244,0.654,0.244
		c0.28,0,0.559-0.117,0.756-0.346c0.362-0.417,0.316-1.049-0.101-1.41c-0.188-0.162-0.351-0.351-0.484-0.558
		C2.117,37.34,1.496,37.205,1.033,37.504z"/>
	<path d="M33.321,22h0.521h0.505h0.521c0.552,0,1-0.447,1-1s-0.448-1-1-1h-0.521h-0.505h-0.521c-0.552,0-1,0.447-1,1
		S32.769,22,33.321,22z"/>
	<path d="M59,28.706c-0.552,0-1,0.447-1,1v1.025c0,0.553,0.448,1,1,1s1-0.447,1-1v-1.025C60,29.153,59.552,28.706,59,28.706z"/>
	<path d="M59,24.601c-0.552,0-1,0.447-1,1v1.026c0,0.553,0.448,1,1,1s1-0.447,1-1v-1.026C60,25.048,59.552,24.601,59,24.601z"/>
	<path d="M22.553,39h-1.026c-0.552,0-1,0.447-1,1s0.448,1,1,1h1.026c0.552,0,1-0.447,1-1S23.105,39,22.553,39z"/>
	<path d="M4.608,22h0.5h0.506h0.521c0.552,0,1-0.447,1-1s-0.448-1-1-1H5.614H5.108H4.587c-0.552,0-0.99,0.447-0.99,1
		S4.056,22,4.608,22z"/>
	<path d="M1,32.273c0.552,0,1-0.447,1-1v-1.026c0-0.553-0.448-1-1-1s-1,0.447-1,1v1.026C0,31.826,0.448,32.273,1,32.273z"/>
	<path d="M13.318,41h1.026c0.552,0,1-0.447,1-1s-0.448-1-1-1h-1.026c-0.552,0-1,0.447-1,1S12.766,41,13.318,41z"/>
	<path d="M16.902,22h0.521h0.506h0.521c0.552,0,1-0.447,1-1s-0.448-1-1-1h-0.521h-0.506h-0.521c-0.552,0-1,0.447-1,1
		S16.35,22,16.902,22z"/>
	<path d="M25.111,22h0.521h0.506h0.521c0.552,0,1-0.447,1-1s-0.448-1-1-1h-0.521h-0.506h-0.521c-0.552,0-1,0.447-1,1
		S24.559,22,25.111,22z"/>
	<path d="M29.216,22h0.521h0.505h0.521c0.552,0,1-0.447,1-1s-0.448-1-1-1h-0.521h-0.505h-0.521c-0.552,0-1,0.447-1,1
		S28.664,22,29.216,22z"/>
	<path d="M32.842,40c0,0.553,0.448,1,1,1h1.026c0.552,0,1-0.447,1-1s-0.448-1-1-1h-1.026C33.29,39,32.842,39.447,32.842,40z"/>
	<path d="M26.658,39h-1.026c-0.552,0-1,0.447-1,1s0.448,1,1,1h1.026c0.552,0,1-0.447,1-1S27.21,39,26.658,39z"/>
	<path d="M9.213,22h0.506h0.521c0.552,0,1-0.447,1-1s-0.448-1-1-1H9.719H9.213H8.692c-0.552,0-1,0.447-1,1s0.448,1,1,1H9.213z"/>
	<path d="M18.449,39h-1.026c-0.552,0-1,0.447-1,1s0.448,1,1,1h1.026c0.552,0,1-0.447,1-1S19.001,39,18.449,39z"/>
	<path d="M5.108,39c-0.552,0-1,0.447-1,1s0.448,1,1,1h1.026c0.552,0,1-0.447,1-1s-0.448-1-1-1H5.108z"/>
	<path d="M9.213,39c-0.552,0-1,0.447-1,1s0.448,1,1,1h1.026c0.552,0,1-0.447,1-1s-0.448-1-1-1H9.213z"/>
	<path d="M22,53H1c-0.552,0-1,0.447-1,1s0.448,1,1,1h21c0.552,0,1-0.447,1-1S22.552,53,22,53z"/>
	<path d="M59,53H38c-0.552,0-1,0.447-1,1s0.448,1,1,1h21c0.552,0,1-0.447,1-1S59.552,53,59,53z"/>
	<path d="M30.414,41h0.349c0.552,0,1-0.447,1-1s-0.448-1-1-1h-1.026c-0.485,0-0.871,0.352-0.962,0.811l-4.982,4.982l1.414,1.414
		L30.414,41z"/>
	<path d="M34.793,43.793l-5.254,5.254C27.001,49.283,25,51.401,25,54c0,2.757,2.243,5,5,5s5-2.243,5-5
		c0-2.048-1.24-3.807-3.006-4.58l4.213-4.213L34.793,43.793z M33,54c0,1.654-1.346,3-3,3s-3-1.346-3-3s1.346-3,3-3S33,52.346,33,54z
		"/>
</g>
<g>
</g>
<g>
</g>
<g>
</g>
<g>
</g>
<g>
</g>
<g>
</g>
<g>
</g>
<g>
</g>
<g>
</g>
<g>
</g>
<g>
</g>
<g>
</g>
<g>
</g>
<g>
</g>
<g>
</g>
</svg>
