<?xml version="1.0" encoding="iso-8859-1"?>
<!-- Generator: Adobe Illustrator 19.0.0, SVG Export Plug-In . SVG Version: 6.00 Build 0)  -->
<svg version="1.1" id="Capa_1" xmlns="http://www.w3.org/2000/svg" xmlns:xlink="http://www.w3.org/1999/xlink" x="0px" y="0px"
	 viewBox="0 0 60 60" style="enable-background:new 0 0 60 60;" xml:space="preserve">
<g>
	<path d="M10.5,6.5C8.019,6.5,6,8.519,6,11s2.019,4.5,4.5,4.5S15,13.481,15,11S12.981,6.5,10.5,6.5z M10.5,13.5
		C9.122,13.5,8,12.379,8,11s1.122-2.5,2.5-2.5S13,9.621,13,11S11.878,13.5,10.5,13.5z"/>
	<circle cx="50" cy="9.5" r="1"/>
	<circle cx="46" cy="9.5" r="1"/>
	<circle cx="52" cy="12.5" r="1"/>
	<circle cx="48" cy="12.5" r="1"/>
	<circle cx="42" cy="9.5" r="1"/>
	<circle cx="44" cy="12.5" r="1"/>
	<circle cx="38" cy="9.5" r="1"/>
	<circle cx="40" cy="12.5" r="1"/>
	<circle cx="34" cy="9.5" r="1"/>
	<circle cx="36" cy="12.5" r="1"/>
	<path d="M60,16.892V5.108C60,2.567,57.933,0.5,55.392,0.5H4.608C2.067,0.5,0,2.567,0,5.108v11.783c0,1.469,0.703,2.764,1.777,3.608
		C0.703,21.344,0,22.64,0,24.108v11.783c0,1.469,0.703,2.764,1.777,3.608C0.703,40.344,0,41.64,0,43.108v11.783
		C0,57.433,2.067,59.5,4.608,59.5h50.783c2.541,0,4.608-2.067,4.608-4.608V43.108c0-1.469-0.703-2.764-1.777-3.608
		C59.297,38.656,60,37.36,60,35.892V24.108c0-1.469-0.703-2.764-1.777-3.608C59.297,19.656,60,18.36,60,16.892z M58,43.108v11.783
		c0,1.438-1.17,2.608-2.608,2.608H4.608C3.17,57.5,2,56.33,2,54.892V43.108C2,41.67,3.17,40.5,4.608,40.5h50.783
		C56.83,40.5,58,41.67,58,43.108z M58,24.108v11.783c0,1.438-1.17,2.608-2.608,2.608H4.608C3.17,38.5,2,37.33,2,35.892V24.108
		C2,22.67,3.17,21.5,4.608,21.5h50.783C56.83,21.5,58,22.67,58,24.108z M4.608,19.5C3.17,19.5,2,18.33,2,16.892V5.108
		C2,3.67,3.17,2.5,4.608,2.5h50.783C56.83,2.5,58,3.67,58,5.108v11.783c0,1.438-1.17,2.608-2.608,2.608H4.608z"/>
	<path d="M10.5,34.5c2.481,0,4.5-2.019,4.5-4.5s-2.019-4.5-4.5-4.5S6,27.519,6,30S8.019,34.5,10.5,34.5z M10.5,27.5
		c1.378,0,2.5,1.121,2.5,2.5s-1.122,2.5-2.5,2.5S8,31.379,8,30S9.122,27.5,10.5,27.5z"/>
	<circle cx="50" cy="28.5" r="1"/>
	<circle cx="46" cy="28.5" r="1"/>
	<circle cx="52" cy="31.5" r="1"/>
	<circle cx="48" cy="31.5" r="1"/>
	<circle cx="42" cy="28.5" r="1"/>
	<circle cx="44" cy="31.5" r="1"/>
	<circle cx="38" cy="28.5" r="1"/>
	<circle cx="40" cy="31.5" r="1"/>
	<circle cx="34" cy="28.5" r="1"/>
	<circle cx="36" cy="31.5" r="1"/>
	<path d="M10.5,53.5c2.481,0,4.5-2.019,4.5-4.5s-2.019-4.5-4.5-4.5S6,46.519,6,49S8.019,53.5,10.5,53.5z M10.5,46.5
		c1.378,0,2.5,1.121,2.5,2.5s-1.122,2.5-2.5,2.5S8,50.379,8,49S9.122,46.5,10.5,46.5z"/>
	<circle cx="50" cy="47.5" r="1"/>
	<circle cx="46" cy="47.5" r="1"/>
	<circle cx="52" cy="50.5" r="1"/>
	<circle cx="48" cy="50.5" r="1"/>
	<circle cx="42" cy="47.5" r="1"/>
	<circle cx="44" cy="50.5" r="1"/>
	<circle cx="38" cy="47.5" r="1"/>
	<circle cx="40" cy="50.5" r="1"/>
	<circle cx="34" cy="47.5" r="1"/>
	<circle cx="36" cy="50.5" r="1"/>
</g>
<g>
</g>
<g>
</g>
<g>
</g>
<g>
</g>
<g>
</g>
<g>
</g>
<g>
</g>
<g>
</g>
<g>
</g>
<g>
</g>
<g>
</g>
<g>
</g>
<g>
</g>
<g>
</g>
<g>
</g>
</svg>
