<?xml version="1.0" encoding="iso-8859-1"?>
<!-- Generator: Adobe Illustrator 19.0.0, SVG Export Plug-In . SVG Version: 6.00 Build 0)  -->
<svg version="1.1" id="Capa_1" xmlns="http://www.w3.org/2000/svg" xmlns:xlink="http://www.w3.org/1999/xlink" x="0px" y="0px"
	 viewBox="0 0 60 60" style="enable-background:new 0 0 60 60;" xml:space="preserve">
<g>
	<path d="M59,31c0.553,0,1-0.447,1-1s-0.447-1-1-1h-3.028c-0.059-1.59-0.259-3.183-0.616-4.759l2.915-0.781
		c0.533-0.143,0.85-0.691,0.707-1.225s-0.689-0.848-1.225-0.707l-2.921,0.783c-0.467-1.508-1.077-2.991-1.837-4.432l2.62-1.513
		c0.479-0.276,0.643-0.888,0.366-1.366c-0.277-0.479-0.891-0.644-1.366-0.366l-2.62,1.513c-0.868-1.379-1.848-2.649-2.92-3.807
		l2.138-2.138c0.391-0.391,0.391-1.023,0-1.414s-1.023-0.391-1.414,0l-2.133,2.133c-1.186-1.097-2.466-2.067-3.813-2.913
		l1.514-2.622C45.643,4.907,45.479,4.296,45,4.02c-0.478-0.276-1.09-0.114-1.366,0.366l-1.516,2.626
		c-1.421-0.746-2.905-1.36-4.432-1.832l0.786-2.933c0.143-0.533-0.174-1.082-0.707-1.225c-0.53-0.141-1.082,0.174-1.225,0.707
		l-0.786,2.933C34.196,4.308,32.604,4.098,31,4.034V1c0-0.553-0.447-1-1-1s-1,0.447-1,1v3.029c-1.59,0.059-3.183,0.259-4.759,0.616
		L23.46,1.729c-0.142-0.534-0.689-0.849-1.225-0.707c-0.533,0.143-0.85,0.691-0.707,1.225l0.783,2.922
		c-1.508,0.467-2.991,1.076-4.432,1.837l-1.513-2.62C16.089,3.905,15.476,3.743,15,4.02c-0.479,0.276-0.643,0.888-0.366,1.366
		l1.513,2.62c-1.379,0.868-2.649,1.848-3.807,2.92l-2.138-2.138c-0.391-0.391-1.023-0.391-1.414,0s-0.391,1.023,0,1.414l2.133,2.133
		c-1.097,1.186-2.067,2.466-2.913,3.813l-2.622-1.514C4.908,14.356,4.296,14.521,4.02,15c-0.276,0.479-0.112,1.09,0.366,1.366
		l2.626,1.516c-0.746,1.421-1.36,2.905-1.832,4.432l-2.932-0.786c-0.531-0.14-1.082,0.174-1.225,0.707s0.174,1.082,0.707,1.225
		l2.932,0.786C4.307,25.804,4.097,27.396,4.033,29H1c-0.553,0-1,0.447-1,1s0.447,1,1,1h3.028c0.059,1.59,0.259,3.183,0.616,4.759
		L1.729,36.54c-0.533,0.143-0.85,0.691-0.707,1.225c0.119,0.447,0.523,0.741,0.965,0.741c0.086,0,0.173-0.011,0.26-0.034
		l2.921-0.783c0.467,1.508,1.077,2.991,1.837,4.432l-2.62,1.513C3.907,43.91,3.743,44.521,4.02,45c0.186,0.321,0.521,0.5,0.867,0.5
		c0.17,0,0.342-0.043,0.499-0.134l2.627-1.517c0.868,1.379,1.844,2.651,2.915,3.809l-2.141,2.141c-0.391,0.391-0.391,1.023,0,1.414
		c0.195,0.195,0.451,0.293,0.707,0.293s0.512-0.098,0.707-0.293l2.143-2.143c1.186,1.096,2.459,2.072,3.806,2.917l-1.517,2.627
		c-0.276,0.479-0.112,1.09,0.366,1.366c0.157,0.091,0.329,0.134,0.499,0.134c0.346,0,0.682-0.179,0.867-0.5l1.52-2.632
		c1.421,0.746,2.903,1.359,4.43,1.832l-0.788,2.939c-0.143,0.533,0.174,1.082,0.707,1.225c0.087,0.023,0.174,0.034,0.26,0.034
		c0.441,0,0.846-0.294,0.965-0.741l0.788-2.941c1.558,0.355,3.148,0.567,4.752,0.632V59c0,0.553,0.447,1,1,1s1-0.447,1-1v-3.035
		c1.589-0.059,3.18-0.264,4.756-0.621l0.784,2.927c0.119,0.447,0.523,0.741,0.965,0.741c0.086,0,0.173-0.011,0.26-0.034
		c0.533-0.143,0.85-0.691,0.707-1.225l-0.784-2.926c1.507-0.467,2.989-1.079,4.429-1.839l1.517,2.626
		c0.186,0.321,0.521,0.5,0.867,0.5c0.17,0,0.342-0.043,0.499-0.134c0.479-0.276,0.643-0.888,0.366-1.366l-1.513-2.62
		c1.379-0.868,2.649-1.848,3.807-2.92l2.138,2.138c0.195,0.195,0.451,0.293,0.707,0.293s0.512-0.098,0.707-0.293
		c0.391-0.391,0.391-1.023,0-1.414l-2.133-2.133c1.097-1.186,2.067-2.466,2.913-3.813l2.622,1.514
		c0.157,0.091,0.329,0.134,0.499,0.134c0.346,0,0.682-0.179,0.867-0.5c0.276-0.479,0.112-1.09-0.366-1.366l-2.626-1.516
		c0.746-1.421,1.36-2.905,1.832-4.432l2.932,0.786c0.087,0.023,0.174,0.034,0.26,0.034c0.441,0,0.846-0.294,0.965-0.741
		c0.143-0.533-0.174-1.082-0.707-1.225l-2.932-0.786c0.354-1.559,0.564-3.15,0.629-4.754H59z M42,50.784
		c-11.17,6.448-25.421,2.866-32.262-7.931l11.296-6.522c2.111,2.991,5.498,4.665,8.986,4.665c1.864,0,3.753-0.474,5.479-1.471
		c1.425-0.823,2.586-1.925,3.476-3.19l11.284,6.516C48.251,46.027,45.474,48.779,42,50.784z M18,9.216
		c3.474-2.006,7.245-3.03,11-3.18V19.06c-1.54,0.138-3.074,0.593-4.499,1.415c-4.96,2.864-6.84,9.032-4.482,14.133L8.738,41.121
		C2.808,29.797,6.83,15.664,18,9.216z M34.499,37.793c-4.298,2.48-9.812,1.002-12.292-3.294c-2.48-4.297-1.003-9.811,3.294-12.292
		c4.295-2.482,9.811-1.004,12.292,3.294C40.273,29.798,38.796,35.312,34.499,37.793z M39.975,34.603
		c1.441-3.134,1.402-6.894-0.449-10.102c-1.853-3.208-5.09-5.121-8.525-5.441V6.039C38.929,6.382,46.531,10.631,50.784,18
		c4.255,7.369,4.139,16.077,0.471,23.117L39.975,34.603z"/>
	<path d="M31.553,24.205c-1.545-0.415-3.164-0.2-4.553,0.6c-1.388,0.801-2.38,2.095-2.795,3.643c-0.414,1.548-0.201,3.165,0.6,4.553
		s2.095,2.38,3.643,2.795c0.517,0.139,1.041,0.207,1.563,0.207c1.039,0,2.065-0.273,2.99-0.807c1.388-0.801,2.38-2.095,2.795-3.643
		c0.414-1.548,0.201-3.165-0.6-4.553S33.101,24.62,31.553,24.205z M33.863,31.035c-0.276,1.032-0.938,1.894-1.863,2.428
		s-2.002,0.675-3.035,0.4c-1.032-0.276-1.894-0.938-2.428-1.863c-0.534-0.926-0.677-2.003-0.4-3.035s0.938-1.894,1.863-2.428
		c0.616-0.356,1.301-0.538,1.994-0.538c0.347,0,0.696,0.046,1.041,0.138c1.032,0.276,1.894,0.938,2.428,1.863
		C33.997,28.926,34.14,30.003,33.863,31.035z"/>
</g>
<g>
</g>
<g>
</g>
<g>
</g>
<g>
</g>
<g>
</g>
<g>
</g>
<g>
</g>
<g>
</g>
<g>
</g>
<g>
</g>
<g>
</g>
<g>
</g>
<g>
</g>
<g>
</g>
<g>
</g>
</svg>
