<?xml version="1.0" encoding="iso-8859-1"?>
<!-- Generator: Adobe Illustrator 19.0.0, SVG Export Plug-In . SVG Version: 6.00 Build 0)  -->
<svg version="1.1" id="Capa_1" xmlns="http://www.w3.org/2000/svg" xmlns:xlink="http://www.w3.org/1999/xlink" x="0px" y="0px"
	 viewBox="0 0 60 60" style="enable-background:new 0 0 60 60;" xml:space="preserve">
<g>
	<path d="M57.947,40.887c0.126-0.322,0.247-0.645,0.362-0.972c0.064-0.183,0.127-0.367,0.187-0.552
		c0.145-0.439,0.279-0.884,0.404-1.332c0.02-0.071,0.045-0.14,0.064-0.211c0.002-0.008,0.001-0.016,0.003-0.024
		C59.637,35.309,60,32.697,60,30C60,13.458,46.542,0,30,0S0,13.458,0,30c0,2.845,0.407,5.595,1.15,8.205
		c0.003,0.011,0.001,0.022,0.004,0.032c0.014,0.048,0.032,0.095,0.046,0.143c0.142,0.486,0.295,0.966,0.46,1.442
		c0.035,0.1,0.067,0.202,0.102,0.301c0.189,0.525,0.389,1.045,0.606,1.557c0.114,0.27,0.24,0.532,0.361,0.798
		c0.094,0.205,0.185,0.411,0.284,0.614c0.18,0.372,0.37,0.737,0.564,1.1c0.03,0.056,0.06,0.113,0.091,0.169
		C6.66,49.867,11.302,54.3,16.99,57.029c0.007,0.003,0.015,0.007,0.022,0.011c0.362,0.173,0.728,0.338,1.098,0.497
		c0.17,0.074,0.341,0.145,0.513,0.216c0.303,0.124,0.607,0.247,0.916,0.362c0.297,0.111,0.598,0.212,0.899,0.314
		c0.188,0.063,0.37,0.135,0.559,0.195c0.01,0.003,0.02,0.002,0.03,0.004C23.861,59.518,26.875,60,30,60
		c3.262,0,6.402-0.531,9.344-1.498c0.01-0.003,0.021-0.001,0.032-0.005c0.078-0.026,0.152-0.057,0.23-0.083
		c0.42-0.143,0.836-0.294,1.248-0.454c0.177-0.069,0.354-0.137,0.53-0.209c0.325-0.134,0.646-0.276,0.965-0.421
		c6.795-3.06,12.161-8.504,15.125-15.3c0.062-0.14,0.127-0.278,0.187-0.419C57.761,41.372,57.853,41.129,57.947,40.887z
		 M4.664,41.905c-0.121-0.257-0.239-0.517-0.352-0.778c-0.124-0.288-0.243-0.579-0.358-0.872c-0.06-0.152-0.122-0.302-0.18-0.455
		c-0.181-0.487-0.352-0.979-0.507-1.479c0.166-0.127,0.33-0.242,0.496-0.357l3.152,5.46c-0.348,0.28-0.652,0.604-0.934,0.948
		c-0.397-0.661-0.766-1.34-1.109-2.035C4.802,42.193,4.732,42.049,4.664,41.905z M18.788,38.356l-4.227,4.694
		c-1.725-1.123-3.926-1.39-5.911-0.621l-3.155-5.465C9.918,34.851,15.057,35.499,18.788,38.356z M22.079,42.104
		c1.152,1.995,1.715,4.2,1.715,6.392L23.793,48.5c0,0,0.001,0.004,0.001,0.006c-0.001,1.449-0.256,2.891-0.745,4.265l-5.763-2.566
		c0.439-1.617,0.26-3.401-0.642-4.963c-0.177-0.306-0.38-0.587-0.597-0.853l4.222-4.688C20.949,40.417,21.564,41.212,22.079,42.104z
		 M20.587,56.368c-0.179-0.064-0.355-0.132-0.533-0.199c-1.776-0.677-3.464-1.531-5.047-2.539c0.585-0.457,1.076-0.999,1.462-1.6
		l5.764,2.566c-0.36,0.662-0.775,1.301-1.259,1.903C20.846,56.455,20.716,56.414,20.587,56.368z M8.741,44.588
		c2.156-1.248,4.925-0.504,6.171,1.653c1.245,2.157,0.503,4.925-1.654,6.172c-0.004,0.002-0.008,0.005-0.013,0.007
		c-0.087-0.065-0.171-0.136-0.257-0.202c-0.383-0.293-0.755-0.597-1.121-0.908c-0.193-0.164-0.386-0.328-0.574-0.497
		c-0.382-0.343-0.755-0.696-1.117-1.059c-0.218-0.219-0.429-0.445-0.64-0.671c-0.201-0.215-0.396-0.433-0.59-0.654
		c-0.32-0.365-0.629-0.738-0.93-1.118c-0.193-0.245-0.385-0.49-0.57-0.742c-0.102-0.138-0.199-0.279-0.298-0.419
		C7.539,45.503,8.082,44.968,8.741,44.588z M23.006,57.116c0.583-0.811,1.08-1.666,1.481-2.556c0.008-0.015,0.02-0.026,0.027-0.042
		c0.004-0.008,0.002-0.017,0.005-0.025c0.706-1.588,1.115-3.279,1.232-4.993H27c0.552,0,1-0.447,1-1s-0.448-1-1-1h-1.244
		c-0.127-1.883-0.616-3.754-1.479-5.51l1.079-0.623c0.479-0.276,0.642-0.888,0.366-1.366c-0.277-0.479-0.89-0.643-1.366-0.366
		l-1.089,0.629c-0.685-1.021-1.472-1.939-2.352-2.733c-0.007-0.007-0.01-0.016-0.017-0.023c-0.011-0.01-0.025-0.012-0.036-0.021
		c-0.514-0.46-1.06-0.873-1.626-1.251l0.63-1.091c0.276-0.479,0.112-1.09-0.366-1.366c-0.48-0.276-1.09-0.113-1.366,0.366
		l-0.624,1.08c-1.723-0.842-3.597-1.344-5.51-1.476V32.5c0-0.553-0.448-1-1-1s-1,0.447-1,1v1.26
		c-2.187,0.145-4.374,0.761-6.396,1.929c-0.3,0.173-0.595,0.369-0.889,0.571C2.252,34.245,2,32.152,2,30C2,14.561,14.561,2,30,2
		s28,12.561,28,28c0,2.002-0.215,3.954-0.617,5.838c-2.219-1.53-4.774-2.398-7.383-2.578V32c0-0.553-0.448-1-1-1s-1,0.447-1,1v1.251
		c-1.886,0.125-3.758,0.613-5.511,1.471l-0.623-1.079C41.59,33.164,40.978,33,40.5,33.277c-0.479,0.276-0.642,0.888-0.366,1.366
		l0.629,1.089c-1.636,1.097-2.986,2.473-4.029,4.031l-1.09-0.63c-0.481-0.277-1.089-0.113-1.366,0.366
		c-0.276,0.479-0.112,1.09,0.366,1.366l1.079,0.623c-0.842,1.723-1.344,3.597-1.476,5.51H33c-0.552,0-1,0.447-1,1s0.448,1,1,1h1.259
		c0.045,0.68,0.13,1.36,0.271,2.036c0.002,0.014-0.003,0.027,0,0.041c0.002,0.01,0.009,0.019,0.012,0.029
		c0.315,1.471,0.855,2.919,1.646,4.291c0.323,0.56,0.704,1.102,1.116,1.631C34.974,57.658,32.527,58,30,58
		C27.586,58,25.243,57.693,23.006,57.116z M56.812,38.062c-0.112,0.374-0.236,0.743-0.362,1.11
		c-0.049,0.141-0.092,0.283-0.143,0.423c-0.122,0.336-0.258,0.665-0.392,0.995c-0.202,0.491-0.413,0.978-0.642,1.455
		c-0.016,0.034-0.031,0.069-0.048,0.103c-0.318,0.657-0.666,1.296-1.032,1.923c-1.752-2.317-4.847-3.185-7.543-2.141l-3.147-5.451
		c1.741-0.83,3.608-1.265,5.477-1.265c2.798,0,5.58,0.916,7.873,2.702C56.839,37.964,56.826,38.013,56.812,38.062z M43.182,54.694
		c-0.326,0.175-0.655,0.345-0.988,0.507c-0.259,0.125-0.523,0.243-0.787,0.36c-0.174,0.078-0.344,0.161-0.52,0.235
		c-0.479,0.202-0.965,0.39-1.458,0.565c-0.024,0.009-0.048,0.016-0.072,0.025c-0.556-0.634-1.037-1.301-1.435-1.99
		c-0.515-0.892-0.895-1.822-1.175-2.769l6.171-1.312c0.122,0.32,0.263,0.636,0.44,0.942c0.501,0.867,1.205,1.575,2.023,2.123
		c-0.642,0.424-1.301,0.826-1.979,1.197C43.328,54.618,43.255,54.656,43.182,54.694z M41.763,37.465l3.155,5.465
		c-1.659,1.335-2.527,3.375-2.418,5.43l-6.179,1.313C35.712,45.013,37.72,40.239,41.763,37.465z M48.992,43.483
		c1.563,0,3.084,0.81,3.919,2.256c0.035,0.06,0.068,0.122,0.1,0.187c-0.105,0.152-0.213,0.301-0.321,0.451
		c-0.187,0.26-0.38,0.514-0.576,0.767c-0.292,0.375-0.593,0.743-0.903,1.103c-0.187,0.218-0.375,0.436-0.568,0.648
		c-0.239,0.261-0.483,0.516-0.732,0.767c-0.15,0.152-0.305,0.3-0.459,0.449c-0.425,0.411-0.863,0.809-1.313,1.193
		c-0.168,0.143-0.335,0.286-0.507,0.426c-0.16,0.13-0.323,0.255-0.485,0.381c-0.864-0.387-1.584-1.03-2.059-1.853
		c-1.245-2.157-0.503-4.925,1.653-6.171C47.451,43.678,48.227,43.483,48.992,43.483z"/>
	<path d="M38.692,31.329c0.623-2.321,0.303-4.747-0.898-6.828c-0.228-0.395-0.491-0.761-0.769-1.112l7.584-7.584
		c0.912,1.01,1.737,2.125,2.444,3.35c1.732,3,2.638,6.432,2.62,9.924c-0.003,0.552,0.443,1.002,0.995,1.005c0.001,0,0.003,0,0.005,0
		c0.55,0,0.997-0.444,1-0.995c0.008-1.597-0.169-3.18-0.504-4.725l2.273-0.61c0.534-0.143,0.85-0.691,0.707-1.225
		c-0.143-0.534-0.692-0.853-1.225-0.707l-2.269,0.608c-0.369-1.168-0.837-2.302-1.4-3.393l2.03-1.172
		c0.479-0.276,0.642-0.888,0.366-1.366c-0.276-0.479-0.889-0.644-1.366-0.366l-2.045,1.181c-0.67-1.047-1.406-2.029-2.219-2.921
		l1.657-1.657c0.391-0.391,0.391-1.023,0-1.414s-1.023-0.391-1.414,0l-1.653,1.653c-0.913-0.832-1.894-1.568-2.921-2.223
		l1.176-2.036c0.276-0.479,0.113-1.09-0.366-1.366c-0.479-0.277-1.091-0.113-1.366,0.366l-1.179,2.042
		c-1.091-0.562-2.225-1.023-3.391-1.393l0.613-2.288c0.143-0.533-0.174-1.082-0.707-1.225c-0.537-0.147-1.082,0.174-1.225,0.707
		l-0.613,2.288C33.439,7.584,32.226,7.417,31,7.358V5c0-0.553-0.448-1-1-1s-1,0.447-1,1v2.352c-1.217,0.054-2.434,0.201-3.641,0.465
		l-0.605-2.258c-0.143-0.533-0.688-0.854-1.225-0.707c-0.533,0.143-0.85,0.691-0.707,1.225l0.606,2.263
		c-1.151,0.366-2.278,0.849-3.383,1.42l-1.18-2.044C18.589,7.236,17.978,7.072,17.5,7.35c-0.479,0.276-0.642,0.888-0.366,1.366
		l1.172,2.029c-1.04,0.667-2.012,1.415-2.91,2.237l-1.66-1.66c-0.391-0.391-1.023-0.391-1.414,0s-0.391,1.023,0,1.414l1.664,1.664
		c-0.825,0.909-1.57,1.883-2.228,2.913l-2.043-1.179c-0.48-0.277-1.09-0.113-1.366,0.366c-0.276,0.479-0.112,1.09,0.366,1.366
		l2.045,1.181c-0.56,1.085-1.03,2.218-1.403,3.387l-2.281-0.612c-0.531-0.145-1.082,0.174-1.225,0.707
		c-0.143,0.533,0.173,1.082,0.707,1.225l2.281,0.612c-0.338,1.535-0.521,3.115-0.516,4.721c0.001,0.552,0.449,0.997,1,0.997
		c0.001,0,0.002,0,0.003,0c0.552-0.002,0.999-0.451,0.997-1.003c-0.015-4.964,1.852-9.68,5.076-13.267l7.57,7.57
		c-0.765,0.957-1.336,2.067-1.663,3.287c-0.623,2.321-0.303,4.747,0.898,6.828c1.202,2.082,3.143,3.571,5.464,4.193
		c0.775,0.207,1.562,0.311,2.344,0.311c1.559-0.001,3.098-0.409,4.485-1.21C36.581,35.592,38.07,33.651,38.692,31.329z M25.5,21.207
		c-0.395,0.228-0.76,0.49-1.111,0.768l-7.579-7.579c1.017-0.922,2.132-1.748,3.345-2.448c7.573-4.373,16.868-3.118,23.037,2.445
		l-7.577,7.577c-0.957-0.765-2.067-1.336-3.286-1.663C30.006,19.688,27.583,20.005,25.5,21.207z M28.188,35.76
		c-1.806-0.483-3.315-1.642-4.25-3.261s-1.183-3.505-0.699-5.311s1.642-3.314,3.261-4.249c1.079-0.623,2.275-0.941,3.488-0.941
		c0.608,0,1.22,0.08,1.823,0.242c1.806,0.483,3.315,1.642,4.25,3.261s1.183,3.505,0.699,5.311s-1.642,3.314-3.261,4.249
		C31.88,35.996,29.996,36.247,28.188,35.76z"/>
</g>
<g>
</g>
<g>
</g>
<g>
</g>
<g>
</g>
<g>
</g>
<g>
</g>
<g>
</g>
<g>
</g>
<g>
</g>
<g>
</g>
<g>
</g>
<g>
</g>
<g>
</g>
<g>
</g>
<g>
</g>
</svg>
