<?xml version="1.0" encoding="iso-8859-1"?>
<!-- Generator: Adobe Illustrator 19.0.0, SVG Export Plug-In . SVG Version: 6.00 Build 0)  -->
<svg version="1.1" id="Capa_1" xmlns="http://www.w3.org/2000/svg" xmlns:xlink="http://www.w3.org/1999/xlink" x="0px" y="0px"
	 viewBox="0 0 60 60" style="enable-background:new 0 0 60 60;" xml:space="preserve">
<g>
	<path d="M30,0C13.458,0,0,13.458,0,30s13.458,30,30,30s30-13.458,30-30S46.542,0,30,0z M30,58C14.561,58,2,45.439,2,30
		S14.561,2,30,2s28,12.561,28,28S45.439,58,30,58z"/>
	<path d="M39,20c3.309,0,6-2.691,6-6s-2.691-6-6-6c-3.131,0-5.705,2.411-5.973,5.474L18.961,23.788C18.086,23.289,17.077,23,16,23
		c-3.309,0-6,2.691-6,6s2.691,6,6,6c1.077,0,2.086-0.289,2.961-0.788l14.065,10.314C33.295,47.589,35.869,50,39,50
		c3.309,0,6-2.691,6-6s-2.691-6-6-6c-2.69,0-4.972,1.78-5.731,4.223l-12.716-9.325C21.452,31.848,22,30.488,22,29
		s-0.548-2.848-1.448-3.898l12.716-9.325C34.028,18.22,36.31,20,39,20z M39,10c2.206,0,4,1.794,4,4s-1.794,4-4,4s-4-1.794-4-4
		S36.794,10,39,10z M12,29c0-2.206,1.794-4,4-4s4,1.794,4,4s-1.794,4-4,4S12,31.206,12,29z M39,40c2.206,0,4,1.794,4,4s-1.794,4-4,4
		s-4-1.794-4-4S36.794,40,39,40z"/>
</g>
<g>
</g>
<g>
</g>
<g>
</g>
<g>
</g>
<g>
</g>
<g>
</g>
<g>
</g>
<g>
</g>
<g>
</g>
<g>
</g>
<g>
</g>
<g>
</g>
<g>
</g>
<g>
</g>
<g>
</g>
</svg>
