<?xml version="1.0" encoding="iso-8859-1"?>
<!-- Generator: Adobe Illustrator 19.0.0, SVG Export Plug-In . SVG Version: 6.00 Build 0)  -->
<svg version="1.1" id="Capa_1" xmlns="http://www.w3.org/2000/svg" xmlns:xlink="http://www.w3.org/1999/xlink" x="0px" y="0px"
	 viewBox="0 0 52 52" style="enable-background:new 0 0 52 52;" xml:space="preserve">
<path d="M52,26C52,11.663,40.337,0,26,0S0,11.663,0,26c0,5.153,1.513,9.956,4.108,14h-0.11L5.2,41.601
	c3.874,5.158,9.345,8.588,15.483,9.851c0.057,0.012,0.113,0.023,0.17,0.035c0.343,0.068,0.687,0.131,1.034,0.185
	c0.154,0.025,0.31,0.046,0.465,0.068c0.28,0.039,0.559,0.077,0.841,0.107c0.252,0.027,0.506,0.046,0.76,0.066
	c0.206,0.016,0.41,0.036,0.617,0.047C25.044,51.985,25.52,52,26,52s0.956-0.015,1.43-0.041c0.207-0.011,0.411-0.031,0.617-0.047
	c0.254-0.02,0.508-0.039,0.76-0.066c0.282-0.03,0.561-0.068,0.841-0.107c0.155-0.022,0.311-0.043,0.465-0.068
	c0.347-0.054,0.691-0.117,1.035-0.185c0.057-0.011,0.113-0.023,0.169-0.035c6.138-1.262,11.609-4.693,15.483-9.851L48.002,40h-0.11
	C50.487,35.956,52,31.153,52,26z M2,26C2,12.767,12.767,2,26,2s24,10.767,24,24c0,5.222-1.682,10.056-4.525,14H6.525
	C3.682,36.056,2,31.222,2,26z M28.463,49.874c-0.088,0.009-0.177,0.013-0.265,0.021c-0.315,0.029-0.63,0.056-0.948,0.072
	C26.835,49.988,26.419,50,26,50s-0.835-0.012-1.25-0.033c-0.318-0.016-0.633-0.043-0.948-0.072
	c-0.088-0.008-0.177-0.012-0.265-0.021C17.44,49.25,12.013,46.331,8.131,42h35.738C39.987,46.331,34.56,49.25,28.463,49.874z"/>
<g>
</g>
<g>
</g>
<g>
</g>
<g>
</g>
<g>
</g>
<g>
</g>
<g>
</g>
<g>
</g>
<g>
</g>
<g>
</g>
<g>
</g>
<g>
</g>
<g>
</g>
<g>
</g>
<g>
</g>
</svg>
