<?xml version="1.0" encoding="iso-8859-1"?>
<!-- Generator: Adobe Illustrator 19.0.0, SVG Export Plug-In . SVG Version: 6.00 Build 0)  -->
<svg version="1.1" id="Capa_1" xmlns="http://www.w3.org/2000/svg" xmlns:xlink="http://www.w3.org/1999/xlink" x="0px" y="0px"
	 viewBox="0 0 60 60" style="enable-background:new 0 0 60 60;" xml:space="preserve">
<g>
	<path d="M35.5,30.995c-0.553,0-1,0.447-1,1V46h-30V8h30v13.998c0,0.553,0.447,1,1,1s1-0.447,1-1V4.405
		C36.5,1.977,34.523,0,32.095,0H6.905C4.477,0,2.5,1.977,2.5,4.405v51.189C2.5,58.023,4.477,60,6.905,60h25.189
		c2.429,0,4.405-1.977,4.405-4.405v-23.6C36.5,31.442,36.053,30.995,35.5,30.995z M6.905,2h25.189C33.421,2,34.5,3.079,34.5,4.405V6
		h-30V4.405C4.5,3.079,5.579,2,6.905,2z M32.095,58H6.905C5.579,58,4.5,56.921,4.5,55.595V48h30v7.595
		C34.5,56.921,33.421,58,32.095,58z"/>
	<path d="M19.5,49c-2.206,0-4,1.794-4,4s1.794,4,4,4s4-1.794,4-4S21.706,49,19.5,49z M19.5,55c-1.103,0-2-0.897-2-2s0.897-2,2-2
		s2,0.897,2,2S20.603,55,19.5,55z"/>
	<path d="M15.5,5h4c0.553,0,1-0.447,1-1s-0.447-1-1-1h-4c-0.553,0-1,0.447-1,1S14.947,5,15.5,5z"/>
	<path d="M22.5,5h1c0.553,0,1-0.447,1-1s-0.447-1-1-1h-1c-0.553,0-1,0.447-1,1S21.947,5,22.5,5z"/>
	<path d="M56.5,26H20.914l10.293-10.293c0.391-0.391,0.391-1.023,0-1.414s-1.023-0.391-1.414,0L17.794,26.292
		c-0.093,0.093-0.166,0.204-0.217,0.327c-0.101,0.244-0.101,0.52,0,0.764c0.051,0.123,0.124,0.234,0.217,0.327l11.999,11.999
		C29.988,39.902,30.244,40,30.5,40s0.512-0.098,0.707-0.293c0.391-0.391,0.391-1.023,0-1.414L20.914,28H56.5c0.553,0,1-0.447,1-1
		S57.053,26,56.5,26z"/>
</g>
<g>
</g>
<g>
</g>
<g>
</g>
<g>
</g>
<g>
</g>
<g>
</g>
<g>
</g>
<g>
</g>
<g>
</g>
<g>
</g>
<g>
</g>
<g>
</g>
<g>
</g>
<g>
</g>
<g>
</g>
</svg>
