<?xml version="1.0" encoding="iso-8859-1"?>
<!-- Generator: Adobe Illustrator 19.0.0, SVG Export Plug-In . SVG Version: 6.00 Build 0)  -->
<svg version="1.1" id="Capa_1" xmlns="http://www.w3.org/2000/svg" xmlns:xlink="http://www.w3.org/1999/xlink" x="0px" y="0px"
	 viewBox="0 0 60 60" style="enable-background:new 0 0 60 60;" xml:space="preserve">
<g>
	<path d="M42.595,0H17.405C14.976,0,13,1.977,13,4.405v51.189C13,58.023,14.976,60,17.405,60h25.189C45.024,60,47,58.023,47,55.595
		V4.405C47,1.977,45.024,0,42.595,0z M15,8h30v38H15V8z M17.405,2h25.189C43.921,2,45,3.079,45,4.405V6H15V4.405
		C15,3.079,16.079,2,17.405,2z M42.595,58H17.405C16.079,58,15,56.921,15,55.595V48h30v7.595C45,56.921,43.921,58,42.595,58z"/>
	<path d="M30,49c-2.206,0-4,1.794-4,4s1.794,4,4,4s4-1.794,4-4S32.206,49,30,49z M30,55c-1.103,0-2-0.897-2-2s0.897-2,2-2
		s2,0.897,2,2S31.103,55,30,55z"/>
	<path d="M26,5h4c0.552,0,1-0.447,1-1s-0.448-1-1-1h-4c-0.552,0-1,0.447-1,1S25.448,5,26,5z"/>
	<path d="M33,5h1c0.552,0,1-0.447,1-1s-0.448-1-1-1h-1c-0.552,0-1,0.447-1,1S32.448,5,33,5z"/>
	<path d="M31.962,11.02h-3.924c-1.124,0-2.038,0.914-2.038,2.038v3.924c0,1.124,0.914,2.038,2.038,2.038h3.924
		c1.124,0,2.038-0.914,2.038-2.038v-3.924C34,11.934,33.086,11.02,31.962,11.02z M32,16.981c0,0.021-0.017,0.038-0.038,0.038
		L28,16.981l0.038-3.962L32,13.058V16.981z"/>
	<path d="M22.962,11.02h-3.924c-1.124,0-2.038,0.914-2.038,2.038v3.924c0,1.124,0.914,2.038,2.038,2.038h3.924
		c1.124,0,2.038-0.914,2.038-2.038v-3.924C25,11.934,24.086,11.02,22.962,11.02z M23,16.981c0,0.021-0.017,0.038-0.038,0.038
		L19,16.981l0.038-3.962L23,13.058V16.981z"/>
	<path d="M40.962,11.02h-3.924c-1.124,0-2.038,0.914-2.038,2.038v3.924c0,1.124,0.914,2.038,2.038,2.038h3.924
		c1.124,0,2.038-0.914,2.038-2.038v-3.924C43,11.934,42.086,11.02,40.962,11.02z M41,16.981c0,0.021-0.017,0.038-0.038,0.038
		L37,16.981l0.038-3.962L41,13.058V16.981z"/>
	<path d="M31.962,20h-3.924C26.914,20,26,20.914,26,22.038v3.924C26,27.086,26.914,28,28.038,28h3.924
		C33.086,28,34,27.086,34,25.962v-3.924C34,20.914,33.086,20,31.962,20z M32,25.962C32,25.982,31.983,26,31.962,26L28,25.962
		L28.038,22L32,22.038V25.962z"/>
	<path d="M22.962,20h-3.924C17.914,20,17,20.914,17,22.038v3.924C17,27.086,17.914,28,19.038,28h3.924
		C24.086,28,25,27.086,25,25.962v-3.924C25,20.914,24.086,20,22.962,20z M23,25.962C23,25.982,22.983,26,22.962,26L19,25.962
		L19.038,22L23,22.038V25.962z"/>
	<path d="M40.962,20h-3.924C35.914,20,35,20.914,35,22.038v3.924C35,27.086,35.914,28,37.038,28h3.924
		C42.086,28,43,27.086,43,25.962v-3.924C43,20.914,42.086,20,40.962,20z M41,25.962C41,25.982,40.983,26,40.962,26L37,25.962
		L37.038,22L41,22.038V25.962z"/>
	<path d="M31.962,29h-3.924C26.914,29,26,29.914,26,31.038v3.924C26,36.086,26.914,37,28.038,37h3.924
		C33.086,37,34,36.086,34,34.962v-3.924C34,29.914,33.086,29,31.962,29z M32,34.962C32,34.982,31.983,35,31.962,35L28,34.962
		L28.038,31L32,31.038V34.962z"/>
	<path d="M22.962,29h-3.924C17.914,29,17,29.914,17,31.038v3.924C17,36.086,17.914,37,19.038,37h3.924
		C24.086,37,25,36.086,25,34.962v-3.924C25,29.914,24.086,29,22.962,29z M23,34.962C23,34.982,22.983,35,22.962,35L19,34.962
		L19.038,31L23,31.038V34.962z"/>
	<path d="M40.962,29h-3.924C35.914,29,35,29.914,35,31.038v3.924C35,36.086,35.914,37,37.038,37h3.924
		C42.086,37,43,36.086,43,34.962v-3.924C43,29.914,42.086,29,40.962,29z M41,34.962C41,34.982,40.983,35,40.962,35L37,34.962
		L37.038,31L41,31.038V34.962z"/>
</g>
<g>
</g>
<g>
</g>
<g>
</g>
<g>
</g>
<g>
</g>
<g>
</g>
<g>
</g>
<g>
</g>
<g>
</g>
<g>
</g>
<g>
</g>
<g>
</g>
<g>
</g>
<g>
</g>
<g>
</g>
</svg>
