<?xml version="1.0" encoding="iso-8859-1"?>
<!-- Generator: Adobe Illustrator 19.0.0, SVG Export Plug-In . SVG Version: 6.00 Build 0)  -->
<svg version="1.1" id="Capa_1" xmlns="http://www.w3.org/2000/svg" xmlns:xlink="http://www.w3.org/1999/xlink" x="0px" y="0px"
	 viewBox="0 0 60 60" style="enable-background:new 0 0 60 60;" xml:space="preserve">
<g>
	<path d="M20,49c-2.206,0-4,1.794-4,4s1.794,4,4,4s4-1.794,4-4S22.206,49,20,49z M20,55c-1.103,0-2-0.897-2-2s0.897-2,2-2
		s2,0.897,2,2S21.103,55,20,55z"/>
	<path d="M17,5h4c0.552,0,1-0.447,1-1s-0.448-1-1-1h-4c-0.552,0-1,0.447-1,1S16.448,5,17,5z"/>
	<path d="M24,5h1c0.552,0,1-0.447,1-1s-0.448-1-1-1h-1c-0.552,0-1,0.447-1,1S23.448,5,24,5z"/>
	<path d="M56,12H38V4.405C38,1.977,36.024,0,33.595,0H8.405C5.976,0,4,1.977,4,4.405v51.189C4,58.023,5.976,60,8.405,60h25.189
		C36.024,60,38,58.023,38,55.595V33h18V12z M8.405,2h25.189C34.921,2,36,3.079,36,4.405V6H6V4.405C6,3.079,7.079,2,8.405,2z
		 M33.595,58H8.405C7.079,58,6,56.921,6,55.595V48h30v7.595C36,56.921,34.921,58,33.595,58z M36,46H6V8h30v4H18v21h4v7l9.333-7H36
		V46z M54,31H38h-7.333L24,36v-5h-4V14h18h16V31z"/>
	<path d="M25,21h10c0.552,0,1-0.447,1-1s-0.448-1-1-1H25c-0.552,0-1,0.447-1,1S24.448,21,25,21z"/>
	<path d="M24,25c0,0.553,0.448,1,1,1h24c0.552,0,1-0.447,1-1s-0.448-1-1-1H25C24.448,24,24,24.447,24,25z"/>
</g>
<g>
</g>
<g>
</g>
<g>
</g>
<g>
</g>
<g>
</g>
<g>
</g>
<g>
</g>
<g>
</g>
<g>
</g>
<g>
</g>
<g>
</g>
<g>
</g>
<g>
</g>
<g>
</g>
<g>
</g>
</svg>
