<?xml version="1.0" encoding="iso-8859-1"?>
<!-- Generator: Adobe Illustrator 19.0.0, SVG Export Plug-In . SVG Version: 6.00 Build 0)  -->
<svg version="1.1" id="Capa_1" xmlns="http://www.w3.org/2000/svg" xmlns:xlink="http://www.w3.org/1999/xlink" x="0px" y="0px"
	 viewBox="0 0 60 60" style="enable-background:new 0 0 60 60;" xml:space="preserve">
<g>
	<path d="M17,49c-2.206,0-4,1.794-4,4s1.794,4,4,4s4-1.794,4-4S19.206,49,17,49z M17,55c-1.103,0-2-0.897-2-2s0.897-2,2-2
		s2,0.897,2,2S18.103,55,17,55z"/>
	<path d="M13,5h4c0.552,0,1-0.447,1-1s-0.448-1-1-1h-4c-0.552,0-1,0.447-1,1S12.448,5,13,5z"/>
	<path d="M20,5h1c0.552,0,1-0.447,1-1s-0.448-1-1-1h-1c-0.552,0-1,0.447-1,1S19.448,5,20,5z"/>
	<path d="M54,47c0-0.553-0.448-1-1-1s-1,0.447-1,1v1c0,0.553,0.448,1,1,1s1-0.447,1-1V47z"/>
	<path d="M54,35c0-0.553-0.448-1-1-1s-1,0.447-1,1v1c0,0.553,0.448,1,1,1s1-0.447,1-1V35z"/>
	<path d="M54,43c0-0.553-0.448-1-1-1s-1,0.447-1,1v1c0,0.553,0.448,1,1,1s1-0.447,1-1V43z"/>
	<path d="M54,39c0-0.553-0.448-1-1-1s-1,0.447-1,1v1c0,0.553,0.448,1,1,1s1-0.447,1-1V39z"/>
	<path d="M54,31c0-0.553-0.448-1-1-1s-1,0.447-1,1v1c0,0.553,0.448,1,1,1s1-0.447,1-1V31z"/>
	<path d="M54,51c0-0.553-0.448-1-1-1s-1,0.447-1,1v1c0,0.553,0.448,1,1,1s1-0.447,1-1V51z"/>
	<path d="M53,54c-0.552,0-1,0.447-1,1v1c0,0.553,0.448,1,1,1s1-0.447,1-1v-1C54,54.447,53.552,54,53,54z"/>
	<path d="M38.043,58h-0.994c-0.552,0-1,0.447-1,1s0.448,1,1,1h0.994c0.552,0,1-0.447,1-1S38.595,58,38.043,58z"/>
	<path d="M34.069,58h-0.792c0.002-0.003,0.003-0.006,0.005-0.009c0.124-0.19,0.231-0.39,0.324-0.597
		c0.023-0.051,0.046-0.101,0.067-0.152c0.019-0.046,0.043-0.089,0.06-0.136c0.014-0.038,0.008-0.076,0.017-0.114
		C33.901,56.551,34,56.086,34,55.595v-1.546v-0.912v-2.737v-0.913v-2.737v-0.912V43.1v-0.913v-2.737v-0.912V35.8v-0.913v-2.737
		v-0.912v-2.381c0.296-0.174,0.5-0.488,0.5-0.856c0-0.366-0.207-0.673-0.5-0.847V4.405C34,1.977,32.024,0,29.595,0H4.405
		C1.976,0,0,1.977,0,4.405v51.189C0,58.023,1.976,60,4.405,60h25.189h0.5c0.152,0,0.293-0.04,0.422-0.101
		c0.585-0.125,1.124-0.369,1.598-0.702C32.21,59.652,32.593,60,33.075,60h0.994c0.552,0,1-0.447,1-1S34.621,58,34.069,58z M2,8h30
		v19v1.5v2.737v0.912v2.737V35.8v2.737v0.912v2.737V43.1v2.737V46H2V8z M4.405,2h25.189C30.921,2,32,3.079,32,4.405V6H2V4.405
		C2,3.079,3.079,2,4.405,2z M29.595,58H4.405C3.079,58,2,56.921,2,55.595V48h30v1.486v0.913v2.737v0.912v1.546
		c0,0.309-0.064,0.603-0.17,0.874c-0.068,0.173-0.153,0.338-0.259,0.491C31.137,57.587,30.414,58,29.595,58z"/>
	<path d="M42.018,58h-0.994c-0.552,0-1,0.447-1,1s0.448,1,1,1h0.994c0.552,0,1-0.447,1-1S42.57,58,42.018,58z"/>
	<path d="M45.443,29c0.552,0,1-0.447,1-1s-0.448-1-1-1h-0.994c-0.552,0-1,0.447-1,1s0.448,1,1,1H45.443z"/>
	<path d="M37.494,29c0.552,0,1-0.447,1-1s-0.448-1-1-1H36.5c-0.552,0-1,0.447-1,1s0.448,1,1,1H37.494z"/>
	<path d="M45.992,58h-0.994c-0.552,0-1,0.447-1,1s0.448,1,1,1h0.994c0.552,0,1-0.447,1-1S46.544,58,45.992,58z"/>
	<path d="M41.468,29c0.552,0,1-0.447,1-1s-0.448-1-1-1h-0.994c-0.552,0-1,0.447-1,1s0.448,1,1,1H41.468z"/>
	<path d="M53.94,58h-0.994c-0.552,0-1,0.447-1,1s0.448,1,1,1h0.994c0.552,0,1-0.447,1-1S54.493,58,53.94,58z"/>
	<path d="M59,41.729c-0.552,0-1,0.447-1,1v0.994c0,0.553,0.448,1,1,1s1-0.447,1-1v-0.994C60,42.176,59.552,41.729,59,41.729z"/>
	<path d="M59,49.678c-0.552,0-1,0.447-1,1v0.993c0,0.553,0.448,1,1,1s1-0.447,1-1v-0.993C60,50.125,59.552,49.678,59,49.678z"/>
	<path d="M59,45.703c-0.552,0-1,0.447-1,1v0.993c0,0.553,0.448,1,1,1s1-0.447,1-1v-0.993C60,46.15,59.552,45.703,59,45.703z"/>
	<path d="M59,37.754c-0.552,0-1,0.447-1,1v0.994c0,0.553,0.448,1,1,1s1-0.447,1-1v-0.994C60,38.201,59.552,37.754,59,37.754z"/>
	<path d="M59.933,30.636c-0.096-0.544-0.611-0.913-1.159-0.811c-0.543,0.096-0.907,0.614-0.811,1.158
		C57.987,31.12,58,31.262,58,31.405V31.8c0,0.553,0.448,1,1,1s1-0.447,1-1v-0.395C60,31.147,59.977,30.889,59.933,30.636z"/>
	<path d="M49.417,29c0.552,0,1-0.447,1-1s-0.448-1-1-1h-0.994c-0.552,0-1,0.447-1,1s0.448,1,1,1H49.417z"/>
	<path d="M59,33.78c-0.552,0-1,0.447-1,1v0.993c0,0.553,0.448,1,1,1s1-0.447,1-1V34.78C60,34.228,59.552,33.78,59,33.78z"/>
	<path d="M53.391,29c0.552,0,1-0.447,1-1s-0.448-1-1-1h-0.994c-0.552,0-1,0.447-1,1s0.448,1,1,1H53.391z"/>
	<path d="M49.966,58h-0.994c-0.552,0-1,0.447-1,1s0.448,1,1,1h0.994c0.552,0,1-0.447,1-1S50.519,58,49.966,58z"/>
	<path d="M56.788,29.317c0.157,0.09,0.329,0.133,0.498,0.133c0.346,0,0.683-0.18,0.868-0.502c0.275-0.479,0.11-1.09-0.369-1.365
		c-0.374-0.215-0.776-0.372-1.196-0.469c-0.536-0.123-1.074,0.213-1.198,0.751c-0.124,0.538,0.212,1.075,0.751,1.198
		C56.368,29.115,56.585,29.201,56.788,29.317z"/>
	<path d="M59,53.651c-0.552,0-1,0.447-1,1v0.993c0,0.553,0.448,0.976,1,0.976s1-0.473,1-1.025v-0.943
		C60,54.099,59.552,53.651,59,53.651z"/>
	<path d="M57.108,57.464c-0.182,0.148-0.384,0.269-0.6,0.357c-0.511,0.21-0.755,0.794-0.545,1.305
		c0.159,0.387,0.532,0.62,0.925,0.62c0.126,0,0.255-0.024,0.379-0.075c0.397-0.163,0.768-0.384,1.102-0.654
		c0.429-0.349,0.494-0.979,0.145-1.407C58.167,57.181,57.537,57.116,57.108,57.464z"/>
	<path d="M51.618,20.923C51.74,20.974,51.87,21,52,21s0.26-0.026,0.382-0.077c0.123-0.051,0.233-0.124,0.326-0.216l5.999-6
		c0.391-0.391,0.391-1.023,0-1.414s-1.023-0.391-1.414,0L53,17.586V15c0-7.168-5.832-13-13-13c-0.552,0-1,0.447-1,1s0.448,1,1,1
		c6.065,0,11,4.935,11,11v2.586l-4.293-4.293c-0.391-0.391-1.023-0.391-1.414,0s-0.391,1.023,0,1.414l5.999,6
		C51.385,20.799,51.495,20.872,51.618,20.923z"/>
</g>
<g>
</g>
<g>
</g>
<g>
</g>
<g>
</g>
<g>
</g>
<g>
</g>
<g>
</g>
<g>
</g>
<g>
</g>
<g>
</g>
<g>
</g>
<g>
</g>
<g>
</g>
<g>
</g>
<g>
</g>
</svg>
