<?xml version="1.0" encoding="iso-8859-1"?>
<!-- Generator: Adobe Illustrator 19.0.0, SVG Export Plug-In . SVG Version: 6.00 Build 0)  -->
<svg version="1.1" id="Capa_1" xmlns="http://www.w3.org/2000/svg" xmlns:xlink="http://www.w3.org/1999/xlink" x="0px" y="0px"
	 viewBox="0 0 59.999 59.999" style="enable-background:new 0 0 59.999 59.999;" xml:space="preserve">
<g>
	<path d="M36.176,49.999c-1.93,0-3.5,1.57-3.5,3.5s1.57,3.5,3.5,3.5s3.5-1.57,3.5-3.5S38.105,49.999,36.176,49.999z M36.176,54.999
		c-0.827,0-1.5-0.673-1.5-1.5s0.673-1.5,1.5-1.5s1.5,0.673,1.5,1.5S37.003,54.999,36.176,54.999z"/>
	<path d="M40.676,36.999c2.206,0,4-1.794,4-4s-1.794-4-4-4s-4,1.794-4,4S38.469,36.999,40.676,36.999z M40.676,30.999
		c1.103,0,2,0.897,2,2s-0.897,2-2,2s-2-0.897-2-2S39.573,30.999,40.676,30.999z"/>
	<path d="M16.676,11.999c0.256,0,0.512-0.098,0.707-0.293l2-2c0.391-0.391,0.391-1.023,0-1.414s-1.023-0.391-1.414,0l-2,2
		c-0.391,0.391-0.391,1.023,0,1.414C16.164,11.901,16.42,11.999,16.676,11.999z"/>
	<path d="M52.676,29.747c0-0.88-0.343-1.707-0.965-2.329l-0.557-0.557c0.949-0.84,1.521-2.055,1.521-3.362
		c0-2.481-2.019-4.5-4.5-4.5c-0.182,0-0.362,0.018-0.54,0.04c0.022-0.179,0.04-0.357,0.04-0.54c0-2.481-2.019-4.5-4.5-4.5
		c-0.182,0-0.362,0.018-0.54,0.04c0.022-0.179,0.04-0.357,0.04-0.54c0-2.481-2.019-4.5-4.5-4.5c-0.182,0-0.362,0.018-0.54,0.04
		c0.022-0.179,0.04-0.357,0.04-0.54c0-2.481-2.019-4.5-4.5-4.5c-1.308,0-2.522,0.573-3.362,1.521l-0.794-0.794l-3.763-3.763
		c-1.285-1.285-3.375-1.285-4.658,0L8.286,13.275c-1.283,1.285-1.283,3.374,0,4.659l3.763,3.763l4.91,4.91
		c-1.356,0.776-2.283,2.221-2.283,3.892c0,1.563,0.803,2.941,2.017,3.748c0.061,0.081,0.132,0.161,0.227,0.242l10.756,10.715v1.796
		h-2v13h18h8v-13h-2V43.97c1.913-1.621,3-3.952,3-6.471c0-1.74-0.543-3.43-1.536-4.852l0.571-0.571
		C52.333,31.454,52.676,30.627,52.676,29.747z M50.676,23.499c0,0.768-0.354,1.479-0.937,1.947l-3.511-3.511
		c0.468-0.583,1.18-0.937,1.947-0.937C49.554,20.999,50.676,22.12,50.676,23.499z M45.676,18.499c0,0.768-0.354,1.479-0.937,1.947
		l-3.511-3.511c0.468-0.583,1.18-0.937,1.947-0.937C44.554,15.999,45.676,17.12,45.676,18.499z M40.676,13.499
		c0,0.768-0.354,1.479-0.937,1.947l-3.511-3.511c0.468-0.583,1.18-0.937,1.947-0.937C39.554,10.999,40.676,12.12,40.676,13.499z
		 M33.176,5.999c1.379,0,2.5,1.121,2.5,2.5c0,0.768-0.354,1.479-0.937,1.947l-3.511-3.511C31.696,6.353,32.408,5.999,33.176,5.999z
		 M9.7,16.521c-0.504-0.505-0.504-1.326,0-1.831L22.012,2.378c0.125-0.125,0.271-0.219,0.426-0.282
		c0.07-0.029,0.149-0.028,0.223-0.044c0.178-0.038,0.354-0.038,0.532,0c0.074,0.016,0.153,0.015,0.223,0.044
		c0.155,0.063,0.3,0.157,0.426,0.282l2.349,2.349L12.049,18.869L9.7,16.521z M27.605,6.141l1.178,1.178l5,5l0.573,0.573l4.427,4.427
		l0.573,0.573l4.427,4.427l0.573,0.573l5,5l0.94,0.94c0.505,0.505,0.505,1.325,0,1.83L49.859,31.1l0,0L37.985,42.975
		c-0.503,0.504-1.326,0.506-1.831,0l-7.975-7.976h0.996c2.481,0,4.5-2.019,4.5-4.5s-2.019-4.5-4.5-4.5h-9.997l-5.716-5.716
		L27.605,6.141z M18.636,28.061l0.415-0.047c0.041-0.006,0.082-0.015,0.124-0.015h10c1.379,0,2.5,1.121,2.5,2.5s-1.121,2.5-2.5,2.5
		h-2.996h-2.828h-4.176c-1.379,0-2.5-1.121-2.5-2.5C16.676,29.306,17.517,28.309,18.636,28.061z M27.676,57.999v-9h8.426
		c3.073,0,5.574,2.501,5.574,5.574v3.426H27.676z M49.676,57.999h-6v-3.426c0-2.206-0.954-4.188-2.464-5.574h8.464V57.999z
		 M49.701,34.087c0.634,1.021,0.975,2.202,0.975,3.412c0,2.055-0.948,3.946-2.602,5.191l-0.398,0.3v4.009H36.101h-6.426v-2.718
		l-0.353-0.299c-0.045-0.039-0.093-0.075-0.18-0.14l-8.877-8.844h5.085l9.389,9.39c0.643,0.642,1.486,0.963,2.329,0.963
		c0.844,0,1.688-0.321,2.33-0.963L49.701,34.087z"/>
</g>
<g>
</g>
<g>
</g>
<g>
</g>
<g>
</g>
<g>
</g>
<g>
</g>
<g>
</g>
<g>
</g>
<g>
</g>
<g>
</g>
<g>
</g>
<g>
</g>
<g>
</g>
<g>
</g>
<g>
</g>
</svg>
