<?xml version="1.0" encoding="iso-8859-1"?>
<!-- Generator: Adobe Illustrator 19.0.0, SVG Export Plug-In . SVG Version: 6.00 Build 0)  -->
<svg version="1.1" id="Capa_1" xmlns="http://www.w3.org/2000/svg" xmlns:xlink="http://www.w3.org/1999/xlink" x="0px" y="0px"
	 viewBox="0 0 60 60" style="enable-background:new 0 0 60 60;" xml:space="preserve">
<g>
	<path d="M28.996,49c-2.206,0-4,1.794-4,4s1.794,4,4,4s4-1.794,4-4S31.201,49,28.996,49z M28.996,55c-1.103,0-2-0.897-2-2
		s0.897-2,2-2s2,0.897,2,2S30.099,55,28.996,55z"/>
	<path d="M25.996,5h4c0.552,0,1-0.447,1-1s-0.448-1-1-1h-4c-0.552,0-1,0.447-1,1S25.443,5,25.996,5z"/>
	<path d="M32.996,5h1c0.552,0,1-0.447,1-1s-0.448-1-1-1h-1c-0.552,0-1,0.447-1,1S32.443,5,32.996,5z"/>
	<path d="M4.199,13.342l-0.253-0.944c-0.143-0.533-0.689-0.852-1.225-0.707c-0.533,0.144-0.85,0.691-0.707,1.225l0.253,0.944
		c0.12,0.447,0.524,0.741,0.965,0.741c0.085,0,0.173-0.011,0.26-0.034C4.025,14.423,4.342,13.875,4.199,13.342z"/>
	<path d="M2.106,9.863c0.55-0.053,0.953-0.541,0.9-1.09c-0.008-0.081-0.012-0.16-0.012-0.241c0-0.152,0.015-0.303,0.042-0.449
		C3.142,7.54,2.786,7.017,2.244,6.912c-0.541-0.099-1.066,0.252-1.17,0.794C1.021,7.981,0.995,8.261,0.995,8.534
		c0,0.142,0.007,0.285,0.021,0.43C1.065,9.48,1.5,9.868,2.01,9.868C2.042,9.868,2.074,9.867,2.106,9.863z"/>
	<path d="M6.729,22.788l-0.253-0.945c-0.143-0.533-0.69-0.854-1.224-0.707c-0.534,0.143-0.851,0.69-0.708,1.225l0.253,0.945
		c0.12,0.446,0.523,0.741,0.965,0.741c0.085,0,0.172-0.011,0.259-0.034C6.556,23.87,6.873,23.322,6.729,22.788z"/>
	<path d="M11.792,41.68l-0.253-0.944c-0.143-0.534-0.69-0.854-1.225-0.707c-0.533,0.144-0.85,0.691-0.707,1.225l0.253,0.944
		c0.12,0.447,0.524,0.741,0.965,0.741c0.085,0,0.173-0.011,0.26-0.034C11.619,42.761,11.935,42.213,11.792,41.68z"/>
	<path d="M5.464,18.064L5.211,17.12c-0.143-0.534-0.69-0.854-1.225-0.707c-0.533,0.144-0.85,0.691-0.707,1.225l0.253,0.944
		c0.12,0.447,0.524,0.741,0.965,0.741c0.085,0,0.173-0.011,0.26-0.034C5.291,19.146,5.607,18.598,5.464,18.064z"/>
	<path d="M4.615,6.223c0.085,0,0.172-0.011,0.259-0.034l0.945-0.253c0.533-0.143,0.85-0.69,0.707-1.225
		C6.383,4.178,5.837,3.855,5.301,4.004L4.356,4.257c-0.533,0.143-0.85,0.69-0.707,1.225C3.769,5.928,4.173,6.223,4.615,6.223z"/>
	<path d="M9.338,4.956c0.085,0,0.172-0.011,0.259-0.034l0.944-0.253c0.533-0.143,0.85-0.691,0.707-1.225S10.56,2.59,10.024,2.737
		L9.08,2.99c-0.533,0.143-0.85,0.691-0.707,1.225C8.492,4.661,8.896,4.956,9.338,4.956z"/>
	<path d="M10.526,36.957l-0.253-0.945c-0.143-0.533-0.691-0.851-1.225-0.707c-0.534,0.143-0.85,0.691-0.707,1.225l0.253,0.945
		c0.12,0.447,0.524,0.741,0.965,0.741c0.085,0,0.173-0.011,0.259-0.034C10.353,38.039,10.669,37.49,10.526,36.957z"/>
	<path d="M7.995,27.511l-0.253-0.944c-0.143-0.532-0.69-0.852-1.225-0.707c-0.533,0.143-0.85,0.691-0.707,1.225l0.253,0.944
		c0.12,0.446,0.523,0.741,0.965,0.741c0.085,0,0.172-0.011,0.259-0.034C7.821,28.593,8.138,28.044,7.995,27.511z"/>
	<path d="M9.261,32.233l-0.253-0.944c-0.143-0.533-0.69-0.855-1.225-0.707c-0.533,0.143-0.85,0.691-0.707,1.225l0.253,0.944
		c0.12,0.446,0.523,0.741,0.965,0.741c0.085,0,0.172-0.011,0.259-0.034C9.087,33.315,9.404,32.767,9.261,32.233z"/>
	<path d="M56.015,16.414c-0.536-0.146-1.082,0.173-1.225,0.707l-0.253,0.944c-0.143,0.533,0.173,1.081,0.707,1.225
		c0.087,0.023,0.174,0.034,0.26,0.034c0.441,0,0.846-0.294,0.965-0.741l0.253-0.944C56.864,17.105,56.548,16.558,56.015,16.414z"/>
	<path d="M57.279,11.69c-0.537-0.146-1.082,0.175-1.225,0.707l-0.253,0.944c-0.143,0.533,0.174,1.082,0.707,1.225
		c0.087,0.023,0.174,0.034,0.259,0.034c0.442,0,0.846-0.295,0.965-0.741l0.253-0.944C58.129,12.382,57.813,11.833,57.279,11.69z"/>
	<path d="M58.926,7.707c-0.103-0.541-0.624-0.892-1.17-0.794c-0.542,0.104-0.898,0.628-0.794,1.171
		c0.028,0.146,0.043,0.297,0.042,0.45c0,0.08-0.004,0.159-0.012,0.239c-0.052,0.55,0.351,1.038,0.9,1.091
		c0.032,0.004,0.064,0.005,0.096,0.005c0.51,0,0.945-0.388,0.995-0.904c0.014-0.145,0.021-0.288,0.021-0.429
		C59.005,8.261,58.979,7.982,58.926,7.707z"/>
	<path d="M49.459,4.669l0.944,0.253c0.087,0.023,0.174,0.034,0.259,0.034c0.442,0,0.846-0.295,0.965-0.741
		c0.143-0.533-0.174-1.082-0.707-1.225l-0.944-0.253c-0.538-0.147-1.082,0.174-1.225,0.707C48.609,3.978,48.926,4.526,49.459,4.669z
		"/>
	<path d="M54.182,5.936l0.945,0.253c0.087,0.023,0.174,0.034,0.259,0.034c0.442,0,0.846-0.295,0.965-0.741
		c0.143-0.534-0.174-1.082-0.707-1.225l-0.945-0.253c-0.536-0.148-1.083,0.174-1.225,0.707C53.332,5.245,53.648,5.793,54.182,5.936z
		"/>
	<path d="M54.749,21.137c-0.535-0.143-1.083,0.174-1.225,0.707l-0.253,0.944c-0.143,0.533,0.173,1.081,0.707,1.225
		c0.087,0.023,0.174,0.034,0.26,0.034c0.441,0,0.846-0.294,0.965-0.741l0.253-0.944C55.599,21.828,55.282,21.28,54.749,21.137z"/>
	<path d="M48.421,44.751c-0.532-0.142-1.082,0.173-1.225,0.707l-0.191,0.712v-0.172c0-0.017-0.009-0.031-0.01-0.048v-3.815
		c0.001-0.017,0.01-0.031,0.01-0.048v-0.978c0-0.017-0.009-0.031-0.01-0.048v-3.815c0.001-0.017,0.01-0.031,0.01-0.048v-0.978
		c0-0.017-0.009-0.031-0.01-0.048v-3.815c0.001-0.017,0.01-0.031,0.01-0.048v-0.978c0-0.017-0.009-0.031-0.01-0.048v-3.815
		c0.001-0.017,0.01-0.031,0.01-0.048v-0.978c0-0.017-0.009-0.031-0.01-0.048v-3.815c0.001-0.017,0.01-0.031,0.01-0.048V21.55
		c0-0.017-0.009-0.031-0.01-0.048v-3.815c0.001-0.017,0.01-0.031,0.01-0.048V16.66c0-0.017-0.009-0.031-0.01-0.048v-3.814
		c0.001-0.017,0.01-0.031,0.01-0.048v-0.979c0-0.017-0.009-0.031-0.01-0.048V7.908c0.001-0.017,0.01-0.031,0.01-0.048V6.881
		c0-0.017-0.009-0.031-0.01-0.048V4.405C46.996,1.977,45.02,0,42.59,0H17.401c-2.429,0-4.405,1.977-4.405,4.405v2.474l0,0.002v0.978
		l0,0.002v3.907l0,0.002v0.978l0,0.002v3.906l0,0.002v0.979l0,0.002v3.906l0,0.002v0.979l0,0.002v3.906l0,0.002v0.979l0,0.002v3.906
		l0,0.002v0.979l0,0.002v3.906l0,0.002v0.979l0,0.002v3.906l0,0.002v0.978l0,0.002v3.907l0,0.002v0.172l-0.191-0.712
		c-0.143-0.533-0.69-0.855-1.225-0.707c-0.533,0.143-0.85,0.691-0.707,1.225l0.253,0.944c0.143,0.532,0.688,0.853,1.225,0.707
		c0.297-0.079,0.524-0.285,0.646-0.542v2.373c-0.05,0.006-0.1,0.002-0.15,0.016c-0.533,0.143-0.85,0.691-0.707,1.225l0.253,0.944
		c0.085,0.318,0.319,0.552,0.604,0.664v3.288c0,2.429,1.976,4.405,4.405,4.405H42.59c2.429,0,4.405-1.977,4.405-4.405v-3.283
		c0.29-0.11,0.528-0.345,0.614-0.668l0.253-0.944c0.143-0.533-0.174-1.082-0.707-1.225c-0.054-0.014-0.106-0.011-0.16-0.016v-2.364
		c0.001-0.005,0.004-0.009,0.004-0.015c0.12,0.261,0.351,0.468,0.65,0.548c0.534,0.143,1.082-0.173,1.225-0.707l0.253-0.945
		C49.271,45.442,48.955,44.894,48.421,44.751z M14.996,8h30v38h-30V8z M17.401,2H42.59c1.326,0,2.405,1.079,2.405,2.405V6h-30V4.405
		C14.996,3.079,16.075,2,17.401,2z M42.59,58H17.401c-1.326,0-2.405-1.079-2.405-2.405V48h30v7.595
		C44.996,56.921,43.917,58,42.59,58z"/>
	<path d="M50.952,35.306c-0.537-0.147-1.082,0.174-1.225,0.707l-0.253,0.944c-0.143,0.533,0.174,1.082,0.707,1.225
		c0.087,0.023,0.174,0.034,0.259,0.034c0.442,0,0.846-0.295,0.965-0.741l0.253-0.944C51.802,35.997,51.485,35.448,50.952,35.306z"/>
	<path d="M49.687,40.028c-0.537-0.146-1.082,0.173-1.225,0.707l-0.253,0.944c-0.143,0.533,0.173,1.081,0.707,1.225
		c0.087,0.023,0.174,0.034,0.26,0.034c0.441,0,0.846-0.294,0.965-0.741l0.253-0.944C50.537,40.72,50.22,40.172,49.687,40.028z"/>
	<path d="M52.217,30.582c-0.534-0.148-1.082,0.174-1.224,0.707l-0.253,0.945c-0.143,0.534,0.174,1.082,0.708,1.225
		c0.086,0.023,0.173,0.034,0.259,0.034c0.442,0,0.846-0.295,0.965-0.741l0.253-0.945C53.067,31.272,52.75,30.725,52.217,30.582z"/>
	<path d="M53.483,25.859c-0.537-0.145-1.082,0.175-1.225,0.707l-0.253,0.944c-0.143,0.533,0.174,1.082,0.707,1.225
		c0.087,0.023,0.174,0.034,0.259,0.034c0.442,0,0.846-0.295,0.965-0.741l0.253-0.944C54.333,26.551,54.016,26.002,53.483,25.859z"/>
</g>
<g>
</g>
<g>
</g>
<g>
</g>
<g>
</g>
<g>
</g>
<g>
</g>
<g>
</g>
<g>
</g>
<g>
</g>
<g>
</g>
<g>
</g>
<g>
</g>
<g>
</g>
<g>
</g>
<g>
</g>
</svg>
