<?xml version="1.0" encoding="iso-8859-1"?>
<!-- Generator: Adobe Illustrator 19.0.0, SVG Export Plug-In . SVG Version: 6.00 Build 0)  -->
<svg version="1.1" id="Capa_1" xmlns="http://www.w3.org/2000/svg" xmlns:xlink="http://www.w3.org/1999/xlink" x="0px" y="0px"
	 viewBox="0 0 60 60" style="enable-background:new 0 0 60 60;" xml:space="preserve">
<g>
	<path d="M35.501,30.995c-0.552,0-1,0.447-1,1V46h-30V8h30v13.998c0,0.553,0.448,1,1,1s1-0.447,1-1V4.405
		C36.501,1.977,34.525,0,32.095,0H6.906C4.477,0,2.501,1.977,2.501,4.405v51.189C2.501,58.023,4.477,60,6.906,60h25.189
		c2.429,0,4.405-1.977,4.405-4.405v-23.6C36.501,31.442,36.053,30.995,35.501,30.995z M6.906,2h25.189
		c1.326,0,2.405,1.079,2.405,2.405V6h-30V4.405C4.501,3.079,5.58,2,6.906,2z M32.095,58H6.906c-1.326,0-2.405-1.079-2.405-2.405V48
		h30v7.595C34.501,56.921,33.422,58,32.095,58z"/>
	<path d="M19.501,49c-2.206,0-4,1.794-4,4s1.794,4,4,4s4-1.794,4-4S21.706,49,19.501,49z M19.501,55c-1.103,0-2-0.897-2-2
		s0.897-2,2-2s2,0.897,2,2S20.604,55,19.501,55z"/>
	<path d="M15.501,5h4c0.552,0,1-0.447,1-1s-0.448-1-1-1h-4c-0.552,0-1,0.447-1,1S14.948,5,15.501,5z"/>
	<path d="M22.501,5h1c0.552,0,1-0.447,1-1s-0.448-1-1-1h-1c-0.552,0-1,0.447-1,1S21.948,5,22.501,5z"/>
	<path d="M57.424,27.382c0.101-0.244,0.101-0.52,0-0.764c-0.051-0.123-0.125-0.234-0.217-0.327L45.208,14.293
		c-0.391-0.391-1.023-0.391-1.414,0s-0.391,1.023,0,1.414L54.087,26H18.501c-0.552,0-1,0.447-1,1s0.448,1,1,1h35.586L43.794,38.293
		c-0.391,0.391-0.391,1.023,0,1.414C43.989,39.902,44.245,40,44.501,40s0.512-0.098,0.707-0.293l11.999-11.999
		C57.299,27.616,57.373,27.505,57.424,27.382z"/>
</g>
<g>
</g>
<g>
</g>
<g>
</g>
<g>
</g>
<g>
</g>
<g>
</g>
<g>
</g>
<g>
</g>
<g>
</g>
<g>
</g>
<g>
</g>
<g>
</g>
<g>
</g>
<g>
</g>
<g>
</g>
</svg>
