<?xml version="1.0" encoding="iso-8859-1"?>
<!-- Generator: Adobe Illustrator 19.0.0, SVG Export Plug-In . SVG Version: 6.00 Build 0)  -->
<svg version="1.1" id="Capa_1" xmlns="http://www.w3.org/2000/svg" xmlns:xlink="http://www.w3.org/1999/xlink" x="0px" y="0px"
	 viewBox="0 0 60 60" style="enable-background:new 0 0 60 60;" xml:space="preserve">
<g>
	<path d="M42.595,0H17.405C14.977,0,13,1.977,13,4.405v51.189C13,58.023,14.977,60,17.405,60h25.189C45.023,60,47,58.023,47,55.595
		V4.405C47,1.977,45.023,0,42.595,0z M15,8h30v38H15V8z M17.405,2h25.189C43.921,2,45,3.079,45,4.405V6H15V4.405
		C15,3.079,16.079,2,17.405,2z M42.595,58H17.405C16.079,58,15,56.921,15,55.595V48h30v7.595C45,56.921,43.921,58,42.595,58z"/>
	<path d="M30,49c-2.206,0-4,1.794-4,4s1.794,4,4,4s4-1.794,4-4S32.206,49,30,49z M30,55c-1.103,0-2-0.897-2-2s0.897-2,2-2
		s2,0.897,2,2S31.103,55,30,55z"/>
	<path d="M26,5h4c0.553,0,1-0.447,1-1s-0.447-1-1-1h-4c-0.553,0-1,0.447-1,1S25.447,5,26,5z"/>
	<path d="M33,5h1c0.553,0,1-0.447,1-1s-0.447-1-1-1h-1c-0.553,0-1,0.447-1,1S32.447,5,33,5z"/>
	<path d="M21.456,31.773l-0.045,0.042l0.977,0.708c0.032,0.023,0.066,0.042,0.098,0.065c0.193,0.138,0.391,0.268,0.593,0.396
		c0.123,0.078,0.247,0.153,0.372,0.226c0.191,0.112,0.382,0.222,0.578,0.324c0.165,0.086,0.334,0.164,0.503,0.243
		c0.168,0.078,0.332,0.161,0.504,0.232c0.335,0.14,0.676,0.264,1.021,0.375c0.12,0.039,0.244,0.068,0.365,0.103
		c0.259,0.075,0.519,0.144,0.783,0.202c0.136,0.03,0.272,0.056,0.409,0.081c0.27,0.051,0.541,0.092,0.815,0.125
		c0.124,0.015,0.247,0.032,0.371,0.044C29.197,34.976,29.597,35,30,35c0.403,0,0.802-0.024,1.199-0.061
		c0.125-0.012,0.247-0.029,0.371-0.044c0.274-0.033,0.546-0.074,0.816-0.125c0.136-0.025,0.271-0.051,0.406-0.081
		c0.267-0.059,0.53-0.128,0.792-0.204c0.118-0.034,0.238-0.063,0.355-0.1c0.346-0.111,0.688-0.235,1.025-0.375
		c0.165-0.068,0.323-0.148,0.485-0.223c0.176-0.082,0.352-0.163,0.524-0.253c0.19-0.099,0.375-0.205,0.559-0.313
		c0.133-0.078,0.266-0.158,0.397-0.241c0.193-0.122,0.383-0.247,0.568-0.378c0.034-0.024,0.071-0.045,0.105-0.07l1.012-0.731
		l-0.05-0.044C41.276,29.372,43,25.887,43,22c0-7.168-5.832-13-13-13s-13,5.832-13,13C17,25.896,18.732,29.389,21.456,31.773z
		 M27.32,32.656c-0.396-0.098-0.786-0.222-1.17-0.365c-0.045-0.017-0.091-0.032-0.136-0.05c-0.395-0.153-0.783-0.327-1.159-0.527
		l2.428-1.324c0.746-0.407,1.209-1.188,1.209-2.037v-1.688l-0.233-0.278c-0.008-0.01-0.804-0.987-1.104-2.294l-0.134-0.467
		l-0.342-0.221l0.033-1.511l0.33-0.298v-2.54l-0.009-0.131c-0.001-0.007-0.072-0.744,0.429-1.315
		c0.467-0.532,1.354-0.814,2.565-0.814c1.198,0,2.081,0.276,2.551,0.799c0.516,0.572,0.445,1.313,0.443,1.331l-0.009,2.227
		l0.033,0.505l0.33,0.298v1.45c0,0.042-0.04,0.07-0.065,0.078l-0.498,0.153l-0.16,0.497c-0.223,0.692-0.539,1.33-0.942,1.898
		c-0.093,0.133-0.181,0.246-0.258,0.333l-0.251,0.284v1.737c0,0.884,0.491,1.679,1.281,2.074l2.584,1.292
		c-0.015,0.008-0.03,0.014-0.044,0.021c-0.352,0.183-0.715,0.343-1.084,0.484c-0.063,0.024-0.126,0.046-0.189,0.069
		c-0.375,0.135-0.757,0.254-1.145,0.348c-0.01,0.002-0.019,0.005-0.029,0.007c-1.714,0.406-3.523,0.399-5.234-0.021
		C27.334,32.66,27.327,32.658,27.32,32.656z M30,11c6.065,0,11,4.935,11,11c0,3.415-1.564,6.47-4.013,8.489
		c-0.049-0.027-0.096-0.061-0.146-0.086l-3.461-1.73c-0.108-0.054-0.178-0.166-0.178-0.286v-1.005
		c0.047-0.062,0.095-0.127,0.143-0.195c0.438-0.617,0.797-1.298,1.069-2.028c0.592-0.375,0.963-1.027,0.963-1.753v-1.45
		c0-0.417-0.129-0.824-0.363-1.167v-1.68c0.032-0.361,0.072-1.689-0.916-2.816c-0.87-0.992-2.239-1.496-4.069-1.496
		s-3.199,0.504-4.069,1.496c-0.987,1.127-0.948,2.454-0.916,2.816v1.68c-0.234,0.343-0.363,0.75-0.363,1.167v1.45
		c0,0.561,0.224,1.086,0.613,1.474c0.322,1.139,0.883,2.036,1.199,2.482v0.991c0,0.117-0.064,0.225-0.167,0.281l-3.232,1.764
		c-0.037,0.02-0.071,0.047-0.107,0.068C20.553,28.446,19,25.401,19,22C19,15.935,23.935,11,30,11z"/>
	<path d="M24,37h-8v8h8h20v-8H24z M18,43v-4h4v4H18z M42,43H24v-4h18V43z"/>
</g>
<g>
</g>
<g>
</g>
<g>
</g>
<g>
</g>
<g>
</g>
<g>
</g>
<g>
</g>
<g>
</g>
<g>
</g>
<g>
</g>
<g>
</g>
<g>
</g>
<g>
</g>
<g>
</g>
<g>
</g>
</svg>
