<?xml version="1.0" encoding="iso-8859-1"?>
<!-- Generator: Adobe Illustrator 19.0.0, SVG Export Plug-In . SVG Version: 6.00 Build 0)  -->
<svg version="1.1" id="Capa_1" xmlns="http://www.w3.org/2000/svg" xmlns:xlink="http://www.w3.org/1999/xlink" x="0px" y="0px"
	 viewBox="0 0 60 60" style="enable-background:new 0 0 60 60;" xml:space="preserve">
<g>
	<path d="M28.404,7.758c-0.975-0.552-2.131-0.534-3.09,0.044c-0.046,0.027-0.09,0.059-0.13,0.093L11.634,19.358H1
		c-0.553,0-1,0.447-1,1v19c0,0.266,0.105,0.52,0.293,0.707S0.734,40.358,1,40.358l10.61-0.005l13.543,12.44
		c0.05,0.046,0.104,0.086,0.161,0.12c0.492,0.297,1.037,0.446,1.582,0.446c0.517-0.001,1.033-0.134,1.508-0.402
		C29.403,52.393,30,51.363,30,50.201V10.514C30,9.353,29.403,8.323,28.404,7.758z M28,50.201c0,0.431-0.217,0.81-0.579,1.015
		c-0.155,0.087-0.548,0.255-1,0.026L13,38.913v-4.556c0-0.553-0.447-1-1-1s-1,0.447-1,1v3.996l-9,0.004v-17h9v4c0,0.553,0.447,1,1,1
		s1-0.447,1-1v-4.536l13.405-11.34c0.461-0.242,0.861-0.07,1.016,0.018C27.783,9.704,28,10.083,28,10.514V50.201z"/>
	<path d="M52.026,29.858c0-8.347-5.316-15.76-13.229-18.447c-0.522-0.177-1.091,0.103-1.269,0.626
		c-0.177,0.522,0.103,1.091,0.626,1.269c7.101,2.411,11.872,9.063,11.872,16.553c0,7.483-4.762,14.136-11.849,16.554
		c-0.522,0.178-0.802,0.746-0.623,1.27c0.142,0.415,0.53,0.677,0.946,0.677c0.107,0,0.216-0.017,0.323-0.054
		C46.721,45.611,52.026,38.198,52.026,29.858z"/>
	<path d="M44.453,6.374c-0.508-0.213-1.095,0.021-1.312,0.53C42.926,7.413,43.163,8,43.672,8.216C52.376,11.909,58,20.405,58,29.858
		c0,9.777-5.894,18.38-15.015,21.914c-0.515,0.2-0.771,0.779-0.571,1.294c0.153,0.396,0.532,0.639,0.933,0.639
		c0.12,0,0.242-0.021,0.361-0.067C53.605,49.801,60,40.467,60,29.858C60,19.6,53.897,10.382,44.453,6.374z"/>
	<path d="M43.026,29.858c0-5.972-4.009-11.302-9.749-12.962c-0.53-0.151-1.084,0.152-1.238,0.684
		c-0.153,0.53,0.152,1.085,0.684,1.238c4.889,1.413,8.304,5.953,8.304,11.04s-3.415,9.627-8.304,11.04
		c-0.531,0.153-0.837,0.708-0.684,1.238c0.127,0.438,0.526,0.723,0.961,0.723c0.092,0,0.185-0.013,0.277-0.039
		C39.018,41.159,43.026,35.829,43.026,29.858z"/>
</g>
<g>
</g>
<g>
</g>
<g>
</g>
<g>
</g>
<g>
</g>
<g>
</g>
<g>
</g>
<g>
</g>
<g>
</g>
<g>
</g>
<g>
</g>
<g>
</g>
<g>
</g>
<g>
</g>
<g>
</g>
</svg>
