<?xml version="1.0" encoding="iso-8859-1"?>
<!-- Generator: Adobe Illustrator 19.0.0, SVG Export Plug-In . SVG Version: 6.00 Build 0)  -->
<svg version="1.1" id="Capa_1" xmlns="http://www.w3.org/2000/svg" xmlns:xlink="http://www.w3.org/1999/xlink" x="0px" y="0px"
	 viewBox="0 0 46.004 46.004" style="enable-background:new 0 0 46.004 46.004;" xml:space="preserve">
<path d="M36.406,0.402c-0.976-0.552-2.131-0.534-3.09,0.044c-0.046,0.027-0.09,0.059-0.13,0.093L19.636,12.002H9.002
	c-0.553,0-1,0.447-1,1v19c0,0.266,0.105,0.52,0.293,0.707s0.441,0.293,0.707,0.293l10.61-0.005l13.543,12.44
	c0.05,0.046,0.104,0.086,0.161,0.12c0.492,0.297,1.037,0.446,1.582,0.446c0.517-0.001,1.033-0.134,1.508-0.402
	c0.999-0.564,1.596-1.595,1.596-2.756V3.158C38.002,1.997,37.405,0.967,36.406,0.402z M36.002,42.845
	c0,0.431-0.217,0.81-0.579,1.015c-0.155,0.087-0.548,0.255-1,0.026L21.002,31.557v-4.556c0-0.553-0.447-1-1-1s-1,0.447-1,1v3.996
	l-9,0.004v-17h9v4c0,0.553,0.447,1,1,1s1-0.447,1-1v-4.536l13.405-11.34c0.461-0.242,0.86-0.07,1.016,0.018
	c0.362,0.205,0.579,0.584,0.579,1.015V42.845z"/>
<g>
</g>
<g>
</g>
<g>
</g>
<g>
</g>
<g>
</g>
<g>
</g>
<g>
</g>
<g>
</g>
<g>
</g>
<g>
</g>
<g>
</g>
<g>
</g>
<g>
</g>
<g>
</g>
<g>
</g>
</svg>
