<?xml version="1.0" encoding="iso-8859-1"?>
<!-- Generator: Adobe Illustrator 19.0.0, SVG Export Plug-In . SVG Version: 6.00 Build 0)  -->
<svg version="1.1" id="Capa_1" xmlns="http://www.w3.org/2000/svg" xmlns:xlink="http://www.w3.org/1999/xlink" x="0px" y="0px"
	 viewBox="0 0 60 60" style="enable-background:new 0 0 60 60;" xml:space="preserve">
<g>
	<path d="M36.437,7.413c-0.978-0.561-2.142-0.553-3.115,0.019c-0.063,0.037-0.121,0.081-0.174,0.131L19.906,19.891
		C19.756,19.963,19.593,20,19.427,20h-8.324C9.392,20,8,21.393,8,23.104v12.793C8,37.607,9.392,39,11.104,39h8.324
		c0.166,0,0.329,0.037,0.479,0.109l13.242,12.328c0.053,0.05,0.112,0.094,0.174,0.131c0.492,0.289,1.033,0.434,1.574,0.434
		c0.529,0,1.058-0.138,1.542-0.415C37.416,51.027,38,50.021,38,48.894V10.106C38,8.979,37.416,7.973,36.437,7.413z M36,48.894
		c0,0.577-0.389,0.862-0.556,0.958c-0.158,0.09-0.562,0.262-1.025,0.037l-13.244-12.33c-0.054-0.051-0.113-0.095-0.176-0.131
		C20.522,37.147,19.979,37,19.427,37h-8.324C10.495,37,10,36.505,10,35.896V23.104C10,22.495,10.495,22,11.104,22h8.324
		c0.551,0,1.095-0.147,1.572-0.428c0.063-0.036,0.122-0.08,0.176-0.131l13.244-12.33c0.465-0.226,0.868-0.053,1.025,0.037
		C35.611,9.244,36,9.529,36,10.106V48.894z"/>
	<path d="M40.293,20.293c-0.391,0.391-0.391,1.023,0,1.414c4.297,4.297,4.297,11.289,0,15.586c-0.391,0.391-0.391,1.023,0,1.414
		C40.488,38.902,40.744,39,41,39s0.512-0.098,0.707-0.293c5.077-5.077,5.077-13.337,0-18.414
		C41.316,19.902,40.684,19.902,40.293,20.293z"/>
	<path d="M30,0C13.458,0,0,13.458,0,30s13.458,30,30,30s30-13.458,30-30S46.542,0,30,0z M30,58C14.561,58,2,45.439,2,30
		S14.561,2,30,2s28,12.561,28,28S45.439,58,30,58z"/>
</g>
<g>
</g>
<g>
</g>
<g>
</g>
<g>
</g>
<g>
</g>
<g>
</g>
<g>
</g>
<g>
</g>
<g>
</g>
<g>
</g>
<g>
</g>
<g>
</g>
<g>
</g>
<g>
</g>
<g>
</g>
</svg>
