<?xml version="1.0" encoding="iso-8859-1"?>
<!-- Generator: Adobe Illustrator 19.0.0, SVG Export Plug-In . SVG Version: 6.00 Build 0)  -->
<svg version="1.1" id="Capa_1" xmlns="http://www.w3.org/2000/svg" xmlns:xlink="http://www.w3.org/1999/xlink" x="0px" y="0px"
	 viewBox="0 0 60 60" style="enable-background:new 0 0 60 60;" xml:space="preserve">
<path d="M39.81,26.287L58.66,9.752c0.133-0.117,0.233-0.268,0.289-0.436l0.125-0.375C59.667,8.194,60,7.374,60,6.5
	c0-0.102-0.021-0.2-0.029-0.3c0.042-0.231-0.007-0.467-0.125-0.674C58.924,2.317,53.504,0,46.5,0
	c-6.946,0-12.335,2.279-13.323,5.447c-0.007,0.01-0.02,0.014-0.027,0.024L30,10.532l-3.151-5.061
	c-0.006-0.01-0.02-0.014-0.026-0.024C25.835,2.279,20.446,0,13.5,0C5.804,0,0,2.794,0,6.5c0,0.874,0.333,1.694,0.926,2.441
	l0.125,0.375C1.107,9.484,1.207,9.635,1.34,9.752l18.85,16.535L0.151,58.472c-0.262,0.421-0.176,0.97,0.202,1.291
	C0.54,59.921,0.77,60,1,60c0.235,0,0.471-0.083,0.66-0.248L30,34.892l28.34,24.86C58.529,59.917,58.765,60,59,60
	c0.23,0,0.46-0.079,0.647-0.237c0.378-0.321,0.464-0.87,0.202-1.291L39.81,26.287z M46.5,2c6.476,0,11.065,2.165,11.461,4.215
	c0.003,0.03,0.007,0.06,0.01,0.074c0,0,0.001,0.002,0.001,0.003C57.981,6.361,58,6.431,58,6.5c0,0.405-0.173,0.819-0.497,1.224
	C57.48,7.746,57.45,7.76,57.428,7.785c-0.684,0.8-2.004,1.604-3.858,2.207c-0.001,0-0.002,0.001-0.004,0.001
	c-0.217,0.07-0.443,0.138-0.675,0.203c-0.088,0.024-0.179,0.047-0.269,0.07c-0.173,0.046-0.346,0.092-0.527,0.134
	c-0.292,0.067-0.591,0.13-0.9,0.188c-0.062,0.012-0.127,0.021-0.19,0.032c-0.27,0.047-0.545,0.092-0.827,0.131
	c-0.087,0.012-0.176,0.023-0.264,0.034c-0.263,0.034-0.531,0.064-0.804,0.09c-0.102,0.01-0.203,0.02-0.306,0.028
	c-0.275,0.023-0.556,0.041-0.841,0.056c-0.099,0.005-0.196,0.012-0.297,0.016C47.285,10.99,46.897,11,46.5,11
	C39.723,11,35,8.629,35,6.5S39.723,2,46.5,2z M13.5,2C20.277,2,25,4.371,25,6.5S20.277,11,13.5,11c-0.397,0-0.785-0.01-1.167-0.025
	c-0.101-0.004-0.198-0.011-0.297-0.016c-0.284-0.015-0.565-0.033-0.841-0.056c-0.103-0.008-0.205-0.018-0.306-0.028
	c-0.273-0.026-0.541-0.056-0.804-0.09c-0.088-0.011-0.177-0.022-0.264-0.034c-0.282-0.039-0.557-0.083-0.827-0.131
	c-0.063-0.011-0.128-0.021-0.19-0.032c-0.309-0.057-0.608-0.12-0.9-0.188c-0.181-0.042-0.353-0.088-0.527-0.134
	c-0.09-0.023-0.181-0.046-0.269-0.07c-0.232-0.065-0.458-0.132-0.675-0.203c-0.001,0-0.002-0.001-0.004-0.001
	C4.576,9.389,3.256,8.585,2.572,7.785C2.55,7.76,2.52,7.746,2.496,7.723C2.173,7.318,2,6.905,2,6.5C2,4.371,6.723,2,13.5,2z
	 M7.295,12.314c1.344,0.32,2.828,0.535,4.416,0.628c0.064,0.004,0.127,0.01,0.191,0.013C12.426,12.982,12.957,13,13.5,13
	c0.441,0,0.875-0.012,1.303-0.03c0.136-0.005,0.268-0.015,0.402-0.022c0.294-0.016,0.586-0.036,0.873-0.061
	c0.146-0.012,0.291-0.026,0.436-0.041c0.279-0.028,0.553-0.061,0.824-0.097c0.131-0.018,0.263-0.034,0.393-0.053
	c0.33-0.049,0.653-0.104,0.97-0.165c0.059-0.011,0.12-0.02,0.179-0.032c0.371-0.073,0.731-0.155,1.083-0.244
	c0.105-0.026,0.204-0.055,0.307-0.083c0.246-0.066,0.489-0.134,0.725-0.208c0.119-0.037,0.234-0.075,0.35-0.113
	c0.217-0.072,0.428-0.147,0.635-0.226c0.107-0.041,0.216-0.081,0.32-0.123c0.23-0.093,0.451-0.19,0.666-0.29
	c0.067-0.031,0.138-0.061,0.204-0.092c0.273-0.133,0.534-0.271,0.782-0.416c0.067-0.039,0.128-0.081,0.193-0.121
	c0.178-0.109,0.35-0.22,0.513-0.334c0.08-0.057,0.155-0.114,0.231-0.172c0.14-0.106,0.273-0.214,0.4-0.324
	c0.07-0.061,0.139-0.121,0.205-0.183c0.13-0.123,0.25-0.248,0.364-0.375c0.046-0.051,0.096-0.101,0.14-0.152
	c0.144-0.172,0.276-0.348,0.39-0.528l2.433,3.908l-3.394,5.452l-4.166,6.69L7.295,12.314z M22.337,26.624L22.337,26.624
	l8.513-13.672l0,0l2.762-4.436c0.114,0.18,0.246,0.356,0.39,0.528c0.043,0.052,0.094,0.102,0.14,0.152
	c0.114,0.127,0.234,0.253,0.364,0.375c0.066,0.063,0.136,0.123,0.206,0.184c0.127,0.11,0.26,0.218,0.399,0.323
	c0.077,0.058,0.152,0.116,0.232,0.172c0.162,0.114,0.334,0.225,0.511,0.333c0.066,0.04,0.127,0.083,0.195,0.122
	c0.247,0.144,0.508,0.283,0.781,0.415c0.067,0.033,0.14,0.063,0.208,0.094c0.214,0.1,0.433,0.196,0.661,0.288
	c0.106,0.042,0.215,0.083,0.324,0.124c0.205,0.078,0.415,0.153,0.631,0.224c0.117,0.039,0.234,0.078,0.354,0.115
	c0.234,0.073,0.475,0.141,0.719,0.206c0.104,0.028,0.206,0.058,0.312,0.084c0.351,0.088,0.71,0.17,1.081,0.243
	c0.06,0.012,0.123,0.021,0.184,0.033c0.316,0.06,0.637,0.115,0.965,0.164c0.13,0.019,0.263,0.035,0.395,0.053
	c0.27,0.036,0.544,0.069,0.822,0.097c0.145,0.015,0.29,0.029,0.437,0.041c0.287,0.025,0.578,0.044,0.872,0.061
	c0.134,0.007,0.267,0.017,0.403,0.022C45.625,12.988,46.059,13,46.5,13c0.543,0,1.074-0.018,1.597-0.044
	c0.064-0.003,0.127-0.009,0.191-0.013c1.588-0.093,3.072-0.308,4.416-0.628L37.854,25.342c0,0-0.002,0-0.002,0.001L29.34,32.81
	l-0.001,0.001L5.421,53.792L22.337,26.624z M31.517,33.562l6.769-5.938l16.293,26.168L31.517,33.562z"/>
<g>
</g>
<g>
</g>
<g>
</g>
<g>
</g>
<g>
</g>
<g>
</g>
<g>
</g>
<g>
</g>
<g>
</g>
<g>
</g>
<g>
</g>
<g>
</g>
<g>
</g>
<g>
</g>
<g>
</g>
</svg>
