<?xml version="1.0" encoding="iso-8859-1"?>
<!-- Generator: Adobe Illustrator 19.0.0, SVG Export Plug-In . SVG Version: 6.00 Build 0)  -->
<svg version="1.1" id="Capa_1" xmlns="http://www.w3.org/2000/svg" xmlns:xlink="http://www.w3.org/1999/xlink" x="0px" y="0px"
	 viewBox="0 0 60 60" style="enable-background:new 0 0 60 60;" xml:space="preserve">
<g>
	<path d="M60,30C60,13.458,46.542,0,30,0S0,13.458,0,30c0,8.485,3.547,16.153,9.229,21.615L9.197,51.64l0.891,0.792
		c2.089,1.856,4.407,3.392,6.881,4.587c0.103,0.05,0.209,0.095,0.313,0.144c0.311,0.146,0.622,0.29,0.938,0.425
		c0.195,0.083,0.393,0.16,0.59,0.24c0.229,0.092,0.458,0.186,0.689,0.272c0.237,0.089,0.477,0.171,0.716,0.254
		c0.197,0.068,0.394,0.137,0.592,0.201c0.258,0.083,0.519,0.161,0.78,0.237c0.186,0.054,0.372,0.109,0.56,0.159
		c0.268,0.073,0.537,0.141,0.807,0.206c0.188,0.045,0.377,0.089,0.566,0.131c0.268,0.059,0.536,0.116,0.807,0.167
		c0.202,0.039,0.404,0.074,0.607,0.109c0.259,0.044,0.518,0.088,0.779,0.125c0.229,0.033,0.459,0.06,0.689,0.088
		c0.238,0.029,0.476,0.059,0.716,0.082c0.284,0.027,0.569,0.046,0.854,0.065c0.191,0.013,0.381,0.03,0.574,0.039
		C29.029,59.987,29.514,60,30,60c0.485,0,0.969-0.013,1.452-0.037c0.194-0.009,0.386-0.027,0.579-0.04
		c0.281-0.019,0.563-0.037,0.842-0.064c0.245-0.023,0.487-0.054,0.73-0.083c0.223-0.027,0.446-0.053,0.668-0.085
		c0.269-0.039,0.536-0.083,0.802-0.129c0.191-0.033,0.382-0.066,0.573-0.103c0.282-0.054,0.563-0.112,0.842-0.174
		c0.173-0.038,0.345-0.078,0.517-0.119c0.287-0.069,0.573-0.141,0.856-0.218c0.164-0.045,0.328-0.092,0.491-0.14
		c0.284-0.083,0.567-0.166,0.847-0.257c0.167-0.054,0.332-0.112,0.497-0.168c0.271-0.093,0.542-0.186,0.81-0.286
		c0.188-0.071,0.374-0.147,0.561-0.221c0.24-0.096,0.48-0.189,0.717-0.29c0.266-0.114,0.528-0.237,0.791-0.358
		c0.152-0.071,0.308-0.137,0.459-0.21c2.449-1.183,4.745-2.702,6.818-4.533l0.893-0.788l-0.031-0.025C56.429,46.205,60,38.514,60,30
		z M2,30C2,14.561,14.561,2,30,2s28,12.561,28,28c0,8.057-3.425,15.325-8.89,20.438C43.543,46.238,36.941,44,29.939,44
		c-6.971,0-13.55,2.219-19.104,6.386C5.403,45.276,2,38.03,2,30z M47.284,52.004c-0.456,0.358-0.919,0.704-1.394,1.032
		c-0.126,0.087-0.251,0.175-0.378,0.26c-0.532,0.355-1.077,0.688-1.63,1.004c-0.122,0.07-0.242,0.142-0.365,0.21
		c-0.597,0.33-1.207,0.637-1.825,0.921c-0.107,0.049-0.214,0.097-0.321,0.146c-0.651,0.29-1.311,0.559-1.982,0.798
		c-0.049,0.018-0.099,0.033-0.149,0.05c-1.409,0.493-2.858,0.872-4.334,1.135c-0.087,0.016-0.173,0.032-0.26,0.047
		c-0.701,0.118-1.409,0.209-2.12,0.273c-0.113,0.01-0.226,0.017-0.339,0.026C31.462,57.963,30.733,58,30,58
		c-0.736,0-1.468-0.037-2.196-0.094c-0.114-0.009-0.228-0.016-0.341-0.026c-0.711-0.064-1.417-0.156-2.117-0.274
		c-0.096-0.016-0.19-0.034-0.286-0.051c-0.728-0.13-1.45-0.283-2.163-0.47c-0.004-0.001-0.008-0.002-0.012-0.003
		c-0.723-0.19-1.437-0.414-2.142-0.661c-0.059-0.021-0.118-0.039-0.177-0.06c-0.661-0.237-1.311-0.503-1.952-0.789
		c-0.122-0.054-0.244-0.109-0.365-0.165c-0.605-0.28-1.201-0.582-1.786-0.906c-0.141-0.078-0.279-0.16-0.419-0.241
		c-0.56-0.323-1.112-0.66-1.65-1.022c-0.13-0.087-0.255-0.18-0.383-0.27c-0.463-0.322-0.915-0.661-1.36-1.013
		c-0.099-0.078-0.199-0.154-0.297-0.233C17.49,47.974,23.544,46,29.939,46c6.424,0,12.499,1.99,17.646,5.767
		C47.486,51.847,47.385,51.925,47.284,52.004z"/>
	<path d="M30,8c0.553,0,1-0.447,1-1V5c0-0.553-0.447-1-1-1s-1,0.447-1,1v2C29,7.553,29.447,8,30,8z"/>
	<path d="M52.5,30c0,0.553,0.447,1,1,1h2c0.553,0,1-0.447,1-1s-0.447-1-1-1h-2C52.947,29,52.5,29.447,52.5,30z"/>
	<path d="M7.5,30c0-0.553-0.447-1-1-1h-2c-0.553,0-1,0.447-1,1s0.447,1,1,1h2C7.053,31,7.5,30.553,7.5,30z"/>
	<path d="M41.25,11.015c0.157,0.091,0.329,0.134,0.499,0.134c0.346,0,0.682-0.18,0.867-0.5l1-1.732
		c0.276-0.479,0.112-1.09-0.366-1.366c-0.479-0.277-1.09-0.112-1.366,0.366l-1,1.732C40.607,10.127,40.771,10.738,41.25,11.015z"/>
	<path d="M52.584,42.384l-1.732-1c-0.478-0.277-1.091-0.112-1.366,0.366c-0.276,0.479-0.112,1.09,0.366,1.366l1.732,1
		c0.157,0.091,0.329,0.134,0.499,0.134c0.346,0,0.682-0.18,0.867-0.5C53.227,43.271,53.063,42.66,52.584,42.384z"/>
	<path d="M7.416,18.616l1.732,1c0.157,0.091,0.329,0.134,0.499,0.134c0.346,0,0.682-0.18,0.867-0.5
		c0.276-0.479,0.112-1.09-0.366-1.366l-1.732-1c-0.478-0.276-1.09-0.112-1.366,0.366S6.938,18.34,7.416,18.616z"/>
	<path d="M17.379,10.615c0.186,0.32,0.521,0.5,0.867,0.5c0.17,0,0.342-0.043,0.499-0.134c0.479-0.276,0.643-0.888,0.366-1.366
		l-1-1.732c-0.276-0.479-0.89-0.643-1.366-0.366c-0.479,0.276-0.643,0.888-0.366,1.366L17.379,10.615z"/>
	<path d="M50.099,19.283c0.17,0,0.342-0.043,0.499-0.134l1.731-1c0.479-0.276,0.643-0.888,0.366-1.366
		c-0.277-0.479-0.89-0.643-1.366-0.366l-1.731,1c-0.479,0.276-0.643,0.888-0.366,1.366C49.417,19.104,49.753,19.283,50.099,19.283z"
		/>
	<path d="M10.26,41.283c-0.277-0.479-0.89-0.643-1.366-0.366l-1.731,1c-0.479,0.276-0.643,0.888-0.366,1.366
		c0.186,0.321,0.521,0.5,0.867,0.5c0.17,0,0.342-0.043,0.499-0.134l1.731-1C10.372,42.373,10.536,41.762,10.26,41.283z"/>
	<path d="M30,32.879c1.068,0,2.073-0.416,2.828-1.172C33.584,30.951,34,29.947,34,28.879c0-0.646-0.168-1.26-0.455-1.817
		l8.476-8.476c0.391-0.391,0.391-1.023,0-1.414s-1.023-0.391-1.414,0l-8.387,8.387c-1.537-0.996-3.724-0.833-5.047,0.492
		C26.416,26.806,26,27.81,26,28.879c0,1.068,0.416,2.072,1.172,2.828C27.927,32.463,28.932,32.879,30,32.879z M28.586,27.465
		c0.378-0.378,0.88-0.586,1.414-0.586s1.036,0.208,1.414,0.586S32,28.345,32,28.879s-0.208,1.036-0.586,1.414
		c-0.756,0.756-2.072,0.756-2.828,0C28.208,29.915,28,29.413,28,28.879S28.208,27.843,28.586,27.465z"/>
</g>
<g>
</g>
<g>
</g>
<g>
</g>
<g>
</g>
<g>
</g>
<g>
</g>
<g>
</g>
<g>
</g>
<g>
</g>
<g>
</g>
<g>
</g>
<g>
</g>
<g>
</g>
<g>
</g>
<g>
</g>
</svg>
