<?xml version="1.0" encoding="iso-8859-1"?>
<!-- Generator: Adobe Illustrator 19.0.0, SVG Export Plug-In . SVG Version: 6.00 Build 0)  -->
<svg version="1.1" id="Capa_1" xmlns="http://www.w3.org/2000/svg" xmlns:xlink="http://www.w3.org/1999/xlink" x="0px" y="0px"
	 viewBox="0 0 60 60" style="enable-background:new 0 0 60 60;" xml:space="preserve">
<g>
	<path d="M43,12H31V9.899C33.279,9.434,35,7.414,35,5c0-2.757-2.243-5-5-5s-5,2.243-5,5c0,2.414,1.721,4.434,4,4.899V12H17
		c-3.86,0-7,3.141-7,7s3.14,7,7,7h12v24h-5v4h-3v6h18v-6h-3v-4h-5V26h12c3.86,0,7-3.141,7-7S46.86,12,43,12z M27,5
		c0-1.654,1.346-3,3-3s3,1.346,3,3s-1.346,3-3,3S27,6.654,27,5z M37,56v2H23v-2h1h12H37z M34,54h-8v-2h8V54z M43,24H17
		c-2.757,0-5-2.243-5-5s2.243-5,5-5h26c2.757,0,5,2.243,5,5S45.757,24,43,24z"/>
	<path d="M25,18h10c0.552,0,1-0.447,1-1s-0.448-1-1-1H25c-0.552,0-1,0.447-1,1S24.448,18,25,18z"/>
	<path d="M44,20H17c-0.552,0-1,0.447-1,1s0.448,1,1,1h27c0.552,0,1-0.447,1-1S44.552,20,44,20z"/>
</g>
<g>
</g>
<g>
</g>
<g>
</g>
<g>
</g>
<g>
</g>
<g>
</g>
<g>
</g>
<g>
</g>
<g>
</g>
<g>
</g>
<g>
</g>
<g>
</g>
<g>
</g>
<g>
</g>
<g>
</g>
</svg>
