<?xml version="1.0" encoding="iso-8859-1"?>
<!-- Generator: Adobe Illustrator 19.0.0, SVG Export Plug-In . SVG Version: 6.00 Build 0)  -->
<svg version="1.1" id="Capa_1" xmlns="http://www.w3.org/2000/svg" xmlns:xlink="http://www.w3.org/1999/xlink" x="0px" y="0px"
	 viewBox="0 0 60 60" style="enable-background:new 0 0 60 60;" xml:space="preserve">
<g>
	<path d="M52.472,0H7.528C3.377,0,0,3.377,0,7.528v44.943C0,56.623,3.377,60,7.528,60h44.943C56.623,60,60,56.623,60,52.472V7.528
		C60,3.377,56.623,0,52.472,0z M58,52.472C58,55.52,55.52,58,52.472,58H7.528C4.48,58,2,55.52,2,52.472V7.528C2,4.48,4.48,2,7.528,2
		h44.943C55.52,2,58,4.48,58,7.528V52.472z"/>
	<path d="M44,6H16C9.935,6,5,10.935,5,17s4.935,11,11,11h28c6.065,0,11-4.935,11-11S50.065,6,44,6z M16,26c-4.963,0-9-4.037-9-9
		s4.037-9,9-9h21.695C34.861,9.992,33,13.28,33,17s1.861,7.008,4.695,9H16z M44,26c-4.963,0-9-4.037-9-9s4.037-9,9-9s9,4.037,9,9
		S48.963,26,44,26z"/>
	<path d="M44,32H16C9.935,32,5,36.935,5,43s4.935,11,11,11h28c6.065,0,11-4.935,11-11S50.065,32,44,32z M7,43c0-4.963,4.037-9,9-9
		s9,4.037,9,9s-4.037,9-9,9S7,47.963,7,43z M52.435,39.891C52.794,40.861,53,41.906,53,43c0,0.52-0.054,1.026-0.139,1.521
		C52.69,44.215,52.375,44,52,44c-0.552,0-1,0.448-1,1c0,0.552,0.448,1,1,1c0.204,0,0.383-0.076,0.541-0.181
		c-0.893,2.697-3.026,4.83-5.723,5.723C46.924,51.383,47,51.204,47,51c0-0.552-0.448-1-1-1s-1,0.448-1,1
		c0,0.375,0.215,0.69,0.521,0.861C45.026,51.946,44.52,52,44,52h-4h-6h-6h-5.695C25.139,50.008,27,46.72,27,43
		c0-2.229-0.671-4.302-1.815-6.037C25.645,36.873,26,36.487,26,36c0-0.552-0.448-1-1-1c-0.402,0-0.743,0.24-0.902,0.582
		c-0.54-0.589-1.138-1.121-1.793-1.582H44c1.619,0,3.136,0.436,4.45,1.187C48.185,35.367,48,35.656,48,36c0,0.552,0.448,1,1,1
		c0.459,0,0.83-0.316,0.947-0.737c0.615,0.543,1.156,1.166,1.604,1.857C51.228,38.285,51,38.612,51,39c0,0.552,0.448,1,1,1
		C52.158,40,52.302,39.956,52.435,39.891z"/>
	<circle cx="28" cy="39" r="1"/>
	<circle cx="31" cy="36" r="1"/>
	<circle cx="37" cy="36" r="1"/>
	<circle cx="34" cy="39" r="1"/>
	<circle cx="40" cy="39" r="1"/>
	<circle cx="43" cy="36" r="1"/>
	<circle cx="46" cy="39" r="1"/>
	<circle cx="28" cy="45" r="1"/>
	<circle cx="28" cy="51" r="1"/>
	<circle cx="31" cy="42" r="1"/>
	<circle cx="37" cy="42" r="1"/>
	<circle cx="31" cy="48" r="1"/>
	<circle cx="37" cy="48" r="1"/>
	<circle cx="34" cy="45" r="1"/>
	<circle cx="40" cy="45" r="1"/>
	<circle cx="34" cy="51" r="1"/>
	<circle cx="40" cy="51" r="1"/>
	<circle cx="43" cy="42" r="1"/>
	<circle cx="49" cy="42" r="1"/>
	<circle cx="43" cy="48" r="1"/>
	<circle cx="49" cy="48" r="1"/>
	<circle cx="46" cy="45" r="1"/>
</g>
<g>
</g>
<g>
</g>
<g>
</g>
<g>
</g>
<g>
</g>
<g>
</g>
<g>
</g>
<g>
</g>
<g>
</g>
<g>
</g>
<g>
</g>
<g>
</g>
<g>
</g>
<g>
</g>
<g>
</g>
</svg>
