<?xml version="1.0" encoding="iso-8859-1"?>
<!-- Generator: Adobe Illustrator 19.0.0, SVG Export Plug-In . SVG Version: 6.00 Build 0)  -->
<svg version="1.1" id="Capa_1" xmlns="http://www.w3.org/2000/svg" xmlns:xlink="http://www.w3.org/1999/xlink" x="0px" y="0px"
	 viewBox="0 0 60 60" style="enable-background:new 0 0 60 60;" xml:space="preserve">
<g>
	<path d="M56.008,14h-28H3.992C1.791,14,0,15.791,0,17.992v24.016C0,44.209,1.791,46,3.992,46h24.016h28
		C58.209,46,60,44.209,60,42.008V17.992C60,15.791,58.209,14,56.008,14z M3.992,44C2.894,44,2,43.106,2,42.008V17.992
		C2,16.894,2.894,16,3.992,16h24.016C29.106,16,30,16.894,30,17.992v24.016C30,43.106,29.106,44,28.008,44H3.992z M58,42.008
		C58,43.106,57.106,44,56.008,44H31.447C31.789,43.411,32,42.737,32,42.008V17.992c0-0.729-0.211-1.403-0.553-1.992h24.561
		C57.106,16,58,16.894,58,17.992V42.008z"/>
	<circle cx="35" cy="21" r="1"/>
	<circle cx="41" cy="21" r="1"/>
	<circle cx="38" cy="18" r="1"/>
	<circle cx="44" cy="18" r="1"/>
	<circle cx="38" cy="24" r="1"/>
	<circle cx="44" cy="24" r="1"/>
	<circle cx="47" cy="21" r="1"/>
	<circle cx="53" cy="21" r="1"/>
	<circle cx="50" cy="18" r="1"/>
	<circle cx="56" cy="18" r="1"/>
	<circle cx="50" cy="24" r="1"/>
	<circle cx="56" cy="24" r="1"/>
	<circle cx="35" cy="39" r="1"/>
	<circle cx="38" cy="42" r="1"/>
	<circle cx="41" cy="39" r="1"/>
	<circle cx="47" cy="39" r="1"/>
	<circle cx="44" cy="42" r="1"/>
	<circle cx="50" cy="42" r="1"/>
	<circle cx="53" cy="39" r="1"/>
	<circle cx="56" cy="42" r="1"/>
	<circle cx="35" cy="27" r="1"/>
	<circle cx="41" cy="27" r="1"/>
	<circle cx="35" cy="33" r="1"/>
	<circle cx="41" cy="33" r="1"/>
	<circle cx="38" cy="30" r="1"/>
	<circle cx="44" cy="30" r="1"/>
	<circle cx="38" cy="36" r="1"/>
	<circle cx="44" cy="36" r="1"/>
	<circle cx="47" cy="27" r="1"/>
	<circle cx="53" cy="27" r="1"/>
	<circle cx="47" cy="33" r="1"/>
	<circle cx="53" cy="33" r="1"/>
	<circle cx="50" cy="30" r="1"/>
	<circle cx="56" cy="30" r="1"/>
	<circle cx="50" cy="36" r="1"/>
	<circle cx="56" cy="36" r="1"/>
	<path d="M13,26c-0.552,0-1,0.447-1,1v6c0,0.553,0.448,1,1,1s1-0.447,1-1v-6C14,26.447,13.552,26,13,26z"/>
	<path d="M16,26c-0.552,0-1,0.447-1,1v6c0,0.553,0.448,1,1,1s1-0.447,1-1v-6C17,26.447,16.552,26,16,26z"/>
	<path d="M19,26c-0.552,0-1,0.447-1,1v6c0,0.553,0.448,1,1,1s1-0.447,1-1v-6C20,26.447,19.552,26,19,26z"/>
</g>
<g>
</g>
<g>
</g>
<g>
</g>
<g>
</g>
<g>
</g>
<g>
</g>
<g>
</g>
<g>
</g>
<g>
</g>
<g>
</g>
<g>
</g>
<g>
</g>
<g>
</g>
<g>
</g>
<g>
</g>
</svg>
