<?xml version="1.0" encoding="iso-8859-1"?>
<!-- Generator: Adobe Illustrator 19.0.0, SVG Export Plug-In . SVG Version: 6.00 Build 0)  -->
<svg version="1.1" id="Capa_1" xmlns="http://www.w3.org/2000/svg" xmlns:xlink="http://www.w3.org/1999/xlink" x="0px" y="0px"
	 viewBox="0 0 60 60" style="enable-background:new 0 0 60 60;" xml:space="preserve">
<g>
	<path d="M53,23H26.106c-2.425-4.177-6.937-7-12.106-7C6.28,16,0,22.28,0,30s6.28,14,14,14c5.168,0,9.681-2.823,12.106-7H53
		c3.86,0,7-3.141,7-7S56.86,23,53,23z M14,42C7.383,42,2,36.617,2,30s5.383-12,12-12c4.662,0,8.702,2.678,10.688,6.572
		c0.179,0.352,0.338,0.709,0.481,1.071c0.046,0.117,0.087,0.235,0.13,0.353c0.105,0.295,0.197,0.593,0.278,0.893
		c0.04,0.149,0.081,0.297,0.115,0.448c0.067,0.294,0.118,0.592,0.162,0.891c0.021,0.144,0.05,0.286,0.066,0.432
		C25.97,29.102,26,29.548,26,30s-0.03,0.898-0.08,1.34c-0.016,0.146-0.045,0.288-0.066,0.432c-0.045,0.299-0.095,0.597-0.162,0.891
		c-0.034,0.151-0.075,0.299-0.115,0.448c-0.081,0.301-0.173,0.599-0.278,0.893c-0.042,0.118-0.084,0.237-0.13,0.353
		c-0.142,0.362-0.302,0.719-0.481,1.071C22.702,39.322,18.662,42,14,42z M53,35H27.074c0.051-0.133,0.088-0.27,0.135-0.405
		c0.072-0.207,0.146-0.413,0.208-0.624c0.075-0.25,0.135-0.503,0.195-0.756c0.041-0.172,0.086-0.342,0.121-0.516
		c0.06-0.305,0.102-0.615,0.141-0.924c0.017-0.136,0.043-0.269,0.056-0.406C27.975,30.916,28,30.46,28,30s-0.025-0.916-0.069-1.368
		c-0.013-0.137-0.039-0.27-0.056-0.406c-0.039-0.31-0.081-0.619-0.141-0.924c-0.034-0.174-0.08-0.344-0.121-0.516
		c-0.06-0.253-0.12-0.506-0.195-0.756c-0.063-0.211-0.136-0.417-0.208-0.624c-0.047-0.134-0.084-0.272-0.135-0.405H53
		c2.757,0,5,2.243,5,5S55.757,35,53,35z"/>
	<circle cx="34" cy="30" r="1"/>
	<circle cx="31" cy="27" r="1"/>
	<circle cx="37" cy="27" r="1"/>
	<circle cx="31" cy="33" r="1"/>
	<circle cx="37" cy="33" r="1"/>
	<circle cx="40" cy="30" r="1"/>
	<circle cx="46" cy="30" r="1"/>
	<circle cx="43" cy="27" r="1"/>
	<circle cx="49" cy="27" r="1"/>
	<circle cx="43" cy="33" r="1"/>
	<circle cx="49" cy="33" r="1"/>
	<circle cx="52" cy="30" r="1"/>
	<circle cx="55" cy="27" r="1"/>
	<circle cx="55" cy="33" r="1"/>
</g>
<g>
</g>
<g>
</g>
<g>
</g>
<g>
</g>
<g>
</g>
<g>
</g>
<g>
</g>
<g>
</g>
<g>
</g>
<g>
</g>
<g>
</g>
<g>
</g>
<g>
</g>
<g>
</g>
<g>
</g>
</svg>
