<?xml version="1.0" encoding="iso-8859-1"?>
<!-- Generator: Adobe Illustrator 19.0.0, SVG Export Plug-In . SVG Version: 6.00 Build 0)  -->
<svg version="1.1" id="Capa_1" xmlns="http://www.w3.org/2000/svg" xmlns:xlink="http://www.w3.org/1999/xlink" x="0px" y="0px"
	 viewBox="0 0 60 60" style="enable-background:new 0 0 60 60;" xml:space="preserve">
<g>
	<path d="M46,16c-5.168,0-9.681,2.823-12.106,7H7c-3.86,0-7,3.141-7,7s3.14,7,7,7h26.894c2.425,4.177,6.937,7,12.106,7
		c7.72,0,14-6.28,14-14S53.72,16,46,16z M32.926,35H7c-2.757,0-5-2.243-5-5s2.243-5,5-5h25.926c-0.051,0.133-0.088,0.27-0.135,0.404
		c-0.072,0.207-0.146,0.413-0.209,0.625c-0.074,0.249-0.134,0.502-0.194,0.754c-0.041,0.173-0.087,0.343-0.121,0.518
		c-0.06,0.305-0.102,0.613-0.141,0.922c-0.017,0.137-0.043,0.271-0.056,0.409C32.025,29.084,32,29.54,32,30s0.025,0.916,0.069,1.368
		c0.013,0.138,0.039,0.272,0.056,0.409c0.039,0.309,0.081,0.617,0.141,0.922c0.034,0.175,0.08,0.345,0.121,0.518
		c0.06,0.253,0.12,0.505,0.194,0.754c0.063,0.211,0.136,0.418,0.209,0.625C32.838,34.73,32.874,34.867,32.926,35z M46,42
		c-4.662,0-8.702-2.678-10.688-6.572c-0.179-0.352-0.338-0.709-0.481-1.071c-0.046-0.117-0.087-0.235-0.13-0.353
		c-0.105-0.295-0.197-0.593-0.278-0.893c-0.04-0.149-0.081-0.297-0.115-0.448c-0.067-0.294-0.118-0.592-0.162-0.891
		c-0.021-0.144-0.05-0.286-0.066-0.432C34.03,30.898,34,30.452,34,30s0.03-0.898,0.08-1.34c0.016-0.146,0.045-0.288,0.066-0.432
		c0.045-0.299,0.095-0.597,0.162-0.891c0.034-0.151,0.075-0.299,0.115-0.448c0.081-0.301,0.173-0.599,0.278-0.893
		c0.042-0.118,0.084-0.237,0.13-0.353c0.142-0.362,0.302-0.719,0.481-1.071C37.298,20.678,41.338,18,46,18c6.617,0,12,5.383,12,12
		S52.617,42,46,42z"/>
	<circle cx="26" cy="30" r="1"/>
	<circle cx="29" cy="27" r="1"/>
	<circle cx="23" cy="27" r="1"/>
	<circle cx="29" cy="33" r="1"/>
	<circle cx="23" cy="33" r="1"/>
	<circle cx="20" cy="30" r="1"/>
	<circle cx="14" cy="30" r="1"/>
	<circle cx="17" cy="27" r="1"/>
	<circle cx="11" cy="27" r="1"/>
	<circle cx="17" cy="33" r="1"/>
	<circle cx="11" cy="33" r="1"/>
	<circle cx="8" cy="30" r="1"/>
	<circle cx="5" cy="27" r="1"/>
	<circle cx="5" cy="33" r="1"/>
</g>
<g>
</g>
<g>
</g>
<g>
</g>
<g>
</g>
<g>
</g>
<g>
</g>
<g>
</g>
<g>
</g>
<g>
</g>
<g>
</g>
<g>
</g>
<g>
</g>
<g>
</g>
<g>
</g>
<g>
</g>
</svg>
