<?xml version="1.0" encoding="iso-8859-1"?>
<!-- Generator: Adobe Illustrator 19.0.0, SVG Export Plug-In . SVG Version: 6.00 Build 0)  -->
<svg version="1.1" id="Capa_1" xmlns="http://www.w3.org/2000/svg" xmlns:xlink="http://www.w3.org/1999/xlink" x="0px" y="0px"
	 viewBox="0 0 60 60" style="enable-background:new 0 0 60 60;" xml:space="preserve">
<g>
	<path d="M42,12H18C8.075,12,0,20.075,0,30s8.075,18,18,18h24c9.925,0,18-8.075,18-18S51.925,12,42,12z M42,46H18
		C9.178,46,2,38.822,2,30s7.178-16,16-16h24c8.822,0,16,7.178,16,16S50.822,46,42,46z"/>
	<path d="M42,17c-7.168,0-13,5.832-13,13s5.832,13,13,13s13-5.832,13-13S49.168,17,42,17z M42,41c-6.065,0-11-4.935-11-11
		s4.935-11,11-11s11,4.935,11,11S48.065,41,42,41z"/>
	<path d="M17,21c-0.553,0-1,0.447-1,1v16c0,0.553,0.447,1,1,1s1-0.447,1-1V22C18,21.447,17.553,21,17,21z"/>
</g>
<g>
</g>
<g>
</g>
<g>
</g>
<g>
</g>
<g>
</g>
<g>
</g>
<g>
</g>
<g>
</g>
<g>
</g>
<g>
</g>
<g>
</g>
<g>
</g>
<g>
</g>
<g>
</g>
<g>
</g>
</svg>
