<?xml version="1.0" encoding="iso-8859-1"?>
<!-- Generator: Adobe Illustrator 19.0.0, SVG Export Plug-In . SVG Version: 6.00 Build 0)  -->
<svg version="1.1" id="Capa_1" xmlns="http://www.w3.org/2000/svg" xmlns:xlink="http://www.w3.org/1999/xlink" x="0px" y="0px"
	 viewBox="0 0 60 60" style="enable-background:new 0 0 60 60;" xml:space="preserve">
<g>
	<path d="M56.008,14H31.992h-28C1.791,14,0,15.791,0,17.992v24.016C0,44.209,1.791,46,3.992,46h28h24.016
		C58.209,46,60,44.209,60,42.008V17.992C60,15.791,58.209,14,56.008,14z M2,42.008V17.992C2,16.894,2.894,16,3.992,16h24.561
		C28.211,16.589,28,17.263,28,17.992v24.016c0,0.729,0.211,1.403,0.553,1.992H3.992C2.894,44,2,43.106,2,42.008z M58,42.008
		C58,43.106,57.106,44,56.008,44H31.992C30.894,44,30,43.106,30,42.008V17.992C30,16.894,30.894,16,31.992,16h24.016
		C57.106,16,58,16.894,58,17.992V42.008z"/>
	<circle cx="25" cy="39" r="1"/>
	<circle cx="19" cy="39" r="1"/>
	<circle cx="22" cy="42" r="1"/>
	<circle cx="16" cy="42" r="1"/>
	<circle cx="22" cy="36" r="1"/>
	<circle cx="16" cy="36" r="1"/>
	<circle cx="13" cy="39" r="1"/>
	<circle cx="7" cy="39" r="1"/>
	<circle cx="10" cy="42" r="1"/>
	<circle cx="4" cy="42" r="1"/>
	<circle cx="10" cy="36" r="1"/>
	<circle cx="4" cy="36" r="1"/>
	<circle cx="25" cy="21" r="1"/>
	<circle cx="22" cy="18" r="1"/>
	<circle cx="19" cy="21" r="1"/>
	<circle cx="13" cy="21" r="1"/>
	<circle cx="16" cy="18" r="1"/>
	<circle cx="10" cy="18" r="1"/>
	<circle cx="7" cy="21" r="1"/>
	<circle cx="4" cy="18" r="1"/>
	<circle cx="25" cy="33" r="1"/>
	<circle cx="19" cy="33" r="1"/>
	<circle cx="25" cy="27" r="1"/>
	<circle cx="19" cy="27" r="1"/>
	<circle cx="22" cy="30" r="1"/>
	<circle cx="16" cy="30" r="1"/>
	<circle cx="22" cy="24" r="1"/>
	<circle cx="16" cy="24" r="1"/>
	<circle cx="13" cy="33" r="1"/>
	<circle cx="7" cy="33" r="1"/>
	<circle cx="13" cy="27" r="1"/>
	<circle cx="7" cy="27" r="1"/>
	<circle cx="10" cy="30" r="1"/>
	<circle cx="4" cy="30" r="1"/>
	<circle cx="10" cy="24" r="1"/>
	<circle cx="4" cy="24" r="1"/>
	<path d="M47,26c-0.552,0-1,0.447-1,1v6c0,0.553,0.448,1,1,1s1-0.447,1-1v-6C48,26.447,47.552,26,47,26z"/>
	<path d="M44,26c-0.552,0-1,0.447-1,1v6c0,0.553,0.448,1,1,1s1-0.447,1-1v-6C45,26.447,44.552,26,44,26z"/>
	<path d="M41,26c-0.552,0-1,0.447-1,1v6c0,0.553,0.448,1,1,1s1-0.447,1-1v-6C42,26.447,41.552,26,41,26z"/>
</g>
<g>
</g>
<g>
</g>
<g>
</g>
<g>
</g>
<g>
</g>
<g>
</g>
<g>
</g>
<g>
</g>
<g>
</g>
<g>
</g>
<g>
</g>
<g>
</g>
<g>
</g>
<g>
</g>
<g>
</g>
</svg>
