<?xml version="1.0" encoding="iso-8859-1"?>
<!-- Generator: Adobe Illustrator 19.0.0, SVG Export Plug-In . SVG Version: 6.00 Build 0)  -->
<svg version="1.1" id="Capa_1" xmlns="http://www.w3.org/2000/svg" xmlns:xlink="http://www.w3.org/1999/xlink" x="0px" y="0px"
	 viewBox="0 0 58 58" style="enable-background:new 0 0 58 58;" xml:space="preserve">
<g>
	<path d="M40,21.314V10.22C40,4.585,35.065,0,29,0S18,4.585,18,10.22c0,0.553,0.447,1,1,1s1-0.447,1-1C20,5.688,24.037,2,29,2
		s9,3.688,9,8.22v9.938c-0.188-0.095-0.38-0.179-0.57-0.268c-0.393-0.184-0.792-0.356-1.198-0.515
		c-0.261-0.102-0.523-0.198-0.787-0.289c-0.26-0.089-0.518-0.178-0.782-0.256c-0.437-0.13-0.879-0.241-1.324-0.341
		c-0.193-0.043-0.387-0.084-0.582-0.122c-0.523-0.101-1.049-0.183-1.579-0.242c-0.12-0.013-0.24-0.021-0.36-0.032
		C30.213,18.036,29.608,18,29,18C17.972,18,9,26.972,9,38s8.972,20,20,20s20-8.972,20-20C49,31.034,45.416,24.896,40,21.314z M29,56
		c-9.925,0-18-8.075-18-18s8.075-18,18-18c0.54,0,1.072,0.034,1.601,0.081c0.171,0.016,0.341,0.034,0.512,0.054
		c0.377,0.044,0.749,0.104,1.118,0.171c0.256,0.047,0.511,0.098,0.765,0.156c0.348,0.079,0.693,0.167,1.033,0.266
		c0.277,0.081,0.551,0.173,0.824,0.268c0.179,0.062,0.355,0.128,0.531,0.195c0.991,0.38,1.953,0.847,2.873,1.401
		C43.485,25.745,47,31.463,47,38C47,47.925,38.925,56,29,56z"/>
	<path d="M41,37h-3.059c-0.193-1.733-0.88-3.316-1.916-4.611l2.167-2.167c0.391-0.391,0.391-1.023,0-1.414s-1.023-0.391-1.414,0
		l-2.167,2.167c-1.295-1.036-2.878-1.723-4.611-1.916V26c0-0.553-0.447-1-1-1s-1,0.447-1,1v3.059
		c-1.733,0.193-3.316,0.88-4.611,1.916l-2.167-2.167c-0.391-0.391-1.023-0.391-1.414,0s-0.391,1.023,0,1.414l2.167,2.167
		c-1.036,1.295-1.723,2.878-1.916,4.611H17c-0.553,0-1,0.447-1,1s0.447,1,1,1h3.059c0.193,1.733,0.88,3.316,1.916,4.611
		l-2.167,2.167c-0.391,0.391-0.391,1.023,0,1.414c0.195,0.195,0.451,0.293,0.707,0.293s0.512-0.098,0.707-0.293l2.167-2.167
		c1.295,1.036,2.878,1.723,4.611,1.916V50c0,0.553,0.447,1,1,1s1-0.447,1-1v-3.059c1.733-0.193,3.316-0.88,4.611-1.916l2.167,2.167
		c0.195,0.195,0.451,0.293,0.707,0.293s0.512-0.098,0.707-0.293c0.391-0.391,0.391-1.023,0-1.414l-2.167-2.167
		c1.036-1.295,1.723-2.878,1.916-4.611H41c0.553,0,1-0.447,1-1S41.553,37,41,37z M29,45c-3.859,0-7-3.141-7-7s3.141-7,7-7
		s7,3.141,7,7S32.859,45,29,45z"/>
</g>
<g>
</g>
<g>
</g>
<g>
</g>
<g>
</g>
<g>
</g>
<g>
</g>
<g>
</g>
<g>
</g>
<g>
</g>
<g>
</g>
<g>
</g>
<g>
</g>
<g>
</g>
<g>
</g>
<g>
</g>
</svg>
