<?xml version="1.0" encoding="iso-8859-1"?>
<!-- Generator: Adobe Illustrator 19.0.0, SVG Export Plug-In . SVG Version: 6.00 Build 0)  -->
<svg version="1.1" id="Capa_1" xmlns="http://www.w3.org/2000/svg" xmlns:xlink="http://www.w3.org/1999/xlink" x="0px" y="0px"
	 viewBox="0 0 58 58" style="enable-background:new 0 0 58 58;" xml:space="preserve">
<g>
	<path d="M29,30c-2.206,0-4,1.794-4,4v6c0,2.206,1.794,4,4,4s4-1.794,4-4v-6C33,31.794,31.206,30,29,30z M31,40c0,1.103-0.897,2-2,2
		s-2-0.897-2-2v-6c0-1.103,0.897-2,2-2s2,0.897,2,2V40z"/>
	<path d="M40,21.314V10.22C40,4.585,35.065,0,29,0S18,4.585,18,10.22c0,0.553,0.447,1,1,1s1-0.447,1-1C20,5.688,24.037,2,29,2
		s9,3.688,9,8.22v9.938c-0.188-0.095-0.38-0.179-0.57-0.268c-0.393-0.184-0.792-0.356-1.198-0.515
		c-0.261-0.102-0.523-0.198-0.787-0.289c-0.26-0.089-0.518-0.178-0.782-0.256c-0.437-0.13-0.879-0.241-1.324-0.341
		c-0.193-0.043-0.387-0.084-0.582-0.122c-0.523-0.101-1.049-0.183-1.579-0.242c-0.12-0.013-0.24-0.021-0.36-0.032
		C30.213,18.036,29.608,18,29,18C17.972,18,9,26.972,9,38s8.972,20,20,20s20-8.972,20-20C49,31.034,45.416,24.896,40,21.314z M29,56
		c-9.925,0-18-8.075-18-18s8.075-18,18-18c0.54,0,1.072,0.034,1.601,0.081c0.171,0.016,0.341,0.034,0.512,0.054
		c0.377,0.044,0.749,0.104,1.118,0.171c0.256,0.047,0.511,0.098,0.765,0.156c0.348,0.079,0.693,0.167,1.033,0.266
		c0.277,0.081,0.551,0.173,0.824,0.268c0.179,0.062,0.355,0.128,0.531,0.195c0.992,0.38,1.953,0.847,2.873,1.401
		C43.485,25.745,47,31.463,47,38C47,47.925,38.925,56,29,56z"/>
</g>
<g>
</g>
<g>
</g>
<g>
</g>
<g>
</g>
<g>
</g>
<g>
</g>
<g>
</g>
<g>
</g>
<g>
</g>
<g>
</g>
<g>
</g>
<g>
</g>
<g>
</g>
<g>
</g>
<g>
</g>
</svg>
