<?xml version="1.0" encoding="iso-8859-1"?>
<!-- Generator: Adobe Illustrator 19.0.0, SVG Export Plug-In . SVG Version: 6.00 Build 0)  -->
<svg version="1.1" id="Capa_1" xmlns="http://www.w3.org/2000/svg" xmlns:xlink="http://www.w3.org/1999/xlink" x="0px" y="0px"
	 viewBox="0 0 60 60" style="enable-background:new 0 0 60 60;" xml:space="preserve">
<path d="M30,60c-7.955,0-23-1.254-23-6v-2.238c0-3.304,1.801-6.338,4.701-7.92l9.261-5.363c0.065-0.036,0.243-0.143,0.686-0.479
	h-7.365c-0.417,0.04-2.533,0.183-4.334-0.895c-0.717-0.429-1.223-1.116-1.427-1.937c-0.206-0.832-0.07-1.728,0.374-2.458
	c1.687-2.777,5.662-10.059,6.166-17.674c0.171-2.597,0.66-4.761,1.493-6.612C18.269,4.617,21.934,0.063,29.669,0
	c13.203,0.108,13.644,13.482,13.646,13.617c0.154,7.971,5.081,15.82,7.191,18.824c0.561,0.799,0.729,1.797,0.462,2.739
	c-0.265,0.934-0.925,1.688-1.811,2.068c-2.403,1.031-5.406,0.76-5.533,0.746L35.955,38c0.331,0.509,0.692,0.942,1.032,1.112
	l10.977,4.753C51.089,45.427,53,48.519,53,51.957V54C53,58.746,37.955,60,30,60z M14.231,36h7.949c0.786,0,1.46,0.48,1.718,1.224
	c0.257,0.741,0.026,1.535-0.59,2.021c-0.85,0.671-1.185,0.879-1.363,0.977l-9.263,5.364C10.402,46.828,9,49.19,9,51.762V54
	c0,1.357,7.412,4,21,4s21-2.643,21-4v-2.043c0-2.677-1.487-5.083-3.881-6.279l-10.977-4.753c-0.986-0.492-1.594-1.418-1.939-2.113
	c-0.301-0.605-0.267-1.311,0.09-1.887C34.653,36.346,35.274,36,35.955,36h7.766c0.121,0.009,2.723,0.238,4.649-0.589
	c0.33-0.142,0.576-0.425,0.676-0.776c0.103-0.36,0.039-0.74-0.174-1.043c-2.216-3.155-7.39-11.413-7.555-19.934
	C41.305,13.189,40.899,2.092,29.669,2c-6.66,0.055-9.817,3.971-11.29,7.245c-0.734,1.631-1.166,3.568-1.321,5.924
	c-0.533,8.056-4.689,15.677-6.452,18.579c-0.169,0.279-0.222,0.621-0.143,0.939c0.074,0.3,0.256,0.549,0.511,0.701
	c1.366,0.816,3.118,0.619,3.135,0.619L14.231,36z"/>
<g>
</g>
<g>
</g>
<g>
</g>
<g>
</g>
<g>
</g>
<g>
</g>
<g>
</g>
<g>
</g>
<g>
</g>
<g>
</g>
<g>
</g>
<g>
</g>
<g>
</g>
<g>
</g>
<g>
</g>
</svg>
