<?xml version="1.0" encoding="iso-8859-1"?>
<!-- Generator: Adobe Illustrator 19.0.0, SVG Export Plug-In . SVG Version: 6.00 Build 0)  -->
<svg version="1.1" id="Capa_1" xmlns="http://www.w3.org/2000/svg" xmlns:xlink="http://www.w3.org/1999/xlink" x="0px" y="0px"
	 viewBox="0 0 60 60" style="enable-background:new 0 0 60 60;" xml:space="preserve">
<path d="M60,30C60,13.458,46.542,0,30,0c-0.226,0-0.449,0.012-0.673,0.017c-0.005,0-0.009,0-0.014,0
	c-0.02,0-0.038,0.002-0.058,0.002c-0.373,0.009-0.746,0.022-1.116,0.045c-0.292,0.017-0.57,0.04-0.847,0.065
	C12.015,1.503,0,14.372,0,30c0,5.583,1.537,10.811,4.204,15.292l-0.005,0.025l0.206,0.336c0.188,0.306,0.391,0.597,0.588,0.895
	c0.061,0.092,0.119,0.185,0.181,0.275c0.252,0.372,0.512,0.734,0.777,1.092c0.012,0.017,0.025,0.033,0.037,0.049
	c4.637,6.216,11.378,10.322,18.942,11.598c0.26,0.044,0.519,0.088,0.781,0.126c0.27,0.038,0.54,0.072,0.811,0.103
	c0.357,0.041,0.716,0.075,1.077,0.103c0.211,0.017,0.422,0.036,0.635,0.048C28.819,59.978,29.407,60,30,60
	c0.551,0,1.098-0.017,1.641-0.047c0.222-0.012,0.442-0.034,0.662-0.051c0.311-0.024,0.623-0.047,0.932-0.08
	c0.294-0.031,0.586-0.072,0.878-0.112c0.219-0.03,0.438-0.059,0.655-0.094c0.351-0.056,0.699-0.12,1.047-0.188
	c0.136-0.027,0.272-0.054,0.407-0.083c0.412-0.086,0.822-0.181,1.229-0.284c0.03-0.008,0.06-0.016,0.091-0.024
	c5.581-1.437,10.626-4.463,14.582-8.802c0.042-0.046,0.084-0.091,0.126-0.138c0.268-0.297,0.531-0.6,0.788-0.91
	c0.09-0.108,0.178-0.218,0.267-0.328c0.161-0.199,0.328-0.391,0.485-0.594l0.208-0.271l0-0.016C57.765,42.966,60,36.74,60,30z
	 M58,30c0,5.463-1.578,10.562-4.295,14.875C52.656,39.88,48.869,35.889,44,34.52V15l-0.012-1h-0.035
	c-0.018-0.285-0.031-0.573-0.064-0.85c-0.477-3.978-2.576-7.498-5.592-9.895C49.698,6.8,58,17.448,58,30z M51.694,47.678
	c-0.084,0.103-0.17,0.204-0.255,0.305c-1.842,2.193-4.015,4.096-6.439,5.641V49h-2v5.788c-1.869,0.984-3.86,1.768-5.947,2.311
	c-0.04,0.01-0.079,0.021-0.119,0.031c-0.379,0.097-0.763,0.184-1.148,0.266c-0.125,0.026-0.25,0.051-0.375,0.075
	c-0.327,0.064-0.655,0.124-0.985,0.176c-0.199,0.031-0.4,0.058-0.6,0.085c-0.275,0.038-0.551,0.076-0.828,0.105
	c-0.283,0.03-0.569,0.051-0.854,0.072c-0.208,0.016-0.414,0.036-0.623,0.048C31.016,57.984,30.509,58,30,58
	c-0.547,0-1.091-0.021-1.632-0.051c-0.199-0.011-0.397-0.03-0.595-0.045c-0.33-0.026-0.658-0.056-0.985-0.093
	c-0.255-0.029-0.51-0.061-0.764-0.097c-0.24-0.034-0.478-0.074-0.716-0.114c-0.314-0.053-0.628-0.104-0.939-0.168
	c-0.012-0.002-0.023-0.005-0.035-0.008c-3.373-0.696-6.521-2.006-9.334-3.798V49h-2v3.228c-2.366-1.814-4.437-3.994-6.123-6.459
	c-0.056-0.082-0.112-0.164-0.167-0.247c-0.131-0.196-0.255-0.395-0.381-0.594c0.613-2.529,2.046-4.706,3.974-6.279L29,55.341
	l18.699-16.694c2.526,2.069,4.177,5.171,4.292,8.655C51.892,47.427,51.795,47.555,51.694,47.678z M16,34.107v-10.23
	c0.025,0.058,0.056,0.114,0.081,0.172c0.145,0.327,0.299,0.646,0.457,0.965c0.071,0.144,0.137,0.29,0.211,0.432
	c0.236,0.454,0.483,0.899,0.744,1.329c0.032,0.053,0.067,0.101,0.1,0.153c0.231,0.374,0.471,0.739,0.72,1.091
	c0.098,0.138,0.202,0.268,0.303,0.402c0.192,0.256,0.386,0.509,0.587,0.749c0.12,0.143,0.243,0.278,0.365,0.415
	c0.194,0.217,0.391,0.426,0.592,0.626c0.131,0.131,0.263,0.257,0.398,0.38c0.207,0.19,0.417,0.367,0.631,0.539
	c0.134,0.108,0.267,0.217,0.404,0.317c0.236,0.173,0.478,0.326,0.721,0.474c0.12,0.073,0.238,0.155,0.36,0.222
	c0.368,0.202,0.742,0.381,1.124,0.522C23.916,32.711,24,32.848,24,33v0.635C24,33.836,23.836,34,23.635,34h-5.945
	c-0.52,0-1.032,0.04-1.54,0.098C16.1,34.104,16.05,34.101,16,34.107z M15.362,36.245c0.306-0.062,0.612-0.111,0.918-0.149
	c0.083-0.01,0.166-0.024,0.249-0.032c0.389-0.04,0.776-0.064,1.16-0.064h5.945C24.938,36,26,34.938,26,33.635V33
	c0-0.986-0.605-1.874-1.509-2.209C19.709,29.022,16,20.85,16,15c0-0.228,0.02-0.451,0.031-0.676l0.492-0.606
	c1.651-1.964,4.469-2.526,7.012-1.4C24.558,12.771,25.646,13,26.772,13c2.971,0,5.64-1.615,7.028-4.184
	c3.302,1.084,6.245,3.158,8.165,5.775l0.022-0.016l0,0.193c0.002,0.117-0.003,0.238-0.004,0.357
	c-0.031,5.177-2.76,11.859-6.646,14.673c-0.05,0.036-0.102,0.065-0.152,0.099c-0.228,0.158-0.458,0.309-0.693,0.439
	c-0.301,0.165-0.607,0.312-0.92,0.429C32.617,31.126,32,31.999,32,32.99v0.645C32,34.938,33.062,36,34.365,36h5.945
	c0.407,0,0.819,0.023,1.232,0.068c0.011,0.001,0.023,0.004,0.034,0.005c0.393,0.044,0.787,0.108,1.18,0.192
	c1.151,0.247,2.237,0.666,3.236,1.225L30,51.766V51c0-4.411,3.589-8,8-8c0.553,0,1-0.447,1-1s-0.447-1-1-1
	c-3.961,0-7.382,2.322-9,5.67C27.382,43.322,23.961,41,20,41c-0.553,0-1,0.447-1,1s0.447,1,1,1c4.411,0,8,3.589,8,8v0.766
	l-15.996-14.28C13.042,36.907,14.173,36.488,15.362,36.245z M27.191,2.141c0.356-0.036,0.716-0.06,1.076-0.082
	c0.318-0.018,0.648-0.031,0.99-0.04c0.022,0,0.044-0.001,0.066-0.002c0.39,0.009,0.782,0.022,1.18,0.068
	c5.061,0.565,9.301,4.147,10.852,8.873c-2.17-1.983-4.892-3.505-7.824-4.311L32.67,6.41l-0.333,0.826
	C31.416,9.522,29.232,11,26.772,11c-0.845,0-1.662-0.172-2.427-0.511c-2.634-1.165-5.497-0.924-7.692,0.499
	C18.168,6.375,22.201,2.823,27.191,2.141z M42,34.107c-0.031-0.004-0.062-0.002-0.094-0.006C41.382,34.04,40.851,34,40.311,34
	h-5.945C34.164,34,34,33.836,34,33.635V32.99c0-0.183,0.149-0.303,0.276-0.351v-0.001c3.346-1.258,6.028-4.578,7.724-8.459V34.107z
	 M18.247,4.595C15.616,7.314,14,10.997,14,15v19.516c-4.055,1.144-7.416,4.119-9.007,8.056C3.083,38.789,2,34.52,2,30
	C2,18.757,8.664,9.047,18.247,4.595z"/>
<g>
</g>
<g>
</g>
<g>
</g>
<g>
</g>
<g>
</g>
<g>
</g>
<g>
</g>
<g>
</g>
<g>
</g>
<g>
</g>
<g>
</g>
<g>
</g>
<g>
</g>
<g>
</g>
<g>
</g>
</svg>
