<?xml version="1.0" encoding="iso-8859-1"?>
<!-- Generator: Adobe Illustrator 19.0.0, SVG Export Plug-In . SVG Version: 6.00 Build 0)  -->
<svg version="1.1" id="Capa_1" xmlns="http://www.w3.org/2000/svg" xmlns:xlink="http://www.w3.org/1999/xlink" x="0px" y="0px"
	 viewBox="0 0 60 60" style="enable-background:new 0 0 60 60;" xml:space="preserve">
<path d="M60,30C60,13.458,46.542,0,30,0S0,13.458,0,30c0,6.142,1.858,11.857,5.038,16.618l-0.002,0.021l0.207,0.303
	c0.18,0.263,0.374,0.512,0.562,0.768c0.076,0.104,0.151,0.209,0.229,0.313c0.238,0.316,0.483,0.626,0.732,0.931
	c0.072,0.088,0.145,0.175,0.218,0.262c1.157,1.385,2.427,2.653,3.793,3.794c0.083,0.069,0.165,0.139,0.249,0.208
	c0.298,0.243,0.599,0.481,0.906,0.712c0.124,0.094,0.25,0.185,0.375,0.277c0.292,0.214,0.584,0.426,0.884,0.629
	c0.16,0.109,0.326,0.211,0.488,0.317c0.416,0.27,0.836,0.531,1.264,0.779c0.298,0.174,0.597,0.347,0.902,0.511
	c0.184,0.099,0.372,0.191,0.558,0.286c0.324,0.166,0.651,0.327,0.982,0.481c0.167,0.077,0.334,0.153,0.502,0.227
	c0.383,0.17,0.771,0.331,1.162,0.485c0.121,0.048,0.241,0.097,0.363,0.144c1.073,0.406,2.175,0.754,3.302,1.036
	c0.046,0.012,0.093,0.021,0.139,0.032c0.498,0.122,1.001,0.231,1.509,0.328c0.135,0.026,0.27,0.049,0.405,0.073
	c0.424,0.075,0.85,0.141,1.28,0.198c0.164,0.022,0.327,0.043,0.491,0.063c0.419,0.048,0.841,0.086,1.265,0.117
	c0.158,0.012,0.315,0.027,0.473,0.036C28.847,59.979,29.421,60,30,60s1.153-0.021,1.724-0.053c0.158-0.009,0.315-0.025,0.473-0.036
	c0.424-0.031,0.846-0.068,1.265-0.117c0.164-0.019,0.328-0.041,0.491-0.063c0.43-0.057,0.856-0.123,1.28-0.198
	c0.135-0.024,0.27-0.047,0.405-0.073c0.508-0.097,1.011-0.206,1.509-0.328c0.046-0.011,0.093-0.021,0.139-0.032
	c1.127-0.282,2.229-0.63,3.302-1.036c0.122-0.046,0.243-0.096,0.365-0.144c0.391-0.154,0.778-0.315,1.161-0.484
	c0.168-0.074,0.336-0.15,0.502-0.227c0.331-0.154,0.658-0.315,0.982-0.481c0.187-0.095,0.374-0.188,0.558-0.286
	c0.305-0.164,0.603-0.337,0.902-0.511c0.428-0.249,0.849-0.509,1.264-0.779c0.163-0.106,0.328-0.208,0.488-0.317
	c0.299-0.203,0.592-0.415,0.884-0.629c0.125-0.092,0.251-0.183,0.375-0.277c0.306-0.231,0.608-0.469,0.906-0.712
	c0.084-0.069,0.166-0.139,0.249-0.208c1.366-1.142,2.636-2.409,3.794-3.795c0.073-0.087,0.145-0.173,0.216-0.261
	c0.249-0.305,0.494-0.615,0.732-0.931c0.078-0.103,0.152-0.208,0.229-0.313c0.188-0.256,0.382-0.505,0.562-0.768l0.207-0.303
	l-0.002-0.021C58.142,41.857,60,36.142,60,30z M58,30c0,4.972-1.309,9.642-3.591,13.694c-1.647-5.46-6.563-9.373-12.409-9.662V34
	h-0.689H36h-0.635C35.164,34,35,33.836,35,33.635V32.99c0-0.183,0.149-0.303,0.276-0.352c6.439-2.421,10.455-12.464,9.613-19.488
	c-0.439-3.658-2.25-6.927-4.883-9.295C50.517,7.892,58,18.086,58,30z M52.538,46.59c-0.081,0.109-0.162,0.217-0.244,0.325
	c-0.223,0.293-0.448,0.584-0.682,0.868c-0.024,0.029-0.049,0.057-0.073,0.086c-0.808,0.972-1.681,1.888-2.611,2.743
	c-0.055,0.051-0.11,0.103-0.166,0.153c-0.277,0.251-0.561,0.495-0.848,0.735c-0.09,0.075-0.181,0.149-0.272,0.223
	c-0.279,0.227-0.56,0.45-0.847,0.666c-0.097,0.073-0.197,0.142-0.295,0.214c-0.165,0.121-0.332,0.238-0.5,0.355V42h-4v-5.969
	c5.574,0.323,10.138,4.51,10.891,10.064C52.774,46.261,52.659,46.427,52.538,46.59z M43.114,54.729
	c-0.177,0.094-0.357,0.185-0.537,0.276c-0.302,0.152-0.606,0.299-0.913,0.44c-0.15,0.069-0.299,0.138-0.45,0.204
	c-0.385,0.168-0.774,0.328-1.166,0.479c-0.081,0.031-0.16,0.065-0.241,0.095c-1,0.374-2.022,0.692-3.063,0.95
	c-0.075,0.019-0.151,0.034-0.226,0.052c-0.431,0.103-0.865,0.197-1.302,0.279c-0.13,0.025-0.26,0.047-0.391,0.07
	c-0.388,0.068-0.778,0.127-1.17,0.178c-0.151,0.02-0.302,0.041-0.454,0.058c-0.388,0.045-0.779,0.078-1.17,0.107
	c-0.145,0.01-0.289,0.025-0.435,0.033C31.065,57.982,30.534,58,30,58s-1.065-0.018-1.595-0.048c-0.146-0.008-0.29-0.023-0.435-0.033
	c-0.391-0.029-0.782-0.062-1.17-0.107c-0.152-0.017-0.303-0.038-0.454-0.058c-0.392-0.052-0.782-0.111-1.17-0.178
	c-0.13-0.023-0.261-0.045-0.391-0.07c-0.437-0.083-0.872-0.176-1.303-0.28c-0.075-0.018-0.15-0.034-0.225-0.052
	c-1.041-0.259-2.064-0.576-3.064-0.95c-0.081-0.03-0.161-0.064-0.241-0.095c-0.392-0.151-0.781-0.311-1.165-0.479
	c-0.151-0.066-0.301-0.135-0.451-0.204c-0.307-0.141-0.611-0.288-0.913-0.44c-0.18-0.091-0.36-0.181-0.537-0.276
	c-0.259-0.137-0.514-0.283-0.769-0.428c-0.039-0.023-0.079-0.045-0.118-0.068V44h2h6h12h6h2v10.233
	c-0.039,0.023-0.078,0.045-0.118,0.068C43.628,54.447,43.373,54.592,43.114,54.729z M13.206,52.389
	c-0.287-0.216-0.568-0.439-0.846-0.665c-0.092-0.074-0.183-0.149-0.274-0.224c-0.287-0.239-0.57-0.483-0.846-0.734
	c-0.057-0.051-0.112-0.104-0.168-0.155c-0.93-0.855-1.803-1.77-2.61-2.742c-0.024-0.029-0.049-0.057-0.073-0.086
	c-0.234-0.284-0.459-0.575-0.682-0.868c-0.082-0.108-0.164-0.216-0.244-0.325c-0.12-0.163-0.235-0.329-0.352-0.495
	C7.862,40.541,12.426,36.354,18,36.031V42h-4v10.958c-0.167-0.117-0.335-0.235-0.5-0.355C13.402,52.531,13.303,52.462,13.206,52.389
	z M25.491,30.791C20.709,29.022,17,20.85,17,15c0-0.128,0.015-0.253,0.019-0.38l0.732-0.903c1.651-1.964,4.47-2.526,7.012-1.4
	C25.785,12.771,26.874,13,28,13c2.971,0,5.64-1.615,7.028-4.184c3.182,1.045,6.022,3.015,7.943,5.498
	c0.293,6.1-3.294,14.533-8.398,16.452C33.617,31.126,33,31.999,33,32.99v0.645C33,34.938,34.062,36,35.365,36H36v6H24v-6h0.635
	C25.938,36,27,34.938,27,33.635V33C27,32.014,26.395,31.126,25.491,30.791z M30.04,2.002c0.012,0,0.022,0,0.033,0
	c0.489,0.003,0.97,0.03,1.43,0.083c4.959,0.553,9.126,4.005,10.752,8.589c-2.115-1.842-4.708-3.26-7.497-4.027l-0.86-0.236
	l-0.333,0.826C32.644,9.522,30.46,11,28,11c-0.845,0-1.662-0.172-2.427-0.511c-2.766-1.224-5.787-0.893-8.017,0.729
	c0.613-2.026,1.72-3.882,3.261-5.42C23.271,3.35,26.53,2.002,30.04,2.002z M40,42h-2v-6h2V42z M22,42h-2v-6h2V42z M19.982,3.86
	c-0.193,0.174-0.392,0.338-0.578,0.523C16.564,7.218,15,10.987,15,15c0,6.629,4.19,15.593,9.797,17.666
	C24.916,32.711,25,32.848,25,33v0.635C25,33.836,24.836,34,24.635,34H24h-5.311H18v0.032c-5.846,0.289-10.762,4.202-12.409,9.662
	C3.309,39.642,2,34.972,2,30C2,18.09,9.478,7.9,19.982,3.86z"/>
<g>
</g>
<g>
</g>
<g>
</g>
<g>
</g>
<g>
</g>
<g>
</g>
<g>
</g>
<g>
</g>
<g>
</g>
<g>
</g>
<g>
</g>
<g>
</g>
<g>
</g>
<g>
</g>
<g>
</g>
</svg>
