<?xml version="1.0" encoding="iso-8859-1"?>
<!-- Generator: Adobe Illustrator 19.0.0, SVG Export Plug-In . SVG Version: 6.00 Build 0)  -->
<svg version="1.1" id="Capa_1" xmlns="http://www.w3.org/2000/svg" xmlns:xlink="http://www.w3.org/1999/xlink" x="0px" y="0px"
	 viewBox="0 0 60 60" style="enable-background:new 0 0 60 60;" xml:space="preserve">
<g>
	<path d="M30,6C13.458,6,0,19.458,0,36c0,0.553,0.448,1,1,1s1-0.447,1-1C2,20.561,14.561,8,30,8s28,12.561,28,28
		c0,0.553,0.447,1,1,1s1-0.447,1-1C60,19.458,46.542,6,30,6z"/>
	<path d="M30,20c-4.541,0-8.81,1.769-12.021,4.979C14.769,28.19,13,32.459,13,37s1.769,8.81,4.979,12.021
		C21.19,52.231,25.459,54,30,54s8.81-1.769,12.021-4.979C45.232,45.81,47,41.541,47,37s-1.768-8.81-4.979-12.021
		C38.81,21.769,34.541,20,30,20z M40.606,47.606C37.773,50.439,34.007,52,30,52s-7.773-1.561-10.606-4.394S15,41.007,15,37
		s1.561-7.773,4.394-10.606S25.993,22,30,22c3.671,0,7.131,1.323,9.865,3.721L29.293,36.293c-0.391,0.391-0.391,1.023,0,1.414
		C29.488,37.902,29.744,38,30,38s0.512-0.098,0.707-0.293l10.572-10.572C43.677,29.869,45,33.329,45,37
		C45,41.007,43.44,44.773,40.606,47.606z"/>
</g>
<g>
</g>
<g>
</g>
<g>
</g>
<g>
</g>
<g>
</g>
<g>
</g>
<g>
</g>
<g>
</g>
<g>
</g>
<g>
</g>
<g>
</g>
<g>
</g>
<g>
</g>
<g>
</g>
<g>
</g>
</svg>
