<?xml version="1.0" encoding="iso-8859-1"?>
<!-- Generator: Adobe Illustrator 19.0.0, SVG Export Plug-In . SVG Version: 6.00 Build 0)  -->
<svg version="1.1" id="Capa_1" xmlns="http://www.w3.org/2000/svg" xmlns:xlink="http://www.w3.org/1999/xlink" x="0px" y="0px"
	 viewBox="0 0 51.498 51.498" style="enable-background:new 0 0 51.498 51.498;" xml:space="preserve">
<g>
	<path d="M25.749,17.249c-4.541,0-8.81,1.769-12.021,4.979s-4.979,7.479-4.979,12.021s1.769,8.81,4.979,12.021
		s7.479,4.979,12.021,4.979s8.81-1.769,12.021-4.979s4.979-7.479,4.979-12.021s-1.769-8.81-4.979-12.021S30.29,17.249,25.749,17.249
		z M36.355,44.855c-2.833,2.833-6.6,4.394-10.606,4.394s-7.773-1.561-10.606-4.394s-4.394-6.6-4.394-10.606
		s1.561-7.773,4.394-10.606s6.6-4.394,10.606-4.394c3.671,0,7.131,1.323,9.865,3.721L25.042,33.542
		c-0.391,0.391-0.391,1.023,0,1.414c0.195,0.195,0.451,0.293,0.707,0.293s0.512-0.098,0.707-0.293l10.572-10.572
		c2.398,2.734,3.721,6.194,3.721,9.865C40.749,38.256,39.188,42.022,36.355,44.855z"/>
	<path d="M25.749,8.249c0.553,0,1-0.447,1-1v-6c0-0.553-0.447-1-1-1s-1,0.447-1,1v6C24.749,7.802,25.196,8.249,25.749,8.249z"/>
	<path d="M51.205,10.793c-0.391-0.391-1.023-0.391-1.414,0l-4.243,4.243c-0.391,0.391-0.391,1.023,0,1.414
		c0.195,0.195,0.451,0.293,0.707,0.293s0.512-0.098,0.707-0.293l4.243-4.243C51.596,11.816,51.596,11.184,51.205,10.793z"/>
	<path d="M1.707,10.793c-0.391-0.391-1.023-0.391-1.414,0s-0.391,1.023,0,1.414l4.243,4.243c0.195,0.195,0.451,0.293,0.707,0.293
		s0.512-0.098,0.707-0.293c0.391-0.391,0.391-1.023,0-1.414L1.707,10.793z"/>
	<path d="M32.996,9.203c0.087,0.023,0.174,0.034,0.26,0.034c0.441,0,0.846-0.295,0.965-0.741L35.773,2.7
		c0.143-0.533-0.174-1.082-0.707-1.225c-0.531-0.142-1.082,0.174-1.225,0.707l-1.553,5.796C32.146,8.512,32.463,9.061,32.996,9.203z
		"/>
	<path d="M17.277,8.496c0.119,0.447,0.523,0.741,0.965,0.741c0.086,0,0.173-0.011,0.26-0.034c0.533-0.143,0.85-0.691,0.707-1.225
		l-1.553-5.796c-0.143-0.534-0.691-0.85-1.225-0.707s-0.85,0.691-0.707,1.225L17.277,8.496z"/>
	<path d="M43.749,5.072c-0.478-0.275-1.09-0.111-1.366,0.366l-3,5.196c-0.276,0.479-0.112,1.09,0.366,1.366
		c0.157,0.091,0.329,0.134,0.499,0.134c0.346,0,0.682-0.18,0.867-0.5l3-5.196C44.392,5.96,44.228,5.349,43.749,5.072z"/>
	<path d="M11.25,12.135c0.17,0,0.342-0.043,0.499-0.134c0.479-0.276,0.643-0.888,0.366-1.366l-3-5.196
		C8.838,4.959,8.225,4.797,7.749,5.072C7.271,5.349,7.106,5.96,7.383,6.438l3,5.196C10.568,11.956,10.904,12.135,11.25,12.135z"/>
</g>
<g>
</g>
<g>
</g>
<g>
</g>
<g>
</g>
<g>
</g>
<g>
</g>
<g>
</g>
<g>
</g>
<g>
</g>
<g>
</g>
<g>
</g>
<g>
</g>
<g>
</g>
<g>
</g>
<g>
</g>
</svg>
