<?xml version="1.0" encoding="iso-8859-1"?>
<!-- Generator: Adobe Illustrator 19.0.0, SVG Export Plug-In . SVG Version: 6.00 Build 0)  -->
<svg version="1.1" id="Capa_1" xmlns="http://www.w3.org/2000/svg" xmlns:xlink="http://www.w3.org/1999/xlink" x="0px" y="0px"
	 viewBox="0 0 60 60" style="enable-background:new 0 0 60 60;" xml:space="preserve">
<g>
	<path d="M60,6H14v7H7v7H0v34h46v-7h7v-7h7V6z M44,52H2V22h5v25h37V52z M51,45h-5h-6h-6h-6h-6h-6h-6H9v-1v-6v-6v-6v-6v-5h5v2v6v6v6
		v5h5h6h6h6h6h6h2V45z M58,38h-5H16V13V8h42V38z"/>
	<circle cx="34" cy="44" r="1"/>
	<circle cx="37" cy="41" r="1"/>
	<circle cx="40" cy="44" r="1"/>
	<circle cx="46" cy="44" r="1"/>
	<circle cx="43" cy="41" r="1"/>
	<circle cx="49" cy="41" r="1"/>
	<circle cx="28" cy="44" r="1"/>
	<circle cx="31" cy="41" r="1"/>
	<circle cx="10" cy="44" r="1"/>
	<circle cx="10" cy="38" r="1"/>
	<circle cx="13" cy="41" r="1"/>
	<circle cx="13" cy="35" r="1"/>
	<circle cx="16" cy="44" r="1"/>
	<circle cx="22" cy="44" r="1"/>
	<circle cx="19" cy="41" r="1"/>
	<circle cx="25" cy="41" r="1"/>
	<circle cx="10" cy="32" r="1"/>
	<circle cx="10" cy="26" r="1"/>
	<circle cx="13" cy="29" r="1"/>
	<circle cx="13" cy="23" r="1"/>
	<circle cx="10" cy="20" r="1"/>
	<circle cx="13" cy="17" r="1"/>
</g>
<g>
</g>
<g>
</g>
<g>
</g>
<g>
</g>
<g>
</g>
<g>
</g>
<g>
</g>
<g>
</g>
<g>
</g>
<g>
</g>
<g>
</g>
<g>
</g>
<g>
</g>
<g>
</g>
<g>
</g>
</svg>
