<?xml version="1.0" encoding="iso-8859-1"?>
<!-- Generator: Adobe Illustrator 19.0.0, SVG Export Plug-In . SVG Version: 6.00 Build 0)  -->
<svg version="1.1" id="Capa_1" xmlns="http://www.w3.org/2000/svg" xmlns:xlink="http://www.w3.org/1999/xlink" x="0px" y="0px"
	 viewBox="0 0 60 60" style="enable-background:new 0 0 60 60;" xml:space="preserve">
<g>
	<path d="M30,28.007c-2.206,0-4,1.794-4,4s1.794,4,4,4s4-1.794,4-4S32.206,28.007,30,28.007z M30,34.007c-1.103,0-2-0.897-2-2
		s0.897-2,2-2s2,0.897,2,2S31.103,34.007,30,34.007z"/>
	<path d="M30,23.007c-4.962,0-9,4.037-9,9c0,3.158,1.7,6.126,4.436,7.745c0.477,0.282,1.089,0.125,1.37-0.352
		c0.281-0.475,0.124-1.088-0.352-1.369C24.324,36.771,23,34.462,23,32.007c0-3.859,3.14-7,7-7s7,3.141,7,7
		c0,2.455-1.324,4.763-3.455,6.024c-0.475,0.281-0.633,0.895-0.352,1.37c0.187,0.315,0.52,0.49,0.862,0.49
		c0.173,0,0.349-0.045,0.508-0.14C37.3,38.133,39,35.165,39,32.007C39,27.044,34.962,23.007,30,23.007z"/>
	<path d="M30,2.007c-16.542,0-30,13.458-30,30C0,42.57,5.662,52.475,14.775,57.854c0.16,0.094,0.334,0.139,0.507,0.139
		c0.342,0,0.676-0.176,0.862-0.491c0.281-0.476,0.123-1.089-0.353-1.37C7.285,51.11,2,41.866,2,32.007c0-15.439,12.561-28,28-28
		s28,12.561,28,28c0,9.859-5.285,19.104-13.792,24.125c-0.476,0.281-0.634,0.894-0.353,1.37c0.28,0.475,0.893,0.632,1.37,0.353
		C54.338,52.475,60,42.57,60,32.007C60,15.465,46.542,2.007,30,2.007z"/>
	<path d="M53,32.007c0-12.683-10.318-23-23-23s-23,10.317-23,23c0,8.087,4.342,15.677,11.331,19.809
		c0.16,0.095,0.335,0.14,0.508,0.14c0.342,0,0.675-0.176,0.862-0.491c0.281-0.476,0.124-1.089-0.352-1.369
		C12.965,46.32,9,39.39,9,32.007c0-11.579,9.42-21,21-21s21,9.421,21,21c0,7.383-3.965,14.313-10.349,18.088
		c-0.476,0.28-0.633,0.894-0.352,1.369c0.282,0.476,0.895,0.634,1.37,0.352C48.658,47.684,53,40.093,53,32.007z"/>
	<path d="M46,32.007c0-8.822-7.178-16-16-16s-16,7.178-16,16c0,5.615,3.022,10.892,7.888,13.769c0.478,0.283,1.089,0.124,1.37-0.352
		c0.281-0.475,0.124-1.088-0.352-1.369C18.646,41.535,16,36.919,16,32.007c0-7.72,6.28-14,14-14s14,6.28,14,14
		c0,4.911-2.646,9.528-6.907,12.048c-0.475,0.281-0.633,0.895-0.352,1.369c0.187,0.316,0.52,0.491,0.862,0.491
		c0.173,0,0.348-0.045,0.508-0.14C42.978,42.897,46,37.622,46,32.007z"/>
</g>
<g>
</g>
<g>
</g>
<g>
</g>
<g>
</g>
<g>
</g>
<g>
</g>
<g>
</g>
<g>
</g>
<g>
</g>
<g>
</g>
<g>
</g>
<g>
</g>
<g>
</g>
<g>
</g>
<g>
</g>
</svg>
