<?xml version="1.0" encoding="iso-8859-1"?>
<!-- Generator: Adobe Illustrator 19.0.0, SVG Export Plug-In . SVG Version: 6.00 Build 0)  -->
<svg version="1.1" id="Capa_1" xmlns="http://www.w3.org/2000/svg" xmlns:xlink="http://www.w3.org/1999/xlink" x="0px" y="0px"
	 viewBox="0 0 60 60" style="enable-background:new 0 0 60 60;" xml:space="preserve">
<g>
	<path d="M52.994,21c0-7.169-3.617-13.505-9.116-17.296l-0.002-0.015l-0.145-0.095c-0.004-0.002-0.007-0.005-0.011-0.007
		l-0.228-0.15c-0.452-0.296-0.915-0.572-1.385-0.831c-0.165-0.091-0.337-0.171-0.505-0.258C41.228,2.155,40.85,1.97,40.466,1.8
		c-0.211-0.094-0.424-0.183-0.639-0.27c-0.395-0.16-0.796-0.305-1.199-0.44c-0.178-0.059-0.352-0.125-0.531-0.18
		c-0.568-0.173-1.144-0.321-1.726-0.445c-0.17-0.036-0.343-0.062-0.514-0.094c-0.462-0.086-0.927-0.158-1.396-0.213
		c-0.188-0.022-0.375-0.045-0.564-0.062C33.266,0.039,32.632,0,31.994,0c-0.647,0-1.289,0.04-1.927,0.098
		c-0.181,0.017-0.359,0.039-0.539,0.06C29.04,0.215,28.556,0.29,28.076,0.38c-0.155,0.029-0.311,0.054-0.464,0.087
		c-1.245,0.265-2.46,0.644-3.635,1.131c-0.122,0.051-0.241,0.104-0.362,0.157c-0.484,0.211-0.96,0.441-1.428,0.689
		c-0.1,0.053-0.201,0.104-0.301,0.158c-0.573,0.316-1.137,0.649-1.683,1.02l-0.43,0.293l-0.001,0.041
		c-0.657,0.473-1.282,0.984-1.88,1.527l-2.869-2.869l-0.707,0.707C9.603,8.037,7.006,14.314,7.006,21s2.597,12.963,7.312,17.678
		c4.481,4.481,10.375,7.044,16.688,7.288V55h-10v5h22v-5h-10v-9.035c6.304-0.249,12.19-2.811,16.666-7.287l0.707-0.707l-2.869-2.869
		C50.905,31.37,52.994,26.43,52.994,21z M21.752,5.022c0.869-0.559,1.781-1.058,2.739-1.471c0.094-0.041,0.19-0.079,0.284-0.118
		c0.458-0.189,0.924-0.36,1.399-0.513c0.087-0.028,0.172-0.06,0.259-0.086c0.546-0.167,1.103-0.312,1.669-0.43
		c0.089-0.019,0.179-0.031,0.269-0.048c0.472-0.092,0.95-0.164,1.433-0.219c0.152-0.018,0.304-0.035,0.457-0.049
		C30.832,2.036,31.409,2,31.994,2c0.578,0,1.148,0.036,1.713,0.087c0.144,0.013,0.288,0.026,0.432,0.043
		c0.546,0.062,1.087,0.141,1.618,0.248c0.095,0.019,0.188,0.046,0.283,0.066c0.445,0.097,0.883,0.212,1.316,0.339
		c0.169,0.05,0.338,0.1,0.505,0.155c0.488,0.159,0.971,0.332,1.441,0.529c0.124,0.052,0.244,0.113,0.367,0.167
		c0.371,0.165,0.737,0.341,1.095,0.528c0.171,0.089,0.341,0.18,0.509,0.275c0.082,0.046,0.159,0.099,0.241,0.146
		c-3.112,1.126-4.898,2.451-6.924,5.083c-0.121,0.158-0.219,0.331-0.291,0.513c-0.107-0.112-0.227-0.212-0.358-0.298
		c-0.71-0.466-1.648-0.451-2.792,0.047L31,9.945c-1.393,0.155-2.398,0.268-2.479,2.032c-0.04,0.872,0.426,1.731,1.187,2.188
		c0.146,0.088,0.297,0.157,0.451,0.208c0.019,0.037,0.04,0.074,0.064,0.111l0.234,0.334c-0.498-0.135-0.981-0.205-1.455-0.274
		c-0.602-0.087-1.169-0.17-1.732-0.386c-2.15-0.824-3.737-4.443-4.896-7.085c-0.223-0.508-0.435-0.99-0.646-1.492
		C21.738,5.389,21.746,5.204,21.752,5.022z M35.869,26.916c-1.877-1.554-2.585-3.797-1.805-5.714
		c0.401-0.983-0.004-2.077-0.964-2.649c-0.037-0.134-0.071-0.39-0.096-0.568c-0.068-0.514-0.151-1.133-0.454-1.726
		c0.164,0.121,0.35,0.215,0.551,0.277c0.181,0.056,0.229,0.102,0.257,0.183c0.249,0.858,0.824,1.495,1.577,1.746
		c0.723,0.239,1.521,0.089,2.19-0.416c0.198-0.148,0.232-0.176,0.997,0.193c0.523,0.253,1.174,0.568,2.079,0.668
		c0.532,0.559,0.951,1.271,1.355,1.961c0.629,1.069,1.278,2.176,2.389,2.753c0.369,0.191,0.141,1.378-0.679,3.525
		c-0.075,0.198-0.146,0.385-0.208,0.555c-1.039,0.819-1.676,1.731-2.294,2.615c-0.566,0.812-1.102,1.578-1.959,2.315
		c-1.324,1.14-2.393,1.792-3.756,2.19C36.459,32.305,38.076,28.743,35.869,26.916z M31.498,12.079l-0.682,0.403
		c-0.001,0-0.001,0-0.001,0c-0.019,0-0.084-0.021-0.156-0.093c-0.092-0.091-0.146-0.214-0.141-0.32
		c0.001-0.018,0.002-0.034,0.003-0.05c0.184-0.029,0.444-0.059,0.7-0.087l0.471-0.054l0.147-0.068
		c0.75-0.349,1.003-0.258,1.003-0.258c0.002,0.001,0.211,0.211,0.185,1.152l-0.009,0.317c-0.187-0.072-0.431-0.131-0.751-0.152
		c-0.043-0.079-0.1-0.158-0.174-0.235L31.498,12.079z M31.949,15.499c-0.149-0.122-0.306-0.221-0.438-0.286
		c-0.185-0.09-0.367-0.167-0.547-0.232l0.29-0.049c0.2-0.033,0.384-0.053,0.54-0.062C31.811,15.086,31.862,15.299,31.949,15.499z
		 M19.885,6.372c0.015,0.038,0.02,0.081,0.038,0.118c0.197,0.425,0.402,0.894,0.619,1.388c1.373,3.131,3.081,7.026,6.011,8.149
		c0.771,0.296,1.51,0.403,2.161,0.498c0.707,0.103,1.318,0.191,1.91,0.481c0.027,0.015,0.077,0.049,0.076,0.045
		c0.202,0.296,0.264,0.755,0.322,1.198c0.094,0.701,0.21,1.574,1.024,2.005c0.104,0.055,0.185,0.147,0.166,0.193
		c-1.118,2.743-0.183,5.888,2.381,8.01c0.44,0.364,0.858,1.55-1.289,5.393c-0.417,0.748-0.328,1.654,0.226,2.31
		c0.401,0.476,0.973,0.733,1.565,0.733c0.231,0,0.466-0.039,0.695-0.12c1.522-0.543,2.815-1.327,4.32-2.622
		c1.048-0.901,1.71-1.85,2.294-2.686c0.618-0.885,1.152-1.649,2.074-2.329l0.285-0.245l0.097-0.285
		c0.073-0.214,0.17-0.467,0.275-0.743c0.699-1.834,1.869-4.902-0.269-6.014c-0.6-0.311-1.057-1.09-1.586-1.99
		c-0.44-0.751-0.94-1.602-1.632-2.328c-0.308-0.322-0.734-0.526-1.236-0.593c-0.539-0.069-0.986-0.286-1.42-0.495
		c-0.784-0.38-1.858-0.898-3.07,0.009c-0.08,0.062-0.231,0.152-0.356,0.116c-0.092-0.031-0.215-0.153-0.289-0.407
		c-0.217-0.747-0.685-1.226-1.467-1.496c0.108-0.333,0.09-0.668-0.046-0.96l0.115,0.018c0.898,0.132,1.57-0.054,2.006-0.555
		c0.449-0.515,0.538-1.251,0.265-2.188c-0.005-0.016,0-0.062,0.026-0.096c1.889-2.456,3.39-3.522,6.425-4.564
		c0.301-0.103,0.56-0.279,0.772-0.498c4.616,3.469,7.62,8.973,7.62,15.178c0,10.477-8.523,19-19,19s-19-8.523-19-19
		C12.994,15.122,15.679,9.859,19.885,6.372z M41.006,57v1h-18v-1H41.006z M47.535,37.955c-9.013,8.271-23.073,8.038-31.804-0.691
		C11.395,32.927,9.006,27.151,9.006,21c0-5.815,2.135-11.296,6.033-15.541l1.44,1.439C13.084,10.63,10.994,15.57,10.994,21
		c0,11.579,9.421,21,21,21c5.43,0,10.37-2.09,14.101-5.484L47.535,37.955z"/>
</g>
<g>
</g>
<g>
</g>
<g>
</g>
<g>
</g>
<g>
</g>
<g>
</g>
<g>
</g>
<g>
</g>
<g>
</g>
<g>
</g>
<g>
</g>
<g>
</g>
<g>
</g>
<g>
</g>
<g>
</g>
</svg>
