/* XPM */
static char * glider_workbench_xpm[] = {
"64 64 155 2",
"  	c None",
". 	c #000000",
"+ 	c #0E0E0E",
"@ 	c #4D4D4D",
"# 	c #797979",
"$ 	c #9C9C9C",
"% 	c #929292",
"& 	c #C4C4C4",
"* 	c #9E9E9E",
"= 	c #3E3E3E",
"- 	c #0D0D0D",
"; 	c #666666",
"> 	c #3F3F3F",
", 	c #FBFBFB",
"' 	c #FFFFFF",
") 	c #DEDEDE",
"! 	c #E1E1E1",
"~ 	c #898989",
"{ 	c #0F0F0F",
"] 	c #838383",
"^ 	c #F0F0F0",
"/ 	c #8A8A8A",
"( 	c #D4D4D4",
"_ 	c #F7F7F7",
": 	c #CBCBCB",
"< 	c #090909",
"[ 	c #787878",
"} 	c #EDEDED",
"| 	c #ECECEC",
"1 	c #B9B9B9",
"2 	c #2F2F2F",
"3 	c #747474",
"4 	c #ADADAD",
"5 	c #686868",
"6 	c #030303",
"7 	c #808080",
"8 	c #C0C0C0",
"9 	c #CECECE",
"0 	c #A6A6A6",
"a 	c #535353",
"b 	c #060606",
"c 	c #A7A7A7",
"d 	c #FDFDFD",
"e 	c #888888",
"f 	c #A3A3A3",
"g 	c #909090",
"h 	c #FEFEFE",
"i 	c #A4A4A4",
"j 	c #FAFAFA",
"k 	c #0C0C0C",
"l 	c #C5C5C5",
"m 	c #DDDDDD",
"n 	c #C7C7C7",
"o 	c #E5E5E5",
"p 	c #BFBFBF",
"q 	c #989898",
"r 	c #B0B0B0",
"s 	c #CFCFCF",
"t 	c #949494",
"u 	c #AAAAAA",
"v 	c #FCFCFC",
"w 	c #B8B8B8",
"x 	c #626262",
"y 	c #F3F3F3",
"z 	c #B5B5B5",
"A 	c #C9C9C9",
"B 	c #1C1C1C",
"C 	c #F1F1F1",
"D 	c #939393",
"E 	c #E3E3E3",
"F 	c #E7E7E7",
"G 	c #CACACA",
"H 	c #404040",
"I 	c #9A9A9A",
"J 	c #B3B3B3",
"K 	c #BCBCBC",
"L 	c #6A6A6A",
"M 	c #1A1A1A",
"N 	c #F2F2F2",
"O 	c #D8D8D8",
"P 	c #848484",
"Q 	c #EBEBEB",
"R 	c #717171",
"S 	c #BDBDBD",
"T 	c #8C8C8C",
"U 	c #919191",
"V 	c #D1D1D1",
"W 	c #7F7F7F",
"X 	c #F4F4F4",
"Y 	c #9F9F9F",
"Z 	c #737373",
"` 	c #101010",
" .	c #D2D2D2",
"..	c #E6E6E6",
"+.	c #080808",
"@.	c #363636",
"#.	c #414141",
"$.	c #D0D0D0",
"%.	c #A1A1A1",
"&.	c #050505",
"*.	c #BEBEBE",
"=.	c #9B9B9B",
"-.	c #383838",
";.	c #E8E8E8",
">.	c #CDCDCD",
",.	c #9D9D9D",
"'.	c #DFDFDF",
").	c #1B1B1B",
"!.	c #C3C3C3",
"~.	c #5E5E5E",
"{.	c #DADADA",
"].	c #070707",
"^.	c #A8A8A8",
"/.	c #333333",
"(.	c #D7D7D7",
"_.	c #4B4B4B",
":.	c #D5D5D5",
"<.	c #A0A0A0",
"[.	c #E4E4E4",
"}.	c #8E8E8E",
"|.	c #C1C1C1",
"1.	c #161616",
"2.	c #4A4A4A",
"3.	c #BABABA",
"4.	c #C6C6C6",
"5.	c #DCDCDC",
"6.	c #979797",
"7.	c #828282",
"8.	c #0B0B0B",
"9.	c #B1B1B1",
"0.	c #6B6B6B",
"a.	c #8B8B8B",
"b.	c #ACACAC",
"c.	c #969696",
"d.	c #959595",
"e.	c #F5F5F5",
"f.	c #1D1D1D",
"g.	c #5C5C5C",
"h.	c #353535",
"i.	c #7D7D7D",
"j.	c #292929",
"k.	c #505050",
"l.	c #727272",
"m.	c #8D8D8D",
"n.	c #434343",
"o.	c #484848",
"p.	c #232323",
"q.	c #B6B6B6",
"r.	c #DBDBDB",
"s.	c #474747",
"t.	c #999999",
"u.	c #B7B7B7",
"v.	c #A9A9A9",
"w.	c #2B2B2B",
"x.	c #020202",
"                                                                                                                                ",
"                                                                                                                                ",
"                                                                                                                                ",
"                                                                                                                                ",
"                                                                                                                                ",
"                                                                                                                                ",
"                                                                                                                                ",
"                                                    . . . . . . . . . . .                                                       ",
"                                                . . . . . . . . . . . . . . .                                                   ",
"                                            . . . . . . . . . . . . . . . . . .                                                 ",
"                                        . . . . . . . . . . . . . . . . . . . . .                                               ",
"                                    . . . . . . . . . . . . . + @ # $ % & & * =                                                 ",
"                                  . . . . . . . . . . . - ; > , ' ' ' ) ! ' ' ~                                                 ",
"                                . . . . . . . . . . { ] ^ ' / ( ' ' ' _ : ' ' ~                                                 ",
"                              . . . . . . . . . < [ } ' ' ' | ] ' ' ' ' 1 ' ' #                                                 ",
"                            . . . . . . . . . 2 ( ' ' ' ' ' ' 3 ' ' ' ' 4 ' ' 5                                                 ",
"                          . . . . . . . . 6 7 , ' ' ' ' ' ' ' 8 9 ' ' ' 0 ' ' a                                                 ",
"                        . . . . . . . . b c ' ' ' ' ' ' ' ' ' d e ' ' ' f ' '                                                   ",
"                        . . . . . . . + 8 ' ' ' ' ' ' ' ' ' ' ' g h ' ' i ' j                                                   ",
"                      . . . . . . . k l ' ' ' ' ' ' ' ' ' ' ' ' m n ' ' c ' o                                                   ",
"                    . . . . . . . b p ' ' ' ' ' ' ' ' ' ' ' ' ' ' q ' ' r ' s                                                   ",
"                    . . . . . . . t ' ' ' ' ' ' ' ' ' ' ' ' ' ' ' u v ' 1 ' w                                                   ",
"                  . . . . . . . x ' ' ' ' ' ' ' ' ' ' ' ' ' ' ' ' y z ' A j c                                                   ",
"                  . . . . . . B C ' ' ' ' ' ' ' ' ' ' ' ' ' ' ' ' ' D ' ) E q                                                   ",
"                  . . . . . . 4 ' ' ' ' ' ' ' ' ' ' ' ' ' ' ' ' ' ' 8 F y G /                                                   ",
"                . . . . . . H ' ' ' ' ' ' ' ' ' ' ' ' ' ' ' ' ' ' ' d I ' J #                                                   ",
"                . . . . . . K ' ' ' ' ' ' ' ' ' ' ' ' ' ' ' ' ' ' ' ' g ' i L                                                   ",
"                . . . . . M x N ' ' ' ' ' ' ' ' ' ' ' ' ' ' ' ' ' ' ' O G q @                                                   ",
"                . . . . . P Q R S ' ' ' ' ' ' ' ' ' ' ' ' ' ' ' ' ' ' ' T U                                                     ",
"                . . . . . V ' ' & W X ' ' ' ' ' ' ' ' ' ' ' ' ' ' ' ' ' Y Z                                                     ",
"                . . . . ` d ' ' ' j *  .' ' ' ' ' ' ' ' ' ' ' ' ' ' ' ' ..+.@.                                                  ",
"                . . . . #.' ' ' ' ' ' $.%.v ' ' ' ' ' ' ' ' ' ' ' ' ' ' d &.*.=.                                                ",
"                  . . . -.i ;.' ' ' ' ' v %.>.' ' ' ' ' ' ' ' ' S ,.'.' ' ).8 ' !.                                              ",
"                  . . . ~.' >.U t {.' ' ' ' '.q _ ' ' ' ' ' ' ; . . ].^.' /.S ' ' (.. .                                         ",
"                    . . _.' ' ' ' :.<.c [.' ' j }.|.' ' ' ' V . . . . 1.' 2.3.' ' 4.. .                                         ",
"                      . { T |.y ' ' ' ' 5.I 6.(.'  .7.y ' ' S . . . . 8.' x 9.' ' P . .                                         ",
"                                > 0.a.b.( j ' (.c.d.>.T & ' e.f.. . . g.X h.6 > i.j..                                           ",
"                                            k.l.m.u Y 7.n.n.i 9 o.p.L | n.. . . . . .                                           ",
"                                                        . /.].` x q.r.s.. . . . . . .                                           ",
"                                                          t.e.3.[ @.6 . . . . . .                                               ",
"                                                            j ' ' ' x . . . . . . .                                             ",
"                                                            f ' ' ' u.. . . . . . . .                                           ",
"                                                              j ' ^ v.. .   . . . . . .                                         ",
"                                                              o.w.x.. . .     . . . . .                                         ",
"                                                              . . . . .         . . . . .                                       ",
"                                                                              . . . . . .                                       ",
"                                                                              . . . . . . .                                     ",
"                                                                              . . . . . . . . .                                 ",
"                                                                              . . . .   . . . . .                               ",
"                                                                                . . . .   . . . . .                             ",
"                                                                                . . . .       . . . .                           ",
"                                                                                  . . . .       . .                             ",
"                                                                                    . . .                                       ",
"                                                                                      . .                                       ",
"                                                                                                                                ",
"                                                                                                                                ",
"                                                                                                                                ",
"                                                                                                                                ",
"                                                                                                                                ",
"                                                                                                                                ",
"                                                                                                                                ",
"                                                                                                                                ",
"                                                                                                                                ",
"                                                                                                                                "};
