<?xml version="1.0" encoding="UTF-8" standalone="no"?>
<!-- Created with Inkscape (http://www.inkscape.org/) -->

<svg
   xmlns:dc="http://purl.org/dc/elements/1.1/"
   xmlns:cc="http://creativecommons.org/ns#"
   xmlns:rdf="http://www.w3.org/1999/02/22-rdf-syntax-ns#"
   xmlns:svg="http://www.w3.org/2000/svg"
   xmlns="http://www.w3.org/2000/svg"
   xmlns:xlink="http://www.w3.org/1999/xlink"
   xmlns:sodipodi="http://sodipodi.sourceforge.net/DTD/sodipodi-0.dtd"
   xmlns:inkscape="http://www.inkscape.org/namespaces/inkscape"
   width="64px"
   height="64px"
   id="svg3799"
   version="1.1"
   inkscape:version="0.91 r13725"
   sodipodi:docname="cut_command.svg">
  <defs
     id="defs3801">
    <inkscape:path-effect
       effect="spiro"
       id="path-effect9409"
       is_visible="true" />
    <inkscape:path-effect
       effect="spiro"
       id="path-effect9405"
       is_visible="true" />
    <inkscape:path-effect
       effect="spiro"
       id="path-effect9398"
       is_visible="true" />
    <inkscape:path-effect
       effect="spiro"
       id="path-effect9390"
       is_visible="true" />
    <inkscape:path-effect
       effect="spiro"
       id="path-effect9384"
       is_visible="true" />
    <linearGradient
       inkscape:collect="always"
       id="linearGradient9347">
      <stop
         style="stop-color:#0079ff;stop-opacity:1;"
         offset="0"
         id="stop9349" />
      <stop
         style="stop-color:#0079ff;stop-opacity:0"
         offset="1"
         id="stop9351" />
    </linearGradient>
    <marker
       inkscape:stockid="Arrow2Mstart"
       orient="auto"
       refY="0.0"
       refX="0.0"
       id="Arrow2Mstart"
       style="overflow:visible">
      <path
         id="path4317"
         style="fill-rule:evenodd;stroke-width:0.62500000;stroke-linejoin:round"
         d="M 8.7185878,4.0337352 L -2.2072895,0.016013256 L 8.7185884,-4.0017078 C 6.9730900,-1.6296469 6.9831476,1.6157441 8.7185878,4.0337352 z "
         transform="scale(0.6) translate(0,0)" />
    </marker>
    <marker
       inkscape:stockid="Arrow1Mend"
       orient="auto"
       refY="0.0"
       refX="0.0"
       id="Arrow1Mend"
       style="overflow:visible;">
      <path
         id="path4302"
         d="M 0.0,0.0 L 5.0,-5.0 L -12.5,0.0 L 5.0,5.0 L 0.0,0.0 z "
         style="fill-rule:evenodd;stroke:#000000;stroke-width:1.0pt;"
         transform="scale(0.4) rotate(180) translate(10,0)" />
    </marker>
    <marker
       inkscape:stockid="Arrow2Mend"
       orient="auto"
       refY="0.0"
       refX="0.0"
       id="Arrow2Mend"
       style="overflow:visible;">
      <path
         id="path4320"
         style="fill-rule:evenodd;stroke-width:0.62500000;stroke-linejoin:round;"
         d="M 8.7185878,4.0337352 L -2.2072895,0.016013256 L 8.7185884,-4.0017078 C 6.9730900,-1.6296469 6.9831476,1.6157441 8.7185878,4.0337352 z "
         transform="scale(0.6) rotate(180) translate(0,0)" />
    </marker>
    <marker
       inkscape:stockid="Arrow1Mstart"
       orient="auto"
       refY="0.0"
       refX="0.0"
       id="Arrow1Mstart"
       style="overflow:visible">
      <path
         id="path4299"
         d="M 0.0,0.0 L 5.0,-5.0 L -12.5,0.0 L 5.0,5.0 L 0.0,0.0 z "
         style="fill-rule:evenodd;stroke:#000000;stroke-width:1.0pt"
         transform="scale(0.4) translate(10,0)" />
    </marker>
    <marker
       inkscape:stockid="Arrow1Lend"
       orient="auto"
       refY="0.0"
       refX="0.0"
       id="Arrow1Lend"
       style="overflow:visible;">
      <path
         id="path4296"
         d="M 0.0,0.0 L 5.0,-5.0 L -12.5,0.0 L 5.0,5.0 L 0.0,0.0 z "
         style="fill-rule:evenodd;stroke:#000000;stroke-width:1.0pt;"
         transform="scale(0.8) rotate(180) translate(12.5,0)" />
    </marker>
    <marker
       inkscape:stockid="Arrow2Lend"
       orient="auto"
       refY="0.0"
       refX="0.0"
       id="Arrow2Lend"
       style="overflow:visible;">
      <path
         id="path4314"
         style="fill-rule:evenodd;stroke-width:0.62500000;stroke-linejoin:round;"
         d="M 8.7185878,4.0337352 L -2.2072895,0.016013256 L 8.7185884,-4.0017078 C 6.9730900,-1.6296469 6.9831476,1.6157441 8.7185878,4.0337352 z "
         transform="scale(1.1) rotate(180) translate(1,0)" />
    </marker>
    <marker
       inkscape:stockid="EmptyTriangleOutL"
       orient="auto"
       refY="0.0"
       refX="0.0"
       id="EmptyTriangleOutL"
       style="overflow:visible">
      <path
         id="path4487"
         d="M 5.77,0.0 L -2.88,5.0 L -2.88,-5.0 L 5.77,0.0 z "
         style="fill-rule:evenodd;fill:#FFFFFF;stroke:#000000;stroke-width:1.0pt"
         transform="scale(0.8) translate(-6,0)" />
    </marker>
    <marker
       inkscape:stockid="DotS"
       orient="auto"
       refY="0.0"
       refX="0.0"
       id="DotS"
       style="overflow:visible">
      <path
         id="path4394"
         d="M -2.5,-1.0 C -2.5,1.7600000 -4.7400000,4.0 -7.5,4.0 C -10.260000,4.0 -12.5,1.7600000 -12.5,-1.0 C -12.5,-3.7600000 -10.260000,-6.0 -7.5,-6.0 C -4.7400000,-6.0 -2.5,-3.7600000 -2.5,-1.0 z "
         style="fill-rule:evenodd;stroke:#000000;stroke-width:1.0pt"
         transform="scale(0.2) translate(7.4, 1)" />
    </marker>
    <marker
       inkscape:stockid="DotL"
       orient="auto"
       refY="0.0"
       refX="0.0"
       id="DotL"
       style="overflow:visible">
      <path
         id="path4388"
         d="M -2.5,-1.0 C -2.5,1.7600000 -4.7400000,4.0 -7.5,4.0 C -10.260000,4.0 -12.5,1.7600000 -12.5,-1.0 C -12.5,-3.7600000 -10.260000,-6.0 -7.5,-6.0 C -4.7400000,-6.0 -2.5,-3.7600000 -2.5,-1.0 z "
         style="fill-rule:evenodd;stroke:#000000;stroke-width:1.0pt"
         transform="scale(0.8) translate(7.4, 1)" />
    </marker>
    <marker
       inkscape:stockid="Tail"
       orient="auto"
       refY="0.0"
       refX="0.0"
       id="Tail"
       style="overflow:visible">
      <g
         id="g4363"
         transform="scale(-1.2)">
        <path
           id="path4365"
           d="M -3.8048674,-3.9585227 L 0.54352094,0"
           style="fill:none;fill-rule:evenodd;stroke:#000000;stroke-width:0.8;stroke-linecap:round" />
        <path
           id="path4367"
           d="M -1.2866832,-3.9585227 L 3.0617053,0"
           style="fill:none;fill-rule:evenodd;stroke:#000000;stroke-width:0.8;stroke-linecap:round" />
        <path
           id="path4369"
           d="M 1.3053582,-3.9585227 L 5.6537466,0"
           style="fill:none;fill-rule:evenodd;stroke:#000000;stroke-width:0.8;stroke-linecap:round" />
        <path
           id="path4371"
           d="M -3.8048674,4.1775838 L 0.54352094,0.21974226"
           style="fill:none;fill-rule:evenodd;stroke:#000000;stroke-width:0.8;stroke-linecap:round" />
        <path
           id="path4373"
           d="M -1.2866832,4.1775838 L 3.0617053,0.21974226"
           style="fill:none;fill-rule:evenodd;stroke:#000000;stroke-width:0.8;stroke-linecap:round" />
        <path
           id="path4375"
           d="M 1.3053582,4.1775838 L 5.6537466,0.21974226"
           style="fill:none;fill-rule:evenodd;stroke:#000000;stroke-width:0.8;stroke-linecap:round" />
      </g>
    </marker>
    <marker
       inkscape:stockid="Arrow1Sstart"
       orient="auto"
       refY="0.0"
       refX="0.0"
       id="Arrow1Sstart"
       style="overflow:visible">
      <path
         id="path4339"
         d="M 0.0,0.0 L 5.0,-5.0 L -12.5,0.0 L 5.0,5.0 L 0.0,0.0 z "
         style="fill-rule:evenodd;stroke:#000000;stroke-width:1.0pt"
         transform="scale(0.2) translate(6,0)" />
    </marker>
    <marker
       inkscape:stockid="Arrow1Lstart"
       orient="auto"
       refY="0.0"
       refX="0.0"
       id="Arrow1Lstart"
       style="overflow:visible">
      <path
         id="path4327"
         d="M 0.0,0.0 L 5.0,-5.0 L -12.5,0.0 L 5.0,5.0 L 0.0,0.0 z "
         style="fill-rule:evenodd;stroke:#000000;stroke-width:1.0pt"
         transform="scale(0.8) translate(12.5,0)" />
    </marker>
    <marker
       inkscape:stockid="Arrow1Mstart"
       orient="auto"
       refY="0"
       refX="0"
       id="Arrow1Mstart-9"
       style="overflow:visible">
      <path
         inkscape:connector-curvature="0"
         id="path4299-1"
         d="M 0,0 5,-5 -12.5,0 5,5 0,0 z"
         style="fill-rule:evenodd;stroke:#000000;stroke-width:1pt"
         transform="matrix(0.4,0,0,0.4,4,0)" />
    </marker>
    <marker
       inkscape:stockid="Arrow2Mend"
       orient="auto"
       refY="0"
       refX="0"
       id="Arrow2Mend-7"
       style="overflow:visible">
      <path
         inkscape:connector-curvature="0"
         id="path4320-8"
         style="fill-rule:evenodd;stroke-width:0.625;stroke-linejoin:round"
         d="M 8.7185878,4.0337352 -2.2072895,0.01601326 8.7185884,-4.0017078 c -1.7454984,2.3720609 -1.7354408,5.6174519 -6e-7,8.035443 z"
         transform="scale(-0.6,-0.6)" />
    </marker>
    <linearGradient
       inkscape:collect="always"
       xlink:href="#linearGradient9347"
       id="linearGradient9353"
       x1="-21.345743"
       y1="40.800289"
       x2="1.8271284"
       y2="47.081963"
       gradientUnits="userSpaceOnUse" />
  </defs>
  <sodipodi:namedview
     id="base"
     pagecolor="#ffffff"
     bordercolor="#666666"
     borderopacity="1.0"
     inkscape:pageopacity="0.0"
     inkscape:pageshadow="2"
     inkscape:zoom="3.8890873"
     inkscape:cx="-8.5207897"
     inkscape:cy="17.097136"
     inkscape:current-layer="layer1"
     showgrid="true"
     inkscape:document-units="px"
     inkscape:grid-bbox="true"
     inkscape:snap-center="true"
     showguides="true"
     inkscape:guide-bbox="true"
     inkscape:window-width="1231"
     inkscape:window-height="1000"
     inkscape:window-x="49"
     inkscape:window-y="24"
     inkscape:window-maximized="1"
     inkscape:snap-nodes="false">
    <sodipodi:guide
       orientation="1,0"
       position="32,32"
       id="guide3783" />
    <sodipodi:guide
       orientation="0,1"
       position="32,32"
       id="guide3785" />
    <sodipodi:guide
       orientation="1,0"
       position="0,0"
       id="guide9301" />
    <sodipodi:guide
       orientation="0,1"
       position="0,0"
       id="guide9303" />
    <sodipodi:guide
       orientation="0,1"
       position="0,64"
       id="guide9305" />
    <sodipodi:guide
       orientation="1,0"
       position="64,64"
       id="guide9307" />
  </sodipodi:namedview>
  <metadata
     id="metadata3804">
    <rdf:RDF>
      <cc:Work
         rdf:about="">
        <dc:format>image/svg+xml</dc:format>
        <dc:type
           rdf:resource="http://purl.org/dc/dcmitype/StillImage" />
        <dc:title></dc:title>
      </cc:Work>
    </rdf:RDF>
  </metadata>
  <g
     id="layer1"
     inkscape:label="Layer 1"
     inkscape:groupmode="layer">
    <path
       style="fill:none;fill-rule:evenodd;stroke:#000000;stroke-width:1.95912385;stroke-linecap:butt;stroke-linejoin:miter;stroke-miterlimit:4;stroke-dasharray:3.89158593, 1.94579296;stroke-dashoffset:0;stroke-opacity:1"
       d="M 22.280019,42.944639 1.2694103,62.474738"
       id="path5193"
       inkscape:connector-curvature="0" />
    <path
       style="fill:#0079ff;fill-opacity:1"
       d="m 34.343439,3.519828 c 2.89583,0.357463 5.403627,1.9491683 7.095906,4.5037892 0.649691,0.9807521 0.841798,1.629649 1.117076,3.7732008 0.452717,3.52529 0.103493,4.447382 -4.351913,11.490629 -3.653516,5.775589 -4.447262,7.405299 -4.282475,8.792733 0.12288,1.034589 1.223998,2.588483 2.349155,3.31511 1.652672,1.067296 2.256891,1.017005 9.779086,-0.813951 3.841865,-0.935137 7.494998,-1.688668 8.185046,-1.688332 1.95472,9.58e-4 4.640498,1.040872 6.226808,2.410978 4.29337,3.708212 4.421157,10.606056 0.264533,14.279378 -5.855975,5.175087 -15.018004,1.844016 -15.962118,-5.803396 -0.129643,-1.049771 -0.109408,-2.472425 0.04487,-3.161445 l 0.280513,-1.252761 -1.819425,0.408657 c -1.000683,0.224766 -3.497961,0.770598 -5.549509,1.21297 l -3.730085,0.804314 -5.857931,9.386956 c -3.221861,5.162824 -6.162933,9.648453 -6.535712,9.968065 -0.374116,0.320756 -1.36875,0.720851 -2.220036,0.893016 -1.309411,0.264817 -1.745487,0.22499 -2.888298,-0.26355 -0.941646,-0.402573 -1.281498,-0.681263 -1.131203,-0.927638 0.387586,-0.63536 7.495882,-18.077753 7.394663,-18.145079 -0.103268,-0.06869 -10.958345,0.548007 -16.5183895,0.938433 L 3.0087149,43.868384 2.860561,42.699621 c -0.2558635,-2.018469 0.4213801,-3.620592 1.9895925,-4.70669 0.4741939,-0.328413 4.3457524,-1.333857 11.2595995,-2.924116 5.7953,-1.332981 10.659896,-2.440234 10.810214,-2.460563 0.290123,-0.0393 6.27428,-9.614595 6.076773,-9.723568 -0.06384,-0.03522 -0.920669,-0.26396 -1.904065,-0.50831 C 27.904967,21.584312 25.53068,19.540453 24.30917,16.536926 23.584354,14.754703 23.479422,13.876139 23.745678,11.819022 24.41846,6.6210754 29.190837,2.8837887 34.343437,3.5198283 Z m -4.03617,5.9898133 c -1.648252,1.3251747 -2.182846,3.8096957 -1.190901,5.5346887 2.051051,3.566761 6.736657,3.41751 8.310887,-0.264731 1.862469,-4.356463 -3.405981,-8.255977 -7.119986,-5.2699577 z M 29.752546,29.662134 c -0.770029,1.262808 -1.34328,2.340018 -1.273886,2.393795 0.06939,0.05378 1.158584,-0.119093 2.420425,-0.38415 l 2.294257,-0.481937 0.303685,-1.179655 0.303684,-1.179657 -1.14358,-0.75096 c -0.628968,-0.413029 -1.224793,-0.742521 -1.324056,-0.732203 -0.09925,0.01036 -0.8105,1.051963 -1.580529,2.31477 z m -3.153106,3.686278 c -2.294063,0.527112 -5.926576,1.364306 -8.072253,1.860431 -2.145676,0.496124 -5.815763,1.331535 -8.155749,1.856465 -5.683123,1.274904 -6.9551049,2.169318 -6.9749172,4.904528 l -0.00753,1.039938 1.3467384,-0.0086 c 0.7407067,-0.0047 3.3865716,-0.138113 5.8796983,-0.296431 2.493127,-0.158317 8.306535,-0.503772 12.918685,-0.767674 7.949873,-0.454889 11.883108,-0.934804 15.340386,-1.871768 l 1.271757,-0.344663 -0.185326,-1.462012 c -0.178042,-1.404544 -0.214087,-1.45837 -0.916945,-1.369275 -2.04736,0.259526 -4.708349,-1.604722 -5.620675,-3.937763 l -0.453242,-1.159057 -1.099802,0.298739 c -0.60489,0.164302 -2.976759,0.730011 -5.270822,1.257124 z m 5.264878,1.675469 c 0.935102,0.561069 1.311753,1.645289 0.983762,2.831833 -0.420759,1.522152 -2.606339,2.092428 -3.820088,0.996764 -2.15057,-1.94134 0.3519,-5.319284 2.836326,-3.828597 z m 20.770774,3.201148 c -3.025005,1.268225 -3.95741,5.040126 -1.811822,7.32944 1.225485,1.307579 2.713444,1.78363 4.391632,1.405038 4.518113,-1.019269 4.817776,-7.177357 0.423983,-8.712916 -1.651584,-0.577202 -1.678018,-0.577393 -3.003793,-0.02156 z m -32.74479,13.531125 c -2.022594,4.889187 -3.667357,8.969011 -3.655028,9.066278 0.04371,0.344806 2.07865,0.84959 2.969648,0.736646 0.497419,-0.06305 1.285575,-0.448094 1.751463,-0.855647 0.821688,-0.718806 12.081653,-18.367434 11.846836,-18.568478 -0.192309,-0.164645 -5.058233,0.134401 -7.222084,0.443847 l -2.013391,0.28793 -3.677444,8.889425 z"
       id="path4147"
       inkscape:connector-curvature="0" />
  </g>
</svg>
