<?xml version="1.0" encoding="UTF-8" standalone="no"?>
<!-- Created with Inkscape (http://www.inkscape.org/) -->

<svg
   xmlns:dc="http://purl.org/dc/elements/1.1/"
   xmlns:cc="http://creativecommons.org/ns#"
   xmlns:rdf="http://www.w3.org/1999/02/22-rdf-syntax-ns#"
   xmlns:svg="http://www.w3.org/2000/svg"
   xmlns="http://www.w3.org/2000/svg"
   xmlns:xlink="http://www.w3.org/1999/xlink"
   xmlns:sodipodi="http://sodipodi.sourceforge.net/DTD/sodipodi-0.dtd"
   xmlns:inkscape="http://www.inkscape.org/namespaces/inkscape"
   width="64px"
   height="64px"
   id="svg3799"
   version="1.1"
   inkscape:version="0.91 r13725"
   sodipodi:docname="scale_feature.svg">
  <defs
     id="defs3801">
    <linearGradient
       inkscape:collect="always"
       id="linearGradient9347">
      <stop
         style="stop-color:#0079ff;stop-opacity:1;"
         offset="0"
         id="stop9349" />
      <stop
         style="stop-color:#0079ff;stop-opacity:0"
         offset="1"
         id="stop9351" />
    </linearGradient>
    <marker
       inkscape:stockid="Arrow2Mstart"
       orient="auto"
       refY="0.0"
       refX="0.0"
       id="Arrow2Mstart"
       style="overflow:visible">
      <path
         id="path4317"
         style="fill-rule:evenodd;stroke-width:0.62500000;stroke-linejoin:round"
         d="M 8.7185878,4.0337352 L -2.2072895,0.016013256 L 8.7185884,-4.0017078 C 6.9730900,-1.6296469 6.9831476,1.6157441 8.7185878,4.0337352 z "
         transform="scale(0.6) translate(0,0)" />
    </marker>
    <marker
       inkscape:stockid="Arrow1Mend"
       orient="auto"
       refY="0.0"
       refX="0.0"
       id="Arrow1Mend"
       style="overflow:visible;">
      <path
         id="path4302"
         d="M 0.0,0.0 L 5.0,-5.0 L -12.5,0.0 L 5.0,5.0 L 0.0,0.0 z "
         style="fill-rule:evenodd;stroke:#000000;stroke-width:1.0pt;"
         transform="scale(0.4) rotate(180) translate(10,0)" />
    </marker>
    <marker
       inkscape:stockid="Arrow2Mend"
       orient="auto"
       refY="0.0"
       refX="0.0"
       id="Arrow2Mend"
       style="overflow:visible;">
      <path
         id="path4320"
         style="fill-rule:evenodd;stroke-width:0.62500000;stroke-linejoin:round;"
         d="M 8.7185878,4.0337352 L -2.2072895,0.016013256 L 8.7185884,-4.0017078 C 6.9730900,-1.6296469 6.9831476,1.6157441 8.7185878,4.0337352 z "
         transform="scale(0.6) rotate(180) translate(0,0)" />
    </marker>
    <marker
       inkscape:stockid="Arrow1Mstart"
       orient="auto"
       refY="0.0"
       refX="0.0"
       id="Arrow1Mstart"
       style="overflow:visible">
      <path
         id="path4299"
         d="M 0.0,0.0 L 5.0,-5.0 L -12.5,0.0 L 5.0,5.0 L 0.0,0.0 z "
         style="fill-rule:evenodd;stroke:#000000;stroke-width:1.0pt"
         transform="scale(0.4) translate(10,0)" />
    </marker>
    <marker
       inkscape:stockid="Arrow1Lend"
       orient="auto"
       refY="0.0"
       refX="0.0"
       id="Arrow1Lend"
       style="overflow:visible;">
      <path
         id="path4296"
         d="M 0.0,0.0 L 5.0,-5.0 L -12.5,0.0 L 5.0,5.0 L 0.0,0.0 z "
         style="fill-rule:evenodd;stroke:#000000;stroke-width:1.0pt;"
         transform="scale(0.8) rotate(180) translate(12.5,0)" />
    </marker>
    <marker
       inkscape:stockid="Arrow2Lend"
       orient="auto"
       refY="0.0"
       refX="0.0"
       id="Arrow2Lend"
       style="overflow:visible;">
      <path
         id="path4314"
         style="fill-rule:evenodd;stroke-width:0.62500000;stroke-linejoin:round;"
         d="M 8.7185878,4.0337352 L -2.2072895,0.016013256 L 8.7185884,-4.0017078 C 6.9730900,-1.6296469 6.9831476,1.6157441 8.7185878,4.0337352 z "
         transform="scale(1.1) rotate(180) translate(1,0)" />
    </marker>
    <marker
       inkscape:stockid="EmptyTriangleOutL"
       orient="auto"
       refY="0.0"
       refX="0.0"
       id="EmptyTriangleOutL"
       style="overflow:visible">
      <path
         id="path4487"
         d="M 5.77,0.0 L -2.88,5.0 L -2.88,-5.0 L 5.77,0.0 z "
         style="fill-rule:evenodd;fill:#FFFFFF;stroke:#000000;stroke-width:1.0pt"
         transform="scale(0.8) translate(-6,0)" />
    </marker>
    <marker
       inkscape:stockid="DotS"
       orient="auto"
       refY="0.0"
       refX="0.0"
       id="DotS"
       style="overflow:visible">
      <path
         id="path4394"
         d="M -2.5,-1.0 C -2.5,1.7600000 -4.7400000,4.0 -7.5,4.0 C -10.260000,4.0 -12.5,1.7600000 -12.5,-1.0 C -12.5,-3.7600000 -10.260000,-6.0 -7.5,-6.0 C -4.7400000,-6.0 -2.5,-3.7600000 -2.5,-1.0 z "
         style="fill-rule:evenodd;stroke:#000000;stroke-width:1.0pt"
         transform="scale(0.2) translate(7.4, 1)" />
    </marker>
    <marker
       inkscape:stockid="DotL"
       orient="auto"
       refY="0.0"
       refX="0.0"
       id="DotL"
       style="overflow:visible">
      <path
         id="path4388"
         d="M -2.5,-1.0 C -2.5,1.7600000 -4.7400000,4.0 -7.5,4.0 C -10.260000,4.0 -12.5,1.7600000 -12.5,-1.0 C -12.5,-3.7600000 -10.260000,-6.0 -7.5,-6.0 C -4.7400000,-6.0 -2.5,-3.7600000 -2.5,-1.0 z "
         style="fill-rule:evenodd;stroke:#000000;stroke-width:1.0pt"
         transform="scale(0.8) translate(7.4, 1)" />
    </marker>
    <marker
       inkscape:stockid="Tail"
       orient="auto"
       refY="0.0"
       refX="0.0"
       id="Tail"
       style="overflow:visible">
      <g
         id="g4363"
         transform="scale(-1.2)">
        <path
           id="path4365"
           d="M -3.8048674,-3.9585227 L 0.54352094,0"
           style="fill:none;fill-rule:evenodd;stroke:#000000;stroke-width:0.8;stroke-linecap:round" />
        <path
           id="path4367"
           d="M -1.2866832,-3.9585227 L 3.0617053,0"
           style="fill:none;fill-rule:evenodd;stroke:#000000;stroke-width:0.8;stroke-linecap:round" />
        <path
           id="path4369"
           d="M 1.3053582,-3.9585227 L 5.6537466,0"
           style="fill:none;fill-rule:evenodd;stroke:#000000;stroke-width:0.8;stroke-linecap:round" />
        <path
           id="path4371"
           d="M -3.8048674,4.1775838 L 0.54352094,0.21974226"
           style="fill:none;fill-rule:evenodd;stroke:#000000;stroke-width:0.8;stroke-linecap:round" />
        <path
           id="path4373"
           d="M -1.2866832,4.1775838 L 3.0617053,0.21974226"
           style="fill:none;fill-rule:evenodd;stroke:#000000;stroke-width:0.8;stroke-linecap:round" />
        <path
           id="path4375"
           d="M 1.3053582,4.1775838 L 5.6537466,0.21974226"
           style="fill:none;fill-rule:evenodd;stroke:#000000;stroke-width:0.8;stroke-linecap:round" />
      </g>
    </marker>
    <marker
       inkscape:stockid="Arrow1Sstart"
       orient="auto"
       refY="0.0"
       refX="0.0"
       id="Arrow1Sstart"
       style="overflow:visible">
      <path
         id="path4339"
         d="M 0.0,0.0 L 5.0,-5.0 L -12.5,0.0 L 5.0,5.0 L 0.0,0.0 z "
         style="fill-rule:evenodd;stroke:#000000;stroke-width:1.0pt"
         transform="scale(0.2) translate(6,0)" />
    </marker>
    <marker
       inkscape:stockid="Arrow1Lstart"
       orient="auto"
       refY="0.0"
       refX="0.0"
       id="Arrow1Lstart"
       style="overflow:visible">
      <path
         id="path4327"
         d="M 0.0,0.0 L 5.0,-5.0 L -12.5,0.0 L 5.0,5.0 L 0.0,0.0 z "
         style="fill-rule:evenodd;stroke:#000000;stroke-width:1.0pt"
         transform="scale(0.8) translate(12.5,0)" />
    </marker>
    <marker
       inkscape:stockid="Arrow1Mstart"
       orient="auto"
       refY="0"
       refX="0"
       id="Arrow1Mstart-9"
       style="overflow:visible">
      <path
         inkscape:connector-curvature="0"
         id="path4299-1"
         d="M 0,0 5,-5 -12.5,0 5,5 0,0 z"
         style="fill-rule:evenodd;stroke:#000000;stroke-width:1pt"
         transform="matrix(0.4,0,0,0.4,4,0)" />
    </marker>
    <marker
       inkscape:stockid="Arrow2Mend"
       orient="auto"
       refY="0"
       refX="0"
       id="Arrow2Mend-7"
       style="overflow:visible">
      <path
         inkscape:connector-curvature="0"
         id="path4320-8"
         style="fill-rule:evenodd;stroke-width:0.625;stroke-linejoin:round"
         d="M 8.7185878,4.0337352 -2.2072895,0.01601326 8.7185884,-4.0017078 c -1.7454984,2.3720609 -1.7354408,5.6174519 -6e-7,8.035443 z"
         transform="scale(-0.6,-0.6)" />
    </marker>
    <linearGradient
       inkscape:collect="always"
       xlink:href="#linearGradient9347"
       id="linearGradient9353"
       x1="-21.345743"
       y1="40.800289"
       x2="1.8271284"
       y2="47.081963"
       gradientUnits="userSpaceOnUse" />
  </defs>
  <sodipodi:namedview
     id="base"
     pagecolor="#ffffff"
     bordercolor="#666666"
     borderopacity="1.0"
     inkscape:pageopacity="0.0"
     inkscape:pageshadow="2"
     inkscape:zoom="4"
     inkscape:cx="47.521835"
     inkscape:cy="65.462898"
     inkscape:current-layer="layer1"
     showgrid="true"
     inkscape:document-units="px"
     inkscape:grid-bbox="true"
     inkscape:snap-center="true"
     showguides="true"
     inkscape:guide-bbox="true"
     inkscape:window-width="1301"
     inkscape:window-height="744"
     inkscape:window-x="65"
     inkscape:window-y="24"
     inkscape:window-maximized="1"
     inkscape:snap-nodes="false"
     inkscape:object-nodes="true"
     inkscape:snap-others="false">
    <sodipodi:guide
       orientation="1,0"
       position="32,32"
       id="guide3783" />
    <sodipodi:guide
       orientation="0,1"
       position="32,32"
       id="guide3785" />
    <sodipodi:guide
       orientation="1,0"
       position="0,0"
       id="guide9301" />
    <sodipodi:guide
       orientation="0,1"
       position="0,0"
       id="guide9303" />
    <sodipodi:guide
       orientation="0,1"
       position="0,64"
       id="guide9305" />
    <sodipodi:guide
       orientation="1,0"
       position="64,64"
       id="guide9307" />
  </sodipodi:namedview>
  <metadata
     id="metadata3804">
    <rdf:RDF>
      <cc:Work
         rdf:about="">
        <dc:format>image/svg+xml</dc:format>
        <dc:type
           rdf:resource="http://purl.org/dc/dcmitype/StillImage" />
        <dc:title></dc:title>
      </cc:Work>
    </rdf:RDF>
  </metadata>
  <g
     id="layer1"
     inkscape:label="Layer 1"
     inkscape:groupmode="layer">
    <path
       style="fill:none;fill-opacity:1;fill-rule:nonzero;stroke:#0079ff;stroke-width:2.02256703"
       d="M 26.561444,26.561444 C 37.458646,15.664241 49.065697,9.7256135 50.978185,11.638102 l 1.438393,1.438393 C 54.329067,14.988983 46.880125,25.085719 35.982922,35.982922 25.085719,46.880126 14.988983,54.329067 13.076495,52.416578 L 11.638102,50.978186 C 9.7256134,49.065697 15.664241,37.458648 26.561444,26.561444 Z"
       id="rect9357"
       inkscape:connector-curvature="0"
       sodipodi:nodetypes="sssssss" />
    <path
       style="fill:#0079ff;stroke:#0079ff;stroke-width:2.02256703;stroke-linecap:butt;stroke-linejoin:miter;stroke-opacity:1"
       d="m 15.366306,40.658935 7.627578,6.934162"
       id="path3715"
       inkscape:connector-curvature="0" />
    <path
       style="fill:#0079ff;stroke:#0079ff;stroke-width:2.02256703;stroke-linecap:butt;stroke-linejoin:miter;stroke-opacity:1"
       d="m 12.765996,45.339494 5.634006,5.54733"
       id="path3717"
       inkscape:connector-curvature="0" />
    <path
       style="fill:#0079ff;stroke:#0079ff;stroke-width:2.02256703;stroke-linecap:butt;stroke-linejoin:miter;stroke-opacity:1"
       d="m 19.006741,35.284961 8.841056,8.320993"
       id="path3719"
       inkscape:connector-curvature="0" />
    <path
       style="fill:none;stroke:#0079ff;stroke-width:2.02256703;stroke-linecap:butt;stroke-linejoin:miter;stroke-opacity:1"
       d="m 23.600623,29.650954 9.621149,9.101087"
       id="path3721"
       inkscape:connector-curvature="0" />
    <path
       style="fill:#0079ff;stroke:#0079ff;stroke-width:2.02256703;stroke-linecap:butt;stroke-linejoin:miter;stroke-opacity:1"
       d="m 29.12692,24.052851 9.555504,9.238538"
       id="path3723"
       inkscape:connector-curvature="0"
       sodipodi:nodetypes="cc" />
    <path
       style="fill:#0079ff;stroke:#0079ff;stroke-width:2.02256703;stroke-linecap:butt;stroke-linejoin:miter;stroke-opacity:1"
       d="m 35.128667,18.989681 9.014409,8.407671"
       id="path3725"
       inkscape:connector-curvature="0" />
    <path
       style="fill:#0079ff;stroke:#0079ff;stroke-width:2.02256703;stroke-linecap:butt;stroke-linejoin:miter;stroke-opacity:1"
       d="m 39.809226,15.869308 7.974285,7.107516"
       id="path3727"
       inkscape:connector-curvature="0" />
    <path
       style="fill:#0079ff;stroke:#0079ff;stroke-width:2.02256703;stroke-linecap:butt;stroke-linejoin:miter;stroke-opacity:1"
       d="m 45.096524,12.835613 5.80736,5.200621"
       id="path3729"
       inkscape:connector-curvature="0"
       sodipodi:nodetypes="cc" />
    <path
       style="fill:#000000"
       d="M 1.0626189,63.773109 C 0.79400629,63.638923 0.51619626,63.35586 0.38023111,63.077818 0.16425296,62.636154 0.15607413,62.004377 0.23972232,52.224275 0.32772762,41.934785 0.33105204,41.835956 0.60271554,41.431456 0.92886508,40.94583 1.7473158,40.615965 2.2888525,40.751884 c 0.2025462,0.05083 0.5628832,0.287046 0.8007505,0.524913 l 0.432485,0.432485 0,8.232749 c 0,4.528013 0.042933,8.232752 0.095406,8.232752 0.052473,0 3.0669405,-2.966792 6.698816,-6.59287 5.821365,-5.812069 6.661157,-6.603337 7.090992,-6.681267 1.176965,-0.213383 2.214011,0.905957 1.898391,2.049039 -0.08983,0.325359 -1.724539,2.032943 -6.718021,7.017539 -3.6296105,3.623153 -6.5684174,6.618427 -6.5306803,6.656164 0.037737,0.03774 3.7631958,0.0993 8.2787963,0.136821 l 8.210186,0.06822 0.400255,0.400424 c 0.758568,0.75889 0.628567,2.027702 -0.261633,2.553556 -0.336489,0.198766 -1.261147,0.217421 -10.768507,0.217237 -9.6423457,-1.3e-4 -10.433432,-0.0167 -10.8534699,-0.226531 z"
       id="path5969" />
    <path
       style="fill:#000000"
       d="m 41.350305,63.840829 c -0.892553,-0.43021 -1.056481,-1.851409 -0.300756,-2.607451 l 0.404783,-0.404954 8.210185,-0.06822 c 4.515603,-0.03752 8.241491,-0.09951 8.279753,-0.137776 0.03826,-0.03826 -2.925866,-3.056892 -6.586949,-6.708071 -4.580031,-4.567644 -6.680704,-6.748656 -6.734065,-6.991614 -0.14878,-0.677382 0.456467,-1.632023 1.240642,-1.956838 0.865538,-0.358517 0.789624,-0.422671 7.818277,6.606996 3.630507,3.63103 6.644825,6.601875 6.698483,6.601875 0.05366,0 0.09756,-3.704737 0.09756,-8.23275 l 0,-8.232749 0.432486,-0.432487 c 0.237867,-0.237866 0.598203,-0.474077 0.800749,-0.524912 0.558299,-0.140125 1.359827,0.193728 1.707436,0.711178 0.295414,0.439752 0.295472,0.440886 0.296122,5.63089 3.88e-4,2.855078 0.03445,7.521072 0.07575,10.368879 0.07043,4.855912 0.06034,5.205997 -0.162455,5.63089 -0.499094,0.951839 0.08241,0.906724 -11.564064,0.897159 -7.256568,-0.006 -10.509511,-0.05152 -10.713939,-0.150054 z"
       id="path5967" />
    <path
       style="fill:#000000"
       d="M 1.1964681,23.127145 C 0.25808656,22.653771 0.31359121,23.302864 0.21964656,11.703753 0.13593372,1.367842 0.13738582,1.2800116 0.39904126,0.86895653 0.91898216,0.05213441 0.40053314,0.09070786 11.713598,0.02724484 c 9.514078,-0.05337621 10.366044,-0.04061237 10.81854,0.16198527 0.848725,0.37998247 1.168516,1.46918909 0.670944,2.28523219 -0.514858,0.8443972 -0.189471,0.815322 -9.124737,0.815322 -4.4532332,0 -8.0967877,0.047906 -8.0967877,0.1064209 0,0.058515 2.9730388,3.0664897 6.6067517,6.6843458 3.633713,3.617856 6.662743,6.682539 6.73118,6.81041 0.186034,0.347608 0.15021,1.118629 -0.07193,1.548209 -0.349932,0.676701 -1.471568,0.99734 -2.173913,0.621452 -0.155166,-0.08304 -3.25318,-3.107865 -6.884475,-6.721834 L 3.5868109,5.7679335 3.522088,14.016551 C 3.461601,21.725132 3.441875,22.28879 3.2207668,22.626162 2.9834257,22.988293 2.307254,23.354052 1.8758125,23.353671 1.7489345,23.353563 1.4432296,23.251626 1.1964681,23.127145 Z"
       id="path5963" />
    <path
       style="fill:#000000"
       d="m 61.449063,23.178525 c -0.213587,-0.09767 -0.50484,-0.308124 -0.64723,-0.467672 -0.251715,-0.282049 -0.260686,-0.520849 -0.323614,-8.614212 l -0.06472,-8.3241105 -6.760454,6.7195625 c -6.707561,6.666981 -6.76458,6.719554 -7.287752,6.719554 -1.039195,0 -1.808898,-0.759012 -1.808898,-1.783761 0,-0.519051 0.05685,-0.58006 6.731178,-7.223893 3.702149,-3.6852312 6.731179,-6.7485132 6.731179,-6.8073017 0,-0.058763 -3.655224,-0.107084 -8.12272,-0.1073575 -7.82791,-5.139e-4 -8.137763,-0.0097 -8.537136,-0.2531641 C 40.59291,2.5691223 40.35533,1.71923 40.755195,0.87657345 41.195927,-0.0521979 40.578699,-0.0070353 52.19369,0.03971864 c 11.428237,0.04599965 10.885389,0.0066306 11.406027,0.82927934 0.259689,0.41038372 0.261384,0.51588472 0.17407,10.83479502 -0.09477,11.200191 -0.07335,10.881053 -0.760378,11.331203 -0.439387,0.287901 -1.113426,0.349747 -1.564346,0.143536 z"
       id="path5959" />
  </g>
</svg>
