<?xml version="1.0" encoding="UTF-8" standalone="no"?>
<!-- Created with Inkscape (http://www.inkscape.org/) -->

<svg
   xmlns:dc="http://purl.org/dc/elements/1.1/"
   xmlns:cc="http://creativecommons.org/ns#"
   xmlns:rdf="http://www.w3.org/1999/02/22-rdf-syntax-ns#"
   xmlns:svg="http://www.w3.org/2000/svg"
   xmlns="http://www.w3.org/2000/svg"
   xmlns:sodipodi="http://sodipodi.sourceforge.net/DTD/sodipodi-0.dtd"
   xmlns:inkscape="http://www.inkscape.org/namespaces/inkscape"
   width="627.32324"
   height="712.25"
   id="svg2"
   version="1.1"
   inkscape:version="0.48.3.1 r9886"
   sodipodi:docname="example_3_lines.svg">
  <defs
     id="defs4" />
  <sodipodi:namedview
     id="base"
     pagecolor="#ffffff"
     bordercolor="#666666"
     borderopacity="1.0"
     inkscape:pageopacity="0.0"
     inkscape:pageshadow="2"
     inkscape:zoom="1.4"
     inkscape:cx="141.01936"
     inkscape:cy="529.29823"
     inkscape:document-units="px"
     inkscape:current-layer="layer1"
     showgrid="false"
     fit-margin-top="0"
     fit-margin-left="0"
     fit-margin-right="0"
     fit-margin-bottom="0"
     inkscape:window-width="1366"
     inkscape:window-height="708"
     inkscape:window-x="0"
     inkscape:window-y="0"
     inkscape:window-maximized="1" />
  <metadata
     id="metadata7">
    <rdf:RDF>
      <cc:Work
         rdf:about="">
        <dc:format>image/svg+xml</dc:format>
        <dc:type
           rdf:resource="http://purl.org/dc/dcmitype/StillImage" />
        <dc:title />
      </cc:Work>
    </rdf:RDF>
  </metadata>
  <g
     inkscape:label="Ebene 1"
     inkscape:groupmode="layer"
     id="layer1"
     transform="translate(-113.03454,-24.59374)">
    <path
       style="fill:none;stroke:#000000;stroke-width:1px;stroke-linecap:butt;stroke-linejoin:miter;stroke-opacity:1"
       d="m 117.14286,226.6479 c 69.56087,80.05277 157.48462,154.54204 237.14285,214.28571 50.61677,-45.43294 194.28572,-172.73537 194.28572,-208.57143"
       id="path3109"
       inkscape:connector-curvature="0" />
    <path
       style="fill:none;stroke:#000000;stroke-width:1px;stroke-linecap:butt;stroke-linejoin:miter;stroke-opacity:1"
       d="m 357.14286,438.07647 c 2.36623,15.7571 -2.84906,32.90161 0,48.57143 10.03382,55.186 0,108.29726 0,162.85714 0,30.6966 0,69.39483 0,62.85714 0,-6.66666 0,-13.33333 0,-20"
       id="path3111"
       inkscape:connector-curvature="0" />
    <path
       style="fill:none;stroke:#000000;stroke-width:1px;stroke-linecap:butt;stroke-linejoin:miter;stroke-opacity:1"
       d="m 385.71429,690.93361 c -21.69018,8.82577 -31.98831,35.9315 -10,41.42857"
       id="path3115"
       inkscape:connector-curvature="0" />
    <path
       style="fill:none;stroke:#000000;stroke-width:1px;stroke-linecap:butt;stroke-linejoin:miter;stroke-opacity:1"
       d="m 401.42857,706.6479 c -27.82367,32.22762 50.93553,0 0,0 z"
       id="path3117"
       inkscape:connector-curvature="0" />
    <path
       style="fill:none;stroke:#000000;stroke-width:1px;stroke-linecap:butt;stroke-linejoin:miter;stroke-opacity:1"
       d="m 427.14286,718.07647 c -2.49469,6.05389 -3.20433,8.53159 -4.28572,12.85714"
       id="path3135"
       inkscape:connector-curvature="0" />
    <path
       style="fill:none;stroke:#000000;stroke-width:1px;stroke-linecap:butt;stroke-linejoin:miter;stroke-opacity:1"
       d="m 451.42857,708.07647 c -5.67495,-3.63746 -9.54365,4.97024 -7.14286,8.57143 14.09825,21.14736 45.79259,-2.10371 24.28572,-12.85715 -5.73712,-2.86855 -13.09643,4.28572 -17.14286,4.28572 -7.2304,0 -11.42857,-10.60593 -11.42857,1.42857"
       id="path3137"
       inkscape:connector-curvature="0" />
    <path
       style="fill:none;stroke:#000000;stroke-width:1px;stroke-linecap:butt;stroke-linejoin:miter;stroke-opacity:1"
       d="m 484.28571,719.50504 c -2.261,7.15257 1.73655,14.34137 2.85715,17.14286"
       id="path3139"
       inkscape:connector-curvature="0" />
    <path
       style="fill:none;stroke:#000000;stroke-width:1px;stroke-linecap:butt;stroke-linejoin:miter;stroke-opacity:1"
       d="m 501.42857,705.21933 c -0.29952,-5.98108 -8.60442,7.10986 -7.14286,8.57142 35.78189,35.78189 33.51783,-29.6714 7.14286,-8.57142 z"
       id="path3141"
       inkscape:connector-curvature="0" />
    <path
       style="fill:none;stroke:#000000;stroke-width:1px;stroke-linecap:butt;stroke-linejoin:miter;stroke-opacity:1"
       d="m 538.57143,690.93361 c 18.81691,17.73132 16.60396,40.22242 -7.14286,34.28572"
       id="path3143"
       inkscape:connector-curvature="0" />
    <path
       style="fill:none;stroke:#000000;stroke-width:1px;stroke-linecap:butt;stroke-linejoin:miter;stroke-opacity:1"
       d="m 588.57143,208.07647 c -19.11026,8.37059 -22.01078,39.4973 -2.85714,44.28571"
       id="path3145"
       inkscape:connector-curvature="0" />
    <path
       style="fill:none;stroke:#000000;stroke-width:1px;stroke-linecap:butt;stroke-linejoin:miter;stroke-opacity:1"
       d="m 117.14286,220.93361 c -12.50593,6.36332 11.42991,14.28304 12.85714,11.42857 7.07921,-14.15842 -20.09519,-11.42857 -12.85714,-11.42857 z"
       id="path3147"
       inkscape:connector-curvature="0" />
    <path
       style="fill:none;stroke:#000000;stroke-width:1px;stroke-linecap:butt;stroke-linejoin:miter;stroke-opacity:1"
       d="m 354.28571,432.36218 c -42.66098,9.8664 33.91929,11.30643 -8.57142,-2.85714"
       id="path3149"
       inkscape:connector-curvature="0" />
    <path
       style="fill:none;stroke:#000000;stroke-width:1px;stroke-linecap:butt;stroke-linejoin:miter;stroke-opacity:1"
       d="m 542.85714,225.21933 c -9.74304,22.53492 32.58426,13.0337 0,0 z"
       id="path3151"
       inkscape:connector-curvature="0" />
    <path
       style="fill:none;stroke:#000000;stroke-width:1px;stroke-linecap:butt;stroke-linejoin:miter;stroke-opacity:1"
       d="m 352.85714,713.07647 c 0.95238,-0.2381 2.61905,-1.66667 2.85715,-0.71429 0.23809,0.95238 -3.55131,1.40845 -2.85715,0.71429 17.12963,-17.12963 -16.5,0 3.57143,0"
       id="path3155"
       inkscape:connector-curvature="0" />
    <path
       style="fill:none;stroke:#000000;stroke-width:1px;stroke-linecap:butt;stroke-linejoin:miter;stroke-opacity:1"
       d="m 381.42857,426.6479 c -22.18622,14.59883 -13.73123,29.56295 1.42857,37.14285"
       id="path3157"
       inkscape:connector-curvature="0" />
    <path
       style="fill:none;stroke:#000000;stroke-width:1px;stroke-linecap:butt;stroke-linejoin:miter;stroke-opacity:1"
       d="m 408.57143,435.21933 c -9.98795,-1.11221 -12.85714,7.30551 -12.85714,15.71428 0,8.42468 27.31849,30.5269 14.28571,-8.57143 -3.06929,-9.20787 1.90704,-9.14422 -8.57143,-2.85714"
       id="path3159"
       inkscape:connector-curvature="0" />
    <path
       style="fill:none;stroke:#000000;stroke-width:1px;stroke-linecap:butt;stroke-linejoin:miter;stroke-opacity:1"
       d="m 432.85714,459.50504 c -1.40396,6.67189 -2.94859,13.31439 -4.28571,20"
       id="path3161"
       inkscape:connector-curvature="0" />
    <path
       style="fill:none;stroke:#000000;stroke-width:1px;stroke-linecap:butt;stroke-linejoin:miter;stroke-opacity:1"
       d="m 458.57143,440.93361 c -1.3171,3.15254 -8.05913,-1.94087 -10,0 -2.67734,2.67734 -1.42857,9.37647 -1.42857,12.85714 0,31.61845 47.86653,-12.85714 11.42857,-12.85714 z"
       id="path3163"
       inkscape:connector-curvature="0" />
    <path
       style="fill:none;stroke:#000000;stroke-width:1px;stroke-linecap:butt;stroke-linejoin:miter;stroke-opacity:1"
       d="m 484.28571,466.6479 c -2.39602,10.92994 -3.22613,15.00474 5.71429,11.42857"
       id="path3165"
       inkscape:connector-curvature="0" />
    <path
       style="fill:none;stroke:#000000;stroke-width:1px;stroke-linecap:butt;stroke-linejoin:miter;stroke-opacity:1"
       d="m 511.42857,442.36218 c 2.38095,0 -9.52381,0 -7.14286,0 20.70228,0 18.57143,-36.56584 18.57143,0 0,6.66667 0,13.33334 0,20"
       id="path3167"
       inkscape:connector-curvature="0" />
    <path
       style="fill:none;stroke:#000000;stroke-width:1px;stroke-linecap:butt;stroke-linejoin:miter;stroke-opacity:1"
       d="m 541.42857,430.93361 c 15.75786,16.03878 7.82974,34.28572 -2.85714,34.28572"
       id="path3169"
       inkscape:connector-curvature="0" />
    <path
       style="fill:none;stroke:#000000;stroke-width:1px;stroke-linecap:butt;stroke-linejoin:miter;stroke-opacity:1"
       d="m 306.07622,67.463451 c -2.47196,18.279401 3.03046,48.170539 3.03046,58.588849"
       id="path3181"
       inkscape:connector-curvature="0" />
    <path
       style="fill:none;stroke:#000000;stroke-width:1px;stroke-linecap:butt;stroke-linejoin:miter;stroke-opacity:1"
       d="m 304.05592,47.2604 c -3.80729,-7.694201 -19.1929,25.757239 -19.1929,17.172593 0,-8.986083 15.15064,-13.130342 19.1929,-17.172593 8.57735,-8.577357 15.15228,-26.496931 15.15228,-21.213203 0,2.934244 -1.89702,42.86984 -3.03045,43.436559 -2.7827,1.391348 -9.11501,-2.278751 -12.12183,-3.030458"
       id="path3183"
       inkscape:connector-curvature="0" />
    <path
       style="fill:none;stroke:#000000;stroke-width:1px;stroke-linecap:butt;stroke-linejoin:miter;stroke-opacity:1"
       d="m 332.34019,60.392383 c 6.72184,-0.0388 13.63851,-0.756887 19.1929,2.020305 5.97118,2.985591 -10.22105,20.561618 -11.11168,23.233509 -1.90854,5.725627 40.88424,8.474508 17.17259,-1.010153"
       id="path3185"
       inkscape:connector-curvature="0" />
    <path
       style="fill:none;stroke:#000000;stroke-width:1px;stroke-linecap:butt;stroke-linejoin:miter;stroke-opacity:1"
       d="m 339.41126,69.483756 c 7.18514,1.391067 17.30194,1.547567 23.2335,3.030458"
       id="path3187"
       inkscape:connector-curvature="0" />
    <path
       style="fill:none;stroke:#000000;stroke-width:1px;stroke-linecap:butt;stroke-linejoin:miter;stroke-opacity:1"
       d="m 317.1879,123.02184 c 22.25289,11.04798 62.99762,2.70947 79.80205,11.11168"
       id="path3189"
       inkscape:connector-curvature="0" />
    <path
       style="fill:none;stroke:#000000;stroke-width:1px;stroke-linecap:butt;stroke-linejoin:miter;stroke-opacity:1"
       d="m 406.08132,122.01169 c 30.33289,7.96444 -9.63968,29.56858 -3.03045,26.26396"
       id="path3191"
       inkscape:connector-curvature="0" />
    <path
       style="fill:none;stroke:#000000;stroke-width:1px;stroke-linecap:butt;stroke-linejoin:miter;stroke-opacity:1"
       d="m 396.98995,130.09291 c 6.3076,6.32564 3.4514,15.57323 8.08122,20.20305"
       id="path3193"
       inkscape:connector-curvature="0" />
    <path
       style="fill:none;stroke:#000000;stroke-width:1px;stroke-linecap:butt;stroke-linejoin:miter;stroke-opacity:1"
       d="m 444.46712,124.03199 c -7.77812,9.89258 -5.26557,16.76428 5.05076,20.20305 5.65144,1.88382 13.13199,-18.07897 13.13199,-12.12183 0,6.44353 26.63066,20.84651 22.22335,25.25382 -9.28508,9.28508 -29.06106,4.50734 -34.34518,-6.06092 -2.09037,-4.18073 35.28718,3.36819 48.48732,-13.13198"
       id="path3195"
       inkscape:connector-curvature="0" />
    <path
       style="fill:none;stroke:#000000;stroke-width:1px;stroke-linecap:butt;stroke-linejoin:miter;stroke-opacity:1"
       d="m 602.05092,219.99649 c -3.69624,-2.89189 -11.72248,5.45011 -8.08122,9.09137 35.72023,35.72023 28.13197,-19.11675 8.08122,-9.09137 z"
       id="path3197"
       inkscape:connector-curvature="0" />
    <path
       style="fill:none;stroke:#000000;stroke-width:1px;stroke-linecap:butt;stroke-linejoin:miter;stroke-opacity:1"
       d="m 629.32504,228.07771 c -0.76779,7.95304 -1.40854,14.54051 -5.05077,18.18274"
       id="path3199"
       inkscape:connector-curvature="0" />
    <path
       style="fill:none;stroke:#000000;stroke-width:1px;stroke-linecap:butt;stroke-linejoin:miter;stroke-opacity:1"
       d="m 351.53309,411.92547 c -1.91654,-2.38195 -0.63981,-3.83881 -1.01016,-6.06092"
       id="path3201"
       inkscape:connector-curvature="0" />
    <path
       style="fill:none;stroke:#000000;stroke-width:1px;stroke-linecap:butt;stroke-linejoin:miter;stroke-opacity:1"
       d="m 353.55339,380.61074 c 1.65573,-6.86877 1.01015,-14.15196 1.01015,-21.2132"
       id="path3203"
       inkscape:connector-curvature="0" />
    <path
       style="fill:none;stroke:#000000;stroke-width:1px;stroke-linecap:butt;stroke-linejoin:miter;stroke-opacity:1"
       d="m 358.60415,310.91021 c 4.59618,-11.53276 5.30062,-23.22275 8.08122,-34.34518"
       id="path3205"
       inkscape:connector-curvature="0" />
    <path
       style="fill:none;stroke:#000000;stroke-width:1px;stroke-linecap:butt;stroke-linejoin:miter;stroke-opacity:1"
       d="m 366.68537,244.24015 c 2.2685,-5.93422 2.57781,-11.32137 4.04061,-17.1726"
       id="path3207"
       inkscape:connector-curvature="0" />
    <path
       style="fill:none;stroke:#000000;stroke-width:1px;stroke-linecap:butt;stroke-linejoin:miter;stroke-opacity:1"
       d="m 278.8021,379.60059 c 49.35994,-44.64462 85.54763,-56.88389 134.35029,-8.08122 2.43572,2.43572 2.34157,8.40248 5.05076,11.11168"
       id="path3217"
       inkscape:connector-curvature="0" />
    <path
       style="fill:none;stroke:#000000;stroke-width:1px;stroke-linecap:butt;stroke-linejoin:miter;stroke-opacity:1"
       d="m 326.27927,382.63105 c 5.51032,-35.39839 5.67932,-14.31422 14.14214,-3.03046"
       id="path3219"
       inkscape:connector-curvature="0" />
    <path
       style="fill:none;stroke:#000000;stroke-width:1px;stroke-linecap:butt;stroke-linejoin:miter;stroke-opacity:1"
       d="m 345.47217,364.4483 c 25.89816,0.55284 -5.0908,20.20305 19.1929,20.20305"
       id="path3221"
       inkscape:connector-curvature="0" />
    <path
       style="fill:none;stroke:#000000;stroke-width:1px;stroke-linecap:butt;stroke-linejoin:miter;stroke-opacity:1"
       d="m 374.76659,374.54982 c 0.63144,2.6059 -5.27399,-2.58399 -6.06091,-1.01015 -2.54803,5.09607 9.79285,17.48127 11.11168,16.16244 6.84065,-6.84065 2.37739,-13.66665 -5.05077,-15.15229 z"
       id="path3223"
       inkscape:connector-curvature="0" />
    <path
       style="fill:none;stroke:#000000;stroke-width:1px;stroke-linecap:butt;stroke-linejoin:miter;stroke-opacity:1"
       d="m 389.91888,380.61074 c -1.34687,0 -4.04061,1.34687 -4.04061,0 0,-1.34687 4.04061,-1.34687 4.04061,0 0,2.7147 -6.46871,5.85702 -4.04061,7.07107 11.40409,5.70204 13.08983,-8.57927 -2.0203,-6.06092"
       id="path3225"
       inkscape:connector-curvature="0" />
    <path
       style="fill:none;stroke:#000000;stroke-width:1px;stroke-linecap:butt;stroke-linejoin:miter;stroke-opacity:1"
       d="m 634.3758,206.8645 c 0.28388,-1.37926 9.69563,9.90316 10.10152,9.09138 8.80059,-17.60117 -8.03564,-31.31473 19.1929,-31.31473 9.92113,0 3.03046,13.12425 3.03046,18.18274"
       id="path3227"
       inkscape:connector-curvature="0" />
    <path
       style="fill:none;stroke:#000000;stroke-width:1px;stroke-linecap:butt;stroke-linejoin:miter;stroke-opacity:1"
       d="m 652.55854,203.83404 c -1.55648,-11.04161 13.61627,-3.86532 5.05077,-1.01015 -1.62883,0.54294 -4.7685,-0.68341 -5.05077,1.01015 -1.16043,6.96259 23.40001,15.15229 -3.03045,15.15229"
       id="path3229"
       inkscape:connector-curvature="0" />
    <path
       style="fill:none;stroke:#000000;stroke-width:1px;stroke-linecap:butt;stroke-linejoin:miter;stroke-opacity:1"
       d="m 634.3758,229.08786 c 10.20063,-0.0873 18.98054,2.72483 28.28427,5.05076"
       id="path3231"
       inkscape:connector-curvature="0" />
    <path
       style="fill:none;stroke:#000000;stroke-width:1px;stroke-linecap:butt;stroke-linejoin:miter;stroke-opacity:1"
       d="m 645.48748,245.2503 c -1.47913,-15.61012 18.68819,-4.04086 8.08122,3.03046 -1.14845,0.76563 -8.42935,5.88685 -6.06092,7.07106 3.55933,1.77967 8.43641,2.86672 13.13198,4.04061"
       id="path3233"
       inkscape:connector-curvature="0" />
    <path
       style="fill:none;stroke:#000000;stroke-width:1px;stroke-linecap:butt;stroke-linejoin:miter;stroke-opacity:1"
       d="m 686.90373,236.15893 c 0.33531,6.56006 0.38016,11.61495 -3.03046,16.16244"
       id="path3235"
       inkscape:connector-curvature="0" />
    <path
       style="fill:none;stroke:#000000;stroke-width:1px;stroke-linecap:butt;stroke-linejoin:miter;stroke-opacity:1"
       d="m 689.93419,224.0371 c 23.093,-15.63682 10.10152,-7.99119 10.10152,14.14213"
       id="path3237"
       inkscape:connector-curvature="0" />
    <path
       style="fill:none;stroke:#000000;stroke-width:1px;stroke-linecap:butt;stroke-linejoin:miter;stroke-opacity:1"
       d="m 710.13724,237.16908 c -0.49258,1.98806 -0.67344,4.04061 -1.01015,6.06091"
       id="path3239"
       inkscape:connector-curvature="0" />
    <path
       style="fill:none;stroke:#000000;stroke-width:1px;stroke-linecap:butt;stroke-linejoin:miter;stroke-opacity:1"
       d="m 725.28953,218.98633 c -15.46145,-2.54005 -0.41429,-1.24285 0,0 0.54036,1.62109 -5.05077,8.57987 -5.05077,8.08122 0,-2.7804 14.18161,8.06149 8.08123,11.11168 -6.22731,3.11366 -7.54218,-0.11778 -15.15229,-2.0203"
       id="path3241"
       inkscape:connector-curvature="0" />
    <path
       style="fill:none;stroke:#000000;stroke-width:1px;stroke-linecap:butt;stroke-linejoin:miter;stroke-opacity:1"
       d="m 730.34029,204.8442 c 18.5856,11.90212 4.68114,30.77292 2.02031,41.41625"
       id="path3245"
       inkscape:connector-curvature="0" />
    <path
       style="fill:none;stroke:#000000;stroke-width:1px;stroke-linecap:butt;stroke-linejoin:miter;stroke-opacity:1"
       d="m 162.28744,205.56472 c -19.11026,8.37059 -22.01078,39.4973 -2.85714,44.28571"
       id="path3145-3"
       inkscape:connector-curvature="0" />
    <path
       style="fill:none;stroke:#000000;stroke-width:1px;stroke-linecap:butt;stroke-linejoin:miter;stroke-opacity:1"
       d="m 175.76693,217.48474 c -3.69624,-2.89189 -11.72248,5.45011 -8.08122,9.09137 35.72023,35.72023 28.13197,-19.11675 8.08122,-9.09137 z"
       id="path3197-8"
       inkscape:connector-curvature="0" />
    <path
       style="fill:none;stroke:#000000;stroke-width:1px;stroke-linecap:butt;stroke-linejoin:miter;stroke-opacity:1"
       d="m 203.04105,225.56596 c -0.76779,7.95304 -1.40854,14.54051 -5.05077,18.18274"
       id="path3199-3"
       inkscape:connector-curvature="0" />
    <path
       style="fill:none;stroke:#000000;stroke-width:1px;stroke-linecap:butt;stroke-linejoin:miter;stroke-opacity:1"
       d="m 217.02038,205.06704 c 0.28388,-1.37926 9.69563,9.90316 10.10152,9.09138 8.80059,-17.60117 -8.03564,-31.31473 19.1929,-31.31473 9.92114,0 3.03046,13.12425 3.03046,18.18274"
       id="path3227-1"
       inkscape:connector-curvature="0" />
    <path
       style="fill:none;stroke:#000000;stroke-width:1px;stroke-linecap:butt;stroke-linejoin:miter;stroke-opacity:1"
       d="m 235.20312,202.03658 c -1.55648,-11.04161 13.61627,-3.86532 5.05077,-1.01015 -1.62883,0.54294 -4.7685,-0.68341 -5.05077,1.01015 -1.16043,6.96259 23.40002,15.15229 -3.03045,15.15229"
       id="path3229-3"
       inkscape:connector-curvature="0" />
    <path
       style="fill:none;stroke:#000000;stroke-width:1px;stroke-linecap:butt;stroke-linejoin:miter;stroke-opacity:1"
       d="m 217.02038,227.2904 c 10.20063,-0.0873 18.98054,2.72483 28.28427,5.05076"
       id="path3231-9"
       inkscape:connector-curvature="0" />
    <path
       style="fill:none;stroke:#000000;stroke-width:1px;stroke-linecap:butt;stroke-linejoin:miter;stroke-opacity:1"
       d="m 228.13206,243.45284 c -1.47913,-15.61012 18.68819,-4.04086 8.08122,3.03046 -1.14845,0.76563 -8.42935,5.88685 -6.06092,7.07106 3.55933,1.77967 8.43641,2.86672 13.13198,4.04061"
       id="path3233-0"
       inkscape:connector-curvature="0" />
    <path
       style="fill:none;stroke:#000000;stroke-width:1px;stroke-linecap:butt;stroke-linejoin:miter;stroke-opacity:1"
       d="m 260.61975,233.64718 c 0.33531,6.56006 0.38016,11.61495 -3.03046,16.16244"
       id="path3235-4"
       inkscape:connector-curvature="0" />
    <path
       style="fill:none;stroke:#000000;stroke-width:1px;stroke-linecap:butt;stroke-linejoin:miter;stroke-opacity:1"
       d="m 263.65021,221.52535 c 23.093,-15.63682 10.10152,-7.99119 10.10152,14.14213"
       id="path3237-4"
       inkscape:connector-curvature="0" />
    <path
       style="fill:none;stroke:#000000;stroke-width:1px;stroke-linecap:butt;stroke-linejoin:miter;stroke-opacity:1"
       d="m 283.85326,234.65733 c -0.49258,1.98806 -0.67344,4.04061 -1.01015,6.06091"
       id="path3239-4"
       inkscape:connector-curvature="0" />
    <path
       style="fill:none;stroke:#000000;stroke-width:1px;stroke-linecap:butt;stroke-linejoin:miter;stroke-opacity:1"
       d="m 299.00555,216.47458 c -15.46145,-2.54005 -0.41429,-1.24285 0,0 0.54036,1.62109 -5.05077,8.57987 -5.05077,8.08122 0,-2.7804 14.18161,8.06149 8.08123,11.11168 -6.22731,3.11366 -7.54218,-0.11778 -15.15229,-2.0203"
       id="path3241-5"
       inkscape:connector-curvature="0" />
    <path
       style="fill:none;stroke:#000000;stroke-width:1px;stroke-linecap:butt;stroke-linejoin:miter;stroke-opacity:1"
       d="m 304.05631,202.33245 c 18.5856,11.90212 4.68114,30.77292 2.02031,41.41625"
       id="path3245-8"
       inkscape:connector-curvature="0" />
    <path
       style="fill:none;stroke:#000000;stroke-width:1px;stroke-linecap:butt;stroke-linejoin:miter;stroke-opacity:1"
       d="m 206.42857,218.79075 c 2.65535,0.35608 4.88934,-0.35714 7.14286,-0.35714"
       id="path3300"
       inkscape:connector-curvature="0" />
    <path
       style="fill:none;stroke:#000000;stroke-width:1px;stroke-linecap:butt;stroke-linejoin:miter;stroke-opacity:1"
       d="m 259.28571,227.36218 c 1.45644,0.14472 3.33028,1.33211 0,0 z"
       id="path3302"
       inkscape:connector-curvature="0" />
    <path
       style="fill:none;stroke:#000000;stroke-width:1px;stroke-linecap:butt;stroke-linejoin:miter;stroke-opacity:1"
       d="m 202.5,217.00504 c 0,1.90476 0,1.90476 0,0 z"
       id="path3304"
       inkscape:connector-curvature="0" />
    <path
       sodipodi:type="arc"
       id="path3306"
       style="fill:#000000;stroke:none"
       sodipodi:cx="632.85712"
       sodipodi:cy="218.79076"
       sodipodi:rx="1.5"
       sodipodi:ry="1.5"
       d="m 634.35712,218.79076 c 0,0.82842 -0.67158,1.5 -1.5,1.5 -0.82843,0 -1.5,-0.67158 -1.5,-1.5 0,-0.82843 0.67157,-1.5 1.5,-1.5 0.82842,0 1.5,0.67157 1.5,1.5 z" />
    <path
       sodipodi:type="arc"
       id="path3308"
       style="fill:#000000;stroke:none"
       sodipodi:cx="685"
       sodipodi:cy="223.07648"
       sodipodi:rx="1.5"
       sodipodi:ry="1.5"
       d="m 686.5,223.07648 c 0,0.82842 -0.67157,1.5 -1.5,1.5 -0.82843,0 -1.5,-0.67158 -1.5,-1.5 0,-0.82843 0.67157,-1.5 1.5,-1.5 0.82843,0 1.5,0.67157 1.5,1.5 z" />
    <path
       sodipodi:type="arc"
       id="path3310"
       style="fill:#000000;stroke:none"
       sodipodi:cx="432.14285"
       sodipodi:cy="445.21933"
       sodipodi:rx="1.5"
       sodipodi:ry="1.5"
       d="m 433.64285,445.21933 c 0,0.82843 -0.67157,1.5 -1.5,1.5 -0.82842,0 -1.5,-0.67157 -1.5,-1.5 0,-0.82843 0.67158,-1.5 1.5,-1.5 0.82843,0 1.5,0.67157 1.5,1.5 z" />
    <path
       sodipodi:type="arc"
       id="path3312"
       style="fill:#000000;stroke:none"
       sodipodi:cx="485.71429"
       sodipodi:cy="450.21933"
       sodipodi:rx="1.5"
       sodipodi:ry="1.5"
       d="m 487.21429,450.21933 c 0,0.82843 -0.67157,1.5 -1.5,1.5 -0.82842,0 -1.5,-0.67157 -1.5,-1.5 0,-0.82843 0.67158,-1.5 1.5,-1.5 0.82843,0 1.5,0.67157 1.5,1.5 z" />
    <path
       sodipodi:type="arc"
       id="path3314"
       style="fill:#000000;stroke:none"
       sodipodi:cx="432.14285"
       sodipodi:cy="703.07648"
       sodipodi:rx="1.5"
       sodipodi:ry="1.5"
       d="m 433.64285,703.07648 c 0,0.82842 -0.67157,1.5 -1.5,1.5 -0.82842,0 -1.5,-0.67158 -1.5,-1.5 0,-0.82843 0.67158,-1.5 1.5,-1.5 0.82843,0 1.5,0.67157 1.5,1.5 z" />
    <path
       sodipodi:type="arc"
       id="path3316"
       style="fill:#000000;stroke:none"
       sodipodi:cx="482.14285"
       sodipodi:cy="704.50507"
       sodipodi:rx="1.5"
       sodipodi:ry="1.5"
       d="m 483.64285,704.50507 c 0,0.82842 -0.67157,1.5 -1.5,1.5 -0.82842,0 -1.5,-0.67158 -1.5,-1.5 0,-0.82843 0.67158,-1.5 1.5,-1.5 0.82843,0 1.5,0.67157 1.5,1.5 z" />
    <path
       style="fill:none;stroke:#ff0000;stroke-width:1px;stroke-linecap:butt;stroke-linejoin:miter;stroke-opacity:1"
       d="m 434.87067,207.67881 c -2.736,-4.51499 -2.32591,-11.20128 -3.03046,-16.41498 -2.06408,-15.27423 -3.3073,-31.27558 -2.0203,-46.71956 0.96946,-11.63357 4.92881,-22.88495 6.56599,-34.34518"
       id="path3072"
       inkscape:connector-curvature="0"
       transform="translate(113.03454,24.59374)" />
    <path
       style="fill:none;stroke:#ff0000;stroke-width:1px;stroke-linecap:butt;stroke-linejoin:miter;stroke-opacity:1"
       d="m 433.86052,104.64325 c -0.73374,2.22347 -3.41324,3.16335 -4.54569,5.05076 -6.62447,11.04077 1.94016,-4.76126 4.54569,-5.05076 2.52326,-0.28036 6.15993,6.25894 7.07106,8.08122 0.81441,1.62882 4.79717,4.10401 3.03046,4.54568 -2.81928,0.70482 -6.64482,0 -9.59645,0"
       id="path3076"
       inkscape:connector-curvature="0"
       transform="translate(113.03454,24.59374)" />
    <path
       style="fill:none;stroke:#ff0000;stroke-width:1px;stroke-linecap:butt;stroke-linejoin:miter;stroke-opacity:1"
       d="M 7.1428571,199.39286 C 7.9734733,172.09573 12.857143,142.92483 12.857143,115.10715"
       id="path3078"
       inkscape:connector-curvature="0"
       transform="translate(113.03454,24.59374)" />
    <path
       style="fill:none;stroke:#ff0000;stroke-width:1px;stroke-linecap:butt;stroke-linejoin:miter;stroke-opacity:1"
       d="M 13.571428,100.82143 C 13.157171,98.388902 4.2857143,129.63656 4.2857143,127.25 c 0,-6.0258 5.2384197,-12.85811 7.1428567,-18.57143 0.336718,-1.01015 0.83793,-3.7431 1.428572,-2.85714 8.15815,12.23723 7.106921,16.42857 -4.2857145,16.42857"
       id="path3080"
       inkscape:connector-curvature="0"
       transform="translate(113.03454,24.59374)" />
  </g>
</svg>
